<svg width="72" height="70" viewBox="0 0 72 70" fill="none" xmlns="http://www.w3.org/2000/svg">
<path fill-rule="evenodd" clip-rule="evenodd" d="M19.22 35.9199C19.22 35.9199 17.1034 22.024 20.4193 20.44C23.8085 18.8208 29.219 26.6286 29.219 26.6286L19.22 35.9199Z" fill="#EDAE5D"/>
<path d="M19.22 36.3497C19.1183 36.3481 19.0204 36.3098 18.9439 36.2416C18.8675 36.1734 18.8173 36.0798 18.8026 35.9774C18.581 34.522 16.7391 21.7149 20.2399 20.0416C23.9018 18.2902 29.3361 26.0404 29.565 26.3698C29.6225 26.4548 29.648 26.5579 29.6369 26.6604C29.6258 26.7629 29.5789 26.8579 29.5046 26.9282L19.5038 36.2194C19.4293 36.2984 19.3276 36.3451 19.22 36.3497ZM21.4172 20.6484C21.133 20.6476 20.8521 20.7112 20.5951 20.8345C18.2679 21.9513 18.9472 30.8367 19.5185 35.0654L28.655 26.5764C27.2085 24.5663 23.8286 20.6484 21.4208 20.6484H21.4172Z" fill="#1B1529"/>
<path fill-rule="evenodd" clip-rule="evenodd" d="M55.8706 35.9199C55.8706 35.9199 57.9872 22.024 54.6695 20.44C51.2822 18.8208 45.8698 26.6286 45.8698 26.6286L55.8706 35.9199Z" fill="#EDAE5D"/>
<path d="M55.8706 36.3497C55.7647 36.3499 55.6626 36.3094 55.5849 36.2362L45.586 26.945C45.5114 26.8749 45.4642 26.7799 45.4531 26.6773C45.442 26.5747 45.4677 26.4714 45.5256 26.3866C45.7545 26.0553 51.1815 18.3052 54.8489 20.0584C58.3516 21.7335 56.5078 34.5388 56.2862 35.9942C56.2743 36.0705 56.2423 36.1421 56.1937 36.2014C56.145 36.2607 56.0814 36.3056 56.0097 36.3311C55.9647 36.3453 55.9177 36.3516 55.8706 36.3497ZM46.4319 26.569L55.5666 35.0581C56.1361 30.8294 56.8172 21.9401 54.49 20.8271C52.0896 19.6825 48.0542 24.3262 46.4301 26.569H46.4319Z" fill="#1B1529"/>
<path fill-rule="evenodd" clip-rule="evenodd" d="M38.6375 18.8821C38.6375 18.8821 35.0195 22.7907 33.1189 19.0999C31.5553 16.0568 35.9478 14.7428 35.9478 14.7428C35.9478 14.7428 33.7744 10.2293 37.5444 9.6728C41.3144 9.11629 40.9683 14.6981 40.9683 14.6981C40.9683 14.6981 44.3501 14.592 44.6303 17.2759C44.9617 20.6708 41.6769 23.4626 38.6375 18.8821Z" fill="#B02F10"/>
<path d="M41.9552 21.7001C41.0965 21.7001 39.8661 21.2943 38.5697 19.5355C37.8978 20.1478 36.4147 21.298 34.9371 21.0933C34.0216 20.9667 33.2892 20.3618 32.7399 19.2972C32.2968 18.4355 32.2346 17.6091 32.5568 16.8404C33.1061 15.5375 34.6167 14.7931 35.3783 14.4897C35.0726 13.6875 34.5599 11.9584 35.2264 10.6723C35.6347 9.88873 36.3927 9.40853 37.4803 9.24846C38.4928 9.0977 39.3387 9.33222 39.9924 9.94456C41.2375 11.1115 41.3894 13.332 41.3949 14.2831C42.759 14.3724 44.817 15.0536 45.0367 17.2368C45.2345 19.193 44.3153 21.0039 42.8524 21.5437C42.5645 21.6482 42.2609 21.7011 41.9552 21.7001ZM38.6301 18.4541H38.6631C38.7261 18.4586 38.7872 18.4777 38.8418 18.51C38.8964 18.5423 38.943 18.5868 38.978 18.6402C40.1389 20.3842 41.4444 21.1473 42.5613 20.7359C43.6489 20.3339 44.3501 18.8747 44.1945 17.3225C43.9674 15.0722 41.0946 15.1281 40.9738 15.1299C40.9153 15.1316 40.857 15.1209 40.8028 15.0984C40.7486 15.076 40.6995 15.0424 40.6587 14.9997C40.6179 14.957 40.5863 14.9062 40.5658 14.8504C40.5454 14.7947 40.5365 14.7352 40.5399 14.6758C40.5399 14.646 40.6991 11.7723 39.4156 10.5811C38.9524 10.1474 38.3573 9.99109 37.5975 10.1028C36.7809 10.2237 36.2481 10.5439 35.9698 11.0799C35.2905 12.3828 36.3085 14.5399 36.3195 14.5623C36.3452 14.6189 36.3585 14.6805 36.3585 14.7428C36.3585 14.8052 36.3452 14.8667 36.3195 14.9233C36.2951 14.9804 36.2587 15.0313 36.2128 15.0725C36.1669 15.1137 36.1127 15.1441 36.054 15.1616C36.032 15.1616 33.8898 15.8279 33.324 17.1847C33.1043 17.7133 33.1555 18.2754 33.4796 18.9082C33.8989 19.7234 34.4098 20.1627 35.0433 20.2502C36.5648 20.4605 38.2987 18.6141 38.3171 18.5955C38.3575 18.5501 38.407 18.514 38.4622 18.4896C38.5175 18.4652 38.5772 18.4531 38.6375 18.4541H38.6301Z" fill="#1B1529"/>
<path fill-rule="evenodd" clip-rule="evenodd" d="M37.3466 14.0244C38.7931 13.198 40.8145 14.1416 41.2228 15.6864C41.3371 16.114 41.3407 16.5644 41.2334 16.9939C41.1261 17.4233 40.9115 17.8173 40.6103 18.1377C40.3092 18.4581 39.9317 18.6939 39.5145 18.8224C39.0973 18.9508 38.6546 18.9676 38.2292 18.871C36.5795 18.4987 34.9023 15.4221 37.3466 14.0244Z" fill="#FBCE35"/>
<path d="M38.7913 19.3679C38.5721 19.3676 38.3535 19.3433 38.1394 19.2953C37.0006 19.0385 35.9185 17.7542 35.7244 16.4328C35.5559 15.2788 36.0723 14.2682 37.1397 13.6577C37.5471 13.4348 37.9994 13.3103 38.4618 13.2939C38.9241 13.2774 39.3839 13.3694 39.8056 13.5628C40.241 13.7364 40.632 14.0082 40.9492 14.3577C41.2663 14.7071 41.5014 15.1252 41.6366 15.5803C41.7709 16.0803 41.7752 16.6071 41.649 17.1092C41.5229 17.6113 41.2707 18.0715 40.917 18.4448C40.6433 18.7379 40.3136 18.971 39.948 19.1297C39.5825 19.2885 39.1888 19.3695 38.7913 19.3679ZM38.5313 14.1565C38.1894 14.1539 37.8526 14.2411 37.5535 14.4096C36.5831 14.968 36.4769 15.7497 36.5593 16.3118C36.7003 17.2796 37.5242 18.2828 38.3207 18.4634C38.6754 18.5442 39.0447 18.5304 39.3926 18.4233C39.7406 18.3162 40.0553 18.1194 40.3063 17.8521C40.5573 17.5848 40.736 17.256 40.8251 16.8977C40.9141 16.5395 40.9105 16.1638 40.8145 15.8074C40.7135 15.479 40.5409 15.178 40.3094 14.9269C40.078 14.6759 39.7937 14.4812 39.4779 14.3575C39.1794 14.2234 38.8576 14.1513 38.5313 14.1453V14.1565Z" fill="#1B1529"/>
<path fill-rule="evenodd" clip-rule="evenodd" d="M18.971 66.3676H56.3704C56.3704 66.3676 56.5535 44.219 56.3704 39.5659C56.1489 33.9134 52.8916 26.3512 45.4926 25.5081C35.8343 24.41 30.3743 25.1712 27.1188 26.1837C23.8634 27.1962 19.0021 30.392 18.7293 39.0262C18.4217 48.8069 18.971 66.3676 18.971 66.3676Z" fill="white"/>
<path d="M18.9692 66.7957C18.8598 66.7953 18.7549 66.7518 18.6763 66.6744C18.5978 66.597 18.5518 66.4917 18.548 66.3806C18.548 66.2057 17.9988 48.699 18.3082 39.0095C18.614 29.4111 24.4859 26.556 26.998 25.7743C31.3685 24.4137 37.6066 24.1811 45.5421 25.0819C49.0063 25.4746 51.923 27.347 53.9792 30.4962C55.6435 33.0405 56.6689 36.3405 56.7934 39.5492C56.9765 44.1613 56.7934 66.1498 56.7934 66.3713C56.7905 66.4842 56.7446 66.5916 56.6654 66.6708C56.5861 66.75 56.4797 66.7947 56.3686 66.7957C56.2567 66.7947 56.1498 66.7487 56.0712 66.6678C55.9927 66.5869 55.9488 66.4776 55.9493 66.3639C55.9493 66.1424 56.1324 44.1744 55.9493 39.5846C55.7131 33.5579 52.3276 26.7161 45.4468 25.9344C37.6268 25.0447 31.5022 25.268 27.2433 26.5932C24.9052 27.3228 19.4361 29.9918 19.1504 39.0374C18.8447 48.6953 19.3848 66.1796 19.3903 66.3546C19.392 66.4108 19.3828 66.4668 19.3632 66.5194C19.3436 66.572 19.314 66.6202 19.2761 66.6611C19.2382 66.7021 19.1927 66.7351 19.1422 66.7582C19.0917 66.7812 19.0373 66.794 18.982 66.7957H18.9692Z" fill="#1B1529"/>
<path fill-rule="evenodd" clip-rule="evenodd" d="M32.1137 48.5463C32.1137 48.5463 31.233 58.3512 37.3888 58.2246C43.5848 58.0925 42.8084 48.0214 42.8084 48.0214C42.8084 48.0214 39.5713 49.9831 37.5444 46.5547C36.9117 47.3682 36.068 47.9858 35.1084 48.3377C34.1488 48.6896 33.1116 48.7618 32.1137 48.5463Z" fill="#B02F10"/>
<mask id="mask0_15_724" style="mask-type:luminance" maskUnits="userSpaceOnUse" x="32" y="46" width="11" height="13">
<path d="M32.1137 48.5463C32.1137 48.5463 31.233 58.3512 37.3888 58.2246C43.5848 58.0925 42.8084 48.0214 42.8084 48.0214C42.8084 48.0214 39.5713 49.9831 37.5444 46.5547C36.9117 47.3682 36.068 47.9858 35.1084 48.3377C34.1488 48.6896 33.1116 48.7618 32.1137 48.5463Z" fill="white"/>
</mask>
<g mask="url(#mask0_15_724)">
<path fill-rule="evenodd" clip-rule="evenodd" d="M33.5327 56.8474C33.5327 56.8474 33.952 53.365 36.7809 52.8029C39.4449 52.2743 41.1294 54.2417 41.5853 56.6612C41.5853 56.6612 39.9997 59.6615 37.3961 59.8495C34.7924 60.0375 33.5327 56.8474 33.5327 56.8474Z" fill="#FE7D7B"/>
<path d="M37.1617 60.2869C34.461 60.2869 33.1885 57.1451 33.1336 57.0074C33.1078 56.94 33.099 56.867 33.1079 56.7952C33.1263 56.6408 33.5986 52.9983 36.693 52.3823C37.2329 52.2597 37.7916 52.2487 38.3357 52.3501C38.8799 52.4515 39.3985 52.6631 39.8606 52.9723C40.9354 53.7168 41.6915 54.9917 41.9918 56.5812C42.0103 56.6776 41.9954 56.7775 41.9497 56.8641C41.8801 56.9944 40.2231 60.0747 37.418 60.2776C37.332 60.2832 37.2459 60.2869 37.1617 60.2869ZM33.9612 56.7878C34.1937 57.2996 35.3417 59.5666 37.3595 59.4214C39.3772 59.2762 40.8035 57.1377 41.1331 56.5868C40.8603 55.3137 40.2304 54.2603 39.3882 53.6833C39.0186 53.4358 38.6034 53.2674 38.1677 53.1883C37.732 53.1093 37.2851 53.1213 36.8541 53.2236C34.602 53.6721 34.0564 56.2201 33.9612 56.7878Z" fill="#1B1529"/>
<path fill-rule="evenodd" clip-rule="evenodd" d="M34.104 47.8949C34.104 47.8949 34.2468 50.5006 34.981 50.4522C35.7153 50.4038 35.5798 47.5506 35.5798 47.5506L34.104 47.8949Z" fill="white"/>
<path d="M34.9609 50.8803C34.7722 50.8781 34.591 50.8051 34.4519 50.6756C33.8477 50.1321 33.7195 48.4291 33.6829 47.9191C33.6769 47.8183 33.7065 47.7185 33.7662 47.6377C33.8259 47.557 33.9118 47.5003 34.0088 47.478L35.4846 47.1318C35.5448 47.1181 35.6073 47.1178 35.6677 47.1309C35.728 47.1441 35.7849 47.1704 35.8343 47.2081C35.8834 47.2459 35.9237 47.2941 35.9525 47.3494C35.9813 47.4047 35.9978 47.4658 36.0009 47.5283C36.0741 49.0173 35.9606 50.8171 35.0085 50.8785L34.9609 50.8803ZM34.5508 48.2299C34.624 48.9875 34.7888 49.704 34.9462 49.9572C35.0799 49.6743 35.1714 48.9074 35.1714 48.0848L34.5508 48.2299Z" fill="#1B1529"/>
<path fill-rule="evenodd" clip-rule="evenodd" d="M41.1423 47.8949C41.1423 47.8949 40.9994 50.5006 40.2634 50.4522C39.5273 50.4038 39.6665 47.5506 39.6665 47.5506L41.1423 47.8949Z" fill="white"/>
<path d="M40.2854 50.8803H40.2359C39.2857 50.8189 39.1721 49.0191 39.2454 47.5301C39.2479 47.4675 39.2642 47.4062 39.2931 47.3508C39.3219 47.2955 39.3625 47.2473 39.412 47.2099C39.461 47.1723 39.5176 47.146 39.5777 47.1328C39.6377 47.1196 39.6999 47.1199 39.7599 47.1336L41.2375 47.4798C41.3342 47.5025 41.42 47.5592 41.4797 47.6399C41.5393 47.7206 41.5689 47.8201 41.5634 47.9209C41.5359 48.4309 41.3968 50.1339 40.7925 50.6774C40.6541 50.8066 40.4733 50.8789 40.2854 50.8803ZM40.0748 48.0884C40.0748 48.9111 40.1645 49.6779 40.2982 49.9608C40.4575 49.7077 40.6204 48.9911 40.6937 48.2336L40.0748 48.0884Z" fill="#1B1529"/>
</g>
<path d="M37.2661 58.6398C35.8398 58.6398 34.6551 58.1372 33.7433 57.1508C31.1982 54.3776 31.6725 48.7474 31.6944 48.5091C31.7001 48.4497 31.7178 48.3922 31.7464 48.3401C31.775 48.288 31.814 48.2425 31.8608 48.2065C31.9076 48.1704 31.9612 48.1447 32.0183 48.1308C32.0754 48.1169 32.1347 48.1152 32.1925 48.1257C35.4443 48.7529 37.1361 46.4022 37.1983 46.3017C37.2396 46.2424 37.2946 46.1945 37.3585 46.162C37.4224 46.1295 37.4931 46.1136 37.5645 46.1156C37.6346 46.1179 37.703 46.138 37.7635 46.1741C37.8239 46.2102 37.8745 46.2611 37.9106 46.3222C39.7013 49.3504 42.488 47.7144 42.5979 47.6418C42.6596 47.6046 42.7296 47.584 42.8013 47.5819C42.873 47.5798 42.9441 47.5963 43.0078 47.6298C43.0715 47.6633 43.1258 47.7127 43.1656 47.7734C43.2053 47.8341 43.2292 47.9041 43.235 47.9768C43.2534 48.2244 43.6708 54.0463 41.0489 56.9907C40.5906 57.5123 40.0287 57.9293 39.4004 58.2142C38.772 58.4991 38.0914 58.6454 37.4034 58.6435L37.2661 58.6398ZM32.5056 49.034C32.4525 50.402 32.4616 54.493 34.3585 56.5589C35.1293 57.3965 36.1455 57.8059 37.3778 57.7817C37.9503 57.7843 38.517 57.6637 39.0405 57.428C39.564 57.1922 40.0325 56.8466 40.4153 56.4138C42.325 54.2696 42.4404 50.2047 42.4111 48.658C41.3546 49.06 39.1447 49.5161 37.5005 47.2491C36.9567 47.828 36.3033 48.2889 35.5795 48.604C34.8557 48.9191 34.0766 49.0818 33.2892 49.0824C33.028 49.0849 32.7669 49.0713 32.5074 49.0414L32.5056 49.034Z" fill="#1B1529"/>
<path d="M33.4412 49.0861C31.222 49.0861 30.2516 47.5078 30.0466 46.6479C30.0198 46.5376 30.0374 46.421 30.0952 46.3238C30.1531 46.2265 30.2466 46.1567 30.3551 46.1295C30.4636 46.1024 30.5783 46.1202 30.6739 46.179C30.7696 46.2378 30.8383 46.3328 30.865 46.4431C30.8852 46.5232 31.3612 48.3249 33.6115 48.2244C35.8947 48.1276 37.1874 46.3166 37.2002 46.298C37.244 46.2357 37.3034 46.1866 37.3723 46.1556C37.4412 46.1246 37.517 46.113 37.5918 46.122C37.6666 46.1309 37.7376 46.1601 37.7976 46.2064C37.8575 46.2527 37.9041 46.3146 37.9326 46.3855C37.9655 46.4674 38.8059 48.4235 41.4883 48.0084C43.019 47.7721 43.9491 46.2347 43.9583 46.2198C43.9868 46.1709 44.0245 46.1282 44.0692 46.0941C44.1139 46.0601 44.1648 46.0353 44.219 46.0212C44.2731 46.0071 44.3295 46.004 44.3848 46.0121C44.4401 46.0201 44.4934 46.0391 44.5414 46.0681C44.5895 46.0971 44.6315 46.1354 44.6651 46.1808C44.6986 46.2263 44.723 46.278 44.7368 46.3331C44.7507 46.3881 44.7537 46.4454 44.7458 46.5017C44.7379 46.5579 44.7192 46.612 44.6907 46.6609C44.6449 46.7391 43.5518 48.5594 41.6238 48.8572C39.271 49.2294 38.0278 48.0289 37.4913 47.277C36.488 48.3569 35.1146 49.0034 33.6554 49.0824L33.4412 49.0861Z" fill="#1B1529"/>
<path fill-rule="evenodd" clip-rule="evenodd" d="M34.9975 43.428C34.8986 42.3429 35.913 41.7119 37.4345 41.7119C39.1557 41.7119 40.0528 42.2498 40.1114 43.0892C40.1828 44.1036 39.3186 44.7773 37.7055 44.8146C35.7647 44.8667 35.0781 44.4144 34.9975 43.428Z" fill="#1B1529"/>
<path d="M37.5444 46.9754C37.4325 46.9754 37.3252 46.9304 37.246 46.8502C37.1667 46.7699 37.1219 46.6611 37.1214 46.5474V43.9361C37.1176 43.8773 37.1257 43.8185 37.1452 43.763C37.1647 43.7076 37.1952 43.6569 37.2347 43.6139C37.2743 43.571 37.3221 43.5367 37.3752 43.5133C37.4283 43.4899 37.4856 43.4778 37.5435 43.4778C37.6014 43.4778 37.6586 43.4899 37.7117 43.5133C37.7648 43.5367 37.8127 43.571 37.8522 43.6139C37.8918 43.6569 37.9223 43.7076 37.9417 43.763C37.9612 43.8185 37.9693 43.8773 37.9655 43.9361V46.5418C37.9662 46.5985 37.9559 46.6547 37.935 46.7073C37.9142 46.7599 37.8833 46.8077 37.8441 46.8481C37.8049 46.8884 37.7583 46.9205 37.7068 46.9423C37.6554 46.9642 37.6002 46.9754 37.5444 46.9754Z" fill="#1B1529"/>
<path d="M27.3386 40.7441C27.2832 40.7439 27.2284 40.7325 27.1774 40.7106C27.1264 40.6887 27.0801 40.6568 27.0413 40.6167C27.0025 40.5765 26.9719 40.5289 26.9512 40.4767C26.9306 40.4245 26.9204 40.3686 26.9211 40.3123C26.9211 40.2137 26.9467 37.8555 28.2028 36.7015C28.4605 36.4642 28.766 36.2866 29.0979 36.1812C29.4299 36.0758 29.7805 36.045 30.1253 36.091C32.5971 36.333 33.1372 38.9462 33.0787 40.2937C33.072 40.4069 33.0222 40.5131 32.9398 40.5895C32.8574 40.666 32.7489 40.7068 32.6374 40.7032C32.5821 40.7005 32.5278 40.6868 32.4777 40.6629C32.4276 40.6389 32.3826 40.6051 32.3453 40.5634C32.3081 40.5218 32.2793 40.473 32.2606 40.4201C32.2419 40.3671 32.2337 40.3108 32.2364 40.2546C32.2364 40.1299 32.3353 37.1687 30.0392 36.9435C29.8104 36.9099 29.577 36.9276 29.3556 36.9954C29.1342 37.0633 28.93 37.1796 28.7576 37.3362C27.778 38.2333 27.7524 40.2974 27.7524 40.3142C27.7529 40.4268 27.7097 40.535 27.6323 40.6155C27.5548 40.6959 27.4493 40.7422 27.3386 40.7441Z" fill="#1B1529"/>
<path d="M47.3218 40.7441H47.2687C47.1579 40.7297 47.0572 40.6713 46.9886 40.5817C46.9199 40.4921 46.889 40.3785 46.9025 40.2658C46.9025 40.2472 47.0746 38.7396 46.2909 37.7717C45.8973 37.2841 45.3095 37.0068 44.546 36.9491C44.3172 36.9192 44.0847 36.9412 43.8653 37.0136C43.6459 37.086 43.445 37.207 43.2771 37.3678C42.3617 38.2631 42.4276 40.2416 42.4276 40.2621C42.4297 40.3183 42.421 40.3744 42.4018 40.4271C42.3827 40.4799 42.3535 40.5284 42.3159 40.5697C42.2783 40.611 42.2331 40.6443 42.1828 40.6679C42.1326 40.6914 42.0782 40.7047 42.0229 40.7069C41.9676 40.7091 41.9125 40.7002 41.8605 40.6807C41.8086 40.6612 41.761 40.6316 41.7203 40.5934C41.6797 40.5552 41.6469 40.5092 41.6237 40.4581C41.6005 40.407 41.5875 40.3518 41.5853 40.2955C41.5853 40.1988 41.5048 37.9188 42.6839 36.7592C42.9366 36.5129 43.2395 36.3261 43.571 36.2119C43.9026 36.0977 44.2548 36.059 44.6028 36.0985C45.608 36.1748 46.3953 36.5582 46.9409 37.2376C47.9535 38.4958 47.7447 40.3011 47.7337 40.3774C47.7197 40.4786 47.6704 40.5713 47.5948 40.6386C47.5192 40.7059 47.4223 40.7433 47.3218 40.7441Z" fill="#1B1529"/>
<path d="M28.0838 34.1907C28.0466 34.1912 28.0096 34.1862 27.9739 34.1758C27.8661 34.1461 27.7743 34.0742 27.7187 33.9758C27.6631 33.8773 27.6482 33.7605 27.6773 33.6509C27.819 33.0756 28.1452 32.5647 28.6045 32.199C29.0637 31.8333 29.6298 31.6336 30.2132 31.6315C31.3502 31.6315 32.2877 32.3871 32.5934 33.556C32.6204 33.6648 32.6042 33.7801 32.5484 33.8769C32.4925 33.9738 32.4015 34.0444 32.2949 34.0737C32.1883 34.103 32.0747 34.0886 31.9785 34.0335C31.8822 33.9784 31.8112 33.8872 31.7805 33.7793C31.5644 32.9716 30.9767 32.4895 30.2077 32.4895C29.8101 32.4925 29.4248 32.6304 29.113 32.8812C28.8012 33.1321 28.5808 33.4815 28.4866 33.8742C28.462 33.9641 28.4096 34.0435 28.3369 34.1006C28.2643 34.1576 28.1755 34.1892 28.0838 34.1907Z" fill="#1B1529"/>
<path d="M42.9311 34.0846C42.894 34.0851 42.8569 34.0801 42.8212 34.0697C42.7677 34.0552 42.7176 34.0302 42.6737 33.9959C42.6297 33.9616 42.593 33.9189 42.5654 33.8701C42.5378 33.8213 42.52 33.7674 42.513 33.7116C42.506 33.6558 42.51 33.5991 42.5246 33.5448C42.6663 32.9695 42.9926 32.4587 43.4518 32.0929C43.9111 31.7272 44.4771 31.5275 45.0605 31.5254C46.1976 31.5254 47.1332 32.2811 47.4408 33.4499C47.4699 33.5597 47.4549 33.6768 47.3991 33.7754C47.3433 33.8741 47.2513 33.9461 47.1433 33.9757C47.0352 34.0053 46.92 33.9901 46.823 33.9334C46.726 33.8767 46.6551 33.7831 46.626 33.6733C46.41 32.8655 45.8222 32.3834 45.055 32.3834C44.6573 32.3867 44.2719 32.5246 43.9599 32.7754C43.6479 33.0261 43.4269 33.3755 43.3321 33.7682C43.3085 33.8582 43.2565 33.9379 43.1841 33.9951C43.1116 34.0522 43.0228 34.0836 42.9311 34.0846Z" fill="#1B1529"/>
<path fill-rule="evenodd" clip-rule="evenodd" d="M22.0709 45.239C21.9811 43.4392 23.9018 42.4006 25.3794 42.9031C26.857 43.4057 27.3514 44.5094 26.9028 46.0672C26.3169 48.1015 22.232 48.5166 22.0709 45.239Z" fill="#FE7D7B"/>
<path fill-rule="evenodd" clip-rule="evenodd" d="M48.0285 45.239C47.9388 43.4392 49.8503 42.4006 51.3371 42.9031C52.8238 43.4057 53.3072 44.5094 52.8586 46.0672C52.2746 48.1015 48.1897 48.5166 48.0285 45.239Z" fill="#FE7D7B"/>
<path d="M32.3957 43.936H32.3536L28.644 43.547C28.5904 43.5414 28.5384 43.5251 28.491 43.4991C28.4436 43.473 28.4017 43.4377 28.3677 43.3952C28.3336 43.3527 28.3082 43.3038 28.2928 43.2513C28.2774 43.1988 28.2723 43.1437 28.2778 43.0892C28.2834 43.0347 28.2994 42.9818 28.325 42.9336C28.3507 42.8854 28.3854 42.8428 28.4272 42.8082C28.469 42.7737 28.5172 42.7478 28.5688 42.7321C28.6205 42.7165 28.6746 42.7113 28.7283 42.7169L32.4378 43.1059C32.5431 43.116 32.6405 43.1671 32.7096 43.2484C32.7787 43.3297 32.8143 43.4351 32.8089 43.5424C32.8034 43.6498 32.7574 43.7508 32.6804 43.8245C32.6034 43.8982 32.5014 43.9388 32.3957 43.9379V43.936Z" fill="#EDAE5D"/>
<path d="M28.6862 45.9257C28.583 45.9228 28.4848 45.8805 28.411 45.8072C28.3372 45.734 28.2932 45.6351 28.2879 45.5304C28.2826 45.4257 28.3163 45.3228 28.3823 45.2422C28.4483 45.1616 28.5418 45.1093 28.644 45.0956L32.3536 44.7066C32.4086 44.6978 32.4648 44.7005 32.5187 44.7145C32.5727 44.7285 32.6233 44.7535 32.6674 44.7881C32.7116 44.8226 32.7483 44.8659 32.7755 44.9153C32.8026 44.9647 32.8195 45.0193 32.8253 45.0756C32.831 45.1319 32.8254 45.1888 32.8088 45.2428C32.7922 45.2969 32.7649 45.3469 32.7286 45.3899C32.6924 45.4328 32.6479 45.4679 32.5979 45.4928C32.5479 45.5177 32.4934 45.532 32.4378 45.5348L28.7283 45.9239L28.6862 45.9257Z" fill="#EDAE5D"/>
<path d="M42.8084 43.9361C42.7027 43.937 42.6007 43.8964 42.5237 43.8227C42.4467 43.749 42.4007 43.6479 42.3953 43.5406C42.3898 43.4333 42.4254 43.3279 42.4946 43.2466C42.5637 43.1652 42.6611 43.1142 42.7663 43.1041L46.4759 42.7151C46.5295 42.7095 46.5837 42.7146 46.6353 42.7303C46.687 42.746 46.7351 42.7718 46.7769 42.8064C46.8188 42.841 46.8535 42.8836 46.8791 42.9318C46.9047 42.98 46.9208 43.0328 46.9263 43.0873C46.9318 43.1418 46.9267 43.1969 46.9113 43.2494C46.8959 43.302 46.8705 43.3509 46.8365 43.3934C46.8025 43.4359 46.7606 43.4712 46.7131 43.4972C46.6657 43.5233 46.6137 43.5396 46.5601 43.5452L42.8506 43.9342L42.8084 43.9361Z" fill="#EDAE5D"/>
<path d="M46.518 45.9257H46.4759L42.7663 45.5367C42.7107 45.5338 42.6562 45.5195 42.6062 45.4946C42.5562 45.4697 42.5118 45.4347 42.4755 45.3917C42.4392 45.3487 42.412 45.2987 42.3954 45.2446C42.3788 45.1906 42.3731 45.1337 42.3789 45.0774C42.3846 45.0211 42.4015 44.9666 42.4287 44.9171C42.4558 44.8677 42.4926 44.8244 42.5367 44.7899C42.5808 44.7554 42.6314 44.7303 42.6854 44.7163C42.7393 44.7023 42.7955 44.6996 42.8505 44.7084L46.5601 45.0974C46.6624 45.1111 46.7558 45.1634 46.8218 45.244C46.8878 45.3246 46.9215 45.4275 46.9162 45.5322C46.9109 45.637 46.8669 45.7358 46.7931 45.8091C46.7193 45.8823 46.6211 45.9246 46.518 45.9275V45.9257Z" fill="#EDAE5D"/>
<path fill-rule="evenodd" clip-rule="evenodd" d="M20.9741 49.9646C20.9741 49.9646 13.6612 53.4581 10.1421 53.5437C6.62295 53.6293 6.87746 51.2935 4.88353 52.1143C2.24327 53.2013 4.59789 55.2989 4.59789 55.2989C4.59789 55.2989 1.93749 54.5544 1.31495 56.8939C0.765663 58.9729 3.58536 59.2689 3.58536 59.2689C3.58536 59.2689 0.65581 60.0394 1.47975 62.0774C2.53072 64.7055 5.12155 62.5037 5.12155 62.5037C5.12155 62.5037 4.52099 65.0963 6.51492 65.5468C8.50885 65.9972 9.18997 64.136 9.50307 62.9411C9.86926 61.5079 11.9474 61.7368 15.0674 61.1692C16.3948 60.9272 18.9234 61.0314 21.2048 59.6802C21.7614 58.2359 20.9741 49.9646 20.9741 49.9646Z" fill="white"/>
<path d="M7.11547 66.0474C6.88188 66.0464 6.64914 66.0189 6.42154 65.9655C6.13509 65.9096 5.86297 65.7946 5.62204 65.6275C5.38111 65.4603 5.17649 65.2447 5.02085 64.994C4.73967 64.4945 4.59964 63.9258 4.6162 63.3505C4.06691 63.6446 3.31804 63.92 2.59115 63.7358C1.92467 63.5664 1.41932 63.0639 1.08975 62.2468C0.969089 61.9772 0.908799 61.6838 0.913232 61.3877C0.917665 61.0916 0.986713 60.8002 1.11538 60.5345C1.39088 60.038 1.80077 59.6323 2.29636 59.3656C1.83547 59.1857 1.43423 58.8765 1.13919 58.4741C0.977717 58.2291 0.873056 57.95 0.833094 57.6579C0.793131 57.3658 0.818909 57.0683 0.908483 56.7878C1.21059 55.6562 1.9796 54.9713 3.13128 54.8038C3.28796 54.7825 3.44565 54.7701 3.60367 54.7665C3.3071 54.3322 3.17687 53.8027 3.23747 53.2776C3.34733 52.615 3.84902 52.0938 4.72972 51.7328C5.90703 51.2488 6.52407 51.716 7.12097 52.1664C7.71786 52.6168 8.45208 53.1678 10.1366 53.1305C13.5294 53.0468 20.7269 49.6258 20.8002 49.5942C20.9014 49.5448 21.0178 49.5384 21.1237 49.5763C21.2297 49.6141 21.3164 49.6932 21.365 49.7961C21.4136 49.8991 21.4199 50.0174 21.3827 50.1251C21.3454 50.2327 21.2676 50.321 21.1664 50.3703C20.8642 50.5136 13.7326 53.9067 10.164 53.9886C8.18659 54.0388 7.28392 53.3539 6.6266 52.8569C6.07731 52.4363 5.78986 52.226 5.0538 52.5294C4.4624 52.7713 4.13831 53.0728 4.07606 53.4227C3.97536 54.0239 4.64549 54.7759 4.88901 54.9918C4.96482 55.0547 5.01679 55.1425 5.03607 55.24C5.05535 55.3376 5.04073 55.4389 4.99472 55.5268C4.94871 55.6146 4.87415 55.6835 4.78375 55.7217C4.69336 55.7599 4.59272 55.765 4.49902 55.7362C4.4093 55.7121 2.23777 55.1444 1.73425 57.0391C1.67883 57.1993 1.66008 57.3702 1.67944 57.5389C1.69879 57.7076 1.75574 57.8696 1.84594 58.0125C2.24326 58.6044 3.27593 58.837 3.64212 58.8761C3.74082 58.8861 3.83287 58.9312 3.90207 59.0034C3.97127 59.0756 4.01319 59.1704 4.02041 59.2709C4.02763 59.3715 3.9997 59.4714 3.94155 59.5531C3.88341 59.6347 3.79877 59.693 3.70255 59.7174C3.31438 59.8216 2.22678 60.2441 1.87158 60.9458C1.79816 61.1028 1.76007 61.2745 1.76007 61.4483C1.76007 61.6222 1.79816 61.7939 1.87158 61.9509C2.09678 62.5092 2.3989 62.8368 2.78706 62.9373C3.53959 63.1234 4.52832 62.4757 4.8469 62.2077C4.91484 62.1502 4.99888 62.1158 5.08711 62.1095C5.17533 62.1032 5.26327 62.1253 5.33844 62.1727C5.41361 62.2201 5.4722 62.2903 5.5059 62.3734C5.5396 62.4565 5.5467 62.5483 5.52619 62.6358C5.52619 62.647 5.26436 63.8214 5.73126 64.5752C5.82858 64.7288 5.95606 64.8603 6.10572 64.9616C6.25538 65.0628 6.42398 65.1315 6.60097 65.1634C7.83321 65.4425 8.60039 64.7315 9.08926 62.861C9.43898 61.5228 10.8433 61.346 12.7878 61.1003C13.4415 61.0165 14.1812 60.9142 14.985 60.7764C15.3201 60.715 15.7174 60.6778 16.1605 60.6331C17.4989 60.501 19.3317 60.3204 20.9869 59.3452C21.035 59.3169 21.0881 59.2986 21.1432 59.2912C21.1982 59.2839 21.2541 59.2876 21.3078 59.3022C21.3614 59.3168 21.4117 59.342 21.4558 59.3763C21.4998 59.4107 21.5368 59.4535 21.5646 59.5024C21.5924 59.5513 21.6104 59.6053 21.6176 59.6612C21.6249 59.7172 21.6212 59.7741 21.6069 59.8286C21.5925 59.8831 21.5677 59.9343 21.5339 59.9791C21.5001 60.0238 21.458 60.0614 21.4099 60.0897C19.5954 61.1599 17.6564 61.3497 16.2429 61.4893C15.8089 61.5321 15.4354 61.5693 15.1333 61.6233C14.3057 61.7741 13.5532 61.8708 12.8904 61.9546C11.01 62.191 10.0981 62.338 9.90405 63.0844C9.38954 65.0424 8.44842 66.0474 7.11547 66.0474Z" fill="#1B1529"/>
<path fill-rule="evenodd" clip-rule="evenodd" d="M7.00195 64.0372C6.26041 64.0093 5.96746 62.766 6.67604 62.3621C7.38463 61.9583 8.06941 62.2486 8.14082 62.8498C8.21223 63.451 7.8149 64.0596 7.00195 64.0372Z" fill="#FE7D7B"/>
<path fill-rule="evenodd" clip-rule="evenodd" d="M3.48649 62.0997C2.7541 62.0067 2.57101 60.741 3.3034 60.3986C4.03578 60.0561 4.70226 60.4097 4.7224 61.0146C4.74254 61.6195 4.29395 62.204 3.48649 62.0997Z" fill="#FE7D7B"/>
<path fill-rule="evenodd" clip-rule="evenodd" d="M2.75044 57.8823C2.20115 57.3816 2.75044 56.2313 3.54691 56.3728C4.34338 56.5143 4.69677 57.1843 4.37635 57.6943C4.05593 58.2043 3.36016 58.4295 2.75044 57.8823Z" fill="#FE7D7B"/>
<path fill-rule="evenodd" clip-rule="evenodd" d="M5.09591 53.9103C5.05013 53.1658 6.23843 52.7377 6.70899 53.4134C7.17955 54.089 6.958 54.813 6.37759 54.9451C5.79717 55.0773 5.15267 54.7311 5.09591 53.9103Z" fill="#FE7D7B"/>
<path fill-rule="evenodd" clip-rule="evenodd" d="M8.79448 61.1337C8.06209 61.5693 5.25887 60.0356 5.14718 58.4573C5.03549 56.879 7.44322 54.921 8.27448 55.2932C9.10574 55.6655 8.95927 56.8846 9.08011 58.0851C9.1918 59.1981 10.1512 60.3241 8.79448 61.1337Z" fill="#FE7D7B"/>
<path fill-rule="evenodd" clip-rule="evenodd" d="M55.6875 48.3807C55.6875 48.3807 60.8984 54.6567 64.0605 56.2276C67.2226 57.7985 67.9513 55.5706 69.4271 57.1582C71.3789 59.2651 68.378 60.1715 68.378 60.1715C68.378 60.1715 71.0969 60.6313 70.7051 63.0155C70.3572 65.141 67.6675 64.2104 67.6675 64.2104C67.6675 64.2104 70.0057 66.1498 68.4255 67.6574C66.3913 69.5986 64.9467 66.4978 64.9467 66.4978C64.9467 66.4978 64.4285 69.1035 62.4328 68.6717C60.437 68.2399 60.5798 66.2521 60.7849 65.0312C61.0339 63.5701 59.0583 62.9001 56.4565 61.0593C55.3579 60.2758 53.0088 59.2986 51.4872 57.108C51.5825 55.5594 55.6875 48.3807 55.6875 48.3807Z" fill="white"/>
<path d="M62.8722 69.1538C62.6948 69.1536 62.518 69.1337 62.3449 69.0943C60.6348 68.722 59.9646 67.3317 60.3748 64.9623C60.5048 64.2029 59.7358 63.6818 58.1245 62.6674C57.5569 62.3101 56.9124 61.9043 56.2221 61.4148C55.9713 61.2287 55.6472 61.0426 55.2719 60.8248C54.8965 60.6071 54.4845 60.3577 54.0543 60.0803C53.9603 60.0186 53.8943 59.9215 53.8708 59.8104C53.8473 59.6992 53.8681 59.5831 53.9288 59.4875C53.9895 59.392 54.0851 59.3249 54.1944 59.301C54.3038 59.2771 54.418 59.2983 54.512 59.36C54.9276 59.6336 55.3359 59.8756 55.6966 60.0897C56.0866 60.3204 56.429 60.5196 56.7037 60.7169C57.3757 61.1915 58.0092 61.5917 58.5694 61.9434C60.2338 62.9932 61.4386 63.7507 61.206 65.1075C60.882 67.0171 61.2866 67.9868 62.5225 68.2567C62.6967 68.3029 62.8784 68.3118 63.0561 68.283C63.2339 68.2541 63.4038 68.1882 63.5552 68.0892C64.2876 67.6053 64.5329 66.4271 64.5366 66.4141C64.5542 66.3261 64.5986 66.246 64.6635 66.1851C64.7283 66.1242 64.8104 66.0856 64.898 66.0747C64.9857 66.0638 65.0745 66.0811 65.1519 66.1243C65.2293 66.1675 65.2914 66.2344 65.3294 66.3154C65.5125 66.6877 66.1387 67.7058 66.9004 67.8509C67.3013 67.9273 67.7097 67.7616 68.1454 67.3466C68.2768 67.2355 68.3822 67.0959 68.4538 66.9381C68.5254 66.7803 68.5614 66.6083 68.5592 66.4346C68.5336 65.651 67.7188 64.8041 67.4075 64.5436C67.3243 64.4824 67.2659 64.3924 67.2434 64.2905C67.2209 64.1886 67.2358 64.0819 67.2853 63.9904C67.3348 63.8989 67.4155 63.8289 67.5122 63.7937C67.6089 63.7585 67.7149 63.7604 67.8103 63.7991C68.1582 63.9182 69.1909 64.1452 69.797 63.7767C69.9374 63.6849 70.0554 63.5618 70.1421 63.4166C70.2287 63.2715 70.2816 63.1082 70.2968 62.9392C70.6136 61.0128 68.4091 60.6052 68.3157 60.5903C68.2217 60.5735 68.136 60.5251 68.0723 60.4529C68.0086 60.3806 67.9705 60.2888 67.9642 60.192C67.9586 60.0956 67.9852 60.0002 68.0397 59.9211C68.0942 59.842 68.1734 59.784 68.2644 59.7565C68.5977 59.6541 69.4948 59.2614 69.6486 58.6733C69.7384 58.3308 69.5626 57.9176 69.1268 57.4467C68.5775 56.8586 68.2406 56.933 67.5632 57.0745C66.7612 57.2457 65.6608 57.4839 63.8829 56.5999C60.6769 55.0066 55.5886 48.9018 55.3726 48.6431C55.3365 48.6001 55.3091 48.5503 55.292 48.4965C55.2749 48.4427 55.2683 48.3861 55.2727 48.3297C55.2772 48.2734 55.2925 48.2185 55.3178 48.1681C55.3431 48.1178 55.3779 48.073 55.4202 48.0364C55.4625 47.9997 55.5115 47.9719 55.5644 47.9545C55.6173 47.937 55.6731 47.9304 55.7285 47.9349C55.7839 47.9394 55.8379 47.9549 55.8874 47.9807C55.937 48.0064 55.981 48.0417 56.0171 48.0848C56.0702 48.1462 61.2079 54.3105 64.2564 55.8256C65.7707 56.5701 66.6367 56.384 67.3911 56.2295C68.1235 56.0731 68.8723 55.9112 69.742 56.8493C70.3939 57.5528 70.6374 58.2377 70.4744 58.8966C70.3124 59.4028 69.9729 59.8308 69.5205 60.0989C69.663 60.1685 69.8012 60.2468 69.9343 60.3335C70.9139 60.9737 71.3295 61.9229 71.1409 63.0806C71.1062 63.3732 71.007 63.654 70.8507 63.9021C70.6944 64.1502 70.4851 64.3593 70.2382 64.5138C69.8039 64.7531 69.3123 64.864 68.8192 64.8339C69.1609 65.2854 69.367 65.8277 69.4124 66.3955C69.4204 66.6918 69.3636 66.9862 69.2461 67.2575C69.1287 67.5288 68.9535 67.7703 68.7332 67.9645C68.096 68.5731 67.4295 68.8169 66.7539 68.6866C66.0215 68.5452 65.4447 67.9738 65.0712 67.4768C64.8503 68.007 64.489 68.4644 64.0276 68.7983C63.6864 69.0323 63.2837 69.1562 62.8722 69.1538Z" fill="#1B1529"/>
<path fill-rule="evenodd" clip-rule="evenodd" d="M62.614 67.0898C63.2988 67.3782 64.0788 66.3732 63.6009 65.7013C63.1231 65.0294 62.3815 65.007 62.0684 65.5151C61.7553 66.0233 61.8633 66.7715 62.614 67.0898Z" fill="#FE7D7B"/>
<path fill-rule="evenodd" clip-rule="evenodd" d="M66.6019 66.8292C67.3087 67.0544 67.9953 65.9842 67.4625 65.3588C66.9297 64.7334 66.1808 64.7744 65.9208 65.316C65.6608 65.8576 65.8256 66.5798 66.6019 66.8292Z" fill="#FE7D7B"/>
<path fill-rule="evenodd" clip-rule="evenodd" d="M69.0023 63.3077C69.7109 63.0881 69.6853 61.8187 68.8979 61.5991C68.1106 61.3795 67.521 61.8485 67.6016 62.4478C67.6822 63.0471 68.2241 63.5459 69.0023 63.3077Z" fill="#FE7D7B"/>
<path fill-rule="evenodd" clip-rule="evenodd" d="M68.5043 58.703C68.854 58.0386 67.955 57.1545 67.2427 57.5677C66.5305 57.9809 66.4426 58.7328 66.915 59.0995C67.3874 59.4661 68.1179 59.4326 68.5043 58.703Z" fill="#FE7D7B"/>
<path fill-rule="evenodd" clip-rule="evenodd" d="M62.1746 63.6967C62.658 64.4021 65.8366 64.1992 66.5891 62.8145C67.3416 61.4297 65.9556 58.6211 65.0437 58.6156C64.1319 58.61 63.7621 59.7714 63.1652 60.8137C62.6067 61.7741 61.2738 62.3864 62.1746 63.6967Z" fill="#FE7D7B"/>
<path fill-rule="evenodd" clip-rule="evenodd" d="M47.2376 10.5457C46.6883 8.88734 48.3526 7.68499 49.984 8.10562C49.984 8.10562 48.2226 4.60652 51.1485 4.30686C54.0744 4.0072 53.6331 7.65706 53.6331 7.65706C53.6331 7.65706 55.9585 5.58181 57.3445 7.2476C58.7306 8.9134 58.357 11.6457 55.5868 11.5898C55.5868 11.5898 57.0992 14.8823 54.285 15.4537C51.4708 16.0251 51.1815 12.3846 51.1815 12.3846C51.1815 12.3846 48.2501 13.5758 47.2376 10.5457Z" fill="#FE7D7B"/>
<path d="M53.7027 15.9432C53.155 15.9518 52.6202 15.7743 52.183 15.4388C51.3133 14.7706 50.9672 13.6055 50.8354 12.9336C50.0674 13.1263 49.2587 13.061 48.5302 12.7475C47.7447 12.3753 47.1753 11.681 46.8384 10.6741C46.7009 10.297 46.6691 9.88843 46.7467 9.49404C46.8243 9.09966 47.0082 8.73496 47.2778 8.44063C47.5422 8.16333 47.8599 7.94423 48.2111 7.79695C48.5623 7.64967 48.9395 7.57734 49.3194 7.58445C49.0795 6.8716 48.8415 5.76605 49.2901 4.9285C49.6178 4.31616 50.2275 3.96065 51.1046 3.86945C51.9816 3.77825 52.714 4.00346 53.2321 4.54321C53.8455 5.17975 54.025 6.11596 54.0652 6.80647C54.6145 6.47145 55.3872 6.1085 56.1727 6.16806C56.4616 6.18908 56.7432 6.27033 56.9999 6.40673C57.2567 6.54314 57.483 6.73178 57.6649 6.96094C58.5438 8.01998 58.7946 9.45872 58.2893 10.5382C58.0568 11.0315 57.4892 11.815 56.18 11.9788C56.3814 12.6358 56.592 13.7302 56.1507 14.618C55.8248 15.2713 55.2243 15.6901 54.3655 15.8651C54.1477 15.9133 53.9257 15.9394 53.7027 15.9432ZM51.1796 11.9565C51.2585 11.9571 51.3358 11.9796 51.403 12.0216C51.4587 12.0568 51.5054 12.1047 51.5394 12.1616C51.5735 12.2185 51.5939 12.2828 51.5989 12.3492C51.5989 12.366 51.7491 14.0243 52.6975 14.7558C53.104 15.0666 53.5965 15.1578 54.2044 15.0331C54.8123 14.9084 55.1968 14.6608 55.4018 14.2402C55.8028 13.4343 55.4019 12.1929 55.2059 11.7704C55.1757 11.7044 55.1625 11.6316 55.1676 11.559C55.1728 11.4863 55.196 11.4162 55.2352 11.3553C55.2762 11.2957 55.3311 11.2474 55.395 11.2149C55.459 11.1824 55.53 11.1667 55.6014 11.1692C56.559 11.1896 57.2255 10.8472 57.5368 10.1865C57.903 9.41591 57.6887 8.32523 57.0296 7.53235C56.919 7.39024 56.7805 7.27314 56.6228 7.18853C56.4652 7.10392 56.2919 7.05367 56.1141 7.04099C55.0778 6.95909 53.9169 7.97159 53.9169 7.98648C53.8529 8.04353 53.7733 8.07952 53.6888 8.08967C53.6042 8.09983 53.5186 8.08369 53.4432 8.04337C53.3679 8.00305 53.3063 7.94045 53.2667 7.86384C53.227 7.78723 53.2112 7.7002 53.2212 7.61423C53.2212 7.59934 53.4043 5.95589 52.6371 5.15929C52.3038 4.8131 51.8315 4.67724 51.1979 4.74238C50.6084 4.80194 50.2294 5.00294 50.0408 5.35657C49.6343 6.11409 50.1396 7.46348 50.3667 7.91948C50.4037 7.99274 50.4191 8.0753 50.4111 8.15724C50.4031 8.23919 50.372 8.31705 50.3215 8.38149C50.2711 8.44593 50.2034 8.4942 50.1267 8.52054C50.0499 8.54687 49.9673 8.55015 49.8888 8.52997C49.1564 8.34384 48.3563 8.54671 47.9059 9.03994C47.7381 9.22061 47.6247 9.44625 47.579 9.69028C47.5332 9.9343 47.5571 10.1865 47.6477 10.4172C47.9059 11.1915 48.3215 11.7201 48.8873 11.9844C49.8723 12.4497 51.0222 11.9993 51.0331 11.9956C51.0792 11.9734 51.1289 11.9602 51.1796 11.9565Z" fill="#1B1529"/>
<path fill-rule="evenodd" clip-rule="evenodd" d="M50.7439 9.63188C50.8995 8.47978 52.606 7.26068 54.2905 8.46861C55.9749 9.67654 55.3469 11.5136 53.6569 11.8486C51.967 12.1836 50.504 11.3647 50.7439 9.63188Z" fill="#FBCE35"/>
<path d="M52.9172 12.3511C52.2004 12.3786 51.5004 12.1254 50.9617 11.6438C50.6973 11.3778 50.5007 11.0504 50.3887 10.6898C50.2767 10.3292 50.2528 9.94624 50.3191 9.57414C50.4198 8.82965 50.9965 8.11309 51.7839 7.76318C52.6664 7.37418 53.6643 7.50261 54.5303 8.11868C55.4202 8.75708 55.8413 9.65977 55.6582 10.5383C55.4751 11.4168 54.7427 12.0775 53.7338 12.2766C53.4647 12.3284 53.1912 12.3533 52.9172 12.3511ZM52.8367 8.3997C52.5916 8.39946 52.3491 8.4508 52.1244 8.55047C51.6136 8.77568 51.2089 9.24471 51.154 9.6914C51.0789 10.2498 51.2089 10.702 51.5403 11.0203C51.9798 11.441 52.736 11.5936 53.5691 11.4279C54.2337 11.2958 54.7171 10.8826 54.8288 10.3521C54.9405 9.8217 54.6457 9.25959 54.0396 8.81848C53.6922 8.55331 53.2711 8.40672 52.8367 8.3997Z" fill="#1B1529"/>
<path fill-rule="evenodd" clip-rule="evenodd" d="M23.3452 1.90218C24.9931 0.349918 26.998 1.97289 27.1481 3.67777C27.1481 3.67777 29.8122 0.828235 31.0609 3.53632C32.3096 6.2444 29.0468 7.16943 29.0468 7.16943C29.0468 7.16943 31.8116 9.08277 30.724 10.9626C29.6364 12.8424 26.6263 12.8797 25.7621 10.2032C25.7621 10.2032 23.1987 12.7457 21.7339 10.233C20.2692 7.72037 23.5649 6.24068 23.5649 6.24068C23.5649 6.24068 21.0363 4.07423 23.3452 1.90218Z" fill="#F0982A"/>
<path d="M28.406 12.7326C28.2943 12.7326 28.1826 12.7326 28.0691 12.714C27.5396 12.6516 27.0345 12.4527 26.6019 12.1361C26.1693 11.8194 25.8235 11.3956 25.5973 10.9049C25.048 11.3163 24.1069 11.8802 23.1346 11.7518C22.4206 11.655 21.8328 11.2195 21.3861 10.4489C20.9393 9.67837 20.8368 8.94133 21.0675 8.21545C21.3879 7.19922 22.2942 6.49569 22.8801 6.13461C22.4938 5.67489 21.9756 4.88758 21.9537 3.93836C21.9335 3.08778 22.3052 2.29676 23.0522 1.58763C23.7993 0.878504 24.7349 0.657026 25.6357 1.01438C26.0394 1.18352 26.4039 1.43641 26.7059 1.75689C27.008 2.07738 27.2409 2.45841 27.3898 2.87561C27.9702 2.40844 28.9223 1.80912 29.8506 1.9636C30.5281 2.07527 31.0609 2.54243 31.4344 3.35207C31.8281 4.20637 31.8647 4.99926 31.5461 5.70838C31.1799 6.51057 30.4366 7.01124 29.8745 7.29229C30.7057 8.03678 32.0112 9.57973 31.0847 11.1785C30.8095 11.6518 30.4178 12.0441 29.9481 12.3166C29.4783 12.5891 28.9469 12.7325 28.406 12.7326ZM25.7676 9.77515C25.801 9.77489 25.8342 9.77929 25.8665 9.7882C25.9362 9.80488 26.0007 9.83946 26.0536 9.88866C26.1065 9.93787 26.146 10 26.1686 10.0692C26.5018 11.1059 27.2287 11.7592 28.1607 11.8616C28.5936 11.9088 29.0309 11.8287 29.4204 11.6307C29.8098 11.4328 30.1352 11.1253 30.3578 10.7449C31.233 9.23541 28.8308 7.53983 28.807 7.52308C28.7411 7.47672 28.6896 7.41231 28.6583 7.33734C28.6271 7.26237 28.6175 7.17995 28.6305 7.09962C28.6435 7.01929 28.6788 6.94436 28.732 6.88358C28.7853 6.82279 28.8545 6.77864 28.9315 6.75625C28.9443 6.75625 30.3358 6.34121 30.7808 5.34918C30.9932 4.87457 30.9639 4.34039 30.6709 3.71875C30.4201 3.17341 30.107 2.87561 29.717 2.81047C28.8802 2.67274 27.7926 3.60335 27.4447 3.97373C27.3889 4.03519 27.3166 4.07874 27.2368 4.09906C27.1569 4.11937 27.073 4.11557 26.9952 4.0881C26.9175 4.06064 26.8493 4.01072 26.7991 3.94445C26.7488 3.87817 26.7187 3.79844 26.7124 3.71502C26.6679 3.3015 26.5159 2.90747 26.272 2.57347C26.0281 2.23948 25.701 1.97757 25.3245 1.81469C24.9125 1.65277 24.2808 1.59135 23.618 2.21672C23.0486 2.7509 22.7684 3.32229 22.7831 3.91602C22.8087 5.03276 23.8176 5.90381 23.8286 5.91311C23.8836 5.95984 23.9259 6.02007 23.9516 6.08808C23.9773 6.15609 23.9855 6.22962 23.9754 6.30174C23.9653 6.37386 23.9373 6.44218 23.894 6.50022C23.8506 6.55826 23.7935 6.6041 23.7279 6.63341C23.7132 6.63341 22.2137 7.33137 21.8566 8.47789C21.7028 8.97111 21.7815 9.47364 22.0965 10.0153C22.4114 10.5569 22.7794 10.8416 23.2298 10.9012C24.1105 11.0203 25.1359 10.2163 25.4581 9.898C25.4986 9.857 25.547 9.82492 25.6003 9.80378C25.6535 9.78265 25.7105 9.7729 25.7676 9.77515Z" fill="#1B1529"/>
<path fill-rule="evenodd" clip-rule="evenodd" d="M25.98 4.90627C27.1024 4.67361 28.7978 5.9076 28.2321 7.9233C27.6663 9.93901 25.7584 9.94459 24.8869 8.43328C24.0153 6.92196 24.3028 5.25431 25.98 4.90627Z" fill="#FBCE35"/>
<path d="M26.5238 9.93706C25.7401 9.93706 24.9894 9.4606 24.5225 8.64911C23.9476 7.65335 23.8268 6.60176 24.1875 5.78654C24.4822 5.11464 25.0883 4.65306 25.8957 4.48369C26.6281 4.33293 27.4759 4.65119 28.0636 5.29331C28.7173 6.01175 28.926 7.01122 28.6386 8.03862C28.3401 9.10324 27.6425 9.80492 26.7728 9.91845C26.6903 9.93015 26.6071 9.93636 26.5238 9.93706ZM26.2619 5.30633C26.1956 5.30589 26.1294 5.31214 26.0642 5.32496C25.5149 5.4385 25.1487 5.7121 24.9656 6.13645C24.7203 6.69482 24.8283 7.4728 25.2567 8.21729C25.601 8.81102 26.1429 9.14792 26.6739 9.06975C27.2049 8.99157 27.6297 8.53929 27.8348 7.8041C28.1149 6.80277 27.7157 6.16809 27.4521 5.87774C27.3005 5.70755 27.1173 5.56947 26.9131 5.47142C26.7088 5.37336 26.4876 5.31725 26.2619 5.30633Z" fill="#1B1529"/>
</svg>
