<svg width="14" height="16" viewBox="0 0 14 16" fill="none" xmlns="http://www.w3.org/2000/svg">
<path fill-rule="evenodd" clip-rule="evenodd" d="M6.7761 15.9309C6.8673 15.9772 6.96928 16.0007 7.07125 16C7.17323 15.9992 7.27438 15.9749 7.36641 15.9278L10.3047 14.402C11.1379 13.9705 11.7904 13.488 12.2994 12.9264C13.4062 11.7026 14.0106 10.1407 13.9999 8.53011L13.965 3.21759C13.9617 2.60569 13.548 2.05969 12.9362 1.86121L7.47004 0.0796514C7.1409 -0.0286074 6.78025 -0.0262539 6.45691 0.0851427L1.01152 1.93025C0.402976 2.13657 -0.00327198 2.68649 4.43298e-05 3.29917L0.0348656 8.60777C0.0456436 10.2207 0.670769 11.7755 1.79583 12.9868C2.30986 13.5406 2.96814 14.016 3.81049 14.4404L6.7761 15.9309ZM5.99836 9.68676C6.12106 9.80129 6.28024 9.85777 6.43943 9.85621C6.59861 9.85542 6.75696 9.79737 6.87801 9.68127L10.089 6.60609C10.3303 6.37467 10.3278 6.00282 10.0841 5.77454C9.83948 5.54625 9.44567 5.54782 9.2044 5.77924L6.43031 8.43551L5.29447 7.37488C5.04989 7.1466 4.65691 7.14895 4.41482 7.38037C4.17356 7.6118 4.17604 7.98364 4.42062 8.21193L5.99836 9.68676Z" fill="#738FF5"/>
</svg>
