<svg width="45" height="53" viewBox="0 0 45 53" fill="none" xmlns="http://www.w3.org/2000/svg">
<path fill-rule="evenodd" clip-rule="evenodd" d="M1.24932 18.0725C1.24932 18.0725 -1.15989 2.4995 2.6165 0.722343C6.47209 -1.09236 12.6327 7.65783 12.6327 7.65783L1.24932 18.0725Z" fill="#EDAE5D"/>
<path d="M1.24931 18.5522C1.19534 18.5524 1.14176 18.5432 1.09091 18.5251C1.00903 18.4963 0.936503 18.4458 0.881078 18.3789C0.825653 18.312 0.789408 18.2314 0.776211 18.1455C0.524035 16.5144 -1.57463 2.16364 2.41225 0.288456C6.58045 -1.67434 12.764 7.0091 13.0245 7.38038C13.0903 7.47546 13.1196 7.59113 13.107 7.70612C13.0943 7.82111 13.0406 7.92766 12.9557 8.00614L1.57444 18.4208C1.48609 18.5035 1.37021 18.5503 1.24931 18.5522ZM3.75023 0.955921C3.42668 0.954813 3.10697 1.02608 2.81447 1.16451C0.163492 2.41602 0.938776 12.3719 1.58902 17.1109L11.9866 7.59729C10.3422 5.34665 6.50333 0.955921 3.75649 0.955921H3.75023Z" fill="#1B1529"/>
<path fill-rule="evenodd" clip-rule="evenodd" d="M42.9647 18.0725C42.9647 18.0725 45.3739 2.4995 41.5996 0.722343C37.7419 -1.09236 31.5813 7.65783 31.5813 7.65783L42.9647 18.0725Z" fill="#EDAE5D"/>
<path d="M42.9647 18.5522C42.8452 18.5519 42.7302 18.5073 42.6416 18.4271L31.2583 8.01239C31.1734 7.93391 31.1196 7.82736 31.107 7.71237C31.0944 7.59738 31.1237 7.48171 31.1895 7.38663C31.45 7.01535 37.6315 -1.67018 41.8038 0.294705C45.7886 2.17198 43.692 16.5206 43.4399 18.1518C43.4267 18.2376 43.3904 18.3183 43.335 18.3851C43.2796 18.452 43.207 18.5025 43.1252 18.5314C43.0733 18.5475 43.019 18.5545 42.9647 18.5522ZM32.2211 7.59104L42.6208 17.1047C43.2669 12.3656 44.0442 2.40349 41.3953 1.15823C38.6631 -0.126661 34.0697 5.07758 32.2211 7.59104Z" fill="#1B1529"/>
<path fill-rule="evenodd" clip-rule="evenodd" d="M0.965869 52.193H43.5357C43.5357 52.193 43.7441 27.3713 43.5357 22.1566C43.2856 15.8198 39.5759 7.34703 31.1561 6.40005C20.1604 5.17148 13.9456 6.02251 10.2422 7.1593C6.53876 8.2961 1.00131 11.8733 0.690779 21.5517C0.34065 32.5129 0.965869 52.193 0.965869 52.193Z" fill="white"/>
<path d="M0.965889 52.6748C0.841404 52.6743 0.72194 52.6256 0.632565 52.5389C0.543191 52.4522 0.490872 52.3342 0.486561 52.2096C0.486561 52.0011 -0.138681 32.394 0.213532 21.5329C0.559493 10.7782 7.24528 7.5785 10.1026 6.70035C15.0773 5.17559 22.1779 4.91486 31.2124 5.92442C35.1535 6.36662 38.4734 8.4629 40.816 11.9922C42.7083 14.8435 43.8754 18.5439 44.0172 22.1399C44.2256 27.3066 44.0172 51.9489 44.0172 52.1971C44.0166 52.324 43.9659 52.4455 43.876 52.535C43.7862 52.6245 43.6646 52.6748 43.5378 52.6748C43.4747 52.6743 43.4123 52.6612 43.3542 52.6365C43.2961 52.6117 43.2435 52.5758 43.1993 52.5306C43.1552 52.4854 43.1204 52.432 43.0969 52.3733C43.0735 52.3147 43.0618 52.252 43.0626 52.1888C43.0626 51.9427 43.271 27.3232 43.0626 22.1774C42.7959 15.4234 38.9403 7.75579 31.1082 6.87973C22.207 5.88478 15.2357 6.133 10.3881 7.62022C7.7267 8.43579 1.50359 11.4269 1.17639 21.5642C0.828341 32.3877 1.44316 51.9823 1.44941 52.1784C1.4528 52.3057 1.4059 52.4292 1.3189 52.5221C1.2319 52.615 1.11179 52.6699 0.984639 52.6748H0.965889Z" fill="#1B1529"/>
<path d="M28.7865 38.176C28.6594 38.1755 28.5375 38.1253 28.4468 38.0362L22.1737 31.7786L17.2844 37.3583C17.2456 37.4127 17.1959 37.4584 17.1385 37.4924C17.081 37.5265 17.0171 37.5481 16.9508 37.556C16.8845 37.5639 16.8173 37.5579 16.7535 37.5382C16.6897 37.5186 16.6306 37.4859 16.5802 37.4421C16.5298 37.3983 16.489 37.3445 16.4606 37.284C16.4321 37.2236 16.4166 37.1579 16.415 37.0911C16.4134 37.0243 16.4258 36.9579 16.4513 36.8961C16.4769 36.8344 16.515 36.7787 16.5633 36.7325L21.7902 30.7858C21.8335 30.7366 21.8863 30.6968 21.9455 30.6688C22.0047 30.6409 22.069 30.6253 22.1344 30.6232C22.1998 30.621 22.2649 30.6323 22.3258 30.6563C22.3867 30.6803 22.442 30.7166 22.4884 30.7628L29.1304 37.3583C29.1973 37.4256 29.2429 37.5111 29.2615 37.6042C29.28 37.6973 29.2706 37.7938 29.2346 37.8816C29.1985 37.9693 29.1373 38.0445 29.0587 38.0976C28.9801 38.1507 28.8876 38.1794 28.7928 38.1801L28.7865 38.176Z" fill="#1B1529"/>
<path d="M10.9154 26.4597C10.7987 26.4575 10.6868 26.4131 10.6005 26.3345C10.5141 26.256 10.4593 26.1487 10.446 26.0327C10.4328 25.9166 10.462 25.7998 10.5285 25.7037C10.5949 25.6077 10.6938 25.5391 10.807 25.5106L14.9523 24.547L11.4093 21.7603C11.3093 21.6814 11.2446 21.5661 11.2296 21.4395C11.2145 21.313 11.2503 21.1856 11.3291 21.0855C11.4078 20.9854 11.5231 20.9207 11.6496 20.9056C11.776 20.8905 11.9032 20.9263 12.0033 21.0052L16.3299 24.4114C16.398 24.4679 16.4492 24.5421 16.4777 24.6259C16.5063 24.7097 16.5111 24.7997 16.4917 24.8861C16.4723 24.9725 16.4294 25.0518 16.3677 25.1153C16.306 25.1787 16.228 25.2239 16.1423 25.2457L11.0238 26.4368C10.9886 26.4484 10.9522 26.4561 10.9154 26.4597Z" fill="#1B1529"/>
<path d="M32.9339 26.4597C32.8924 26.4593 32.8511 26.4537 32.8109 26.4431L28.2488 25.2541C28.1633 25.2322 28.0854 25.1871 28.0238 25.1238C27.9621 25.0605 27.919 24.9815 27.8992 24.8954C27.8794 24.8092 27.8837 24.7193 27.9115 24.6354C27.9394 24.5515 27.9897 24.4769 28.0571 24.4198L32.0169 21.0157C32.1133 20.9327 32.2388 20.8914 32.3656 20.901C32.4924 20.9106 32.6103 20.9702 32.6932 21.0668C32.7761 21.1633 32.8173 21.2888 32.8077 21.4158C32.7981 21.5427 32.7386 21.6606 32.6421 21.7436L29.3826 24.5512L33.0589 25.5086C33.1712 25.5389 33.2688 25.6089 33.3335 25.7057C33.3982 25.8024 33.4257 25.9194 33.411 26.0348C33.3962 26.1503 33.3402 26.2565 33.2533 26.3339C33.1664 26.4112 33.0544 26.4544 32.9381 26.4556L32.9339 26.4597Z" fill="#1B1529"/>
<path d="M16.3903 22.6364C15.9047 22.6364 15.3087 22.4611 14.6355 21.898C13.1766 20.6798 11.9012 17.9807 12.0429 17.2235C12.0644 17.098 12.135 16.9861 12.2389 16.9126C12.3429 16.839 12.4718 16.8098 12.5973 16.8314C12.7227 16.853 12.8345 16.9236 12.908 17.0276C12.9814 17.1317 13.0106 17.2607 12.9891 17.3862C12.9891 17.8201 14.0645 20.3273 15.4546 21.3181C15.9381 21.6623 16.3632 21.7582 16.7509 21.6101C16.8097 21.5875 16.8724 21.5767 16.9354 21.5784C16.9984 21.58 17.0605 21.5941 17.1181 21.6198C17.1756 21.6455 17.2276 21.6822 17.271 21.728C17.3143 21.7737 17.3483 21.8276 17.3709 21.8865C17.3934 21.9454 17.4042 22.0082 17.4026 22.0712C17.4009 22.1343 17.3869 22.1964 17.3612 22.254C17.3356 22.3116 17.2989 22.3636 17.2531 22.4071C17.2074 22.4505 17.1536 22.4844 17.0947 22.507C16.8698 22.5929 16.631 22.6368 16.3903 22.6364Z" fill="#1B1529"/>
<path d="M28.2092 22.3944C27.9975 22.3939 27.7886 22.3449 27.5986 22.2513C27.4087 22.1577 27.2425 22.0219 27.113 21.8542C27.0323 21.7557 26.994 21.6292 27.0065 21.5024C27.019 21.3757 27.0813 21.2591 27.1797 21.1784C27.2781 21.0976 27.4045 21.0592 27.5311 21.0718C27.6578 21.0843 27.7743 21.1466 27.855 21.2451C27.9043 21.3189 27.9753 21.3755 28.0582 21.4073C28.141 21.439 28.2316 21.4443 28.3176 21.4224C29.2784 21.2409 30.8936 19.0925 31.5188 17.1631C31.5583 17.0419 31.6443 16.9414 31.7579 16.8837C31.8714 16.826 32.0032 16.8158 32.1242 16.8554C32.2453 16.8949 32.3457 16.981 32.4033 17.0947C32.461 17.2083 32.4712 17.3402 32.4316 17.4613C31.8439 19.274 30.1058 22.0628 28.4948 22.3673C28.4007 22.3855 28.3051 22.3946 28.2092 22.3944Z" fill="#1B1529"/>
<path fill-rule="evenodd" clip-rule="evenodd" d="M4.49428 28.5206C4.39424 26.5035 6.57837 25.3396 8.26232 25.9049C9.94628 26.4701 10.5048 27.705 9.99422 29.4508C9.33148 31.7265 4.67977 32.1875 4.49428 28.5206Z" fill="#FE7D7B"/>
<path fill-rule="evenodd" clip-rule="evenodd" d="M34.0406 28.5206C33.9384 26.5035 36.1246 25.3396 37.8065 25.9049C39.4884 26.4701 40.0511 27.705 39.5405 29.4508C38.8736 31.7265 34.224 32.1875 34.0406 28.5206Z" fill="#FE7D7B"/>
<path fill-rule="evenodd" clip-rule="evenodd" d="M19.1976 27.2607C19.0871 26.0446 20.2397 25.3375 21.9715 25.3375C23.9306 25.3375 24.9518 25.9403 25.0185 26.8811C25.0998 28.0179 24.1182 28.7729 22.28 28.8147C20.0833 28.8647 19.2997 28.3662 19.1976 27.2607Z" fill="#1B1529"/>
<path d="M22.1508 31.566C22.027 31.5666 21.9078 31.5191 21.8184 31.4335C21.729 31.3479 21.6763 31.2309 21.6714 31.1071L21.5485 28.1389C21.5459 28.0759 21.5559 28.013 21.5777 27.9538C21.5995 27.8947 21.6327 27.8404 21.6755 27.7941C21.7183 27.7478 21.7697 27.7104 21.827 27.684C21.8842 27.6576 21.9461 27.6428 22.009 27.6404C22.1353 27.6375 22.2577 27.6836 22.3506 27.7692C22.4435 27.8548 22.4996 27.9731 22.5071 28.0993L22.6301 31.0674C22.6326 31.1305 22.6227 31.1934 22.6009 31.2525C22.5791 31.3117 22.5459 31.366 22.5031 31.4123C22.4603 31.4586 22.4088 31.496 22.3516 31.5224C22.2944 31.5487 22.2325 31.5636 22.1695 31.566H22.1508Z" fill="#1B1529"/>
<path d="M16.2486 28.4538H16.209L11.9866 28.0179C11.9256 28.0117 11.8663 27.9936 11.8123 27.9645C11.7583 27.9354 11.7105 27.896 11.6717 27.8484C11.6329 27.8009 11.6038 27.7461 11.5862 27.6874C11.5685 27.6286 11.5626 27.5669 11.5687 27.5058C11.5749 27.4447 11.593 27.3854 11.6221 27.3313C11.6511 27.2773 11.6905 27.2294 11.738 27.1906C11.7855 27.1518 11.8402 27.1227 11.899 27.105C11.9577 27.0873 12.0193 27.0814 12.0804 27.0876L16.3028 27.5235C16.4224 27.5348 16.533 27.5919 16.6117 27.6828C16.6903 27.7737 16.7309 27.8915 16.725 28.0116C16.7191 28.1318 16.6672 28.245 16.58 28.3277C16.4928 28.4105 16.3771 28.4563 16.2569 28.4559L16.2486 28.4538Z" fill="#EDAE5D"/>
<path d="M12.0241 30.6836C11.9069 30.6799 11.7953 30.6322 11.7116 30.5499C11.628 30.4676 11.5783 30.3569 11.5725 30.2396C11.5667 30.1223 11.6053 30.0072 11.6805 29.9171C11.7556 29.827 11.862 29.7685 11.9783 29.7533L16.2007 29.3173C16.2634 29.3073 16.3276 29.3103 16.3891 29.3259C16.4507 29.3416 16.5085 29.3697 16.5588 29.4085C16.6092 29.4473 16.6511 29.496 16.682 29.5516C16.7129 29.6072 16.7322 29.6685 16.7385 29.7318C16.7449 29.795 16.7383 29.859 16.7192 29.9196C16.7 29.9803 16.6687 30.0364 16.6271 30.0845C16.5856 30.1326 16.5346 30.1716 16.4774 30.1993C16.4202 30.227 16.3579 30.2428 16.2945 30.2456L12.0721 30.6815L12.0241 30.6836Z" fill="#EDAE5D"/>
<path d="M28.0988 28.4538C27.9786 28.4543 27.8629 28.4084 27.7757 28.3256C27.6885 28.2429 27.6366 28.1297 27.6307 28.0096C27.6248 27.8895 27.6654 27.7717 27.744 27.6808C27.8227 27.5899 27.9333 27.5328 28.0529 27.5214L32.2753 27.0855C32.3986 27.073 32.5217 27.1101 32.6177 27.1885C32.7137 27.267 32.7745 27.3803 32.787 27.5037C32.7994 27.6271 32.7624 27.7503 32.684 27.8464C32.6056 27.9424 32.4924 28.0033 32.3691 28.0158L28.1467 28.4517L28.0988 28.4538Z" fill="#EDAE5D"/>
<path d="M32.3232 30.6836H32.2753L28.0529 30.2476C27.9352 30.2289 27.8291 30.1657 27.7564 30.0712C27.6837 29.9767 27.6499 29.8579 27.6619 29.7392C27.6739 29.6205 27.7308 29.5109 27.8209 29.4328C27.9111 29.3548 28.0276 29.3142 28.1467 29.3194L32.3691 29.7554C32.4854 29.7706 32.5917 29.8291 32.6669 29.9192C32.7421 30.0093 32.7807 30.1244 32.7749 30.2417C32.7691 30.3589 32.7194 30.4697 32.6357 30.552C32.5521 30.6343 32.4405 30.682 32.3232 30.6857V30.6836Z" fill="#EDAE5D"/>
<path d="M16.5466 15.9491H16.4445C16.2755 15.9421 16.1105 15.8952 15.9631 15.8122C15.8156 15.7292 15.6899 15.6124 15.5963 15.4714C14.8043 14.3262 15.7234 11.1954 15.9172 10.58C15.9554 10.4583 16.0403 10.3568 16.1532 10.2977C16.2662 10.2387 16.3979 10.2269 16.5195 10.2651C16.6411 10.3033 16.7426 10.3882 16.8016 10.5013C16.8606 10.6143 16.8724 10.7462 16.8342 10.8679C16.4174 12.1757 16.0006 14.37 16.3861 14.927C16.3978 14.9476 16.4148 14.9647 16.4353 14.9764C16.4559 14.9882 16.4792 14.9942 16.5029 14.9937C16.5654 15.004 16.6294 14.9988 16.6894 14.9784C16.7494 14.958 16.8034 14.9232 16.8467 14.8769C17.1344 14.5348 17.076 13.5274 16.9468 12.9538C16.9283 12.8329 16.9563 12.7096 17.0253 12.6087C17.0943 12.5078 17.199 12.4369 17.3182 12.4104C17.4374 12.3839 17.5623 12.4037 17.6674 12.4659C17.7726 12.528 17.8503 12.6279 17.8846 12.7452C17.9284 12.9371 18.2889 14.66 17.5782 15.4985C17.451 15.6461 17.2922 15.7633 17.1137 15.8413C16.9351 15.9193 16.7413 15.9561 16.5466 15.9491Z" fill="#1B1529"/>
<path d="M37.1313 21.9856H37.0875C36.8831 21.9893 36.681 21.9423 36.4991 21.8488C36.3173 21.7552 36.1614 21.6181 36.0455 21.4496C35.2577 20.3211 36.108 17.695 36.2851 17.1819C36.3269 17.0616 36.4146 16.9628 36.5292 16.9072C36.6437 16.8517 36.7756 16.8439 36.8958 16.8857C37.016 16.9275 37.1147 17.0153 37.1702 17.1299C37.2257 17.2445 37.2335 17.3765 37.1917 17.4969C36.8166 18.5857 36.456 20.3607 36.8333 20.8989C36.862 20.9422 36.9021 20.9768 36.9491 20.9989C36.9962 21.0209 37.0484 21.0296 37.1 21.024C37.3084 21.024 37.4522 20.9844 37.5168 20.8926C37.7127 20.5881 37.4772 19.7079 37.2313 19.1906C37.204 19.1336 37.1881 19.0718 37.1846 19.0087C37.1811 18.9456 37.19 18.8824 37.2109 18.8227C37.2318 18.763 37.2643 18.7081 37.3064 18.661C37.3485 18.6139 37.3995 18.5755 37.4564 18.5481C37.5133 18.5207 37.5751 18.5048 37.6382 18.5013C37.7012 18.4978 37.7644 18.5068 37.824 18.5277C37.8836 18.5486 37.9385 18.5811 37.9856 18.6233C38.0326 18.6654 38.0709 18.7164 38.0983 18.7734C38.2359 19.0592 38.8861 20.536 38.3234 21.4099C38.1546 21.6748 37.8107 21.9856 37.1313 21.9856Z" fill="#1B1529"/>
<path d="M26.9317 17.8243C26.7827 17.8273 26.635 17.7968 26.4994 17.735C26.3638 17.6733 26.2437 17.5819 26.1481 17.4676C25.552 16.7459 25.9522 15.1523 26.0876 14.6809C26.123 14.5586 26.2055 14.4555 26.3169 14.394C26.4282 14.3326 26.5594 14.318 26.6816 14.3534C26.8038 14.3888 26.9068 14.4713 26.9682 14.5828C27.0296 14.6943 27.0442 14.8256 27.0088 14.9479C26.7545 15.8302 26.7337 16.7376 26.8942 16.8606C26.9162 16.8646 26.9388 16.8646 26.9609 16.8606C27.113 16.846 27.1401 16.8001 27.1484 16.7834C27.2547 16.5978 27.1297 16.0492 26.9525 15.6717C26.8973 15.5566 26.8899 15.4243 26.9321 15.3038C26.9743 15.1833 27.0626 15.0845 27.1776 15.0292C27.2926 14.9739 27.4248 14.9666 27.5452 15.0088C27.6656 15.0511 27.7642 15.1394 27.8195 15.2545C27.9195 15.4631 28.3906 16.5352 27.9842 17.2548C27.8878 17.4192 27.7515 17.5565 27.5879 17.6538C27.4243 17.7512 27.2387 17.8056 27.0484 17.8118C27.0097 17.818 26.9708 17.8222 26.9317 17.8243Z" fill="#1B1529"/>
<path d="M5.67386 21.4724H5.64676C5.42932 21.4844 5.21267 21.4377 5.01945 21.3371C4.82623 21.2366 4.66356 21.0859 4.54846 20.9009C3.89406 19.8204 4.97985 17.5635 5.20494 17.1234C5.26487 17.0144 5.36481 16.9329 5.48364 16.8962C5.60247 16.8595 5.73091 16.8705 5.84182 16.9268C5.95272 16.9831 6.0374 17.0804 6.07801 17.198C6.11861 17.3156 6.11196 17.4444 6.05944 17.5573C5.53007 18.6002 5.11533 19.9852 5.36959 20.4024C5.38834 20.4337 5.4342 20.5088 5.65719 20.5108H5.67386C5.95104 20.5108 6.13029 20.4483 6.20949 20.3273C6.4179 20.0082 6.18447 19.2426 6.04692 18.9423C5.99386 18.8264 5.98897 18.6941 6.03333 18.5746C6.0777 18.4551 6.16767 18.3582 6.28347 18.3051C6.39927 18.252 6.5314 18.2471 6.6508 18.2915C6.77021 18.3359 6.86711 18.4259 6.92017 18.5418C6.98686 18.6899 7.56207 20.0019 7.01603 20.8488C6.83055 21.1345 6.44914 21.4724 5.67386 21.4724Z" fill="#1B1529"/>
<path d="M32.7672 11.2038H32.6255C32.4673 11.1917 32.3144 11.1418 32.1795 11.0584C32.0446 10.9749 31.9317 10.8603 31.8502 10.7241C31.3896 9.95232 31.9231 8.51723 32.0982 8.09589C32.1516 7.98485 32.2454 7.8985 32.3605 7.85461C32.4755 7.81071 32.603 7.8126 32.7167 7.85988C32.8304 7.90716 32.9217 7.99625 32.9718 8.10882C33.0218 8.22139 33.0269 8.34888 32.986 8.46509C32.6567 9.25772 32.5442 10.1046 32.6817 10.2402H32.7213C32.8318 10.2402 32.8547 10.2235 32.8672 10.2089C33.0089 10.0545 33.0214 9.49969 32.9443 9.10129C32.92 8.97626 32.9463 8.84669 33.0174 8.74107C33.0886 8.63546 33.1987 8.56243 33.3236 8.53809C33.4485 8.51375 33.578 8.54007 33.6835 8.61127C33.7891 8.68246 33.862 8.7927 33.8863 8.91773C33.9301 9.12632 34.1177 10.261 33.5779 10.8555C33.4755 10.9681 33.3501 11.0575 33.2103 11.1176C33.0704 11.1777 32.9193 11.2071 32.7672 11.2038Z" fill="#1B1529"/>
<path d="M15.913 48.4781C15.8348 48.478 15.7567 48.471 15.6796 48.4572C15.5109 48.4319 15.3502 48.3684 15.2097 48.2715C15.0692 48.1746 14.9526 48.0469 14.8689 47.8982C14.1999 46.753 15.1149 44.1019 15.3045 43.5825C15.3261 43.5232 15.3592 43.4688 15.4018 43.4223C15.4445 43.3758 15.4959 43.3381 15.5531 43.3115C15.6103 43.2848 15.6721 43.2697 15.7351 43.267C15.7982 43.2643 15.8611 43.2741 15.9203 43.2957C15.9796 43.3174 16.034 43.3505 16.0805 43.3932C16.127 43.4358 16.1646 43.4873 16.1912 43.5445C16.2178 43.6017 16.2329 43.6637 16.2356 43.7267C16.2383 43.7898 16.2285 43.8528 16.2069 43.9121C15.7901 45.0301 15.3733 46.8531 15.6984 47.4122C15.71 47.4388 15.7285 47.462 15.7519 47.4792C15.7753 47.4964 15.8029 47.5071 15.8318 47.5102C15.9797 47.5332 16.0214 47.4914 16.0402 47.4643C16.3507 47.1493 16.2986 45.9479 16.1652 45.2366C16.1536 45.1746 16.1543 45.1108 16.1673 45.0491C16.1803 44.9873 16.2052 44.9287 16.2409 44.8766C16.2765 44.8245 16.322 44.7799 16.3748 44.7454C16.4276 44.7109 16.4867 44.6871 16.5487 44.6755C16.6107 44.6639 16.6744 44.6646 16.7361 44.6775C16.7978 44.6905 16.8564 44.7156 16.9084 44.7512C16.9605 44.7868 17.005 44.8324 17.0395 44.8853C17.074 44.9381 17.0977 44.9973 17.1093 45.0593C17.1802 45.4369 17.4928 47.3538 16.7279 48.136C16.6226 48.2456 16.4959 48.3324 16.3558 48.3913C16.2157 48.4501 16.065 48.4796 15.913 48.4781Z" fill="#1B1529"/>
<path d="M35.6161 41.0504C35.5648 41.0534 35.5133 41.0534 35.4619 41.0504C35.2992 41.034 35.1423 40.9812 35.0027 40.896C34.8631 40.8108 34.7444 40.6954 34.6554 40.5581C33.9155 39.4672 34.6408 36.6888 34.7929 36.1444C34.8099 36.0836 34.8387 36.0268 34.8776 35.9771C34.9165 35.9274 34.9649 35.8859 35.0198 35.8549C35.0748 35.8239 35.1353 35.804 35.1979 35.7964C35.2606 35.7889 35.3241 35.7937 35.3848 35.8107C35.4456 35.8277 35.5024 35.8565 35.552 35.8954C35.6017 35.9344 35.6432 35.9827 35.6741 36.0378C35.7051 36.0928 35.7249 36.1533 35.7325 36.216C35.7401 36.2787 35.7352 36.3423 35.7183 36.4031C35.389 37.5816 35.093 39.4839 35.4515 40.02C35.462 40.0412 35.478 40.0594 35.4977 40.0726C35.5175 40.0857 35.5404 40.0935 35.564 40.095C35.6912 40.1096 35.7224 40.0721 35.7433 40.0492C36.0121 39.7425 35.9121 38.5891 35.7433 37.859C35.7205 37.7379 35.745 37.6127 35.8116 37.5091C35.8783 37.4055 35.982 37.3314 36.1016 37.302C36.2212 37.2726 36.3475 37.2902 36.4545 37.3511C36.5615 37.412 36.6411 37.5117 36.6769 37.6296C36.7666 37.9988 37.1792 39.874 36.4685 40.6812C36.3621 40.8014 36.2306 40.8968 36.0833 40.9606C35.936 41.0244 35.7766 41.055 35.6161 41.0504Z" fill="#1B1529"/>
<path d="M7.98515 42.6189C7.39535 42.6189 7.10566 42.3498 6.96811 42.1245C6.57004 41.4821 7.00562 40.5372 7.09732 40.3536C7.15425 40.2397 7.25408 40.153 7.37485 40.1127C7.49562 40.0725 7.62744 40.0818 7.7413 40.1388C7.85516 40.1958 7.94174 40.2957 7.98199 40.4166C8.02225 40.5374 8.0129 40.6694 7.95597 40.7833C7.80174 41.0962 7.71628 41.5113 7.78506 41.6177C7.78506 41.6177 7.83924 41.6552 7.99347 41.6552C8.06016 41.6552 8.07268 41.6406 8.08518 41.6239C8.29359 41.3486 8.15396 40.3244 7.90387 39.5381C7.86517 39.4166 7.87627 39.2848 7.9347 39.1716C7.99313 39.0583 8.09411 38.9729 8.21544 38.9342C8.33676 38.8955 8.46848 38.9066 8.58163 38.9651C8.69478 39.0235 8.7801 39.1246 8.81879 39.2461C8.92925 39.5944 9.44401 41.3736 8.85837 42.1892C8.75874 42.3265 8.62713 42.4374 8.47496 42.5123C8.32278 42.5872 8.15465 42.6238 7.98515 42.6189Z" fill="#1B1529"/>
</svg>
