<svg width="226" height="30" viewBox="0 0 226 30" fill="none" xmlns="http://www.w3.org/2000/svg">
<path d="M0.606425 20.7848C0.433593 20.7643 0.279903 20.7162 0.169955 20.6481C0.0600072 20.5801 0.000157421 20.4961 0 20.4095V9.59006C0.000992556 9.50368 0.0614085 9.41994 0.171623 9.35221C0.281837 9.28449 0.435504 9.23667 0.608092 9.21639C0.941292 9.1864 1.21452 9.31042 1.21452 9.49117V20.51C1.21285 20.6908 0.94129 20.8148 0.606425 20.7848Z" fill="#738FF5"/>
<path d="M3.74554 25.4691C3.56857 25.4365 3.41594 25.3786 3.3077 25.3029C3.19946 25.2273 3.14069 25.1374 3.1391 25.0451V4.95521C3.14079 4.86305 3.19964 4.77331 3.30788 4.69779C3.41613 4.62226 3.5687 4.5645 3.74554 4.53209C4.07783 4.48346 4.35362 4.59937 4.35362 4.78823V25.2145C4.35362 25.4018 4.08115 25.5161 3.74554 25.4691Z" fill="#738FF5"/>
<path d="M6.89409 18.0998C6.56271 18.0869 6.28766 17.9191 6.28766 17.7245V12.2751C6.28766 12.0814 6.5594 11.9136 6.89409 11.8998C7.22878 11.886 7.50218 12.0368 7.50218 12.2346V17.7659C7.50218 17.9637 7.23044 18.1128 6.89409 18.0998Z" fill="#738FF5"/>
<path d="M10.0531 18.3652C9.72214 18.3522 9.4458 18.1779 9.4458 17.9761V12.0241C9.4458 11.8223 9.71717 11.648 10.0531 11.635C10.389 11.6221 10.6603 11.7785 10.6603 11.9836V18.0174C10.6603 18.2209 10.389 18.3781 10.0531 18.3652Z" fill="#738FF5"/>
<path d="M13.2168 20.1119C12.8873 20.0941 12.6104 19.9101 12.6104 19.701V10.2984C12.6104 10.0893 12.8823 9.90446 13.2168 9.88663C13.5514 9.86879 13.8249 10.0269 13.8249 10.2392V19.761C13.8249 19.9717 13.553 20.1298 13.2168 20.1119Z" fill="#738FF5"/>
<path d="M16.3893 21.1949C16.0606 21.1754 15.7828 20.9833 15.7828 20.7677V9.23332C15.7828 9.0169 16.0556 8.82804 16.3893 8.80615C16.7229 8.78427 16.9974 8.94882 16.9974 9.16767V20.8325C16.9974 21.0522 16.7245 21.2143 16.3893 21.1949Z" fill="#738FF5"/>
<path d="M19.5706 18.8635C19.2423 18.8522 18.9633 18.6625 18.9633 18.4396V11.5611C18.9633 11.3382 19.2358 11.1477 19.5706 11.1372C19.9054 11.1266 20.1778 11.2993 20.1778 11.5254V18.4752C20.1778 18.7006 19.9054 18.8749 19.5706 18.8635Z" fill="#738FF5"/>
<path d="M190.072 18.685C189.744 18.6737 189.465 18.484 189.465 18.2611V11.3826C189.465 11.1597 189.737 10.9692 190.072 10.9587C190.407 10.9482 190.679 11.1208 190.679 11.347V18.2968C190.679 18.5221 190.407 18.6964 190.072 18.685Z" fill="#738FF5"/>
<path d="M22.7572 23.3273C22.4298 23.3054 22.1499 23.1019 22.1499 22.8733V7.1305C22.1499 6.90111 22.4216 6.69765 22.7572 6.67658C23.0927 6.6555 23.3644 6.82491 23.3644 7.05674V22.9439C23.3644 23.1749 23.0927 23.3459 22.7572 23.3273Z" fill="#738FF5"/>
<path d="M193.259 23.1488C192.931 23.1269 192.651 22.9235 192.651 22.6949V6.95203C192.651 6.72264 192.923 6.51918 193.259 6.49811C193.594 6.47703 193.866 6.64645 193.866 6.87827V22.7654C193.866 22.9964 193.594 23.1674 193.259 23.1488Z" fill="#738FF5"/>
<path d="M25.9494 23.526C25.6225 23.5057 25.343 23.299 25.343 23.0648V6.93448C25.343 6.70023 25.6144 6.49353 25.9494 6.47326C26.2845 6.453 26.5575 6.62971 26.5575 6.8664V23.1329C26.551 23.3695 26.2845 23.5463 25.9494 23.526Z" fill="#738FF5"/>
<path d="M196.451 23.3475C196.124 23.3273 195.844 23.1206 195.844 22.8863V6.75601C195.844 6.52176 196.116 6.31506 196.451 6.2948C196.786 6.27453 197.059 6.45124 197.059 6.68793V22.9544C197.052 23.1911 196.786 23.3678 196.451 23.3475Z" fill="#738FF5"/>
<path d="M29.1499 18.9836C28.8136 18.9747 28.5426 18.7737 28.5426 18.5337V11.4672C28.5426 11.224 28.8136 11.0254 29.1499 11.0173C29.4861 11.0092 29.7571 11.1981 29.7571 11.4405V18.5605C29.7571 18.802 29.4845 18.9917 29.1499 18.9836Z" fill="#738FF5"/>
<path d="M199.651 18.8051C199.315 18.7962 199.044 18.5952 199.044 18.3553V11.2887C199.044 11.0456 199.315 10.847 199.651 10.8389C199.987 10.8308 200.258 11.0196 200.258 11.262V18.382C200.258 18.6236 199.986 18.8132 199.651 18.8051Z" fill="#738FF5"/>
<path d="M32.3531 18.5452C32.0173 18.5379 31.7466 18.3344 31.7466 18.0897V11.9115C31.7466 11.6683 32.0173 11.4625 32.3531 11.456C32.6889 11.4495 32.9612 11.6432 32.9612 11.8904V18.1107C32.9612 18.3571 32.6889 18.5517 32.3531 18.5452Z" fill="#738FF5"/>
<path d="M202.854 18.3667C202.519 18.3594 202.248 18.156 202.248 17.9112V11.733C202.248 11.4899 202.519 11.284 202.854 11.2775C203.19 11.271 203.463 11.4647 203.463 11.712V17.9323C203.463 18.1787 203.19 18.3732 202.854 18.3667Z" fill="#738FF5"/>
<path d="M35.563 19.4828C35.2276 19.4755 34.9557 19.2672 34.9557 19.0183V10.9824C34.9557 10.7335 35.2276 10.5252 35.563 10.5171C35.8984 10.509 36.1703 10.7068 36.1703 10.958V19.0426C36.1703 19.2931 35.8984 19.4909 35.563 19.4828Z" fill="#738FF5"/>
<path d="M206.064 19.3043C205.729 19.297 205.457 19.0887 205.457 18.8399V10.8039C205.457 10.555 205.729 10.3467 206.064 10.3386C206.4 10.3305 206.672 10.5283 206.672 10.7796V18.8642C206.672 19.1146 206.4 19.3124 206.064 19.3043Z" fill="#738FF5"/>
<path d="M38.7759 19.1934C38.441 19.1869 38.1678 18.9762 38.1678 18.7233V11.2661C38.1678 11.0132 38.441 10.8024 38.7759 10.7967C39.1108 10.7911 39.3824 10.9921 39.3824 11.2466V18.7395C39.3824 19.0013 39.1108 19.2031 38.7759 19.1934Z" fill="#738FF5"/>
<path d="M209.277 19.0149C208.942 19.0085 208.669 18.7977 208.669 18.5448V11.0876C208.669 10.8347 208.942 10.624 209.277 10.6183C209.612 10.6126 209.884 10.8136 209.884 11.0681V18.561C209.884 18.8228 209.612 19.0247 209.277 19.0149Z" fill="#738FF5"/>
<path d="M41.9929 18.7119C41.6579 18.7071 41.3864 18.4955 41.3864 18.2385V11.7613C41.3864 11.5052 41.6579 11.2928 41.9929 11.2879C42.3278 11.2831 42.6009 11.4889 42.6009 11.7467V18.254C42.6009 18.5117 42.3294 18.7168 41.9929 18.7119Z" fill="#738FF5"/>
<path d="M212.494 18.5335C212.159 18.5286 211.888 18.317 211.888 18.0601V11.5828C211.888 11.3267 212.159 11.1143 212.494 11.1095C212.829 11.1046 213.102 11.3105 213.102 11.5682V18.0755C213.102 18.3332 212.831 18.5383 212.494 18.5335Z" fill="#738FF5"/>
<path d="M45.2129 18.3909C44.8789 18.3909 44.6064 18.1728 44.6064 17.9134V12.0863C44.6064 11.8269 44.8772 11.6129 45.2129 11.6097C45.5485 11.6064 45.821 11.8139 45.821 12.0749V17.9248C45.821 18.1858 45.5485 18.3941 45.2129 18.3909Z" fill="#738FF5"/>
<path d="M215.714 18.2124C215.38 18.2124 215.108 17.9944 215.108 17.735V11.9078C215.108 11.6484 215.379 11.4344 215.714 11.4312C216.05 11.4279 216.322 11.6355 216.322 11.8965V17.7463C216.322 18.0073 216.05 18.2156 215.714 18.2124Z" fill="#738FF5"/>
<path d="M48.4401 27.822C48.1049 27.8098 47.8329 27.5877 47.8329 27.3251V2.67574C47.8329 2.41311 48.1049 2.1894 48.4401 2.17886C48.7754 2.16832 49.0474 2.37096 49.0474 2.6344V27.3656C49.0442 27.6291 48.7721 27.8333 48.4401 27.822Z" fill="#738FF5"/>
<path d="M218.941 27.6435C218.606 27.6314 218.334 27.4093 218.334 27.1466V2.49727C218.334 2.23465 218.606 2.01093 218.941 2.00039C219.277 1.98986 219.549 2.1925 219.549 2.45593V27.1872C219.546 27.4506 219.273 27.6549 218.941 27.6435Z" fill="#738FF5"/>
<path d="M51.6634 24.3974C51.3282 24.3902 51.0562 24.1697 51.0562 23.9046V6.09565C51.0562 5.8314 51.3282 5.6093 51.6634 5.60363C51.9986 5.59795 52.2707 5.80627 52.2707 6.07133V23.9289C52.2707 24.1948 51.9986 24.4039 51.6634 24.3974Z" fill="#738FF5"/>
<path d="M222.165 24.219C221.83 24.2117 221.557 23.9912 221.557 23.7262V5.91718C221.557 5.65294 221.83 5.43084 222.165 5.42516C222.5 5.41949 222.772 5.62781 222.772 5.89286V23.7505C222.772 24.0163 222.5 24.2255 222.165 24.219Z" fill="#738FF5"/>
<path d="M54.8922 20.5317C54.5558 20.5317 54.2841 20.3096 54.2841 20.0454V9.95704C54.2841 9.69118 54.5558 9.4707 54.8922 9.4707C55.2286 9.4707 55.4986 9.68144 55.4986 9.94812V20.0551C55.4986 20.321 55.2269 20.5349 54.8922 20.5317Z" fill="#738FF5"/>
<path d="M225.394 20.3532C225.057 20.3532 224.785 20.1311 224.785 19.8669V9.77858C224.785 9.51271 225.057 9.29224 225.394 9.29224C225.73 9.29224 226 9.50298 226 9.76965V19.8766C226 20.1425 225.728 20.3565 225.394 20.3532Z" fill="#738FF5"/>
<path d="M58.1257 18.302C57.7905 18.302 57.5184 18.0824 57.5184 17.8157V12.1839C57.5184 11.9156 57.7905 11.6975 58.1257 11.6975C58.4609 11.6975 58.7329 11.9123 58.7329 12.1839V17.8246C58.7297 18.0888 58.4577 18.302 58.1257 18.302Z" fill="#738FF5"/>
<path d="M61.353 20.0105C61.0182 20.0105 60.7465 19.79 60.7465 19.5241V10.479C60.7465 10.2099 61.0182 9.99268 61.353 9.99268C61.6877 9.99268 61.961 10.2091 61.961 10.479V19.5258C61.961 19.7949 61.6893 20.0121 61.353 20.0105Z" fill="#738FF5"/>
<path d="M64.5866 20.2075C64.2514 20.2075 63.9794 19.9878 63.9794 19.7211V10.2813C63.9794 10.0122 64.2514 9.79492 64.5866 9.79492C64.9218 9.79492 65.1939 10.0122 65.1939 10.2813V19.7203C65.1939 19.9894 64.9218 20.2075 64.5866 20.2075Z" fill="#738FF5"/>
<path d="M67.8187 23.7004C67.4823 23.7004 67.2106 23.4824 67.2106 23.2141V6.78712C67.2106 6.51801 67.4823 6.30078 67.8187 6.30078C68.1551 6.30078 68.4251 6.52045 68.4251 6.78712V23.2084C68.4251 23.48 68.1535 23.6996 67.8187 23.7004Z" fill="#738FF5"/>
<path d="M71.0497 30C70.715 30 70.4433 29.7884 70.4433 29.5193V0.481562C70.4433 0.212454 70.715 -0.00478331 71.0497 8.00964e-05C71.3845 0.0049435 71.6578 0.225426 71.6578 0.494534V29.5064C71.6578 29.7755 71.3861 29.9968 71.0497 30Z" fill="#738FF5"/>
<path d="M74.2827 19.243C73.9463 19.243 73.6746 19.029 73.6746 18.7607V11.2402C73.6746 10.9719 73.9463 10.7539 74.2827 10.7539C74.6191 10.7539 74.8891 10.9744 74.8891 11.2402V18.7493C74.8891 19.0225 74.6174 19.2414 74.2827 19.243Z" fill="#738FF5"/>
<path d="M77.513 19.4097C77.1778 19.4097 76.9057 19.1974 76.9057 18.9307V11.0682C76.9057 10.8007 77.1778 10.5867 77.513 10.5891C77.8482 10.5916 78.1202 10.8096 78.1202 11.0755V18.9201C78.1202 19.1884 77.8482 19.4065 77.513 19.4097Z" fill="#738FF5"/>
<path d="M80.7426 21.4249C80.4074 21.4298 80.1353 21.2182 80.1353 20.9523V9.04751C80.1353 8.78246 80.4074 8.5709 80.7426 8.57577C81.0778 8.58063 81.3498 8.79948 81.3498 9.06211V20.9353C81.3498 21.2012 81.0778 21.42 80.7426 21.4249Z" fill="#738FF5"/>
<path d="M135.419 21.0499C135.083 21.0548 134.811 20.8432 134.811 20.5773V8.67251C134.811 8.40746 135.083 8.1959 135.419 8.20077C135.754 8.20563 136.026 8.42448 136.026 8.68711V20.5603C136.026 20.8262 135.754 21.045 135.419 21.0499Z" fill="#738FF5"/>
<path d="M83.969 22.4778C83.6338 22.4851 83.3618 22.2767 83.3618 22.0133V7.99048C83.3618 7.72705 83.6338 7.51954 83.969 7.52603C84.3042 7.53251 84.5763 7.75136 84.5763 8.01237V21.9898C84.5763 22.2524 84.3042 22.4713 83.969 22.4778Z" fill="#738FF5"/>
<path d="M138.645 22.1028C138.31 22.1101 138.038 21.9017 138.038 21.6383V7.61548C138.038 7.35205 138.31 7.14454 138.645 7.15103C138.98 7.15751 139.252 7.37636 139.252 7.63737V21.6148C139.252 21.8774 138.98 22.0963 138.645 22.1028Z" fill="#738FF5"/>
<path d="M87.1947 19.4853C86.8591 19.491 86.5867 19.2826 86.5867 19.0224V10.9784C86.5867 10.7174 86.8591 10.5099 87.1947 10.5147C87.5304 10.5196 87.8012 10.7344 87.8012 10.9946V19.0062C87.8012 19.2656 87.5288 19.4804 87.1947 19.4853Z" fill="#738FF5"/>
<path d="M141.871 19.1103C141.535 19.116 141.263 18.9076 141.263 18.6474V10.6034C141.263 10.3424 141.535 10.1349 141.871 10.1397C142.206 10.1446 142.477 10.3594 142.477 10.6196V18.6312C142.477 18.8906 142.205 19.1054 141.871 19.1103Z" fill="#738FF5"/>
<path d="M90.4155 24.3001C90.081 24.3114 89.8082 24.112 89.8082 23.8543V6.14336C89.8082 5.88479 90.081 5.68539 90.4155 5.69755C90.75 5.70971 91.0227 5.92775 91.0227 6.18389V23.8137C91.0227 24.0731 90.7516 24.2912 90.4155 24.3001Z" fill="#738FF5"/>
<path d="M145.092 23.9251C144.757 23.9364 144.484 23.737 144.484 23.4793V5.76836C144.484 5.50979 144.757 5.31039 145.092 5.32255C145.426 5.33471 145.699 5.55275 145.699 5.80889V23.4387C145.699 23.6981 145.428 23.9162 145.092 23.9251Z" fill="#738FF5"/>
<path d="M93.6349 24.1784C93.3 24.1922 93.0268 23.9968 93.0268 23.7415V6.25838C93.0268 6.00386 93.3 5.8077 93.6349 5.82148C93.9698 5.83526 94.2413 6.05169 94.2413 6.30783V23.6986C94.2413 23.949 93.9698 24.1654 93.6349 24.1784Z" fill="#738FF5"/>
<path d="M148.311 23.8034C147.976 23.8172 147.703 23.6218 147.703 23.3665V5.88338C147.703 5.62886 147.976 5.4327 148.311 5.44648C148.646 5.46026 148.917 5.67669 148.917 5.93283V23.3236C148.917 23.574 148.646 23.7904 148.311 23.8034Z" fill="#738FF5"/>
<path d="M96.8494 19.1327C96.514 19.14 96.2421 18.9414 96.2421 18.6909V11.3099C96.2421 11.0586 96.514 10.8608 96.8494 10.8681C97.1848 10.8754 97.4566 11.0829 97.4566 11.3318V18.669C97.4566 18.9179 97.1848 19.1254 96.8494 19.1327Z" fill="#738FF5"/>
<path d="M151.525 18.7577C151.19 18.765 150.918 18.5664 150.918 18.3159V10.9349C150.918 10.6836 151.19 10.4858 151.525 10.4931C151.861 10.5004 152.133 10.7079 152.133 10.9568V18.294C152.133 18.5429 151.861 18.7504 151.525 18.7577Z" fill="#738FF5"/>
<path d="M100.061 18.5452C99.7249 18.5517 99.4526 18.3572 99.4526 18.1108V11.8905C99.4526 11.6432 99.7249 11.4487 100.061 11.456C100.397 11.4633 100.667 11.6668 100.667 11.9115V18.0897C100.667 18.3345 100.395 18.5379 100.061 18.5452Z" fill="#738FF5"/>
<path d="M154.737 18.1702C154.401 18.1767 154.129 17.9822 154.129 17.7358V11.5155C154.129 11.2682 154.401 11.0737 154.737 11.081C155.073 11.0883 155.343 11.2918 155.343 11.5365V17.7147C155.343 17.9595 155.071 18.1629 154.737 18.1702Z" fill="#738FF5"/>
<path d="M103.266 19.3215C102.931 19.3305 102.658 19.1416 102.658 18.8992V11.1008C102.658 10.8576 102.931 10.6703 103.266 10.6793C103.6 10.6882 103.873 10.8908 103.873 11.1299V18.8692C103.876 19.1124 103.602 19.3118 103.266 19.3215Z" fill="#738FF5"/>
<path d="M157.942 18.9465C157.607 18.9555 157.335 18.7666 157.335 18.5242V10.7258C157.335 10.4826 157.607 10.2953 157.942 10.3043C158.276 10.3132 158.549 10.5158 158.549 10.7549V18.4942C158.552 18.7374 158.278 18.9368 157.942 18.9465Z" fill="#738FF5"/>
<path d="M106.466 18.8985C106.139 18.9074 105.86 18.7226 105.86 18.4859V11.515C105.86 11.2775 106.131 11.0927 106.466 11.1024C106.801 11.1121 107.074 11.3091 107.074 11.5442V18.4567C107.074 18.691 106.801 18.8887 106.466 18.8985Z" fill="#738FF5"/>
<path d="M161.142 18.5235C160.815 18.5324 160.536 18.3476 160.536 18.1109V11.14C160.536 10.9025 160.807 10.7177 161.142 10.7274C161.477 10.7371 161.75 10.9341 161.75 11.1692V18.0817C161.75 18.316 161.477 18.5137 161.142 18.5235Z" fill="#738FF5"/>
<path d="M109.661 18.3212C109.326 18.3301 109.054 18.1493 109.054 17.9159V12.0798C109.054 11.848 109.326 11.6672 109.661 11.6745C109.997 11.6818 110.269 11.8764 110.269 12.1049V17.8867C110.269 18.1202 109.997 18.3131 109.661 18.3212Z" fill="#738FF5"/>
<path d="M164.337 17.9462C164.002 17.9551 163.73 17.7743 163.73 17.5409V11.7048C163.73 11.473 164.002 11.2922 164.337 11.2995C164.673 11.3068 164.945 11.5014 164.945 11.7299V17.5117C164.945 17.7452 164.673 17.9381 164.337 17.9462Z" fill="#738FF5"/>
<path d="M112.851 17.9209C112.523 17.929 112.244 17.7531 112.244 17.5277V12.4731C112.244 12.2477 112.517 12.0678 112.851 12.0799C113.186 12.0921 113.459 12.2761 113.459 12.499V17.5018C113.459 17.7247 113.186 17.912 112.851 17.9209Z" fill="#738FF5"/>
<path d="M167.527 17.5459C167.199 17.554 166.92 17.3781 166.92 17.1527V12.0981C166.92 11.8727 167.193 11.6928 167.527 11.7049C167.862 11.7171 168.135 11.9011 168.135 12.124V17.1268C168.135 17.3497 167.862 17.537 167.527 17.5459Z" fill="#738FF5"/>
<path d="M116.033 25.6205C115.704 25.6538 115.426 25.503 115.426 25.2841V4.71679C115.426 4.49713 115.699 4.34636 116.033 4.37959C116.367 4.41282 116.641 4.61546 116.641 4.83188V25.1682C116.641 25.3846 116.369 25.5873 116.033 25.6205Z" fill="#738FF5"/>
<path d="M170.709 25.2455C170.38 25.2788 170.102 25.128 170.102 24.9091V4.34179C170.102 4.12213 170.375 3.97136 170.709 4.00459C171.043 4.03782 171.317 4.24046 171.317 4.45688V24.7932C171.317 25.0096 171.045 25.2123 170.709 25.2455Z" fill="#738FF5"/>
<path d="M119.208 22.477C118.879 22.5029 118.602 22.3513 118.602 22.139V7.86164C118.602 7.64927 118.874 7.4977 119.208 7.52364C119.543 7.54958 119.816 7.74006 119.816 7.94919V22.0531C119.816 22.2598 119.544 22.4511 119.208 22.477Z" fill="#738FF5"/>
<path d="M173.884 22.102C173.555 22.1279 173.278 21.9763 173.278 21.764V7.48664C173.278 7.27427 173.55 7.1227 173.884 7.14864C174.219 7.17458 174.492 7.36506 174.492 7.57419V21.6781C174.492 21.8848 174.22 22.0761 173.884 22.102Z" fill="#738FF5"/>
<path d="M122.378 19.2211C122.047 19.2373 121.769 19.0841 121.769 18.879V11.1219C121.769 10.916 122.042 10.7628 122.378 10.779C122.713 10.7952 122.984 10.9719 122.984 11.1738V18.8263C122.984 19.0314 122.713 19.2057 122.378 19.2211Z" fill="#738FF5"/>
<path d="M177.054 18.8461C176.723 18.8623 176.445 18.7091 176.445 18.504V10.7469C176.445 10.541 176.718 10.3878 177.054 10.404C177.389 10.4202 177.66 10.5969 177.66 10.7988V18.4513C177.66 18.6564 177.389 18.8307 177.054 18.8461Z" fill="#738FF5"/>
<path d="M125.537 17.4102C125.206 17.4208 124.931 17.2692 124.931 17.0714V12.9229C124.931 12.7251 125.202 12.5727 125.537 12.5833C125.872 12.5938 126.145 12.7592 126.145 12.9537V17.0406C126.145 17.2376 125.873 17.4037 125.537 17.4102Z" fill="#738FF5"/>
<path d="M180.213 17.0352C179.882 17.0458 179.607 16.8942 179.607 16.6964V12.5479C179.607 12.3501 179.878 12.1977 180.213 12.2083C180.548 12.2188 180.821 12.3842 180.821 12.5787V16.6656C180.821 16.8626 180.549 17.0287 180.213 17.0352Z" fill="#738FF5"/>
<path d="M128.689 18.4973C128.357 18.5135 128.082 18.3725 128.082 18.1836V11.8174C128.082 11.6277 128.355 11.4875 128.689 11.5037C128.863 11.5187 129.021 11.5639 129.133 11.6311C129.244 11.6983 129.302 11.7828 129.297 11.8693V18.1309C129.303 18.2175 129.244 18.3021 129.133 18.3694C129.021 18.4367 128.863 18.4821 128.689 18.4973Z" fill="#738FF5"/>
<path d="M183.365 18.1223C183.033 18.1385 182.759 17.9975 182.759 17.8086V11.4424C182.759 11.2527 183.031 11.1125 183.365 11.1287C183.539 11.1437 183.697 11.1889 183.809 11.2561C183.92 11.3233 183.979 11.4078 183.973 11.4943V17.7559C183.979 17.8425 183.921 17.9271 183.809 17.9944C183.697 18.0617 183.54 18.1071 183.365 18.1223Z" fill="#738FF5"/>
<path d="M131.833 18.4639C131.752 18.4668 131.67 18.4612 131.594 18.4473C131.517 18.4335 131.448 18.4118 131.39 18.3837C131.333 18.3556 131.288 18.3218 131.26 18.2846C131.232 18.2473 131.22 18.2076 131.227 18.168V11.8335C131.22 11.7939 131.232 11.7542 131.26 11.717C131.288 11.6797 131.333 11.6459 131.39 11.6178C131.448 11.5898 131.517 11.5681 131.594 11.5542C131.67 11.5404 131.752 11.5347 131.833 11.5376C132.004 11.5515 132.159 11.5949 132.271 11.6597C132.382 11.7245 132.442 11.8066 132.439 11.891V18.1097C132.442 18.1943 132.383 18.2767 132.272 18.3417C132.16 18.4067 132.005 18.4501 131.833 18.4639Z" fill="#738FF5"/>
<path d="M186.509 18.0889C186.428 18.0918 186.346 18.0862 186.27 18.0723C186.193 18.0585 186.124 18.0368 186.066 18.0087C186.009 17.9806 185.964 17.9468 185.936 17.9096C185.908 17.8723 185.896 17.8326 185.903 17.793V11.4585C185.896 11.4189 185.908 11.3792 185.936 11.342C185.964 11.3047 186.009 11.2709 186.066 11.2428C186.124 11.2148 186.193 11.1931 186.27 11.1792C186.346 11.1654 186.428 11.1597 186.509 11.1626C186.68 11.1765 186.835 11.2199 186.947 11.2847C187.058 11.3495 187.118 11.4316 187.115 11.516V17.7347C187.118 17.8193 187.059 17.9017 186.948 17.9667C186.836 18.0317 186.681 18.0751 186.509 18.0889Z" fill="#738FF5"/>
</svg>
