<svg width="44" height="53" viewBox="0 0 44 53" fill="none" xmlns="http://www.w3.org/2000/svg">
<path fill-rule="evenodd" clip-rule="evenodd" d="M1.24449 18.1158C1.24449 18.1158 -1.15093 2.49751 2.60293 0.724517C6.44182 -1.09448 12.5724 7.67642 12.5724 7.67642L1.24449 18.1158Z" fill="#EDAE5D"/>
<path d="M1.24449 18.5966C1.1901 18.5969 1.13607 18.5877 1.08479 18.5695C1.00331 18.5406 0.93114 18.4899 0.875985 18.4229C0.820829 18.3559 0.784761 18.275 0.771629 18.1889C0.52068 16.5539 -1.56572 2.16922 2.39968 0.289594C6.54759 -1.67994 12.7031 7.02824 12.9623 7.39831C13.0274 7.49376 13.0563 7.60962 13.0438 7.72476C13.0312 7.8399 12.978 7.94665 12.8939 8.02555L1.56595 18.4712C1.47784 18.5516 1.36334 18.5963 1.24449 18.5966ZM3.73323 0.958649C3.41129 0.957819 3.0932 1.02924 2.80203 1.16773C0.166033 2.42221 0.935469 12.4016 1.58254 17.1519L11.9316 7.61575C10.2931 5.35978 6.47293 0.958649 3.73738 0.958649H3.73323Z" fill="#1B1529"/>
<path fill-rule="evenodd" clip-rule="evenodd" d="M42.7568 18.1158C42.7568 18.1158 45.1543 2.50588 41.3963 0.724517C37.5594 -1.09448 31.4288 7.67642 31.4288 7.67642L42.7568 18.1158Z" fill="#EDAE5D"/>
<path d="M42.7568 18.5967C42.6373 18.5965 42.5221 18.5518 42.4332 18.4713L31.1074 8.0319C31.0229 7.95323 30.9694 7.84644 30.9568 7.73118C30.9442 7.61592 30.9734 7.49996 31.0389 7.40466C31.2982 7.03459 37.4474 -1.67359 41.5995 0.295942C45.567 2.17766 43.4785 16.5603 43.2276 18.1953C43.2144 18.2813 43.1784 18.3622 43.1232 18.4292C43.068 18.4962 42.9959 18.5469 42.9144 18.5758C42.8634 18.5918 42.8101 18.5989 42.7568 18.5967ZM32.0655 7.60956L42.4125 17.1457C43.0575 12.3954 43.829 2.40974 41.193 1.16153C38.4741 -0.128491 33.8989 5.09014 32.0655 7.60956Z" fill="#1B1529"/>
<path fill-rule="evenodd" clip-rule="evenodd" d="M0.962434 52.3192H43.325C43.325 52.3192 43.5324 27.4387 43.325 22.2117C43.0741 15.8599 39.3949 7.36706 31.0057 6.41783C20.0636 5.18635 13.879 6.0394 10.1915 7.17888C6.50404 8.31837 0.997689 11.9041 0.68867 21.6054C0.340246 32.5905 0.962434 52.3192 0.962434 52.3192Z" fill="white"/>
<path d="M0.960354 52.8C0.836475 52.7995 0.717592 52.7507 0.628653 52.6638C0.539714 52.5768 0.487636 52.4585 0.483347 52.3337C0.483347 52.1351 -0.13884 32.4711 0.213732 21.5844C0.558009 10.8042 7.21125 7.5969 10.0546 6.71668C15.0052 5.1883 22.0711 4.92696 31.0597 5.9389C34.9836 6.38215 38.2874 8.4855 40.6164 12.021C42.5017 14.8813 43.6631 18.5882 43.8041 22.1928C44.0115 27.3738 43.8041 52.0724 43.8041 52.3233C43.803 52.4501 43.7523 52.5713 43.6629 52.6606C43.5736 52.7499 43.4529 52.8 43.3271 52.8C43.2004 52.7989 43.0793 52.7472 42.9903 52.6563C42.9013 52.5654 42.8516 52.4426 42.8522 52.3149C42.8522 52.0661 43.0596 27.3884 42.8522 22.2304C42.5826 15.4604 38.7478 7.77462 30.9539 6.88812C22.096 5.89081 15.1586 6.13962 10.3346 7.63036C7.68619 8.44786 1.49336 11.4482 1.16775 21.6073C0.821399 32.4565 1.43322 52.0975 1.43944 52.294C1.44336 52.4218 1.39688 52.5459 1.31019 52.6392C1.22349 52.7324 1.10366 52.7873 0.976946 52.7916L0.960354 52.8Z" fill="#1B1529"/>
<path fill-rule="evenodd" clip-rule="evenodd" d="M11.523 22.0173C11.4276 18.8937 14.1279 18.2246 15.2271 19.6296C16.206 20.8841 16.1728 24.1499 14.5344 24.8148C13.0038 25.4379 11.5894 24.1562 11.523 22.0173Z" fill="#1B1529"/>
<path fill-rule="evenodd" clip-rule="evenodd" d="M28.1209 22.0173C28.0255 18.8937 30.7258 18.2246 31.825 19.6296C32.8059 20.8841 32.7707 24.1499 31.1323 24.8148C29.6037 25.4379 28.1872 24.1562 28.1209 22.0173Z" fill="#1B1529"/>
<path d="M11.8359 16.9298C11.6399 16.9298 11.5153 16.9298 11.4992 16.9298C11.4295 16.9257 11.3613 16.9077 11.2985 16.877C11.2357 16.8463 11.1795 16.8034 11.1332 16.7507C11.087 16.6981 11.0515 16.6368 11.0288 16.5703C11.0061 16.5039 10.9967 16.4336 11.001 16.3634C11.0045 16.2931 11.0219 16.2243 11.0523 16.1609C11.0827 16.0975 11.1253 16.0409 11.1778 15.9943C11.2302 15.9478 11.2914 15.9124 11.3577 15.89C11.424 15.8677 11.4941 15.8589 11.5638 15.8643C11.5776 15.8643 12.9221 15.9409 13.93 15.5184C14.5434 15.2607 15.5444 14.6734 15.3991 13.6195C15.3792 13.4791 15.4155 13.3365 15.5001 13.2231C15.5846 13.1097 15.7105 13.0348 15.8499 13.0148C15.9894 12.9947 16.131 13.0313 16.2437 13.1164C16.3564 13.2015 16.4309 13.3282 16.4507 13.4686C16.6306 14.7407 15.8419 15.8759 14.3382 16.505C13.5373 16.8011 12.6889 16.9451 11.8359 16.9298Z" fill="#1B1529"/>
<path d="M32.47 16.9297C31.6164 16.942 30.7679 16.7948 29.9677 16.4956C28.464 15.8665 27.6614 14.7313 27.8528 13.4592C27.8727 13.3188 27.9472 13.1921 28.0598 13.107C28.1725 13.0219 28.3142 12.9853 28.4536 13.0054C28.5931 13.0254 28.7189 13.1003 28.8035 13.2137C28.8881 13.3271 28.9244 13.4697 28.9045 13.6101C28.7569 14.664 29.7624 15.2513 30.3759 15.509C31.3837 15.9315 32.7283 15.8549 32.7398 15.8549C32.8786 15.8488 33.0142 15.8977 33.1176 15.9911C33.2209 16.0846 33.2837 16.2151 33.2925 16.3546C33.3012 16.4942 33.2552 16.6316 33.1644 16.7374C33.0736 16.8432 32.9451 16.9089 32.8067 16.9204C32.7882 16.9227 32.666 16.9297 32.47 16.9297Z" fill="#1B1529"/>
<path fill-rule="evenodd" clip-rule="evenodd" d="M4.47364 28.5886C4.37201 26.5668 6.53722 25.4022 8.22127 25.9667C9.90533 26.5313 10.4549 27.7711 9.94681 29.5211C9.28314 31.798 4.65614 32.2642 4.47364 28.5886Z" fill="#FE7D7B"/>
<path fill-rule="evenodd" clip-rule="evenodd" d="M33.8761 28.5886C33.7745 26.5668 35.9397 25.4022 37.6237 25.9667C39.3078 26.5313 39.8553 27.7711 39.3493 29.5211C38.6856 31.798 34.0586 32.2642 33.8761 28.5886Z" fill="#FE7D7B"/>
<path fill-rule="evenodd" clip-rule="evenodd" d="M19.1054 27.3279C18.9934 26.1069 20.132 25.3981 21.8658 25.3981C23.8153 25.3981 24.8316 26.0023 24.8979 26.9453C24.9788 28.0868 23.9999 28.8416 22.1728 28.8834C19.9847 28.9336 19.207 28.4339 19.1054 27.3279Z" fill="#1B1529"/>
<path d="M23.3181 33C23.1541 32.9995 22.9959 32.9521 22.8726 32.8666C22.7494 32.7811 22.6693 32.6633 22.6473 32.5348L22.0061 28.604C21.9941 28.534 21.9999 28.4628 22.0231 28.3945C22.0463 28.3263 22.0865 28.2624 22.1412 28.2066C22.196 28.1507 22.2642 28.104 22.342 28.0692C22.4198 28.0345 22.5056 28.0123 22.5944 28.0039C22.7729 27.9868 22.9527 28.026 23.0948 28.1131C23.237 28.2002 23.3298 28.3282 23.3533 28.4691L23.9947 32.3999C24.0172 32.5412 23.9678 32.6837 23.8575 32.7962C23.7472 32.9087 23.5849 32.982 23.4063 33H23.3181Z" fill="#1B1529"/>
<path d="M16.6537 40C16.6059 39.9998 16.5583 39.9947 16.5118 39.9847C16.3427 39.9508 16.1956 39.8582 16.1025 39.7273C16.0094 39.5964 15.9781 39.4378 16.0153 39.2863C17.0254 35.2629 19.5706 32.7814 23.3756 32.1134C27.8758 31.3234 30.1571 34.7854 31.9503 38.6462C31.9831 38.7171 32 38.793 32 38.8698C32 38.9465 31.9831 39.0224 31.9503 39.0933C31.9175 39.1642 31.8694 39.2286 31.8088 39.2828C31.7482 39.3371 31.6762 39.3801 31.597 39.4095C31.5179 39.4388 31.433 39.4539 31.3473 39.4539C31.2616 39.4539 31.1768 39.4388 31.0976 39.4094C31.0184 39.38 30.9465 39.337 30.8859 39.2827C30.8253 39.2285 30.7772 39.1641 30.7444 39.0932C28.9171 35.1639 27.0103 32.6671 23.6281 33.2513C20.3254 33.8304 18.1916 35.9462 17.2921 39.5327C17.2616 39.6642 17.1815 39.7824 17.0653 39.8675C16.9491 39.9525 16.8038 39.9993 16.6537 40Z" fill="#1B1529"/>
<path d="M16.1707 27.4596H16.121L11.915 27.0205C11.7923 27.0078 11.6797 26.9464 11.6019 26.85C11.5241 26.7535 11.4875 26.6299 11.5002 26.5062C11.5128 26.3825 11.5737 26.269 11.6694 26.1906C11.7651 26.1122 11.8877 26.0753 12.0104 26.088L16.2122 26.525C16.3313 26.5364 16.4414 26.5936 16.5196 26.6847C16.5979 26.7759 16.6383 26.8939 16.6324 27.0143C16.6265 27.1347 16.5748 27.2482 16.4881 27.3311C16.4013 27.4141 16.2862 27.4601 16.1666 27.4596H16.1707Z" fill="#EDAE5D"/>
<path d="M11.9668 29.6988C11.85 29.6955 11.7388 29.648 11.6552 29.5657C11.5716 29.4834 11.5218 29.3724 11.5158 29.2547C11.5098 29.1371 11.5479 29.0215 11.6227 28.931C11.6974 28.8404 11.8033 28.7816 11.9191 28.7663L16.121 28.3293C16.1833 28.3194 16.2469 28.3224 16.3081 28.3382C16.3692 28.3539 16.4265 28.382 16.4765 28.4208C16.5265 28.4596 16.5681 28.5082 16.5988 28.5637C16.6296 28.6193 16.6488 28.6805 16.6553 28.7438C16.6617 28.807 16.6554 28.871 16.6366 28.9317C16.6177 28.9924 16.5869 29.0486 16.5458 29.0968C16.5047 29.1451 16.4543 29.1844 16.3977 29.2124C16.3411 29.2404 16.2794 29.2565 16.2164 29.2597L12.0145 29.6967L11.9668 29.6988Z" fill="#EDAE5D"/>
<path d="M27.9633 27.4596C27.8435 27.4607 27.7279 27.415 27.6407 27.3323C27.5535 27.2495 27.5014 27.1359 27.4953 27.0154C27.4891 26.8948 27.5294 26.7764 27.6077 26.6851C27.686 26.5937 27.7963 26.5364 27.9155 26.525L32.1174 26.088C32.1781 26.0817 32.2395 26.0875 32.298 26.1051C32.3565 26.1227 32.411 26.1518 32.4584 26.1906C32.5058 26.2294 32.5451 26.2773 32.5741 26.3314C32.6031 26.3856 32.6213 26.445 32.6276 26.5062C32.6338 26.5674 32.6281 26.6293 32.6106 26.6883C32.5932 26.7473 32.5644 26.8022 32.5258 26.85C32.4873 26.8977 32.4399 26.9374 32.3861 26.9666C32.3324 26.9959 32.2735 27.0142 32.2128 27.0205L28.0109 27.4554L27.9633 27.4596Z" fill="#EDAE5D"/>
<path d="M32.1651 29.6988H32.1174L27.9155 29.2597C27.8525 29.2565 27.7909 29.2404 27.7342 29.2124C27.6776 29.1844 27.6272 29.1451 27.5861 29.0968C27.5451 29.0486 27.5142 28.9924 27.4954 28.9317C27.4765 28.871 27.4702 28.807 27.4767 28.7438C27.4832 28.6805 27.5024 28.6193 27.5331 28.5637C27.5638 28.5082 27.6055 28.4596 27.6554 28.4208C27.7054 28.382 27.7627 28.3539 27.8239 28.3382C27.885 28.3224 27.9486 28.3194 28.0109 28.3293L32.2128 28.7663C32.3286 28.7816 32.4345 28.8404 32.5092 28.931C32.584 29.0215 32.6222 29.1371 32.6161 29.2547C32.6101 29.3724 32.5604 29.4834 32.4768 29.5657C32.3932 29.648 32.2819 29.6955 32.1651 29.6988Z" fill="#EDAE5D"/>
</svg>
