<svg width="54" height="32" viewBox="0 0 54 32" fill="none" xmlns="http://www.w3.org/2000/svg">
<rect width="54" height="32" rx="16" fill="url(#paint0_linear_12_71)"/>
<path d="M12 21.7851V10.2149H16.1897C16.8265 10.2149 17.4019 10.3719 17.9158 10.686C18.4353 11 18.8459 11.4215 19.1476 11.9504C19.4492 12.4793 19.6001 13.0606 19.6001 13.6942C19.6001 14.3444 19.4436 14.9339 19.1308 15.4628C18.8236 15.9862 18.4102 16.405 17.8907 16.719C17.3712 17.0275 16.8042 17.1818 16.1897 17.1818H14.0446V21.7851H12ZM14.0446 15.1653H15.9718C16.2623 15.1653 16.5276 15.0937 16.7678 14.9504C17.0081 14.8072 17.198 14.6143 17.3376 14.3719C17.4829 14.1295 17.5555 13.8595 17.5555 13.562C17.5555 13.259 17.4829 12.9862 17.3376 12.7438C17.198 12.5014 17.0081 12.3085 16.7678 12.1653C16.5276 12.022 16.2623 11.9504 15.9718 11.9504H14.0446V15.1653Z" fill="#181614"/>
<path d="M21.1322 21.7851V10.2149H25.6319C26.2687 10.2149 26.8441 10.3719 27.358 10.686C27.872 11 28.2797 11.4215 28.5814 11.9504C28.8831 12.4738 29.0339 13.0551 29.0339 13.6942C29.0339 14.2176 28.9361 14.6997 28.7406 15.1405C28.5507 15.5758 28.2825 15.9532 27.9362 16.2727C27.5954 16.5923 27.2016 16.8347 26.7547 17L29.5618 21.7851H27.2072L24.4923 17.1818H23.1767V21.7851H21.1322ZM23.1767 15.1653H25.3973C25.6877 15.1653 25.9531 15.0937 26.1933 14.9504C26.4335 14.8072 26.6262 14.6143 26.7715 14.3719C26.9167 14.1295 26.9893 13.8595 26.9893 13.562C26.9893 13.259 26.9167 12.9862 26.7715 12.7438C26.6262 12.5014 26.4335 12.3085 26.1933 12.1653C25.9531 12.022 25.6877 11.9504 25.3973 11.9504H23.1767V15.1653Z" fill="#181614"/>
<path d="M36.2183 22C35.425 22 34.6792 21.8457 33.981 21.5372C33.2827 21.2231 32.6682 20.7906 32.1375 20.2397C31.6068 19.6887 31.1907 19.0523 30.889 18.3306C30.5873 17.6033 30.4365 16.8264 30.4365 16C30.4365 15.1736 30.5873 14.3994 30.889 13.6777C31.1907 12.9504 31.6068 12.3113 32.1375 11.7603C32.6682 11.2094 33.2827 10.7796 33.981 10.4711C34.6792 10.157 35.425 10 36.2183 10C37.0171 10 37.7656 10.157 38.4639 10.4711C39.1622 10.7796 39.7767 11.2094 40.3074 11.7603C40.8381 12.3113 41.2514 12.9504 41.5475 13.6777C41.8492 14.3994 42 15.1736 42 16C42 16.8264 41.8492 17.6033 41.5475 18.3306C41.2514 19.0523 40.8381 19.6887 40.3074 20.2397C39.7767 20.7906 39.1622 21.2231 38.4639 21.5372C37.7656 21.8457 37.0171 22 36.2183 22ZM36.2183 19.9835C36.7322 19.9835 37.2154 19.8788 37.6679 19.6694C38.1204 19.4601 38.517 19.1736 38.8577 18.8099C39.2041 18.4408 39.4722 18.0165 39.6622 17.5372C39.8577 17.0579 39.9554 16.5455 39.9554 16C39.9554 15.4545 39.8577 14.9421 39.6622 14.4628C39.4666 13.978 39.1957 13.5537 38.8494 13.1901C38.5086 12.8264 38.112 12.5399 37.6595 12.3306C37.2126 12.1212 36.7322 12.0165 36.2183 12.0165C35.7043 12.0165 35.2211 12.1212 34.7686 12.3306C34.3161 12.5399 33.9167 12.8292 33.5704 13.1983C33.2296 13.562 32.9615 13.9835 32.766 14.4628C32.576 14.9421 32.4811 15.4545 32.4811 16C32.4811 16.551 32.5788 17.0661 32.7743 17.5455C32.9699 18.0248 33.238 18.449 33.5788 18.8182C33.9251 19.1818 34.3217 19.4683 34.7686 19.6777C35.2211 19.8815 35.7043 19.9835 36.2183 19.9835Z" fill="#181614"/>
<defs>
<linearGradient id="paint0_linear_12_71" x1="9.16072" y1="-3.5" x2="48.1427" y2="32.4646" gradientUnits="userSpaceOnUse">
<stop stop-color="#FFE924"/>
<stop offset="0.489583" stop-color="#FFD12F"/>
<stop offset="1" stop-color="#FFBB38"/>
</linearGradient>
</defs>
</svg>
