<svg width="16" height="16" viewBox="0 0 16 16" fill="none" xmlns="http://www.w3.org/2000/svg">
<path d="M8 6.2225L13.3338 0.888749C13.8246 0.397907 14.6204 0.397906 15.1113 0.888749C15.6021 1.37959 15.6021 2.17541 15.1113 2.66625L9.7775 8L15.1113 13.3338C15.6021 13.8246 15.6021 14.6204 15.1113 15.1113C14.6204 15.6021 13.8246 15.6021 13.3338 15.1113L8 9.7775L2.66625 15.1113C2.1754 15.6021 1.37959 15.6021 0.888749 15.1113C0.397907 14.6204 0.397907 13.8246 0.888749 13.3338L6.2225 8L0.888749 2.66625C0.397906 2.1754 0.397907 1.37959 0.888749 0.888749C1.37959 0.397907 2.17541 0.397907 2.66625 0.888749L8 6.2225Z" fill="#9C9C9C"/>
</svg>
