<svg width="12" height="10" viewBox="0 0 12 10" fill="none" xmlns="http://www.w3.org/2000/svg">
<path fill-rule="evenodd" clip-rule="evenodd" d="M6.74024 1.91698C6.71278 1.64679 6.68418 1.36646 6.61383 1.08673C6.42222 0.417517 5.89144 5.33063e-06 5.32234 5.33063e-06C5.0049 -0.00118756 4.60338 0.198025 4.37574 0.399623L2.48884 2.00943H1.50106C0.774097 2.00943 0.189551 2.58023 0.0791626 3.40392C-0.0146392 4.1948 -0.0375177 5.6877 0.0791626 6.55792C0.1804 7.42813 0.738635 7.99058 1.50106 7.99058H2.48884L4.41235 9.62424C4.60968 9.799 4.958 9.9994 5.2783 9.9994C5.29889 10 5.31719 10 5.3355 10C5.91547 10 6.42623 9.56698 6.61784 8.89956C6.69003 8.6174 6.71533 8.35291 6.73978 8.09732L6.74024 8.09257L6.76597 7.83789C6.86435 7.01181 6.86435 2.98283 6.76597 2.16271L6.74024 1.91698ZM8.94903 1.94141C8.79175 1.70521 8.48003 1.64617 8.25181 1.81019C8.02589 1.9754 7.96984 2.30106 8.12712 2.53666C8.56468 3.19334 8.80547 4.06773 8.80547 4.99997C8.80547 5.93162 8.56468 6.80661 8.12712 7.46329C7.96984 7.69889 8.02589 8.02455 8.25239 8.18976C8.33704 8.2506 8.43598 8.28281 8.53779 8.28281C8.70195 8.28281 8.85523 8.19871 8.94903 8.05854C9.50155 7.22949 9.80641 6.14336 9.80641 4.99997C9.80641 3.85659 9.50155 2.77046 8.94903 1.94141ZM9.97643 0.122805C10.2041 -0.0418135 10.5169 0.0184275 10.6731 0.254023C11.5287 1.53698 12 3.22313 12 4.99994C12 6.77794 11.5287 8.46349 10.6731 9.74644C10.5799 9.88661 10.426 9.97071 10.2618 9.97071C10.16 9.97071 10.0617 9.9385 9.97701 9.87766C9.75051 9.71245 9.69446 9.38738 9.85117 9.15119C10.5913 8.04061 10.9991 6.5662 10.9991 4.99994C10.9991 3.43427 10.5913 1.95986 9.85117 0.849275C9.69446 0.613679 9.75051 0.288021 9.97643 0.122805Z" fill="#738FF5"/>
</svg>
