<svg width="20" height="20" viewBox="0 0 20 20" fill="none" xmlns="http://www.w3.org/2000/svg">
<path fill-rule="evenodd" clip-rule="evenodd" d="M19.0091 4.4381L19.709 5.56191V5.57143C20.2934 6.51902 19.9445 7.72535 18.9268 8.27619C18.6011 8.44879 18.3311 8.69865 18.1446 9C17.8577 9.45558 17.779 9.99817 17.9258 10.5076C18.0726 11.0171 18.4329 11.4514 18.9268 11.7143C19.4207 11.9772 19.7809 12.4115 19.9277 12.9209C20.0745 13.4304 19.9958 13.973 19.709 14.4286L18.9679 15.5714C18.3723 16.5189 17.061 16.8425 16.0347 16.2952C15.7206 16.1291 15.367 16.0375 15.0054 16.0286C14.4341 16.026 13.8854 16.2349 13.4814 16.6088C13.0774 16.9826 12.8516 17.4904 12.8544 18.0191C12.8487 19.1146 11.8873 20 10.7033 20H9.29327C8.10527 20 7.1422 19.1088 7.1422 18.0095C7.13844 17.6741 7.03903 17.3456 6.85402 17.0571C6.57187 16.6008 6.1044 16.2676 5.55551 16.1317C5.00663 15.9957 4.42181 16.0683 3.93104 16.3333C3.43182 16.5923 2.84166 16.6565 2.29115 16.5117C1.74065 16.3669 1.27519 16.0251 0.997768 15.5619L0.287607 14.4286C-0.302849 13.4817 0.0472166 12.2712 1.06981 11.7238C1.73536 11.3682 2.14536 10.7111 2.14536 10C2.14536 9.28887 1.73536 8.63175 1.06981 8.27619C0.0459164 7.72505 -0.303767 6.51163 0.287607 5.56191L1.03894 4.41905C1.63103 3.46814 2.94317 3.14009 3.97221 3.68571C4.28392 3.85691 4.63897 3.9489 5.00143 3.95238C6.17748 3.95249 7.13561 3.07861 7.1525 1.99048C7.14976 1.46345 7.37409 0.957134 7.77586 0.583571C8.17763 0.210008 8.72371 -5.74088e-06 9.29327 1.69058e-07H10.7033C11.2847 -0.000221378 11.8414 0.217315 12.2466 0.603053C12.6518 0.988792 12.8711 1.50988 12.8544 2.04762C12.8581 2.38302 12.9575 2.71156 13.1425 3C13.4301 3.4538 13.901 3.78311 14.4512 3.91532C15.0015 4.04753 15.586 3.97178 16.0758 3.70476C17.1049 3.15914 18.417 3.48718 19.0091 4.4381ZM9.94434 13C11.6012 13 12.9443 11.6569 12.9443 10C12.9443 8.34315 11.6012 7 9.94434 7C8.28748 7 6.94434 8.34315 6.94434 10C6.94434 11.6569 8.28748 13 9.94434 13Z" fill="#738FF5"/>
</svg>
