<svg width="16" height="16" viewBox="0 0 16 16" fill="none" xmlns="http://www.w3.org/2000/svg">
<g clip-path="url(#clip0_40_21926)">
<path d="M8 0.666687L13.478 1.88402C13.7827 1.95202 14 2.22202 14 2.53469V9.19269C14 10.53 13.3313 11.7794 12.2187 12.5207L8 15.3334L3.78133 12.5207C2.668 11.7787 2 10.53 2 9.19335V2.53469C2 2.22202 2.21733 1.95202 2.522 1.88402L8 0.666687ZM8 2.03269L3.33333 3.06935V9.19269C3.33333 10.084 3.77867 10.9167 4.52067 11.4114L8 13.7314L11.4793 11.4114C12.2213 10.9167 12.6667 10.0847 12.6667 9.19335V3.06935L8 2.03335V2.03269ZM10.968 5.48135L11.9113 6.42402L7.66867 10.6667L4.84 7.83802L5.78267 6.89535L7.668 8.78069L10.968 5.48069V5.48135Z" fill="#181614"/>
</g>
<defs>
<clipPath id="clip0_40_21926">
<rect width="16" height="16" fill="white"/>
</clipPath>
</defs>
</svg>
