<svg width="20" height="20" viewBox="0 0 20 20" fill="none" xmlns="http://www.w3.org/2000/svg">
<path fill-rule="evenodd" clip-rule="evenodd" d="M8.6212 14.5971C7.70868 14.5971 6.9664 13.8514 6.9664 12.9347C6.9664 12.7816 7.08976 12.6576 7.2422 12.6576C7.39464 12.6576 7.518 12.7815 7.518 12.9347C7.518 13.5457 8.01278 14.043 8.6212 14.043C9.22964 14.043 9.7244 13.5457 9.7244 12.9347C9.7244 13.2738 9.82599 13.5896 10.0002 13.8528C9.70349 14.3011 9.19613 14.5971 8.6212 14.5971ZM10.0002 13.8528C10.1744 13.5896 10.276 13.2738 10.276 12.9347C10.276 13.5457 10.7708 14.043 11.3792 14.043C11.9876 14.043 12.4824 13.5457 12.4824 12.9347C12.4824 12.7816 12.6058 12.6576 12.7582 12.6576C12.9106 12.6576 13.034 12.7815 13.034 12.9347C13.034 13.8514 12.2917 14.5971 11.3792 14.5971C10.8043 14.5971 10.2969 14.3011 10.0002 13.8528ZM6.2981 8.5C6.58844 8.5 6.84988 8.62374 7.03257 8.82135C7.19738 8.99964 7.2981 9.23806 7.2981 9.5C7.2981 9.88529 7.08021 10.2197 6.76093 10.3867C6.62254 10.4591 6.4651 10.5 6.2981 10.5C5.74581 10.5 5.2981 10.0523 5.2981 9.5C5.2981 8.94771 5.74581 8.5 6.2981 8.5ZM15.516 14.7356C15.4745 14.7356 15.4325 14.7264 15.3929 14.7064L14.2897 14.1523C14.1534 14.0836 14.0982 13.9174 14.1663 13.7805C14.2345 13.6441 14.4004 13.5878 14.5364 13.6566L15.6396 14.2107C15.7759 14.2794 15.8311 14.4456 15.7629 14.5825C15.7145 14.6794 15.6172 14.7356 15.516 14.7356ZM16.6194 13.1333H15.5162C15.3638 13.1333 15.2404 13.0164 15.2404 12.8633C15.2404 12.7101 15.3638 12.5933 15.5162 12.5933H16.6194C16.7719 12.5933 16.8952 12.7101 16.8952 12.8633C16.8952 13.0164 16.7719 13.1333 16.6194 13.1333ZM4.36109 14.7356C4.25981 14.7356 4.16259 14.6794 4.11411 14.5825C4.04597 14.4456 4.10119 14.2795 4.23747 14.2107L5.34067 13.6566C5.47669 13.5879 5.64233 13.6441 5.71073 13.7805C5.77887 13.9174 5.72365 14.0835 5.58737 14.1523L4.48417 14.7064C4.44459 14.7264 4.40257 14.7356 4.36109 14.7356ZM4.48417 13.1333H3.38097C3.22853 13.1333 3.10517 13.0164 3.10517 12.8633C3.10517 12.7101 3.22853 12.5933 3.38097 12.5933H4.48417C4.63661 12.5933 4.75997 12.7101 4.75997 12.8633C4.75997 13.0164 4.63663 13.1333 4.48417 13.1333ZM19.929 11.1337C19.7928 9.9673 19.5501 8.86734 19.2099 7.84968C19.2762 7.78262 19.3311 7.70312 19.3575 7.607C20.0712 4.99052 20.3048 0.872864 19.0176 0.087661C18.8622 0.0286808 18.6688 0 18.4261 0C17.0722 0 14.4451 0.9389 13.6718 1.2268C13.6373 1.23975 13.6088 1.26076 13.5803 1.28179L13.5802 1.28182C13.5723 1.28771 13.5643 1.2936 13.5561 1.29932C12.4775 0.85242 11.2898 0.605021 10.0002 0.605021C8.7237 0.605021 7.55013 0.84614 6.48343 1.27936C6.47325 1.27321 6.46371 1.26626 6.4542 1.25932L6.45419 1.25932C6.43713 1.24689 6.42014 1.2345 6.39959 1.2268C5.62633 0.9389 2.99921 0 1.64525 0C1.40257 0 1.20919 0.0286808 1.05379 0.087661C-0.233405 0.872884 0.000115107 4.99054 0.713855 7.60702C0.733055 7.67686 0.767354 7.73802 0.808654 7.79334C0.459935 8.82708 0.210156 9.94514 0.0713355 11.1337C-0.669884 17.3159 4.48414 20 10.0002 20C15.4838 20 20.6703 17.3159 19.929 11.1337ZM18.4207 1.10126C18.4865 1.10126 18.529 1.10614 18.5551 1.11046C18.8491 1.43232 19.041 3.7037 18.5445 6.23314C17.6641 4.41948 16.422 2.96508 14.8801 1.98898C16.1592 1.55544 17.7493 1.10126 18.4207 1.10126ZM1.51621 1.11046C1.54233 1.10614 1.58489 1.10126 1.65061 1.10126C2.31237 1.10126 3.86565 1.54248 5.13489 1.97018C3.61273 2.92542 2.38355 4.34362 1.50509 6.11444C1.03761 3.63328 1.22695 1.42722 1.51621 1.11046ZM13.2981 10.5C13.8504 10.5 14.2981 10.0523 14.2981 9.5C14.2981 8.94771 13.8504 8.5 13.2981 8.5C12.7458 8.5 12.2981 8.94771 12.2981 9.5C12.2981 10.0523 12.7458 10.5 13.2981 10.5Z" fill="#9C9C9C"/>
</svg>
