<svg width="60" height="60" viewBox="0 0 60 60" fill="none" xmlns="http://www.w3.org/2000/svg">
<path fill-rule="evenodd" clip-rule="evenodd" d="M7.24412 20.1063C7.24412 20.1063 4.57807 2.77461 8.7547 0.799084C13.0236 -1.22055 19.8409 8.51547 19.8409 8.51547L7.24412 20.1063Z" fill="#EDAE5D"/>
<path d="M7.24411 20.6473C7.18438 20.6477 7.12505 20.6375 7.06883 20.6171C6.97792 20.5852 6.89731 20.529 6.83559 20.4546C6.77386 20.3802 6.73332 20.2904 6.71827 20.1946C6.43922 18.3816 4.11912 2.40792 8.53099 0.320967C13.1435 -1.86349 19.9862 7.8029 20.2745 8.21379C20.3478 8.31943 20.3805 8.44832 20.3665 8.57642C20.3525 8.70453 20.2927 8.82314 20.1983 8.91021L7.60387 20.5011C7.5061 20.593 7.3779 20.6451 7.24411 20.6473ZM10.0116 1.06616C9.65283 1.06489 9.29828 1.1442 8.9738 1.2983C6.04255 2.69115 6.89817 13.7736 7.61772 19.0479L19.1259 8.45987C17.3063 5.94345 13.0582 1.05919 10.0277 1.05919L10.0116 1.06616Z" fill="#1B1529"/>
<path fill-rule="evenodd" clip-rule="evenodd" d="M53.4061 20.1063C53.4061 20.1063 56.0722 2.77461 51.8956 0.799084C47.6267 -1.22055 40.8094 8.51547 40.8094 8.51547L53.4061 20.1063Z" fill="#EDAE5D"/>
<path d="M53.4061 20.6472C53.2739 20.6473 53.1464 20.5976 53.0487 20.5079L40.4519 8.91707C40.3575 8.83 40.2977 8.71139 40.2837 8.58328C40.2697 8.45518 40.3024 8.32629 40.3758 8.22065C40.6641 7.80744 47.5044 -1.85895 52.1192 0.327827C56.5311 2.4171 54.211 18.3885 53.932 20.2015C53.9169 20.2972 53.8764 20.3871 53.8146 20.4615C53.7529 20.5359 53.6723 20.592 53.5814 20.624C53.5248 20.642 53.4655 20.6498 53.4061 20.6472ZM41.5174 8.45047L53.0256 19.0385C53.7405 13.7619 54.6008 2.67478 51.6695 1.2889C48.646 -0.14806 43.563 5.64389 41.5174 8.44352V8.45047Z" fill="#1B1529"/>
<path fill-rule="evenodd" clip-rule="evenodd" d="M6.93041 58.0826H54.038C54.038 58.0826 54.2687 30.4577 54.038 24.6542C53.7613 17.6017 49.6677 8.17209 40.3389 7.12048C28.1711 5.75085 21.2938 6.70031 17.1956 7.96316C13.0973 9.22601 6.96963 13.2096 6.626 23.9809C6.23855 36.18 6.93041 58.0826 6.93041 58.0826Z" fill="white"/>
<path d="M6.93045 58.6164C6.79252 58.6165 6.66 58.5624 6.56097 58.4658C6.46195 58.3691 6.40422 58.2375 6.40002 58.0987C6.40002 57.8805 5.70813 36.0452 6.09789 23.9599C6.48073 11.9884 13.8792 8.42733 17.0411 7.45234C22.5461 5.75538 30.4058 5.46286 40.3989 6.58875C44.7623 7.07857 48.4362 9.41393 51.0284 13.3395C53.1225 16.5152 54.414 20.631 54.5708 24.6332C54.8015 30.3856 54.5708 57.8109 54.5708 58.0871C54.5696 58.2279 54.5132 58.3625 54.4139 58.4616C54.3145 58.5608 54.1803 58.6164 54.0404 58.6164C53.9707 58.6158 53.9019 58.6014 53.8377 58.574C53.7736 58.5466 53.7155 58.5067 53.6667 58.4567C53.6178 58.4067 53.5793 58.3475 53.5532 58.2825C53.5271 58.2175 53.514 58.1479 53.5146 58.0778C53.5146 57.8016 53.7452 30.4019 53.5146 24.6749C53.2194 17.1582 48.9528 8.62465 40.2859 7.65198C30.4358 6.54234 22.7237 6.82092 17.3571 8.47377C14.412 9.38144 7.52546 12.7127 7.16338 23.9948C6.77824 36.0383 7.45859 57.8457 7.46551 58.0662C7.46767 58.1363 7.45605 58.2062 7.43136 58.2718C7.40668 58.3374 7.36939 58.3975 7.32163 58.4486C7.27386 58.4997 7.21658 58.5408 7.15302 58.5696C7.08946 58.5984 7.02089 58.6143 6.95122 58.6164H6.93045Z" fill="#1B1529"/>
<path fill-rule="evenodd" clip-rule="evenodd" d="M18.6739 22.9199C18.5678 19.3565 21.5706 18.5951 22.7929 20.1969C23.8814 21.6245 23.8445 25.3527 22.0226 26.1118C20.3206 26.8222 18.7477 25.3597 18.6739 22.9199Z" fill="#1B1529"/>
<path fill-rule="evenodd" clip-rule="evenodd" d="M37.1332 22.9199C37.0248 19.3565 40.0299 18.5951 41.2522 20.1969C42.3407 21.6245 42.3015 25.3527 40.4796 26.1118C38.7799 26.8222 37.2047 25.3597 37.1332 22.9199Z" fill="#1B1529"/>
<path d="M19.0637 19.9301C18.9837 19.9307 18.9047 19.9124 18.833 19.8767C18.7097 19.816 18.6149 19.7092 18.5688 19.579C18.5227 19.4489 18.529 19.3058 18.5863 19.1803C18.8148 18.7487 19.1442 18.3796 19.5459 18.1046C19.9477 17.8296 20.4098 17.657 20.8925 17.6017C22.1287 17.4601 23.2287 18.1031 23.63 19.2058C23.6541 19.2716 23.6651 19.3416 23.6623 19.4117C23.6595 19.4818 23.643 19.5507 23.6138 19.6144C23.5846 19.6781 23.5431 19.7354 23.4919 19.783C23.4407 19.8306 23.3807 19.8675 23.3152 19.8918C23.2498 19.916 23.1803 19.927 23.1107 19.9242C23.041 19.9214 22.9726 19.9048 22.9093 19.8754C22.846 19.846 22.7891 19.8043 22.7418 19.7527C22.6945 19.7012 22.6578 19.6407 22.6337 19.5749C22.4031 18.9342 21.7666 18.5767 21.0194 18.6649C20.7148 18.6991 20.4227 18.8058 20.1673 18.9761C19.9118 19.1465 19.7003 19.3756 19.5503 19.6445C19.5038 19.7332 19.4335 19.8069 19.3475 19.8573C19.2615 19.9078 19.1632 19.933 19.0637 19.9301Z" fill="#1B1529"/>
<path d="M41.5866 19.9346C41.4865 19.9347 41.3885 19.9065 41.3036 19.8531C41.2188 19.7997 41.1506 19.7234 41.1069 19.6328C40.9575 19.3638 40.7465 19.1346 40.4914 18.9642C40.2362 18.7938 39.9444 18.6872 39.6401 18.6532C38.8906 18.565 38.2564 18.9225 38.0257 19.5632C37.9771 19.6962 37.878 19.8043 37.7502 19.8637C37.6224 19.9231 37.4763 19.929 37.3442 19.88C37.2121 19.8311 37.1047 19.7314 37.0457 19.6027C36.9866 19.4741 36.9808 19.3271 37.0294 19.1941C37.4307 18.0914 38.5308 17.4484 39.7669 17.59C40.2496 17.6453 40.7118 17.8179 41.1135 18.0929C41.5153 18.3679 41.8446 18.737 42.0732 19.1685C42.1034 19.2318 42.1209 19.3004 42.1247 19.3705C42.1285 19.4405 42.1185 19.5106 42.0954 19.5768C42.0723 19.643 42.0364 19.704 41.9899 19.7562C41.9433 19.8084 41.887 19.8509 41.8241 19.8812C41.75 19.9169 41.6688 19.9352 41.5866 19.9346Z" fill="#1B1529"/>
<path d="M20.6481 16.5269C20.452 16.5269 20.3275 16.5269 20.3113 16.5269C20.2416 16.5227 20.1734 16.5048 20.1106 16.474C20.0478 16.4433 19.9917 16.4004 19.9454 16.3478C19.8991 16.2951 19.8636 16.2338 19.8409 16.1674C19.8182 16.1009 19.8088 16.0306 19.8132 15.9605C19.8167 15.8902 19.8341 15.8213 19.8645 15.7579C19.8948 15.6945 19.9375 15.6379 19.9899 15.5914C20.0424 15.5449 20.1036 15.5094 20.1699 15.4871C20.2362 15.4647 20.3062 15.456 20.3759 15.4613C20.3898 15.4613 21.7343 15.538 22.7421 15.1155C23.3556 14.8578 24.3565 14.2704 24.2112 13.2165C24.1913 13.0761 24.2277 12.9336 24.3122 12.8202C24.3968 12.7068 24.5226 12.6318 24.6621 12.6118C24.8015 12.5918 24.9432 12.6284 25.0559 12.7135C25.1685 12.7986 25.243 12.9252 25.2629 13.0656C25.4428 14.3378 24.654 15.473 23.1504 16.1021C22.3495 16.3981 21.5011 16.5421 20.6481 16.5269Z" fill="#1B1529"/>
<path d="M41.2821 16.5268C40.4286 16.5391 39.5801 16.3919 38.7799 16.0927C37.2762 15.4636 36.4736 14.3284 36.665 13.0563C36.6849 12.9159 36.7593 12.7892 36.872 12.7041C36.9847 12.619 37.1263 12.5824 37.2658 12.6024C37.4052 12.6224 37.5311 12.6974 37.6157 12.8108C37.7002 12.9242 37.7366 13.0667 37.7167 13.2071C37.5691 14.261 38.5746 14.8484 39.188 15.1061C40.1959 15.5286 41.5404 15.4519 41.552 15.4519C41.6907 15.4458 41.8264 15.4947 41.9297 15.5882C42.0331 15.6816 42.0959 15.8121 42.1046 15.9517C42.1134 16.0912 42.0674 16.2287 41.9766 16.3345C41.8857 16.4403 41.7573 16.506 41.6188 16.5175C41.6004 16.5198 41.4782 16.5268 41.2821 16.5268Z" fill="#1B1529"/>
<path d="M56.9001 47.0836C56.7594 47.0836 56.6245 47.0273 56.525 46.9272C56.4256 46.8271 56.3697 46.6912 56.3697 46.5496C56.3697 46.2618 56.3858 45.8996 56.4066 45.4795C56.4481 44.5695 56.5011 43.4366 56.3881 42.7147C56.3571 42.5457 56.3124 42.3795 56.2544 42.2179C56.1704 41.9766 56.1094 41.7279 56.0722 41.475C56.0143 41.0972 56.0647 40.7107 56.2175 40.3608C56.2967 40.1865 56.3301 39.9946 56.3143 39.8036C56.2774 39.7293 56.1759 39.5715 56.1137 39.4902C55.965 39.3049 55.8524 39.093 55.7816 38.8658C55.691 38.53 55.734 38.1719 55.9015 37.8676C55.9661 37.7547 56.004 37.6284 56.0122 37.4984C56.0421 37.3299 56.0136 37.1562 55.9315 37.0063C55.7912 36.732 55.7125 36.4301 55.7009 36.1219C55.655 35.662 55.7466 35.1988 55.9638 34.7917C56.0904 34.5601 56.1688 34.3049 56.1944 34.0418C56.1954 34.0295 56.1954 34.0171 56.1944 34.0047C56.1664 33.9808 56.1371 33.9583 56.1068 33.9374C55.9169 33.8119 55.7589 33.6433 55.6455 33.4452C55.2834 32.7674 55.0021 31.941 55.6455 30.959C55.7238 30.8411 55.8454 30.7593 55.9836 30.7317C56.1218 30.704 56.2652 30.7328 56.3824 30.8116C56.4995 30.8904 56.5807 31.0128 56.6082 31.1519C56.6357 31.291 56.6071 31.4354 56.5288 31.5533C56.2359 31.9967 56.2451 32.3217 56.5749 32.9461C56.6157 33.0011 56.6666 33.0476 56.7248 33.0831C56.9058 33.1927 57.0506 33.3536 57.1412 33.5456C57.2319 33.7375 57.2643 33.9521 57.2345 34.1626C57.2013 34.5489 57.0915 34.9246 56.9117 35.2676C56.7751 35.5114 56.7209 35.7932 56.7571 36.0708C56.7595 36.2424 56.8022 36.4111 56.8817 36.5629C57.0409 36.882 57.1012 37.2419 57.0546 37.5959C57.0355 37.8606 56.9617 38.1184 56.8378 38.3527C56.8109 38.3906 56.7935 38.4344 56.787 38.4805C56.7806 38.5266 56.7854 38.5735 56.801 38.6174C56.8286 38.6754 56.9163 38.8031 56.9739 38.889C57.1677 39.1167 57.2996 39.391 57.3568 39.6852C57.3943 40.0512 57.3371 40.4206 57.1907 40.7577C57.1046 40.9438 57.078 41.1523 57.1146 41.3543C57.1431 41.5387 57.1894 41.7199 57.253 41.8952C57.3278 42.1099 57.3848 42.3304 57.4236 42.5545C57.5528 43.3832 57.4974 44.5741 57.4536 45.5329C57.4329 45.9414 57.4167 46.292 57.4167 46.5543C57.4156 46.6927 57.3611 46.8253 57.2647 46.924C57.1683 47.0228 57.0376 47.08 56.9001 47.0836Z" fill="#1B1529"/>
<path d="M59.4739 44.9131C59.4041 44.9131 59.3349 44.8992 59.2704 44.8723C59.2059 44.8453 59.1473 44.8057 59.098 44.7559C59.0487 44.7061 59.0097 44.647 58.9832 44.5819C58.9567 44.5169 58.9432 44.4472 58.9435 44.3769C58.9435 42.2412 58.5952 40.4908 58.1916 38.4642C58.1017 37.9999 58.2723 37.5124 58.4223 37.0714C58.4981 36.8759 58.556 36.6739 58.5952 36.4678C58.6644 35.8503 58.4822 35.4673 58.2332 34.938C58.0882 34.6473 57.9626 34.3471 57.8572 34.0396C57.7732 33.7375 57.7566 33.4203 57.8088 33.111C57.8309 32.9869 57.8355 32.8603 57.8226 32.7349C57.8031 32.6676 57.7969 32.597 57.8045 32.5272C57.8121 32.4575 57.8332 32.3899 57.8667 32.3283C57.9002 32.2668 57.9455 32.2125 57.9999 32.1685C58.0542 32.1246 58.1166 32.0918 58.1836 32.0722C58.2505 32.0525 58.3206 32.0463 58.3899 32.0539C58.4592 32.0616 58.5264 32.0829 58.5875 32.1166C58.6487 32.1503 58.7026 32.1959 58.7463 32.2506C58.79 32.3053 58.8225 32.3681 58.842 32.4355C58.9022 32.6944 58.91 32.9628 58.8651 33.2248C58.8379 33.3783 58.8379 33.5355 58.8651 33.6891C58.9573 33.9552 59.0667 34.215 59.1926 34.4667C59.467 35.0517 59.753 35.653 59.6538 36.5746C59.6062 36.8605 59.5289 37.1406 59.4232 37.4103C59.3084 37.6722 59.2427 37.9531 59.2294 38.239C59.6261 40.2355 59.9998 42.1205 59.9998 44.3629C60.0019 44.434 59.9899 44.5048 59.9645 44.5712C59.9391 44.6375 59.9008 44.6981 59.8518 44.7494C59.8028 44.8006 59.7442 44.8415 59.6793 44.8696C59.6144 44.8977 59.5446 44.9125 59.4739 44.9131Z" fill="#1B1529"/>
<path d="M4.26209 48.2862C4.19219 48.2861 4.123 48.2721 4.05849 48.245C3.99398 48.2179 3.9354 48.1782 3.88617 48.1283C3.55176 47.7917 3.57713 47.274 3.59327 46.9676C3.59327 46.9281 3.59327 46.891 3.59327 46.8608C3.59327 46.5962 3.61172 46.3338 3.62325 46.0715C3.6573 45.5693 3.66271 45.0655 3.63941 44.5626C3.63704 44.4276 3.58902 44.2974 3.50332 44.1935C3.28706 43.9078 3.17913 43.5539 3.19891 43.1953C3.19849 42.8316 3.28975 42.4738 3.46413 42.1553C3.57129 41.9753 3.61741 41.7651 3.59558 41.5563C3.55699 41.3411 3.49031 41.1319 3.39724 40.9342C3.20055 40.5375 3.10318 40.0984 3.11358 39.6551C3.17689 39.1952 3.27951 38.7416 3.4203 38.2994C3.53304 37.9433 3.62014 37.5794 3.68091 37.2107C3.65554 37.1689 3.59557 37.0969 3.55636 37.0482C3.37953 36.8683 3.25786 36.6411 3.20583 36.3935C3.08126 35.3564 3.17877 34.3044 3.49181 33.3084C3.51028 33.2407 3.5418 33.1773 3.5846 33.1219C3.6274 33.0665 3.68063 33.0201 3.74124 32.9854C3.80184 32.9507 3.86864 32.9284 3.93783 32.9197C4.00702 32.9109 4.07723 32.916 4.14447 32.9346C4.2117 32.9532 4.27464 32.985 4.32968 33.028C4.38473 33.0711 4.43082 33.1247 4.46529 33.1857C4.49977 33.2467 4.52197 33.3139 4.53064 33.3836C4.5393 33.4532 4.53425 33.5239 4.51577 33.5916C4.25317 34.4344 4.1668 35.3228 4.26209 36.2009C4.29772 36.2546 4.33702 36.3058 4.37971 36.3541C4.50598 36.475 4.60458 36.6222 4.6687 36.7853C4.73281 36.9485 4.76091 37.1237 4.75101 37.2989C4.68621 37.7374 4.58593 38.1698 4.45119 38.5919C4.32845 38.9704 4.2382 39.3587 4.18138 39.7526C4.2033 40.0177 4.2753 40.2761 4.39353 40.514C4.53545 40.8166 4.62738 41.1404 4.66568 41.4728C4.70471 41.8689 4.62434 42.2677 4.43506 42.6173C4.33133 42.7908 4.27854 42.9904 4.28284 43.193C4.27475 43.2603 4.28085 43.3286 4.30071 43.3934C4.32058 43.4582 4.35377 43.518 4.39815 43.569C4.59326 43.8314 4.70501 44.147 4.71872 44.4744C4.74517 45.0159 4.74057 45.5584 4.7049 46.0994C4.7049 46.3524 4.68184 46.6055 4.67723 46.8585C4.67723 46.9003 4.67723 46.9467 4.67723 47.0001C4.66213 47.1258 4.66213 47.2528 4.67723 47.3785C4.74384 47.4561 4.78693 47.5513 4.80141 47.6528C4.81588 47.7544 4.80111 47.858 4.75887 47.9513C4.71663 48.0446 4.6487 48.1238 4.5631 48.1795C4.4775 48.2351 4.37784 48.2649 4.27594 48.2653L4.26209 48.2862Z" fill="#1B1529"/>
<path d="M1.64451 47.6177C1.57507 47.6182 1.50622 47.6047 1.44204 47.578C1.37786 47.5513 1.31967 47.5119 1.2709 47.4621C1.1233 47.3136 0.809654 46.9978 0.643604 43.7479C0.632888 43.3934 0.650622 43.0386 0.696643 42.687C0.730361 42.4259 0.74884 42.1632 0.751991 41.9C0.751991 41.7909 0.652825 41.6679 0.496 41.4798C0.253843 41.1896 -0.115158 40.7509 0.0347484 40.087C0.105184 39.8238 0.198556 39.5675 0.313797 39.3209C0.491378 38.91 0.645898 38.5525 0.544422 38.2391C0.507194 38.132 0.458474 38.0292 0.399127 37.9327C0.275347 37.7288 0.185006 37.5062 0.131593 37.2734C-0.013701 36.512 0.618212 34.5411 1.13943 34.1279C1.19364 34.0837 1.25598 34.0507 1.32287 34.0307C1.38976 34.0108 1.4599 34.0043 1.52928 34.0116C1.59867 34.0189 1.66596 34.0399 1.72728 34.0734C1.7886 34.1069 1.84274 34.1523 1.88665 34.2068C1.93057 34.2614 1.96339 34.3241 1.98322 34.3915C2.00304 34.4588 2.0095 34.5294 2.00222 34.5993C1.99494 34.6691 1.97404 34.7368 1.94076 34.7985C1.90748 34.8602 1.86246 34.9148 1.80825 34.959C1.57762 35.2143 1.10023 36.6791 1.17633 37.0715C1.21095 37.1937 1.26301 37.3102 1.33086 37.4173C1.42629 37.5793 1.50364 37.7513 1.56149 37.9304C1.76675 38.6268 1.4969 39.2443 1.28241 39.7457C1.18868 39.9352 1.11151 40.1325 1.05179 40.3354C1.02642 40.4422 1.06793 40.5164 1.28241 40.7811C1.57684 41.0719 1.75634 41.4604 1.7875 41.8745C1.78659 42.1803 1.76656 42.4858 1.72753 42.7891C1.68807 43.0837 1.67189 43.381 1.67911 43.6782C1.76675 45.3496 1.92586 46.4825 2.03426 46.7309C2.09601 46.8097 2.13453 46.9044 2.14543 47.0042C2.15633 47.104 2.13917 47.2049 2.09591 47.2954C2.05265 47.3859 1.98505 47.4623 1.90076 47.516C1.81647 47.5697 1.71889 47.5985 1.61915 47.5991L1.64451 47.6177Z" fill="#1B1529"/>
<path d="M21.2246 28.12C21.1121 28.1206 20.9997 28.1144 20.8879 28.1014C20.4052 28.0461 19.9431 27.8735 19.5413 27.5985C19.1396 27.3235 18.8102 26.9544 18.5817 26.5229C18.5256 26.3961 18.5207 26.2524 18.5681 26.1221C18.6155 25.9919 18.7114 25.8852 18.8355 25.8249C18.9596 25.7646 19.1022 25.7552 19.233 25.7988C19.3638 25.8424 19.4727 25.9356 19.5364 26.0586C19.6868 26.3273 19.8984 26.5562 20.1538 26.7265C20.4092 26.8968 20.7011 27.0037 21.0055 27.0382C21.7528 27.1241 22.3893 26.7689 22.6199 26.1282C22.6685 25.9952 22.7677 25.8872 22.8955 25.8277C23.0233 25.7683 23.1693 25.7624 23.3014 25.8114C23.4335 25.8603 23.5409 25.9601 23.6 26.0887C23.659 26.2174 23.6649 26.3643 23.6162 26.4973C23.4338 26.9839 23.1056 27.4014 22.6772 27.6921C22.2488 27.9828 21.7412 28.1323 21.2246 28.12Z" fill="#1B1529"/>
<path d="M39.4233 28.1199C38.9052 28.1338 38.3958 27.9848 37.9658 27.6935C37.5359 27.4023 37.207 26.9832 37.0248 26.4949C36.9762 26.3619 36.982 26.2149 37.041 26.0863C37.1001 25.9576 37.2075 25.8579 37.3396 25.8089C37.4717 25.76 37.6177 25.7659 37.7455 25.8253C37.8733 25.8847 37.9725 25.9928 38.0211 26.1258C38.2517 26.7665 38.8906 27.1217 39.6355 27.0358C39.94 27.0016 40.2321 26.8949 40.4876 26.7246C40.743 26.5542 40.9545 26.3251 41.1046 26.0562C41.1683 25.9332 41.2772 25.84 41.408 25.7964C41.5389 25.7527 41.6814 25.7621 41.8055 25.8225C41.9296 25.8828 42.0255 25.9894 42.0729 26.1197C42.1203 26.25 42.1154 26.3937 42.0594 26.5204C41.8308 26.952 41.5014 27.3211 41.0997 27.5961C40.6979 27.8711 40.2358 28.0436 39.7531 28.099C39.6437 28.1124 39.5335 28.1194 39.4233 28.1199Z" fill="#1B1529"/>
<path fill-rule="evenodd" clip-rule="evenodd" d="M10.8349 31.7366C10.7219 29.4895 13.1412 28.1965 15.0046 28.8232C16.8681 29.45 17.4862 30.8266 16.9211 32.7697C16.1831 35.3 11.0402 35.8154 10.8349 31.7366Z" fill="#FE7D7B"/>
<path fill-rule="evenodd" clip-rule="evenodd" d="M43.5307 31.7366C43.4177 29.4895 45.837 28.1965 47.6981 28.8232C49.5593 29.45 50.1797 30.8266 49.617 32.7697C48.879 35.3 43.7337 35.8154 43.5307 31.7366Z" fill="#FE7D7B"/>
<path fill-rule="evenodd" clip-rule="evenodd" d="M27.1056 30.3347C26.9811 28.979 28.2587 28.192 30.1752 28.1943C32.3431 28.1943 33.4732 28.8629 33.547 29.9099C33.6369 31.1774 32.5483 32.0154 30.5165 32.0618C28.0857 32.1175 27.2186 31.5581 27.1056 30.3347Z" fill="#1B1529"/>
<path d="M30.5004 36.5745C30.3625 36.5745 30.2299 36.5205 30.1309 36.4239C30.0319 36.3273 29.9741 36.1956 29.9699 36.0568L29.7947 30.8243C29.7901 30.6827 29.8416 30.5451 29.9378 30.4417C30.034 30.3383 30.1672 30.2776 30.3078 30.273C30.4485 30.2684 30.5852 30.3202 30.688 30.4171C30.7907 30.5139 30.851 30.6479 30.8556 30.7895L31.0308 36.022C31.0333 36.0921 31.022 36.162 30.9976 36.2278C30.9732 36.2935 30.9362 36.3537 30.8886 36.4051C30.8411 36.4564 30.7839 36.4977 30.7205 36.5268C30.657 36.5559 30.5885 36.5721 30.5188 36.5745H30.5004Z" fill="#1B1529"/>
<path fill-rule="evenodd" clip-rule="evenodd" d="M18.6716 42.4872C18.3695 35.9455 20.2422 35.1539 22.9774 34.9868C25.7126 34.8196 37.2992 34.5225 39.1673 34.9868C41.0354 35.451 42.8412 37.0157 42.7374 41.7653C42.6336 46.5149 41.6004 47.2113 38.6576 47.4713C35.7148 47.7313 24.8408 47.8242 22.9451 47.657C21.0494 47.4899 18.8884 47.1579 18.6716 42.4872Z" fill="#B02F10"/>
<mask id="mask0_17_3004" style="mask-type:luminance" maskUnits="userSpaceOnUse" x="18" y="34" width="25" height="14">
<path d="M18.6716 42.4872C18.3695 35.9455 20.2422 35.1539 22.9774 34.9868C25.7126 34.8196 37.2992 34.5225 39.1673 34.9868C41.0354 35.451 42.8412 37.0157 42.7374 41.7653C42.6336 46.5149 41.6004 47.2113 38.6576 47.4713C35.7148 47.7313 24.8408 47.8242 22.9451 47.657C21.0494 47.4899 18.8884 47.1579 18.6716 42.4872Z" fill="white"/>
</mask>
<g mask="url(#mask0_17_3004)">
<path fill-rule="evenodd" clip-rule="evenodd" d="M16.7159 38.8218L43.5331 38.7893C43.5331 38.7893 44.4025 34.0582 39.8015 33.9677C35.2005 33.8771 22.7168 33.2898 20.339 33.9677C17.9613 34.6455 16.7159 38.8218 16.7159 38.8218Z" fill="white"/>
<path d="M16.7159 39.3578C16.633 39.3574 16.5514 39.3377 16.4774 39.3002C16.4034 39.2628 16.339 39.2086 16.2892 39.142C16.2419 39.0757 16.2099 38.9996 16.1955 38.9193C16.1811 38.8389 16.1848 38.7564 16.2062 38.6777C16.2616 38.4966 17.5669 34.2112 20.1937 33.4638C22.1517 32.9043 30.1867 33.155 36.0515 33.3361C37.5529 33.3825 38.8513 33.4243 39.8131 33.4429C41.3029 33.473 42.4353 33.9536 43.1825 34.8752C44.4809 36.477 44.075 38.7984 44.0566 38.8959C44.0344 39.0186 43.97 39.1296 43.8747 39.2094C43.7794 39.2892 43.6593 39.3327 43.5354 39.3323L16.7159 39.3671V39.3578ZM25.8556 34.1788C23.3348 34.1788 21.28 34.2554 20.4843 34.4829C19.059 34.8891 17.9774 36.9714 17.4654 38.2877L43.0649 38.2552C43.1018 37.6121 43.0649 36.398 42.373 35.5368C41.831 34.8729 40.9685 34.5247 39.8084 34.5014C38.8398 34.4829 37.5414 34.4434 36.0354 34.397C32.9612 34.3018 29.0359 34.1788 25.851 34.1788H25.8556Z" fill="#1B1529"/>
<path d="M22.5438 39.3579C22.4051 39.3579 22.2719 39.3032 22.1728 39.2056C22.0736 39.108 22.0164 38.9751 22.0134 38.8356L21.8911 33.6588C21.8895 33.5887 21.9015 33.5189 21.9267 33.4535C21.9518 33.3881 21.9894 33.3283 22.0375 33.2775C22.0856 33.2268 22.1431 33.186 22.2069 33.1576C22.2706 33.1292 22.3393 33.1138 22.4089 33.1121C22.4786 33.1104 22.5479 33.1226 22.6128 33.1479C22.6778 33.1731 22.7373 33.2111 22.7877 33.2594C22.8381 33.3078 22.8786 33.3658 22.9068 33.4299C22.935 33.494 22.9504 33.5631 22.952 33.6332L23.0742 38.81C23.0761 38.8801 23.0642 38.95 23.0392 39.0154C23.0142 39.0809 22.9767 39.1408 22.9287 39.1917C22.8807 39.2426 22.8233 39.2835 22.7596 39.312C22.6959 39.3405 22.6273 39.3561 22.5576 39.3579H22.5438Z" fill="#1B1529"/>
<path d="M27.2993 39.344C27.1637 39.3442 27.0331 39.2921 26.9345 39.1984C26.8358 39.1048 26.7765 38.9766 26.7689 38.8403L26.4668 33.6821C26.4605 33.6109 26.4684 33.5392 26.4902 33.4711C26.5119 33.4031 26.5471 33.3402 26.5934 33.2861C26.6398 33.2319 26.6965 33.1877 26.7601 33.1561C26.8238 33.1244 26.8931 33.1059 26.964 33.1018C27.0348 33.0976 27.1058 33.1077 27.1727 33.1316C27.2396 33.1556 27.3011 33.1928 27.3534 33.2411C27.4058 33.2893 27.448 33.3477 27.4775 33.4127C27.507 33.4777 27.5233 33.548 27.5253 33.6194L27.8297 38.7776C27.8379 38.9191 27.7902 39.0581 27.6968 39.1643C27.6035 39.2704 27.4722 39.3351 27.3316 39.344H27.2993Z" fill="#1B1529"/>
<path d="M31.7504 39.344C31.6097 39.344 31.4748 39.2877 31.3753 39.1876C31.2758 39.0875 31.2199 38.9517 31.2199 38.8101V33.7378C31.2152 33.6645 31.2253 33.5911 31.2499 33.522C31.2744 33.4529 31.3128 33.3896 31.3627 33.336C31.4125 33.2824 31.4727 33.2397 31.5396 33.2105C31.6065 33.1813 31.6786 33.1663 31.7515 33.1663C31.8244 33.1663 31.8966 33.1813 31.9635 33.2105C32.0304 33.2397 32.0906 33.2824 32.1404 33.336C32.1903 33.3896 32.2286 33.4529 32.2532 33.522C32.2777 33.5911 32.2879 33.6645 32.2831 33.7378V38.8101C32.2825 38.9519 32.2261 39.0877 32.1263 39.1877C32.0265 39.2878 31.8913 39.344 31.7504 39.344Z" fill="#1B1529"/>
<path d="M36.5059 39.344C36.3708 39.3437 36.2408 39.2918 36.1424 39.1987C36.0439 39.1056 35.9842 38.9783 35.9754 38.8426L35.6733 33.9003C35.6691 33.8302 35.6786 33.7599 35.7014 33.6935C35.7241 33.6271 35.7596 33.5658 35.8059 33.5132C35.8521 33.4606 35.9082 33.4177 35.9709 33.387C36.0337 33.3562 36.1018 33.3381 36.1715 33.3339C36.2411 33.3296 36.311 33.3392 36.3769 33.3621C36.4429 33.385 36.5038 33.4207 36.556 33.4673C36.6083 33.5138 36.6509 33.5703 36.6815 33.6334C36.712 33.6966 36.73 33.7652 36.7342 33.8353L37.0363 38.7753C37.0452 38.9172 36.9976 39.0568 36.9042 39.1635C36.8108 39.2701 36.6791 39.3351 36.5382 39.344H36.5059Z" fill="#1B1529"/>
<path d="M40.6549 39.344C40.5231 39.3435 40.3962 39.2938 40.2986 39.2047C40.2011 39.1155 40.1399 38.9931 40.1267 38.8611L39.6655 34.0395C39.6542 33.9673 39.6576 33.8936 39.6756 33.8228C39.6937 33.752 39.7259 33.6857 39.7703 33.6279C39.8147 33.5701 39.8704 33.522 39.9339 33.4866C39.9974 33.4513 40.0675 33.4294 40.1397 33.4222C40.212 33.4151 40.2849 33.4229 40.3541 33.4452C40.4232 33.4675 40.4871 33.5037 40.5418 33.5517C40.5965 33.5998 40.6409 33.6585 40.6723 33.7245C40.7036 33.7904 40.7212 33.862 40.724 33.9351L41.1853 38.7567C41.1988 38.8979 41.1562 39.0388 41.0667 39.1484C40.9772 39.2581 40.8482 39.3276 40.7079 39.3417L40.6549 39.344Z" fill="#1B1529"/>
<path fill-rule="evenodd" clip-rule="evenodd" d="M16.7159 44.0007L43.5331 44.0332C43.5331 44.0332 44.4025 48.7643 39.8015 48.8548C35.2005 48.9454 22.7168 49.5327 20.339 48.8548C17.9613 48.177 16.7159 44.0007 16.7159 44.0007Z" fill="white"/>
<path d="M25.9409 49.7114C23.2703 49.7114 21.0839 49.6255 20.1753 49.3702C17.5484 48.6203 16.2546 44.335 16.1877 44.1539C16.1663 44.0752 16.1627 43.9927 16.1771 43.9123C16.1914 43.832 16.2234 43.7559 16.2708 43.6897C16.3205 43.623 16.3849 43.5688 16.459 43.5314C16.533 43.4939 16.6146 43.4742 16.6974 43.4738L43.5169 43.5086C43.6408 43.5082 43.761 43.5517 43.8563 43.6315C43.9516 43.7113 44.0159 43.8223 44.0381 43.945C44.0566 44.0425 44.4625 46.3639 43.1641 47.9657C42.4168 48.8943 41.2844 49.3586 39.7946 49.398C38.8306 49.4166 37.5322 49.4584 36.0262 49.5048C32.8758 49.593 29.0797 49.7114 25.9409 49.7114ZM17.4539 44.5347C17.9659 45.8509 19.0475 47.9332 20.4728 48.3395C22.2717 48.8525 30.5327 48.5971 36.0008 48.4254C37.5091 48.3789 38.8121 48.3394 39.7808 48.3209C40.9339 48.2977 41.8034 47.9495 42.3453 47.2855C43.0372 46.4243 43.0833 45.2102 43.0372 44.5672L17.4539 44.5347Z" fill="#1B1529"/>
<path d="M22.4216 49.7115H22.4077C22.338 49.71 22.2692 49.6946 22.2054 49.6662C22.1416 49.6378 22.084 49.5969 22.036 49.546C21.9879 49.495 21.9504 49.435 21.9255 49.3694C21.9007 49.3038 21.889 49.2338 21.8911 49.1636L22.0134 43.9869C22.015 43.9168 22.0304 43.8477 22.0586 43.7835C22.0868 43.7194 22.1273 43.6615 22.1777 43.6131C22.2281 43.5647 22.2875 43.5267 22.3525 43.5015C22.4175 43.4762 22.4868 43.4641 22.5565 43.4657C22.6261 43.4674 22.6948 43.4829 22.7585 43.5112C22.8222 43.5396 22.8798 43.5804 22.9278 43.6311C22.9759 43.6819 23.0136 43.7417 23.0387 43.8071C23.0638 43.8725 23.0759 43.9423 23.0742 44.0124L22.9428 49.2008C22.9369 49.3367 22.8797 49.4653 22.7829 49.5602C22.686 49.6551 22.5567 49.7092 22.4216 49.7115Z" fill="#1B1529"/>
<path d="M26.9972 49.7068H26.9649C26.8952 49.7026 26.827 49.6847 26.7642 49.6539C26.7014 49.6232 26.6453 49.5803 26.599 49.5277C26.5527 49.4751 26.5172 49.4138 26.4945 49.3473C26.4718 49.2808 26.4624 49.2105 26.4668 49.1403L26.7689 43.9822C26.7771 43.8405 26.8409 43.708 26.9462 43.6138C27.0516 43.5195 27.1898 43.4712 27.3304 43.4796C27.4711 43.4879 27.6028 43.5521 27.6964 43.6581C27.79 43.7641 27.838 43.9032 27.8297 44.0448L27.5253 49.203C27.5182 49.3391 27.4595 49.4673 27.3612 49.561C27.2629 49.6548 27.1326 49.707 26.9972 49.7068Z" fill="#1B1529"/>
<path d="M31.7504 49.621C31.6095 49.6204 31.4746 49.5636 31.3752 49.4631C31.2757 49.3626 31.2199 49.2266 31.2199 49.0847V44.0125C31.2288 43.8766 31.2887 43.7493 31.3874 43.6563C31.4861 43.5632 31.6163 43.5115 31.7515 43.5115C31.8868 43.5115 32.0169 43.5632 32.1156 43.6563C32.2144 43.7493 32.2742 43.8766 32.2831 44.0125V49.0847C32.2825 49.2268 32.2262 49.3628 32.1264 49.4633C32.0267 49.5637 31.8915 49.6204 31.7504 49.621Z" fill="#1B1529"/>
<path d="M36.2038 49.4886H36.1715C36.1018 49.4844 36.0336 49.4665 35.9708 49.4357C35.908 49.405 35.8518 49.3621 35.8055 49.3095C35.7593 49.2568 35.7238 49.1955 35.7011 49.1291C35.6784 49.0626 35.6689 48.9923 35.6733 48.9222L35.9754 43.9798C35.9798 43.9097 35.9979 43.8412 36.0286 43.7781C36.0593 43.715 36.1021 43.6586 36.1544 43.6122C36.2068 43.5657 36.2678 43.5301 36.3338 43.5073C36.3998 43.4846 36.4697 43.4752 36.5393 43.4796C36.609 43.484 36.6771 43.5022 36.7398 43.5331C36.8024 43.564 36.8584 43.6071 36.9046 43.6598C36.9507 43.7125 36.9861 43.7738 37.0087 43.8403C37.0313 43.9068 37.0407 43.9771 37.0363 44.0472L36.7342 48.9871C36.7254 49.1228 36.6658 49.2501 36.5673 49.3432C36.4688 49.4363 36.3389 49.4883 36.2038 49.4886Z" fill="#1B1529"/>
<path d="M40.1844 49.3703H40.1313C39.9913 49.3556 39.8627 49.286 39.7733 49.1765C39.6839 49.067 39.641 48.9264 39.6539 48.7853L40.1152 43.9637C40.1364 43.8286 40.208 43.7068 40.3155 43.6231C40.423 43.5395 40.5582 43.5003 40.6934 43.5137C40.8286 43.527 40.9536 43.5919 41.0429 43.6949C41.1322 43.798 41.179 43.9315 41.1738 44.0682L40.7125 48.8898C40.6989 49.0214 40.6374 49.1432 40.5399 49.2319C40.4424 49.3206 40.3158 49.3699 40.1844 49.3703Z" fill="#1B1529"/>
</g>
<path d="M27.4169 48.2721C25.3044 48.2721 23.5655 48.2443 22.899 48.1839C20.6158 47.982 18.3672 47.3761 18.1412 42.5058C17.8414 36.029 19.6748 34.6477 22.9451 34.4481C25.6734 34.2856 37.3154 33.9606 39.2988 34.4644C42.0225 35.1608 43.3578 37.6192 43.2702 41.7722C43.1641 46.7238 41.9809 47.708 38.7038 47.9982C36.7504 48.177 31.4137 48.2721 27.4169 48.2721ZM33.5654 35.2722C29.6448 35.2722 24.8432 35.4161 23.0074 35.5252C20.5212 35.6761 18.9138 36.2402 19.2021 42.4663C19.4027 46.8097 21.31 46.9791 22.9912 47.1277C24.8362 47.2902 35.7264 47.1973 38.6115 46.942C41.0953 46.7238 42.1078 46.4475 42.207 41.7582C42.2854 38.1183 41.2476 36.0754 39.0382 35.5113C38.3486 35.3303 36.1507 35.2722 33.5654 35.2722Z" fill="#1B1529"/>
<path d="M23.8422 30.4807H23.7892L19.1167 29.9956C18.9865 29.9747 18.869 29.9045 18.7886 29.7993C18.7081 29.694 18.6707 29.5618 18.684 29.4297C18.6972 29.2976 18.7602 29.1756 18.86 29.0888C18.9597 29.0019 19.0887 28.9567 19.2205 28.9625L23.893 29.4454C24.0253 29.458 24.1478 29.5215 24.2348 29.6227C24.3219 29.7239 24.3668 29.855 24.3602 29.9886C24.3537 30.1223 24.2962 30.2483 24.1997 30.3404C24.1032 30.4325 23.9752 30.4836 23.8422 30.4831V30.4807Z" fill="#EDAE5D"/>
<path d="M19.1674 32.967C19.0377 32.9629 18.9142 32.9098 18.8216 32.8182C18.729 32.7267 18.6741 32.6034 18.6677 32.4729C18.6613 32.3424 18.7039 32.2143 18.7871 32.114C18.8703 32.0137 18.988 31.9486 19.1167 31.9316L23.7892 31.4465C23.8567 31.4396 23.9249 31.4462 23.99 31.4659C24.055 31.4856 24.1155 31.5179 24.168 31.5612C24.2206 31.6044 24.2642 31.6576 24.2964 31.7178C24.3285 31.778 24.3486 31.8439 24.3554 31.9119C24.3622 31.9799 24.3556 32.0486 24.3361 32.114C24.3165 32.1794 24.2844 32.2403 24.2414 32.2933C24.1985 32.3462 24.1456 32.3901 24.0858 32.4224C24.026 32.4548 23.9605 32.475 23.893 32.4818L19.2205 32.9647L19.1674 32.967Z" fill="#EDAE5D"/>
<path d="M36.9556 30.4808C36.8224 30.482 36.694 30.4313 36.597 30.3394C36.5 30.2475 36.4421 30.1215 36.4352 29.9876C36.4284 29.8537 36.4732 29.7223 36.5602 29.6208C36.6473 29.5194 36.77 29.4557 36.9026 29.4431L41.5751 28.9603C41.6444 28.9493 41.7151 28.9527 41.7831 28.9701C41.8511 28.9876 41.9148 29.0188 41.9704 29.0619C42.026 29.1049 42.0723 29.1589 42.1064 29.2206C42.1406 29.2822 42.162 29.3503 42.1692 29.4205C42.1764 29.4907 42.1693 29.5617 42.1484 29.6291C42.1275 29.6965 42.0931 29.7589 42.0475 29.8125C42.0018 29.8661 41.9458 29.9097 41.8828 29.9408C41.8198 29.9719 41.7512 29.9898 41.6811 29.9933L37.0087 30.4785L36.9556 30.4808Z" fill="#EDAE5D"/>
<path d="M41.6235 32.9671H41.5681L36.8956 32.4843C36.7592 32.4701 36.634 32.402 36.5475 32.2949C36.461 32.1878 36.4203 32.0505 36.4344 31.9132C36.4485 31.7759 36.5161 31.6498 36.6225 31.5628C36.7289 31.4757 36.8653 31.4348 37.0017 31.4489L41.6742 31.9341C41.8029 31.951 41.9206 32.0161 42.0038 32.1164C42.087 32.2167 42.1296 32.3448 42.1232 32.4753C42.1168 32.6058 42.0619 32.7291 41.9693 32.8207C41.8767 32.9122 41.7532 32.9653 41.6235 32.9694V32.9671Z" fill="#EDAE5D"/>
<path fill-rule="evenodd" clip-rule="evenodd" d="M17.2348 56.5179C17.1195 59.6449 29.6309 61.0656 29.481 56.7501C29.4326 55.3572 29.5364 52.2117 29.6563 51.4781C30.392 46.9212 33.5885 45.5608 31.7504 43.5551C29.8131 41.438 28.6923 43.7617 28.6923 43.7617C28.6923 43.7617 29.9654 42.3549 27.3086 40.976C24.9285 39.7549 24.1467 41.4798 24.1467 41.4798C24.1467 41.4798 24.3196 39.7828 21.6374 40.275C18.1781 40.9087 19.827 42.5616 19.827 42.5616C19.827 42.5616 17.5877 41.4357 16.7205 43.1164C15.5328 45.4146 18.3833 46.0878 18.7316 48.3001C18.9991 50.0435 17.3616 53.1472 17.2348 56.5179Z" fill="white"/>
<path d="M24.3588 60C22.0526 60 19.6033 59.4545 18.1504 58.5839C16.9188 57.8457 16.6836 57.0425 16.7043 56.4947C16.7712 54.7211 17.2302 53.0566 17.6268 51.5849C17.9912 50.2663 18.3187 49.1265 18.1896 48.3883C18.0604 47.65 17.5807 47.0697 17.0618 46.4801C16.3077 45.6188 15.3667 44.5486 16.2316 42.8749C16.8243 41.7142 17.9382 41.5563 18.8838 41.7142C18.8828 41.571 18.9038 41.4285 18.946 41.2917C19.1767 40.5303 20.0254 40.0288 21.5244 39.7526C22.7098 39.5367 23.5885 39.683 24.1328 40.189C24.218 40.2636 24.2953 40.3468 24.3634 40.4374C24.5383 40.3135 24.7292 40.2143 24.9308 40.1426C25.6826 39.8803 26.5613 40.001 27.5414 40.5047C28.5216 41.0085 29.1812 41.6236 29.4211 42.2945C29.5804 42.2193 29.7498 42.1677 29.9238 42.1413C30.6641 42.0345 31.4091 42.3735 32.1424 43.186C33.4316 44.5904 32.7213 45.8115 31.8957 47.2229C31.2707 48.2954 30.4935 49.6302 30.1821 51.557C30.0691 52.2534 29.9677 55.3897 30.0161 56.7245C30.0484 57.7041 29.5548 58.5236 28.6116 59.09C27.5553 59.7237 25.994 60 24.3588 60ZM18.3141 42.731C18.0838 42.7146 17.8538 42.7666 17.6526 42.8805C17.4513 42.9944 17.2876 43.1651 17.1818 43.3717C16.6767 44.349 17.048 44.8411 17.8736 45.7743C18.441 46.4197 19.0867 47.1533 19.2574 48.2211C19.4096 49.1915 19.066 50.4358 18.6693 51.875C18.2726 53.3143 17.8367 54.8929 17.7745 56.5388C17.7583 57.0239 18.3487 57.4534 18.697 57.6646C20.8764 58.9693 25.9086 59.4591 28.0719 58.173C28.6854 57.8063 28.9737 57.3466 28.9529 56.7639C28.9022 55.3246 29.0082 52.1583 29.1328 51.3875C29.4764 49.2634 30.3459 47.7731 30.9778 46.6843C31.8219 45.2358 32.0779 44.6949 31.3606 43.9126C31.0308 43.5527 30.5373 43.1372 30.0806 43.2022C29.7792 43.2762 29.516 43.4608 29.3426 43.7199C29.2745 43.8627 29.1885 43.9961 29.0867 44.1168C29.0001 44.2105 28.8831 44.27 28.7567 44.2844C28.6304 44.2988 28.5031 44.2674 28.3979 44.1956C28.2926 44.1238 28.2163 44.0166 28.1828 43.8931C28.1492 43.7697 28.1606 43.6383 28.2149 43.5226C28.2736 43.4076 28.3399 43.2967 28.4132 43.1906C28.4655 43.0595 28.4792 42.916 28.4524 42.7774C28.3648 42.3456 27.8712 41.8767 27.0571 41.4588C26.3653 41.0967 25.7587 40.9945 25.2952 41.1501C25.0075 41.2471 24.7659 41.4481 24.6171 41.7142C24.562 41.8271 24.4693 41.9171 24.3551 41.9684C24.2409 42.0197 24.1125 42.0291 23.9921 41.9951C23.8727 41.9613 23.7688 41.8863 23.6988 41.7831C23.6288 41.68 23.5971 41.5553 23.6093 41.431C23.6105 41.3441 23.5937 41.258 23.5599 41.178C23.5262 41.0981 23.4762 41.0261 23.4133 40.9667C23.1319 40.7137 22.53 40.6579 21.7228 40.8065C20.2468 41.0758 20.0092 41.4867 19.97 41.6074C19.9031 41.821 20.1153 42.1065 20.2006 42.1901C20.29 42.2812 20.344 42.4015 20.3529 42.5293C20.3617 42.657 20.3249 42.7837 20.2491 42.8865C20.1762 42.9887 20.0695 43.0613 19.9483 43.0915C19.827 43.1217 19.699 43.1075 19.5872 43.0513C19.1886 42.8592 18.7556 42.7502 18.3141 42.731Z" fill="#1B1529"/>
<path fill-rule="evenodd" clip-rule="evenodd" d="M48.6645 56.5179C48.7798 59.6449 36.2683 61.0656 36.4182 56.7501C36.4667 55.3572 36.3629 52.2117 36.243 51.4781C35.5073 46.9212 32.3108 45.5608 34.1489 43.5551C36.0861 41.438 37.2047 43.7617 37.2047 43.7617C37.2047 43.7617 35.9339 42.3549 38.6 40.976C40.98 39.7549 41.7618 41.4798 41.7618 41.4798C41.7618 41.4798 41.5889 39.7828 44.271 40.275C47.7304 40.9087 46.0814 42.5616 46.0814 42.5616C46.0814 42.5616 48.3208 41.4357 49.188 43.1164C50.3757 45.4146 47.5252 46.0878 47.1746 48.3001C46.9002 50.0435 48.5422 53.1472 48.6645 56.5179Z" fill="white"/>
<path d="M41.5405 60C39.9053 60 38.3509 59.7237 37.29 59.0923C36.3375 58.5259 35.8532 57.6995 35.8855 56.7268C35.9339 55.392 35.8325 52.2534 35.7195 51.5593C35.4081 49.6325 34.6309 48.2977 34.0059 47.2252C33.1803 45.8138 32.47 44.5927 33.7568 43.1883C34.4925 42.3851 35.2421 42.0276 35.9778 42.1436C36.1518 42.17 36.3212 42.2216 36.4805 42.2969C36.7111 41.626 37.3523 41.0247 38.3601 40.5071C39.368 39.9894 40.219 39.8826 40.9708 40.1449C41.1726 40.2162 41.3635 40.3155 41.5382 40.4397C41.6027 40.3497 41.6761 40.2665 41.7572 40.1913C42.3015 39.6853 43.1802 39.539 44.3679 39.7549C45.8647 40.0312 46.7088 40.5326 46.944 41.294C46.9862 41.4308 47.0072 41.5733 47.0063 41.7165C47.9518 41.5587 49.0658 41.7165 49.6585 42.8772C50.5233 44.551 49.5824 45.6211 48.8282 46.4824C48.3093 47.072 47.8204 47.6292 47.7005 48.3906C47.5805 49.152 47.8988 50.2686 48.2632 51.5872C48.6691 53.059 49.1281 54.7234 49.1857 56.497C49.2065 57.0425 48.9712 57.8457 47.7397 58.5863C46.296 59.4545 43.8398 60 41.5405 60ZM35.7218 43.1952C35.2905 43.1952 34.8454 43.5783 34.5387 43.9126C33.8214 44.6949 34.0774 45.2358 34.9215 46.6843C35.5557 47.7731 36.4252 49.2634 36.7665 51.3875C36.891 52.1583 36.9971 55.3339 36.9464 56.7639C36.9256 57.3466 37.2139 57.8063 37.8274 58.173C39.9907 59.4591 45.0229 58.9716 47.2023 57.6646C47.5575 57.4534 48.1479 57.0239 48.1248 56.5388C48.0625 54.8882 47.6198 53.2888 47.23 51.875C46.8403 50.4613 46.4897 49.1915 46.6419 48.2211C46.8103 47.1533 47.4537 46.4197 48.0257 45.7743C48.8444 44.8458 49.2157 44.349 48.7175 43.3717C48.0972 42.1715 46.3905 43.0095 46.3167 43.0467C46.2039 43.1037 46.0746 43.1183 45.952 43.0879C45.8294 43.0576 45.7216 42.9841 45.6479 42.8809C45.5743 42.7777 45.5396 42.6514 45.5502 42.5248C45.5608 42.3982 45.6158 42.2795 45.7056 42.1901C45.784 42.1088 45.9961 41.8233 45.9362 41.6097C45.897 41.489 45.6594 41.0781 44.1834 40.8088C43.3762 40.6603 42.7743 40.716 42.4929 40.969C42.4302 41.0286 42.3804 41.1006 42.3467 41.1805C42.3129 41.2604 42.296 41.3465 42.2969 41.4333C42.3048 41.5583 42.2693 41.6822 42.1965 41.7838C42.1238 41.8854 42.0182 41.9584 41.8979 41.9904C41.7781 42.0222 41.651 42.0105 41.5389 41.9575C41.4267 41.9044 41.3367 41.8134 41.2845 41.7002C41.1362 41.4371 40.8962 41.2386 40.611 41.1431C40.1498 40.9876 39.5525 41.092 38.8491 41.4519C38.0349 41.8697 37.5414 42.3387 37.4653 42.7704C37.4388 42.9099 37.4524 43.054 37.5045 43.186C37.5781 43.2911 37.6444 43.4012 37.7028 43.5156C37.7571 43.6313 37.7686 43.7628 37.735 43.8862C37.7014 44.0096 37.6251 44.1169 37.5199 44.1886C37.4146 44.2604 37.2873 44.2919 37.161 44.2774C37.0347 44.263 36.9177 44.2036 36.8311 44.1099C36.7286 43.9883 36.6418 43.8541 36.5728 43.7106C36.4001 43.4524 36.1376 43.2686 35.8371 43.1952H35.7218Z" fill="#1B1529"/>
</svg>
