<svg width="67" height="62" viewBox="0 0 67 62" fill="none" xmlns="http://www.w3.org/2000/svg">
<path fill-rule="evenodd" clip-rule="evenodd" d="M12.3639 31.2054C12.3639 31.2054 10.3288 17.346 13.5188 15.7644C16.7758 14.1494 21.98 21.9367 21.98 21.9367L12.3639 31.2054Z" fill="#EDAE5D"/>
<path d="M12.3639 31.6321C12.3184 31.6322 12.2731 31.6241 12.2301 31.608C12.161 31.5823 12.0997 31.5373 12.0529 31.4778C12.0061 31.4183 11.9754 31.3465 11.9643 31.2701C11.7513 29.8184 9.97842 17.0468 13.3463 15.378C16.8674 13.6312 22.0909 21.361 22.311 21.6895C22.3664 21.7741 22.3913 21.8768 22.3809 21.979C22.3706 22.0813 22.3258 22.1762 22.2546 22.2464L12.6386 31.5152C12.564 31.5888 12.4661 31.6305 12.3639 31.6321ZM14.4766 15.9739C14.2033 15.9729 13.9332 16.0363 13.6861 16.1595C11.4485 17.2733 12.1016 26.1336 12.6509 30.3512L21.4342 21.8845C20.0434 19.8796 16.7987 15.9739 14.4766 15.9739Z" fill="#1B1529"/>
<path fill-rule="evenodd" clip-rule="evenodd" d="M47.5993 31.2054C47.5993 31.2054 49.6362 17.346 46.4461 15.7644C43.1892 14.1494 37.985 21.9367 37.985 21.9367L47.5993 31.2054Z" fill="#EDAE5D"/>
<path d="M47.5993 31.6322C47.4984 31.6319 47.4012 31.5922 47.3264 31.5209L37.7156 22.2522C37.6446 22.1819 37.5996 22.0872 37.589 21.985C37.5783 21.8829 37.6026 21.7801 37.6575 21.6953C37.8794 21.3667 43.0976 13.635 46.6239 15.3837C49.9901 17.0544 48.219 29.8242 48.006 31.2758C47.9948 31.3522 47.9642 31.424 47.9174 31.4835C47.8706 31.543 47.8093 31.588 47.7401 31.6137C47.6946 31.6287 47.6469 31.635 47.5993 31.6322ZM38.5237 21.8772L47.3088 30.3439C47.8546 26.1263 48.5112 17.2605 46.2736 16.1522C43.9655 15.0087 40.0853 19.6403 38.5237 21.8772Z" fill="#1B1529"/>
<path d="M29.7598 17.5427C29.6588 17.5427 29.5615 17.5029 29.4869 17.4311C29.4123 17.3593 29.3659 17.2608 29.3566 17.1547C29.1102 14.3702 27.4376 11.673 27.42 11.6451C27.3879 11.5985 27.365 11.5455 27.3528 11.4894C27.3406 11.4332 27.3393 11.375 27.349 11.3183C27.3587 11.2616 27.3792 11.2075 27.4092 11.1594C27.4392 11.1113 27.4782 11.07 27.5237 11.0382C27.5693 11.0063 27.6205 10.9845 27.6742 10.9741C27.7279 10.9637 27.7831 10.9648 27.8364 10.9775C27.8898 10.9901 27.9401 11.014 27.9844 11.0477C28.0287 11.0814 28.0661 11.1243 28.0943 11.1736C28.1683 11.2906 29.8971 14.0658 30.1612 17.0768C30.1663 17.1329 30.1608 17.1895 30.145 17.2434C30.1292 17.2972 30.1035 17.3473 30.0693 17.3906C30.0351 17.4339 29.9931 17.4696 29.9457 17.4957C29.8983 17.5218 29.8465 17.5378 29.7932 17.5427H29.7598Z" fill="#1B1529"/>
<path d="M31.2386 15.9721C31.1634 15.9722 31.0896 15.9502 31.0255 15.9086C30.9615 15.867 30.9097 15.8073 30.876 15.7364C29.7756 13.4234 30.0221 10.611 30.0327 10.4922C30.0488 10.3842 30.1035 10.2868 30.1856 10.2199C30.2676 10.153 30.3708 10.1216 30.4741 10.1323C30.5773 10.143 30.6727 10.1948 30.7409 10.2773C30.8091 10.3597 30.8448 10.4665 30.8408 10.5757C30.8408 10.6036 30.6084 13.2656 31.6013 15.3521C31.6499 15.4528 31.6587 15.5697 31.6257 15.6773C31.5927 15.7848 31.5206 15.8741 31.4253 15.9257C31.3676 15.9571 31.3035 15.9731 31.2386 15.9721Z" fill="#1B1529"/>
<path d="M25.2669 14.1251C25.0766 14.1259 24.8869 14.1029 24.7018 14.0564C24.024 13.8819 23.487 13.3993 23.1032 12.6196C22.8797 12.18 22.7628 11.689 22.7628 11.1903C22.7628 10.6915 22.8797 10.2005 23.1032 9.76087C22.6084 9.76104 22.1244 9.60877 21.7106 9.32277C21.0469 8.84198 20.6719 8.02333 20.5997 6.85941C20.5697 6.53347 20.6041 6.20451 20.7008 5.89331C20.7975 5.5821 20.9543 5.29541 21.1613 5.05134C21.7757 4.32551 22.7458 4.03221 23.3743 3.91526C23.1542 3.34165 22.9219 2.4302 23.2247 1.59856C23.4782 0.904286 24.0398 0.416079 24.8919 0.14691C25.7105 -0.112977 26.4095 -0.0275885 26.9676 0.399369C27.5785 0.86531 27.8795 1.64867 28.0239 2.28911C28.3002 2.01712 28.6387 1.82526 29.0063 1.73221C29.7792 1.54657 30.6172 1.82875 31.4974 2.58428C32.3002 3.27298 32.7069 4.04892 32.7104 4.8917C32.6939 5.51918 32.4941 6.12599 32.1383 6.62923C32.5732 6.68545 32.9882 6.85447 33.346 7.12116C33.5978 7.32413 33.807 7.57978 33.9606 7.87208C34.1142 8.16438 34.2089 8.48702 34.2386 8.81971C34.2955 9.15368 34.2871 9.49639 34.2138 9.82679C34.1405 10.1572 34.004 10.4683 33.8125 10.741C33.1453 11.6562 31.9904 11.8195 31.9411 11.827C31.8344 11.841 31.7268 11.8098 31.6419 11.7402C31.5571 11.6705 31.5019 11.5682 31.4886 11.4557C31.4753 11.3432 31.5049 11.2297 31.571 11.1403C31.637 11.0508 31.734 10.9927 31.8407 10.9786C31.8407 10.9786 32.721 10.8487 33.1717 10.2157C33.2964 10.0326 33.3841 9.82437 33.4292 9.60401C33.4743 9.38365 33.476 9.15586 33.434 8.93481C33.4184 8.71615 33.36 8.50328 33.2624 8.30965C33.1649 8.11602 33.0303 7.94583 32.8671 7.80985C32.2439 7.32164 31.3161 7.47015 31.3055 7.47201C31.2177 7.48613 31.1279 7.46966 31.0497 7.4251C30.9716 7.38055 30.9093 7.31035 30.8724 7.22513C30.8355 7.13985 30.8264 7.04409 30.8465 6.95277C30.8665 6.86145 30.9147 6.77968 30.9834 6.72019C30.9834 6.72019 31.9059 5.89783 31.8988 4.88984C31.8988 4.31809 31.589 3.7649 30.9851 3.24698C30.3126 2.66966 29.7105 2.44135 29.1946 2.56387C28.4904 2.73094 28.1383 3.51801 28.1295 3.52544C28.0902 3.6117 28.0246 3.68159 27.9432 3.72401C27.8619 3.76642 27.7694 3.77892 27.6805 3.75949C27.5916 3.74007 27.5114 3.68983 27.4527 3.6168C27.3941 3.54378 27.3602 3.45214 27.3566 3.3565C27.3443 2.9017 27.163 1.60598 26.4869 1.09178C26.1348 0.826323 25.6912 0.785474 25.1208 0.965539C24.5204 1.15117 24.1349 1.47233 23.9764 1.90671C23.6437 2.81261 24.3197 4.03408 24.3285 4.04522C24.365 4.10867 24.3852 4.18103 24.387 4.25519C24.3889 4.32935 24.3724 4.40276 24.3392 4.46815C24.3059 4.53355 24.2571 4.58867 24.1975 4.62811C24.1379 4.66755 24.0696 4.68995 23.9993 4.69308C23.9852 4.69308 22.4747 4.77847 21.7617 5.62125C21.6283 5.78097 21.528 5.96834 21.4674 6.17135C21.4067 6.37436 21.387 6.58851 21.4096 6.80002C21.4659 7.67807 21.7212 8.28509 22.1666 8.61366C22.8708 9.1223 23.8567 8.81228 23.8673 8.81042C23.9556 8.78125 24.0507 8.78487 24.1368 8.82064C24.2229 8.85642 24.2948 8.92219 24.3405 9.00705C24.3862 9.0919 24.4029 9.1907 24.3879 9.28699C24.3729 9.38328 24.3271 9.47125 24.2581 9.53626C24.2106 9.58267 23.0856 10.6965 23.8356 12.2242C24.1085 12.7811 24.457 13.1078 24.8919 13.2229C25.8215 13.4624 26.8672 12.6976 26.8778 12.6883C26.9656 12.6228 27.0744 12.5968 27.1804 12.616C27.2864 12.6351 27.3808 12.6979 27.4429 12.7904C27.505 12.883 27.5297 12.9978 27.5115 13.1095C27.4934 13.2213 27.4339 13.3208 27.3461 13.3863C27.2985 13.4234 26.3461 14.1251 25.2669 14.1251Z" fill="#1B1529"/>
<path d="M50.9795 32.8777C50.8914 32.8782 50.8056 32.8483 50.7351 32.7927C50.6646 32.737 50.6132 32.6587 50.5887 32.5695C50.5642 32.4803 50.568 32.3851 50.5994 32.2984C50.6309 32.2116 50.6883 32.138 50.763 32.0888L54.3351 29.7238C54.4261 29.6635 54.5362 29.6438 54.641 29.6691C54.7458 29.6943 54.8369 29.7624 54.8941 29.8584C54.9513 29.9544 54.9699 30.0704 54.946 30.181C54.9221 30.2915 54.8575 30.3875 54.7664 30.4478L51.1943 32.8128C51.13 32.8555 51.0555 32.8781 50.9795 32.8777Z" fill="#1B1529"/>
<path d="M52.7647 34.4353C52.6693 34.4361 52.5766 34.4014 52.503 34.3373C52.4295 34.2731 52.3798 34.1836 52.3628 34.0846C52.3457 33.9856 52.3624 33.8834 52.4098 33.7961C52.4573 33.7087 52.5325 33.6419 52.6221 33.6073L56.5393 32.0499C56.5891 32.03 56.6422 32.0207 56.6954 32.0224C56.7486 32.0242 56.801 32.0369 56.8496 32.06C56.8981 32.0831 56.9419 32.1161 56.9784 32.157C57.0149 32.198 57.0433 32.2461 57.0622 32.2986C57.081 32.3511 57.0899 32.4071 57.0882 32.4632C57.0865 32.5194 57.0744 32.5746 57.0525 32.6258C57.0306 32.677 56.9993 32.7231 56.9605 32.7616C56.9217 32.8001 56.8761 32.8301 56.8263 32.8499L52.9073 34.4074C52.8618 34.4257 52.8134 34.4352 52.7647 34.4353Z" fill="#1B1529"/>
<path d="M53.6027 35.756C53.4953 35.7585 53.3914 35.7159 53.3138 35.6376C53.2362 35.5594 53.1913 35.4519 53.189 35.3387C53.1867 35.2256 53.2271 35.1161 53.3014 35.0344C53.3757 34.9527 53.4777 34.9054 53.5851 34.9029L58.1995 34.684C58.3069 34.6789 58.4118 34.7189 58.4912 34.7952C58.5706 34.8716 58.618 34.978 58.6229 35.0911C58.6278 35.2043 58.5898 35.3148 58.5174 35.3985C58.4449 35.4821 58.3438 35.532 58.2365 35.5372L53.6221 35.756H53.6027Z" fill="#1B1529"/>
<path d="M60.4653 40.0915C59.1995 40.0915 58.1907 39.7462 57.453 39.0613C56.7493 38.3831 56.3269 37.4402 56.277 36.4364C56.2763 36.3802 56.2861 36.3244 56.3059 36.2721C56.3257 36.2199 56.3552 36.1724 56.3925 36.1322C56.4298 36.092 56.4742 36.06 56.5233 36.038C56.5723 36.0159 56.6251 36.0043 56.6784 36.0038C56.7849 36.0038 56.8871 36.0481 56.9628 36.1269C57.0386 36.2058 57.0819 36.313 57.0833 36.4252C57.1314 37.1914 57.4573 37.9086 57.9935 38.4282C58.7276 39.1058 59.8491 39.3564 61.3244 39.1819C62.5233 39.039 63.3825 38.5637 63.8772 37.7729C64.8032 36.2879 64.2117 34.1531 64.2047 34.1327C64.1856 34.0644 64.1828 33.9923 64.1966 33.9226C64.2105 33.853 64.2404 33.788 64.2839 33.7336C64.3263 33.68 64.3807 33.6384 64.4422 33.6125C64.5036 33.5865 64.5702 33.5771 64.636 33.5851C64.9456 33.5996 65.2484 33.4857 65.4793 33.2676C65.8789 32.8963 66.1008 32.2021 66.1236 31.2572C66.1835 28.7122 62.416 28.4579 62.3772 28.4541C62.2837 28.4481 62.1951 28.4081 62.1265 28.3409C62.0578 28.2737 62.0133 28.1836 62.0007 28.0857C61.988 27.9878 62.0079 27.8884 62.057 27.8043C62.1061 27.7201 62.1813 27.6566 62.2698 27.6244C62.2857 27.6244 63.9617 26.995 64.2804 25.8218C64.4318 25.2649 64.2399 24.6301 63.7082 23.9414C63.2522 23.3492 62.8033 23.0837 62.3772 23.1524C61.4177 23.3084 60.5744 25.0273 60.3315 25.677C60.2998 25.7625 60.2429 25.8349 60.1692 25.8835C60.0955 25.9322 60.0089 25.9545 59.9222 25.9472C59.8355 25.94 59.7533 25.9034 59.6878 25.8431C59.6223 25.7827 59.577 25.7017 59.5586 25.6121C59.5304 25.4821 58.8544 22.4452 55.9618 22.9241C54.3034 23.1988 53.0253 24.062 52.5429 25.2352C52.1203 26.2581 52.3105 27.4387 53.0886 28.6528C53.1489 28.7468 53.1712 28.8622 53.1507 28.9736C53.1303 29.085 53.0687 29.1833 52.9795 29.2468C52.8903 29.3103 52.7809 29.3338 52.6752 29.3123C52.5695 29.2907 52.4764 29.2257 52.4161 29.1317C51.4883 27.6856 51.2682 26.1801 51.7982 24.8937C52.402 23.4309 53.8738 22.4043 55.8351 22.0795C58.1238 21.7082 59.4142 23.1246 60.0093 24.4166C60.4582 23.5775 61.2294 22.473 62.254 22.3078C62.9846 22.1871 63.6853 22.5565 64.3385 23.403C65.0427 24.3312 65.2892 25.2148 65.0585 26.0595C64.8455 26.8428 64.2575 27.4202 63.7011 27.81C65.2346 28.2091 66.9828 29.2134 66.9335 31.2795C66.9053 32.4972 66.5902 33.3883 65.9969 33.9266C65.7371 34.1635 65.4235 34.3253 65.0867 34.3963C65.2346 35.2261 65.3825 36.906 64.5462 38.2426C63.9142 39.2562 62.8579 39.8576 61.4089 40.0321C61.0957 40.0708 60.7806 40.0907 60.4653 40.0915Z" fill="#1B1529"/>
<path fill-rule="evenodd" clip-rule="evenodd" d="M12.121 61.5732H48.0817C48.0817 61.5732 48.2577 39.4828 48.0817 34.842C47.8704 29.2024 44.7455 21.662 37.6241 20.8192C28.3355 19.7258 23.0856 20.4832 19.9571 21.4949C16.8287 22.5066 12.1527 25.6902 11.8886 34.3036C11.5928 44.0568 12.121 61.5732 12.121 61.5732Z" fill="white"/>
<path d="M12.121 62C12.0158 61.9996 11.9149 61.9563 11.8394 61.8791C11.7639 61.8019 11.7197 61.6969 11.7161 61.5861C11.7161 61.4004 11.1879 43.9508 11.4854 34.2867C11.7777 24.7136 17.4255 21.866 19.8409 21.0845C24.0416 19.7275 30.0415 19.4955 37.6716 20.3939C41.0008 20.7875 43.8071 22.6549 45.7842 25.794C47.3827 28.3335 48.3686 31.6248 48.4884 34.8251C48.6644 39.4251 48.4884 61.354 48.4884 61.5749C48.4874 61.688 48.4442 61.7961 48.368 61.8757C48.2918 61.9554 48.1889 62 48.0817 62C48.0285 61.9995 47.9759 61.988 47.927 61.9661C47.878 61.9442 47.8336 61.9123 47.7964 61.8723C47.7591 61.8324 47.7297 61.785 47.7097 61.733C47.6898 61.681 47.6798 61.6254 47.6803 61.5694C47.6803 61.3485 47.8563 39.4381 47.6803 34.8585C47.4549 28.8477 44.1979 22.0238 37.5836 21.2441C30.0644 20.3586 24.1754 20.5796 20.0804 21.9031C17.8322 22.629 12.5734 25.2928 12.2988 34.3127C12.0048 43.9453 12.5224 61.3837 12.5277 61.5582C12.5295 61.6143 12.5209 61.6702 12.5023 61.7228C12.4837 61.7753 12.4554 61.8235 12.4191 61.8645C12.3828 61.9056 12.3392 61.9387 12.2907 61.9619C12.2423 61.9851 12.19 61.9981 12.1368 62H12.121Z" fill="#1B1529"/>
<path fill-rule="evenodd" clip-rule="evenodd" d="M21.7476 36.2528C21.6666 33.4794 23.9606 32.8854 24.8937 34.1328C25.7246 35.2466 25.6947 38.1462 24.3039 38.7384C23.0064 39.2897 21.8039 38.1481 21.7476 36.2528Z" fill="#1B1529"/>
<path fill-rule="evenodd" clip-rule="evenodd" d="M35.8389 36.2528C35.7579 33.4794 38.0501 32.8854 38.9832 34.1328C39.8142 35.2466 39.786 38.1462 38.3952 38.7384C37.0959 39.2897 35.8935 38.1481 35.8389 36.2528Z" fill="#1B1529"/>
<path d="M25.1454 33.0004C24.9959 32.9998 24.847 32.9804 24.7018 32.9428C23.0169 32.5288 21.0451 29.8149 21.193 28.5359C21.2059 28.4234 21.2606 28.3209 21.3451 28.2509C21.4296 28.1809 21.537 28.1492 21.6437 28.1627C21.7504 28.1763 21.8476 28.234 21.914 28.3231C21.9804 28.4122 22.0104 28.5255 21.9976 28.638C21.9025 29.4585 23.5469 31.7807 24.8866 32.1112C25.2387 32.1984 25.6912 32.1891 25.9799 31.3241C26.0202 31.2235 26.0954 31.143 26.19 31.0988C26.2847 31.0547 26.3918 31.0503 26.4895 31.0865C26.5871 31.1227 26.668 31.1968 26.7156 31.2938C26.7632 31.3907 26.774 31.5031 26.7457 31.6081C26.4482 32.5121 25.8725 33.0004 25.1454 33.0004Z" fill="#1B1529"/>
<path d="M36.0607 33.3216C35.6136 33.3216 34.9903 33.1118 34.6329 32.0797C34.596 31.9731 34.6008 31.8554 34.6462 31.7525C34.6916 31.6497 34.7739 31.57 34.875 31.5311C34.9761 31.4922 35.0877 31.4973 35.1853 31.5452C35.2828 31.593 35.3584 31.6798 35.3953 31.7864C35.6699 32.5846 36.0678 32.4862 36.2385 32.4454C37.4304 32.1484 38.9867 29.698 38.8793 28.6418C38.8672 28.529 38.898 28.4158 38.9651 28.327C39.0321 28.2383 39.1298 28.1812 39.2367 28.1684C39.3437 28.1556 39.451 28.1881 39.5352 28.2588C39.6194 28.3294 39.6735 28.4325 39.6857 28.5452C39.8617 30.1175 37.9357 32.902 36.4287 33.277C36.308 33.3065 36.1846 33.3214 36.0607 33.3216Z" fill="#1B1529"/>
<path fill-rule="evenodd" clip-rule="evenodd" d="M15.4132 43.0396C15.3269 41.2445 17.1649 40.2087 18.5945 40.7099C20.024 41.2111 20.4888 42.3119 20.0592 43.8657C19.4959 45.8891 15.5681 46.3012 15.4132 43.0396Z" fill="#FE7D7B"/>
<path fill-rule="evenodd" clip-rule="evenodd" d="M41.0607 43.0396C40.9744 41.2445 42.8212 40.2087 44.2437 40.7099C45.6662 41.2111 46.1381 42.3119 45.7067 43.8657C45.1451 45.8891 41.2191 46.3012 41.0607 43.0396Z" fill="#FE7D7B"/>
<path fill-rule="evenodd" clip-rule="evenodd" d="M27.5239 39.3843C27.4288 38.3002 28.3936 37.6709 29.8654 37.6709C31.5221 37.6709 32.3847 38.2074 32.4411 39.0446C32.508 40.0581 31.6788 40.7283 30.1277 40.7654C28.2704 40.81 27.6102 40.3756 27.5239 39.3843Z" fill="#1B1529"/>
<path d="M32.552 49.8429C31.3284 49.8429 30.0256 49.3213 29.832 49.2414C29.7791 49.2234 29.7303 49.1942 29.6886 49.1555C29.6468 49.1169 29.613 49.0696 29.5893 49.0166C29.5655 48.9637 29.5523 48.9061 29.5505 48.8476C29.5487 48.789 29.5582 48.7307 29.5786 48.6762C29.5989 48.6217 29.6297 48.5722 29.6689 48.5307C29.7081 48.4892 29.755 48.4566 29.8066 48.4349C29.8582 48.4133 29.9135 48.403 29.9691 48.4047C30.0246 48.4065 30.0792 48.4202 30.1295 48.4451C30.7615 48.7068 32.5943 49.2823 33.4833 48.8015C33.5978 48.7433 33.6982 48.6584 33.7769 48.5533C33.8556 48.4481 33.9105 48.3254 33.9375 48.1945C34.0801 47.6023 34.022 47.1512 33.7615 46.8134C33.1981 46.0931 31.7826 46.0114 31.2844 46.0411C31.1906 46.0475 31.0975 46.0192 31.0213 45.9611C30.9451 45.903 30.8904 45.8187 30.8667 45.7228C30.8429 45.6268 30.8516 45.5252 30.8912 45.4352C30.9308 45.3453 30.9989 45.2727 31.0837 45.2299C31.5432 44.9923 32.7756 44.2015 32.9393 43.4107C32.9635 43.2875 32.959 43.16 32.9262 43.0391C32.8934 42.9182 32.8332 42.8074 32.7509 42.7164C31.7774 41.4578 30.1559 42.7405 30.0872 42.7962C30.045 42.8305 29.9969 42.8556 29.9455 42.8702C29.894 42.8849 29.8404 42.8887 29.7876 42.8814C29.7348 42.8742 29.6839 42.856 29.6377 42.828C29.5915 42.8001 29.5511 42.7627 29.5186 42.7183C29.4861 42.6738 29.4623 42.623 29.4484 42.5688C29.4345 42.5146 29.4309 42.458 29.4378 42.4023C29.4447 42.3466 29.4619 42.2929 29.4884 42.2443C29.515 42.1956 29.5503 42.1529 29.5925 42.1187C30.3865 41.4727 32.2016 40.654 33.3794 42.1762C33.539 42.3676 33.6539 42.5957 33.7151 42.8423C33.7762 43.0888 33.7819 43.347 33.7316 43.5963C33.5907 44.2757 33.0502 44.8586 32.5291 45.2819C33.1787 45.4044 33.9235 45.6773 34.3865 46.2676C34.8196 46.8245 34.934 47.5429 34.7245 48.4042C34.6687 48.6526 34.5619 48.8851 34.4116 49.0852C34.2614 49.2854 34.0713 49.4483 33.8548 49.5626C33.4473 49.7622 33.0011 49.8582 32.552 49.8429Z" fill="#1B1529"/>
<path d="M30.2739 42.6033C30.2207 42.6028 30.1681 42.5913 30.1192 42.5694C30.0702 42.5474 30.0258 42.5156 29.9886 42.4756C29.9513 42.4356 29.9219 42.3883 29.9019 42.3363C29.882 42.2843 29.872 42.2287 29.8725 42.1726L29.8883 39.9264C29.8888 39.8135 29.9316 39.7054 30.0075 39.6257C30.0834 39.5461 30.1861 39.5013 30.2932 39.5013C30.4008 39.5023 30.5036 39.5482 30.5792 39.6289C30.6547 39.7096 30.6969 39.8186 30.6964 39.932L30.6788 42.18C30.6779 42.2926 30.6348 42.4003 30.559 42.4795C30.4831 42.5588 30.3806 42.6033 30.2739 42.6033Z" fill="#1B1529"/>
<path d="M25.119 51.3836C25.0341 51.383 24.9515 51.3543 24.8828 51.3017C24.8141 51.249 24.7628 51.1751 24.736 51.0901C24.7092 51.0051 24.7083 50.9135 24.7334 50.8279C24.7585 50.7424 24.8084 50.6673 24.8761 50.6132C24.8972 50.5965 27.0662 48.8515 27.1119 46.7947C27.2158 42.0963 24.9729 40.2808 24.95 40.2641C24.8691 40.1947 24.8165 40.0951 24.8033 39.986C24.79 39.8768 24.8171 39.7665 24.8788 39.6778C24.9405 39.5891 25.0322 39.5288 25.135 39.5094C25.2377 39.49 25.3435 39.513 25.4306 39.5736C25.5362 39.6553 28.0362 41.6397 27.9218 46.8133C27.8672 49.2896 25.457 51.2165 25.362 51.2982C25.2919 51.3537 25.2066 51.3837 25.119 51.3836Z" fill="#1B1529"/>
<path d="M38.1558 51.3838C38.1115 51.3835 38.0676 51.376 38.0255 51.3615C37.9339 51.3281 35.7491 50.4891 35.1611 45.6292C34.6206 41.1498 36.9551 39.6165 37.0554 39.5534C37.1474 39.4948 37.2577 39.4771 37.362 39.5043C37.4664 39.5314 37.5562 39.6012 37.6118 39.6982C37.6673 39.7951 37.6841 39.9114 37.6583 40.0215C37.6326 40.1315 37.5664 40.2262 37.4744 40.2848C37.3882 40.3423 35.4956 41.6343 35.9657 45.5215C36.4815 49.7911 38.2755 50.5466 38.2931 50.554C38.3816 50.5893 38.4556 50.6561 38.5024 50.7427C38.5492 50.8294 38.566 50.9305 38.5497 51.0288C38.5335 51.127 38.4852 51.2162 38.4133 51.281C38.3414 51.3458 38.2503 51.3822 38.1558 51.3838Z" fill="#1B1529"/>
<path d="M25.1613 41.7307H25.1208L21.5539 41.3445C21.4498 41.3332 21.3542 41.2787 21.2882 41.1931C21.2221 41.1074 21.1911 40.9977 21.2018 40.8879C21.2126 40.7781 21.2642 40.6773 21.3454 40.6077C21.4267 40.538 21.5308 40.5053 21.6349 40.5166L25.2018 40.9046C25.303 40.9146 25.3966 40.9656 25.4631 41.0467C25.5296 41.1278 25.5638 41.2329 25.5585 41.3399C25.5533 41.447 25.5091 41.5478 25.435 41.6213C25.361 41.6948 25.2629 41.7353 25.1613 41.7343V41.7307Z" fill="#EDAE5D"/>
<path d="M21.5944 43.717C21.4927 43.718 21.3947 43.6775 21.3206 43.604C21.2466 43.5305 21.2024 43.4297 21.1971 43.3226C21.1919 43.2156 21.2261 43.1105 21.2926 43.0294C21.3591 42.9483 21.4527 42.8973 21.5539 42.8873L25.1208 42.5011C25.1737 42.4924 25.2277 42.4951 25.2796 42.509C25.3315 42.523 25.3801 42.5479 25.4225 42.5824C25.465 42.6168 25.5003 42.66 25.5264 42.7093C25.5525 42.7586 25.5688 42.813 25.5743 42.8692C25.5798 42.9253 25.5744 42.9821 25.5584 43.036C25.5425 43.0899 25.5163 43.1397 25.4814 43.1826C25.4465 43.2255 25.4038 43.2604 25.3557 43.2853C25.3076 43.3101 25.2552 43.3244 25.2018 43.3272L21.6349 43.717H21.5944Z" fill="#EDAE5D"/>
<path d="M37.4938 41.4375C37.3947 41.4346 37.3002 41.3924 37.2292 41.3193C37.1583 41.2463 37.116 41.1477 37.1109 41.0432C37.1058 40.9388 37.1382 40.8362 37.2017 40.7558C37.2651 40.6754 37.355 40.6232 37.4533 40.6096L41.0202 40.2216C41.121 40.2163 41.22 40.2519 41.2966 40.3212C41.3733 40.3905 41.4218 40.4882 41.4321 40.5941C41.4425 40.7 41.414 40.8061 41.3524 40.8905C41.2908 40.9749 41.2009 41.0311 41.1011 41.0477L37.5396 41.4356L37.4938 41.4375Z" fill="#EDAE5D"/>
<path d="M41.0607 43.4276H41.0202L37.4533 43.0396C37.3998 43.0368 37.3475 43.0225 37.2994 42.9976C37.2513 42.9728 37.2085 42.9379 37.1737 42.895C37.1388 42.8522 37.1126 42.8022 37.0966 42.7484C37.0807 42.6945 37.0753 42.6377 37.0808 42.5816C37.0863 42.5254 37.1026 42.471 37.1287 42.4217C37.1548 42.3724 37.1901 42.3292 37.2325 42.2948C37.275 42.2604 37.3236 42.2354 37.3755 42.2214C37.4274 42.2074 37.4814 42.2048 37.5343 42.2135L41.1012 42.5997C41.2024 42.6097 41.296 42.6606 41.3625 42.7418C41.429 42.8229 41.4632 42.9279 41.4579 43.035C41.4527 43.1421 41.4085 43.2429 41.3344 43.3164C41.2604 43.3899 41.1623 43.4304 41.0607 43.4294V43.4276Z" fill="#EDAE5D"/>
<path fill-rule="evenodd" clip-rule="evenodd" d="M46.7419 46.9527C46.7419 46.9527 51.2823 47.1569 51.0394 48.7107C50.807 50.1846 49.3897 51.0608 48.2982 51.4803C45.7085 52.4753 45.0219 50.7044 43.8863 52.0187C42.3863 53.7599 44.7472 54.4523 44.7472 54.4523C44.7472 54.4523 42.624 54.8663 42.962 56.7969C43.2648 58.5177 45.3581 57.725 45.3581 57.725C45.3581 57.725 43.5536 59.3345 44.8106 60.5355C46.4285 62.0856 47.5236 59.5443 47.5236 59.5443C47.5236 59.5443 46.932 61.3393 48.6679 61.4396C50.2718 61.5324 50.9408 59.2844 50.7612 58.2838C50.5482 57.1013 51.9936 56.3347 54.0781 54.8978C55.5904 53.8509 58.6079 51.872 58.3227 48.7032C57.7488 42.3639 51.7031 39.6072 46.9866 39.3547L46.7419 46.9527Z" fill="white"/>
<path d="M48.7648 61.8684H48.6451C48.0095 61.8313 47.5482 61.5937 47.2754 61.163C47.2155 61.0696 47.1659 60.9694 47.1275 60.8641C46.8627 61.145 46.5284 61.3418 46.1627 61.4322C45.6117 61.5528 45.0641 61.3579 44.5377 60.8548C44.3555 60.6918 44.2093 60.4887 44.1096 60.2597C44.0098 60.0307 43.9588 59.7814 43.9603 59.5294C43.9809 59.1049 44.1092 58.694 44.3317 58.3395C43.9813 58.3474 43.6349 58.2591 43.3265 58.0833C43.1216 57.9555 42.9467 57.7807 42.8147 57.5718C42.6828 57.3629 42.5971 57.1253 42.5642 56.8767C42.4728 56.434 42.5141 55.9723 42.6821 55.5554C42.8502 55.1384 43.1369 54.7868 43.5025 54.5489C43.5741 54.4994 43.6463 54.453 43.7191 54.4096C43.3957 54.1929 43.1531 53.865 43.0325 53.4815C42.8811 52.9246 43.0677 52.3417 43.587 51.7402C44.3106 50.9012 44.9796 51.0627 45.6275 51.2186C46.4624 51.474 47.3544 51.4269 48.1609 51.0849C48.8317 50.8269 50.4144 50.0751 50.638 48.6494C50.6453 48.6062 50.6427 48.5618 50.6304 48.5198C50.6182 48.4778 50.5966 48.4396 50.5676 48.4081C50.0764 47.7695 47.9496 47.4428 46.7261 47.3871C46.6729 47.3848 46.6207 47.3715 46.5724 47.3479C46.5241 47.3243 46.4807 47.2909 46.4446 47.2496C46.4086 47.2083 46.3806 47.16 46.3623 47.1073C46.344 47.0546 46.3357 46.9986 46.3379 46.9425C46.3401 46.8865 46.3527 46.8314 46.3751 46.7805C46.3975 46.7296 46.4291 46.6838 46.4683 46.6458C46.5075 46.6078 46.5533 46.5783 46.6033 46.559C46.6533 46.5396 46.7063 46.5309 46.7595 46.5332C47.1222 46.5499 50.3176 46.7188 51.1978 47.8679C51.2999 47.9946 51.3744 48.1434 51.4161 48.3038C51.4577 48.4641 51.4656 48.6322 51.439 48.7961C51.145 50.6654 49.2419 51.5806 48.4373 51.8962C47.4832 52.2928 46.4323 52.3501 45.4444 52.0595C44.8405 51.9129 44.5888 51.8516 44.1856 52.3213C43.8687 52.6925 43.742 53.0025 43.8089 53.2494C43.9268 53.6857 44.6222 53.992 44.8652 54.0551C44.9536 54.081 45.031 54.1378 45.0848 54.2161C45.1386 54.2945 45.1656 54.3898 45.1613 54.4865C45.157 54.5831 45.1217 54.6753 45.0612 54.7481C45.0007 54.8208 44.9185 54.8697 44.8282 54.8867C44.6522 54.922 43.1135 55.2747 43.3687 56.7319C43.3815 56.8574 43.4211 56.9783 43.4845 57.0853C43.5479 57.1924 43.6336 57.2829 43.7349 57.3501C44.1891 57.6248 44.9673 57.4318 45.2296 57.3334C45.3193 57.2987 45.4177 57.2985 45.5074 57.3329C45.5972 57.3673 45.6725 57.4341 45.7201 57.5214C45.7677 57.6087 45.7845 57.7109 45.7676 57.81C45.7506 57.9091 45.701 57.9987 45.6275 58.0629C45.3951 58.2727 44.786 58.9484 44.7772 59.548C44.7782 59.678 44.8067 59.806 44.8606 59.9229C44.9145 60.0398 44.9925 60.1426 45.0888 60.2237C45.418 60.5374 45.7173 60.6599 46.006 60.595C46.5712 60.4725 47.0412 59.6482 47.1609 59.3698C47.2057 59.2719 47.2839 59.1957 47.3799 59.1563C47.4759 59.117 47.5825 59.1175 47.6781 59.1578C47.7738 59.1981 47.8514 59.2752 47.8952 59.3734C47.9391 59.4717 47.9459 59.5838 47.9144 59.6872C47.8581 59.8599 47.7577 60.3778 47.9567 60.6896C48.0817 60.8753 48.3317 60.9941 48.6979 61.0145C48.8992 61.0254 49.1001 60.9854 49.2838 60.8979C49.4676 60.8104 49.6288 60.6779 49.7542 60.5114C50.2824 59.8691 50.4584 58.8407 50.3757 58.3766C50.1397 57.0772 51.358 56.2511 53.0429 55.1132C53.3034 54.9368 53.571 54.7512 53.8686 54.5563L54.0059 54.4598C55.4671 53.4518 58.1854 51.5769 57.9301 48.759C57.402 42.9913 51.888 40.0694 46.9778 39.7966C46.8704 39.7904 46.7698 39.7395 46.698 39.6551C46.6261 39.5707 46.5891 39.4596 46.5949 39.3464C46.6007 39.2332 46.649 39.127 46.7291 39.0513C46.8091 38.9756 46.9144 38.9365 47.0218 38.9426C49.7014 39.0912 52.4056 39.9896 54.4443 41.4079C56.983 43.1751 58.4671 45.6886 58.7382 48.6773C59.0393 52.0187 56.0534 54.0606 54.4495 55.1745L54.3122 55.2691C54.0217 55.4696 53.7436 55.6571 53.4795 55.826C51.8756 56.9083 51.0447 57.4967 51.1714 58.2077C51.3105 58.9688 51.0447 60.2497 50.3651 61.0665C50.1711 61.3165 49.9269 61.5181 49.6502 61.6567C49.3735 61.7954 49.0711 61.8677 48.7648 61.8684Z" fill="#1B1529"/>
<path fill-rule="evenodd" clip-rule="evenodd" d="M12.9343 46.9527C12.9343 46.9527 8.39393 47.1569 8.63688 48.7107C8.86927 50.1846 10.2865 51.0608 11.378 51.4803C13.9678 52.4753 14.6562 50.7044 15.7899 52.0187C17.2899 53.7599 14.929 54.4523 14.929 54.4523C14.929 54.4523 17.0522 54.8663 16.7142 56.7969C16.4114 58.5177 14.3181 57.725 14.3181 57.725C14.3181 57.725 16.1227 59.3345 14.8657 60.5355C13.2477 62.0856 12.1527 59.5443 12.1527 59.5443C12.1527 59.5443 12.7442 61.3393 11.0083 61.4396C9.40447 61.5324 8.73547 59.2844 8.91504 58.2838C9.12807 57.1013 7.68267 56.3347 5.5982 54.8978C4.0859 53.8509 1.06834 51.872 1.35355 48.7032C1.92748 42.3639 7.97315 39.6072 12.6896 39.3547L12.9343 46.9527Z" fill="white"/>
<path d="M10.9133 61.8685C10.6099 61.8656 10.3108 61.7927 10.037 61.6548C9.76326 61.5168 9.52151 61.3173 9.32878 61.0702C8.64921 60.2497 8.38337 58.9726 8.52245 58.2115C8.64921 57.5098 7.81824 56.9121 6.21439 55.8298C5.95031 55.6442 5.67215 55.4585 5.38166 55.2729L5.24433 55.1782C3.64048 54.0644 0.654617 52.0113 0.955669 48.6811C1.22679 45.6924 2.71621 43.1789 5.24962 41.4116C7.28832 39.9934 9.9925 39.0949 12.672 38.9464C12.7252 38.9434 12.7784 38.9514 12.8287 38.97C12.8789 38.9887 12.9252 39.0176 12.9648 39.0551C13.0044 39.0926 13.0367 39.1379 13.0597 39.1886C13.0827 39.2392 13.0961 39.2941 13.099 39.3502C13.1018 39.4062 13.0942 39.4624 13.0766 39.5153C13.0589 39.5683 13.0315 39.6171 12.9959 39.6589C12.9604 39.7007 12.9174 39.7347 12.8693 39.759C12.8213 39.7832 12.7692 39.7973 12.716 39.8003C7.80591 40.0732 2.28487 42.9951 1.76375 48.7627C1.50847 51.5807 4.22851 53.4556 5.68799 54.4636L5.82531 54.5601C6.11403 54.7587 6.39044 54.9443 6.651 55.117C8.33583 56.2549 9.55412 57.0773 9.31821 58.3804C9.23371 58.8445 9.40623 59.8655 9.93968 60.5152C10.0647 60.682 10.2259 60.8148 10.4097 60.9024C10.5936 60.9899 10.7946 61.0296 10.996 61.0183C11.3622 60.9978 11.6122 60.8883 11.7372 60.6934C11.9361 60.3815 11.8358 59.8636 11.7794 59.6891C11.7494 59.5861 11.7573 59.4749 11.8015 59.3777C11.8457 59.2805 11.923 59.2044 12.0181 59.1646C12.1131 59.1248 12.2188 59.1242 12.3142 59.1629C12.4097 59.2017 12.4877 59.2769 12.533 59.3736C12.6632 59.6724 13.1245 60.4874 13.6896 60.5987C13.9766 60.6618 14.2759 60.5393 14.6051 60.2275C14.7014 60.1463 14.7794 60.0436 14.8333 59.9267C14.8872 59.8098 14.9157 59.6817 14.9167 59.5518C14.9079 58.9448 14.2988 58.269 14.0664 58.0667C13.9936 58.0021 13.9447 57.9125 13.9283 57.8136C13.9119 57.7148 13.9291 57.613 13.9768 57.5261C14.0244 57.4393 14.0996 57.3729 14.1891 57.3387C14.2786 57.3045 14.3766 57.3046 14.466 57.339C14.7266 57.4355 15.5065 57.6305 15.9589 57.3539C16.0603 57.2867 16.1459 57.1962 16.2094 57.0891C16.2728 56.9821 16.3124 56.8612 16.3251 56.7357C16.3893 56.4572 16.3663 56.1643 16.2597 55.9007C16.1531 55.6371 15.9686 55.4169 15.7336 55.2729C15.4682 55.0921 15.1742 54.9625 14.8657 54.8905C14.7758 54.8724 14.6944 54.8228 14.6345 54.7499C14.5747 54.6769 14.5399 54.5848 14.5358 54.4884C14.5318 54.3921 14.5586 54.2971 14.6121 54.2188C14.6656 54.1405 14.7425 54.0835 14.8305 54.057C15.0628 53.9883 15.7583 53.6857 15.8762 53.2532C15.9431 53.0045 15.8163 52.6963 15.5012 52.325C15.0963 51.8572 14.8445 51.9166 14.2407 52.0633C13.2528 52.3539 12.2019 52.2966 11.2478 51.8999C10.4432 51.5918 8.54005 50.6692 8.24604 48.7999C8.21949 48.636 8.22733 48.4679 8.26901 48.3076C8.31068 48.1472 8.38516 47.9984 8.48723 47.8717C9.3675 46.7282 12.5646 46.5537 12.9255 46.537C13.0329 46.5321 13.1378 46.5723 13.217 46.6489C13.2963 46.7255 13.3434 46.8321 13.3481 46.9454C13.3528 47.0586 13.3146 47.1692 13.2419 47.2527C13.1693 47.3363 13.0682 47.386 12.9608 47.3909C11.7284 47.4466 9.61574 47.7733 9.11751 48.4119C9.08847 48.443 9.06692 48.4809 9.05467 48.5226C9.04242 48.5643 9.03981 48.6084 9.04708 48.6513C9.27067 50.0789 10.8552 50.8307 11.5242 51.0887C12.3307 51.4307 13.2227 51.4778 14.0576 51.2224C14.7055 51.0665 15.3745 50.9031 16.098 51.744C16.6262 52.3455 16.8022 52.9321 16.6526 53.4853C16.5319 53.8688 16.2894 54.1967 15.966 54.4134C16.0388 54.4567 16.1109 54.5031 16.1825 54.5527C16.5482 54.7905 16.8349 55.1422 17.0029 55.5592C17.171 55.9761 17.2122 56.4378 17.1209 56.8805C17.088 57.1291 17.0023 57.3667 16.8703 57.5755C16.7384 57.7844 16.5635 57.9593 16.3586 58.0871C16.0502 58.2629 15.7038 58.3512 15.3533 58.3433C15.5759 58.6978 15.7042 59.1087 15.7248 59.5332C15.7262 59.7852 15.6753 60.0345 15.5755 60.2635C15.4757 60.4924 15.3296 60.6956 15.1473 60.8586C14.6192 61.3617 14.0734 61.5566 13.5224 61.4359C13.1567 61.3456 12.8224 61.1488 12.5576 60.8679C12.5192 60.9731 12.4696 61.0734 12.4097 61.1668C12.1368 61.5975 11.6756 61.8351 11.04 61.8722L10.9133 61.8685Z" fill="#1B1529"/>
</svg>
