<svg width="44" height="72" viewBox="0 0 44 72" fill="none" xmlns="http://www.w3.org/2000/svg">
<path fill-rule="evenodd" clip-rule="evenodd" d="M1.24448 36.6795C1.24448 36.6795 -1.15295 21.2274 2.6029 19.4641C6.44171 17.6635 12.5722 26.3457 12.5722 26.3457L1.24448 36.6795Z" fill="#EDAE5D"/>
<path d="M1.24447 37.1556C1.19076 37.1559 1.1374 37.1468 1.08685 37.1287C1.0051 37.1002 0.932614 37.0501 0.877106 36.9838C0.821598 36.9174 0.78514 36.8373 0.771613 36.752C0.52067 35.1335 -1.56569 20.8942 2.39963 19.0336C6.54744 17.086 12.7028 25.7041 12.9621 26.0704C13.0276 26.1648 13.0567 26.2796 13.0442 26.3937C13.0316 26.5078 12.9781 26.6135 12.8936 26.6913L1.56594 37.0252C1.47899 37.1074 1.36423 37.1539 1.24447 37.1556ZM3.73316 19.6959C3.41053 19.6948 3.09172 19.7655 2.7999 19.9029C0.163964 21.1446 0.933383 31.0231 1.58044 35.7254L11.9293 26.2857C10.2929 24.0525 6.4728 19.6959 3.73939 19.6959H3.73316Z" fill="#1B1529"/>
<path fill-rule="evenodd" clip-rule="evenodd" d="M42.7558 36.6795C42.7558 36.6795 45.1533 21.2274 41.3974 19.4641C37.5586 17.6635 31.4281 26.3457 31.4281 26.3457L42.7558 36.6795Z" fill="#EDAE5D"/>
<path d="M42.7558 37.1555C42.6364 37.1552 42.5211 37.111 42.4323 37.0313L31.1067 26.6975C31.0222 26.6196 30.9687 26.5139 30.9562 26.3998C30.9436 26.2857 30.9727 26.1709 31.0383 26.0766C31.2975 25.7102 37.4487 17.0901 41.5986 19.0397C45.566 20.9024 43.4796 35.1396 43.2287 36.7581C43.2152 36.8435 43.1787 36.9236 43.1232 36.9899C43.0677 37.0562 42.9952 37.1063 42.9135 37.1348C42.8625 37.1508 42.8092 37.1578 42.7558 37.1555ZM32.0648 26.2794L42.4116 35.7191C43.0565 31.0169 43.8301 21.1321 41.1942 19.8966C38.4753 18.6216 33.9044 23.7855 32.0648 26.2794Z" fill="#1B1529"/>
<path fill-rule="evenodd" clip-rule="evenodd" d="M0.962427 70.5372H43.3199C43.3199 70.5372 43.5273 45.9082 43.3199 40.7341C43.0711 34.4464 39.3795 26.0395 31.0009 25.0998C20.059 23.8808 13.8746 24.7252 10.1892 25.8532C6.50391 26.9812 0.993543 30.5306 0.68453 40.1339C0.340262 51.0079 0.962427 70.5372 0.962427 70.5372Z" fill="white"/>
<path d="M0.962414 71.0133C0.838381 71.0133 0.719212 70.9652 0.630163 70.879C0.541114 70.7928 0.489179 70.6754 0.485404 70.5517C0.485404 70.3551 -0.136755 50.8899 0.213736 40.1132C0.558004 29.442 7.21109 26.2672 10.0544 25.3958C15.0048 23.8829 22.0707 23.6242 31.059 24.6259C34.9828 25.0647 38.2865 27.1468 40.6176 30.6466C42.5007 33.4779 43.6621 37.1474 43.8031 40.7155C44.0105 45.8441 43.8031 70.293 43.8031 70.5414C43.802 70.6669 43.7513 70.7869 43.662 70.8753C43.5726 70.9637 43.4519 71.0133 43.3262 71.0133C43.2634 71.013 43.2014 71.0003 43.1436 70.976C43.0858 70.9517 43.0334 70.9162 42.9894 70.8715C42.9455 70.8269 42.9108 70.774 42.8874 70.7159C42.8641 70.6578 42.8525 70.5957 42.8533 70.5331C42.8533 70.2868 43.0607 45.8586 42.8533 40.7527C42.5837 34.0512 38.7573 26.4431 30.9532 25.5655C22.0955 24.5783 15.1583 24.8246 10.3344 26.3003C7.68601 27.1095 1.49333 30.0795 1.16773 40.136C0.821386 50.8754 1.4332 70.3179 1.43942 70.5124C1.44334 70.6389 1.39685 70.7617 1.31016 70.8541C1.22347 70.9464 1.10363 71.0007 0.97692 71.005L0.962414 71.0133Z" fill="#1B1529"/>
<path fill-rule="evenodd" clip-rule="evenodd" d="M13.2317 35.2472C13.2886 35.1422 13.3729 35.0545 13.4756 34.9933C13.5784 34.9322 13.6958 34.8999 13.8155 34.8999C13.9351 34.8999 14.0525 34.9322 14.1553 34.9933C14.2581 35.0545 14.3424 35.1422 14.3993 35.2472C14.9592 36.2821 15.7162 37.6812 15.7162 37.6812L18.4455 38.18C18.5632 38.2013 18.6729 38.254 18.763 38.3327C18.8531 38.4113 18.9201 38.5128 18.9569 38.6264C18.9937 38.7401 18.999 38.8615 18.9721 38.9779C18.9452 39.0942 18.8872 39.2012 18.8043 39.2872L16.8921 41.2907L17.2592 44.033C17.275 44.1512 17.2584 44.2715 17.2113 44.3811C17.1643 44.4908 17.0884 44.5857 16.9918 44.6558C16.8951 44.726 16.7813 44.7688 16.6622 44.7798C16.5432 44.7907 16.4235 44.7694 16.3156 44.718L13.8269 43.5197L11.3257 44.718C11.2179 44.7694 11.0981 44.7907 10.9791 44.7798C10.8601 44.7688 10.7462 44.726 10.6496 44.6558C10.5529 44.5857 10.4771 44.4908 10.43 44.3811C10.3829 44.2715 10.3664 44.1512 10.3821 44.033C10.5377 42.8698 10.7513 41.2907 10.7513 41.2907L8.83705 39.2872C8.75409 39.201 8.69613 39.0939 8.66936 38.9774C8.64259 38.8609 8.64804 38.7394 8.68508 38.6257C8.72213 38.512 8.78939 38.4105 8.87971 38.332C8.97003 38.2535 9.08 38.201 9.19791 38.18L11.9251 37.6812L13.2317 35.2472Z" fill="#FBCE35"/>
<path d="M11.0292 45.2604C10.8668 45.2596 10.7063 45.2245 10.5585 45.1572C10.4108 45.0899 10.279 44.9921 10.1719 44.8702C10.0649 44.7483 9.98502 44.6051 9.93759 44.4501C9.89016 44.2951 9.87625 44.1318 9.89681 43.971L10.2369 41.4522L8.48034 39.6164C8.33809 39.4677 8.23886 39.2833 8.19317 39.0829C8.14749 38.8824 8.15704 38.6733 8.22084 38.4779C8.28465 38.2824 8.40032 38.1078 8.55555 37.9726C8.71078 37.8375 8.89979 37.7468 9.10251 37.7102L11.6057 37.2529L12.8148 35.0197C12.913 34.8395 13.0581 34.6892 13.2347 34.5844C13.4114 34.4796 13.6131 34.4243 13.8186 34.4243C14.0241 34.4243 14.2258 34.4796 14.4024 34.5844C14.5791 34.6892 14.7241 34.8395 14.8223 35.0197L16.0294 37.2529L18.5326 37.7102C18.7353 37.7468 18.9243 37.8375 19.0795 37.9726C19.2348 38.1078 19.3504 38.2824 19.4142 38.4779C19.478 38.6733 19.4876 38.8824 19.4419 39.0829C19.3962 39.2833 19.297 39.4677 19.1547 39.6164L17.4002 41.4543L17.7383 43.9689C17.7651 44.1725 17.7364 44.3795 17.6551 44.5682C17.5739 44.7568 17.4431 44.9201 17.2765 45.0407C17.11 45.1613 16.9139 45.2348 16.709 45.2534C16.5041 45.2721 16.298 45.2351 16.1123 45.1465L13.831 44.0496L11.5373 45.1465C11.3792 45.2237 11.2051 45.2626 11.0292 45.2604ZM13.8165 35.3757C13.783 35.3757 13.75 35.3847 13.7212 35.4019C13.6924 35.419 13.6687 35.4435 13.6527 35.4729L12.3357 37.9069C12.3018 37.9698 12.2542 38.0244 12.1964 38.0666C12.1387 38.1089 12.0722 38.1377 12.0018 38.1511L9.27256 38.6478C9.23961 38.6542 9.20898 38.6693 9.18383 38.6915C9.15867 38.7137 9.13991 38.7422 9.12947 38.7741C9.11935 38.8058 9.11805 38.8397 9.12572 38.8722C9.13339 38.9046 9.14974 38.9344 9.17302 38.9583L11.0852 40.9617C11.1348 41.013 11.1722 41.0748 11.1944 41.1425C11.2167 41.2103 11.2233 41.2822 11.2137 41.3529L10.8446 44.0952C10.8406 44.1286 10.8456 44.1626 10.8591 44.1935C10.8726 44.2244 10.8941 44.2512 10.9213 44.2711C10.9484 44.2904 10.9802 44.3021 11.0134 44.305C11.0466 44.3079 11.08 44.3019 11.11 44.2876L13.5987 43.0914C13.6632 43.0595 13.7342 43.0428 13.8061 43.0428C13.8781 43.0428 13.9491 43.0595 14.0135 43.0914L16.5147 44.2876C16.5449 44.3023 16.5785 44.3085 16.6119 44.3055C16.6454 44.3025 16.6774 44.2904 16.7045 44.2706C16.7316 44.2508 16.7528 44.224 16.7657 44.1931C16.7787 44.1622 16.7829 44.1283 16.778 44.0952L16.4089 41.3529C16.3998 41.2822 16.4066 41.2104 16.4288 41.1428C16.4511 41.0751 16.4882 41.0132 16.5375 40.9617L18.4517 38.9583C18.4744 38.9336 18.4902 38.9034 18.4975 38.8707C18.5048 38.838 18.5033 38.8039 18.4932 38.772C18.4826 38.7404 18.4638 38.7122 18.4386 38.6904C18.4134 38.6686 18.3829 38.6539 18.3501 38.6478L15.6229 38.1511C15.5524 38.138 15.4858 38.1093 15.428 38.067C15.3702 38.0247 15.3227 37.97 15.289 37.9069L13.97 35.4729C13.9553 35.4446 13.9334 35.4207 13.9064 35.4036C13.8795 35.3865 13.8484 35.3769 13.8165 35.3757Z" fill="#1B1529"/>
<path fill-rule="evenodd" clip-rule="evenodd" d="M18.657 11.4338C18.7425 11.3507 18.8488 11.2921 18.9648 11.2643C19.0808 11.2364 19.2021 11.2402 19.3161 11.2754C19.4301 11.3106 19.5325 11.3757 19.6125 11.4641C19.6925 11.5524 19.7471 11.6606 19.7707 11.7773C20.0009 12.9301 20.3099 14.4907 20.3099 14.4907L22.7696 15.7697C22.8757 15.825 22.9648 15.9079 23.0275 16.0095C23.0903 16.1112 23.1243 16.228 23.126 16.3474C23.1277 16.4668 23.097 16.5844 23.0372 16.6879C22.9774 16.7913 22.8906 16.8767 22.7862 16.9349L20.368 18.2864L19.9076 21.0122C19.8882 21.13 19.8372 21.2404 19.7599 21.3316C19.6827 21.4228 19.5821 21.4913 19.4689 21.53C19.3557 21.5686 19.2341 21.5759 19.117 21.5511C19 21.5262 18.8919 21.4701 18.8043 21.3888L16.7698 19.5096L14.026 19.9235C13.9077 19.9414 13.7868 19.9269 13.6761 19.8817C13.5654 19.8364 13.469 19.7621 13.3973 19.6665C13.3256 19.5709 13.2812 19.4578 13.2688 19.339C13.2565 19.2203 13.2766 19.1004 13.3271 18.9922L14.4885 16.4796L13.2441 13.996C13.191 13.8892 13.1678 13.77 13.1769 13.651C13.1861 13.5321 13.2273 13.4179 13.2961 13.3204C13.3649 13.2228 13.4588 13.1457 13.568 13.097C13.6771 13.0484 13.7973 13.03 13.9161 13.044L16.6702 13.371L18.657 11.4338Z" fill="#FBCE35"/>
<path d="M19.2626 22.0471C18.9755 22.0471 18.699 21.9383 18.489 21.7429L16.6225 20.0188L14.0965 20.3914C13.8931 20.4218 13.6852 20.3967 13.4949 20.3188C13.3046 20.2409 13.1389 20.1131 13.0154 19.949C12.8919 19.7848 12.8152 19.5904 12.7934 19.3862C12.7716 19.1821 12.8055 18.9759 12.8916 18.7895L13.9596 16.4839L12.8252 14.2072C12.7332 14.0235 12.6927 13.8182 12.7081 13.6134C12.7234 13.4085 12.7941 13.2116 12.9125 13.0436C13.0309 12.8755 13.1927 12.7426 13.3807 12.6589C13.5687 12.5752 13.7759 12.5438 13.9804 12.5681L16.5064 12.8682L18.321 11.0903C18.4678 10.9464 18.6508 10.8447 18.8507 10.7961C19.0505 10.7475 19.2599 10.7538 19.4565 10.8143C19.6531 10.8747 19.8297 10.9871 19.9675 11.1396C20.1054 11.292 20.1993 11.4788 20.2394 11.6802L20.7351 14.1638L22.9915 15.3373C23.174 15.4322 23.3274 15.5746 23.4354 15.7494C23.5434 15.9242 23.602 16.125 23.605 16.3303C23.608 16.5357 23.5552 16.738 23.4523 16.9159C23.3494 17.0938 23.2002 17.2406 23.0205 17.3407L20.7994 18.5825L20.3846 21.0847C20.3419 21.3517 20.2057 21.5949 20.0003 21.7711C19.7949 21.9473 19.5335 22.0451 19.2626 22.0471ZM16.7739 19.0378C16.8939 19.0376 17.0095 19.0827 17.0975 19.1641L19.1319 21.0433C19.1566 21.066 19.187 21.0817 19.2199 21.0886C19.2527 21.0955 19.2868 21.0934 19.3186 21.0826C19.3504 21.072 19.3786 21.0529 19.4001 21.0273C19.4217 21.0018 19.4358 20.9708 19.441 20.9378L19.9014 18.2079C19.9131 18.1376 19.9404 18.0709 19.9813 18.0125C20.0222 17.9541 20.0757 17.9056 20.1378 17.8705L22.558 16.5211C22.5876 16.5049 22.6121 16.4808 22.6289 16.4516C22.6458 16.4224 22.6542 16.3892 22.6534 16.3555C22.6526 16.3222 22.643 16.2898 22.6255 16.2614C22.608 16.2331 22.5833 16.2098 22.5539 16.1941L20.0922 14.9151C20.0287 14.882 19.9735 14.835 19.9307 14.7777C19.888 14.7203 19.8588 14.6541 19.8454 14.5839L19.3041 11.8706C19.2973 11.8381 19.282 11.808 19.2597 11.7835C19.2374 11.7589 19.2089 11.7407 19.1772 11.7308C19.1454 11.7209 19.1117 11.7196 19.0793 11.7271C19.0469 11.7345 19.0171 11.7505 18.993 11.7733L17.0145 13.7126C16.9636 13.7626 16.9023 13.8006 16.8348 13.8239C16.7673 13.8471 16.6955 13.8551 16.6246 13.8471L13.8704 13.5201C13.8373 13.5158 13.8035 13.5207 13.7729 13.534C13.7422 13.5474 13.7158 13.5689 13.6964 13.5961C13.6771 13.6233 13.6655 13.6552 13.6629 13.6885C13.6603 13.7218 13.6668 13.7551 13.6817 13.785L14.926 16.2686C14.9571 16.3332 14.9733 16.4039 14.9733 16.4756C14.9733 16.5472 14.9571 16.618 14.926 16.6825L13.7626 19.1951C13.7484 19.2258 13.7429 19.2596 13.7466 19.2932C13.7502 19.3267 13.7629 19.3586 13.7833 19.3855C13.8031 19.4121 13.8298 19.4327 13.8605 19.4451C13.8913 19.4575 13.9248 19.4613 13.9576 19.4559L16.7013 19.042C16.7253 19.0376 16.7496 19.0356 16.7739 19.0357V19.0378Z" fill="#1B1529"/>
<path fill-rule="evenodd" clip-rule="evenodd" d="M27.5105 9.42212C27.5355 9.30544 27.5914 9.1976 27.6725 9.10994C27.7536 9.02227 27.8569 8.95802 27.9714 8.92394C28.086 8.88985 28.2077 8.88718 28.3236 8.9162C28.4396 8.94523 28.5456 9.00489 28.6305 9.08891L29.8395 10.2976L31.5401 10.1134C31.659 10.1005 31.7792 10.1198 31.8879 10.1694C31.9967 10.219 32.09 10.2971 32.158 10.3952C32.226 10.4934 32.2661 10.6081 32.2742 10.7271C32.2823 10.8462 32.2579 10.9652 32.2038 11.0716L31.4261 12.5928L32.1291 14.1513C32.1781 14.2602 32.1966 14.3803 32.1828 14.4988C32.169 14.6173 32.1233 14.7299 32.0507 14.8247C31.978 14.9195 31.881 14.9929 31.77 15.0372C31.6589 15.0816 31.538 15.0951 31.4199 15.0764L29.7275 14.8074L28.4625 15.9561C28.3736 16.0361 28.2648 16.0908 28.1474 16.1143C28.03 16.1378 27.9085 16.1293 27.7955 16.0897C27.6826 16.0501 27.5825 15.9808 27.5057 15.8892C27.4289 15.7976 27.3783 15.687 27.3591 15.569C27.2347 14.7743 27.0937 13.8822 27.0937 13.8822L25.6088 13.0337C25.5042 12.975 25.4176 12.889 25.3582 12.785C25.2988 12.6809 25.2689 12.5627 25.2717 12.443C25.2744 12.3233 25.3098 12.2066 25.3739 12.1054C25.438 12.0042 25.5285 11.9223 25.6357 11.8685L27.1621 11.0944C27.1621 11.0944 27.3508 10.2024 27.5105 9.42212Z" fill="#FBCE35"/>
<path d="M28.0145 16.5957C27.7429 16.5955 27.4804 16.4988 27.274 16.3227C27.0675 16.1467 26.9308 15.903 26.8883 15.6353L26.6581 14.1742L25.3702 13.4394C25.1915 13.3375 25.0437 13.1892 24.9426 13.0102C24.8415 12.8312 24.7908 12.6283 24.7959 12.4229C24.801 12.2175 24.8617 12.0173 24.9716 11.8435C25.0815 11.6698 25.2364 11.529 25.42 11.436L26.7411 10.7654L27.0439 9.31666C27.0859 9.11556 27.1816 8.92956 27.321 8.77837C27.4603 8.62718 27.6381 8.51644 27.8354 8.45788C28.0327 8.39932 28.2422 8.39513 28.4417 8.44575C28.6411 8.49638 28.8232 8.59993 28.9685 8.74543L30.0054 9.78026L31.4779 9.6209C31.6834 9.59767 31.8914 9.63064 32.0796 9.71628C32.2678 9.80192 32.4291 9.93701 32.5462 10.1071C32.6634 10.2772 32.732 10.4758 32.7448 10.6819C32.7575 10.8879 32.7139 11.0935 32.6186 11.2766L31.9445 12.5929L32.5543 13.9424C32.6388 14.1296 32.6709 14.3362 32.6473 14.5402C32.6238 14.7442 32.5453 14.9381 32.4203 15.1012C32.2953 15.2643 32.1284 15.3907 31.9373 15.4669C31.7462 15.5431 31.538 15.5662 31.3348 15.5339L29.8686 15.3021L28.7714 16.2976C28.5643 16.4863 28.2949 16.5924 28.0145 16.5957ZM27.9792 9.5112L27.6287 11.1835C27.6145 11.2534 27.5846 11.3192 27.5411 11.3759C27.4976 11.4326 27.4418 11.4786 27.3778 11.5105L25.8535 12.2866C25.8234 12.3012 25.798 12.3238 25.78 12.3519C25.7621 12.3801 25.7523 12.4126 25.7519 12.446C25.7506 12.4795 25.7587 12.5127 25.7752 12.5419C25.7916 12.5711 25.8158 12.5952 25.8452 12.6116L27.3301 13.4601C27.3924 13.4954 27.446 13.5443 27.487 13.603C27.5279 13.6618 27.5551 13.7289 27.5665 13.7995L27.832 15.4863C27.8372 15.5196 27.8513 15.5508 27.8728 15.5766C27.8944 15.6025 27.9225 15.6221 27.9543 15.6333C27.9861 15.6445 28.0203 15.6468 28.0532 15.6399C28.0862 15.6329 28.1165 15.617 28.141 15.5939L29.4082 14.4473C29.4609 14.399 29.524 14.3633 29.5926 14.3429C29.6612 14.3224 29.7336 14.3178 29.8043 14.3294L31.4986 14.5964C31.5325 14.6034 31.5677 14.6009 31.6002 14.5892C31.6328 14.5774 31.6614 14.5569 31.6829 14.5298C31.7045 14.5028 31.718 14.4703 31.7221 14.436C31.7262 14.4017 31.7206 14.3669 31.706 14.3356L31.0051 12.7792C30.9735 12.7147 30.9572 12.644 30.9572 12.5722C30.9572 12.5005 30.9735 12.4297 31.0051 12.3653L31.7828 10.842C31.7981 10.8122 31.805 10.7788 31.8027 10.7454C31.8005 10.712 31.7892 10.6799 31.77 10.6524C31.7508 10.625 31.7244 10.6033 31.6938 10.5896C31.6632 10.576 31.6294 10.5709 31.5961 10.575L29.8955 10.7592C29.8244 10.7671 29.7525 10.7589 29.685 10.7352C29.6175 10.7116 29.5562 10.6731 29.5056 10.6226L28.2965 9.41393C28.2727 9.39054 28.243 9.37383 28.2106 9.36547C28.1782 9.35712 28.1442 9.35741 28.112 9.36633C28.0797 9.37587 28.0507 9.39402 28.028 9.41883C28.0053 9.44363 27.9899 9.47414 27.9834 9.50707L27.9792 9.5112Z" fill="#1B1529"/>
<path fill-rule="evenodd" clip-rule="evenodd" d="M21.9815 0.741928C22.0537 0.646466 22.1505 0.572311 22.2616 0.52734C22.3727 0.482369 22.4939 0.468262 22.6124 0.486516C22.7308 0.50477 22.8421 0.554703 22.9345 0.631013C23.0268 0.707322 23.0967 0.807159 23.1367 0.919919C23.3648 1.56151 23.6054 2.23209 23.6054 2.23209L24.9244 2.68948C25.0376 2.72845 25.1382 2.79729 25.2154 2.88869C25.2926 2.98009 25.3436 3.09064 25.363 3.20862C25.3823 3.3266 25.3693 3.44761 25.3253 3.55881C25.2813 3.67 25.208 3.76724 25.1131 3.84021L24.0056 4.69084C24.0056 4.69084 23.9911 5.40281 23.9787 6.08373C23.9756 6.20269 23.9405 6.31862 23.8771 6.41943C23.8138 6.52023 23.7244 6.6022 23.6184 6.65677C23.5125 6.71134 23.3938 6.7365 23.2747 6.72963C23.1557 6.72275 23.0407 6.6841 22.9417 6.6177L21.7886 5.82916L20.453 6.24309C20.3377 6.27852 20.2149 6.28192 20.0978 6.2529C19.9807 6.22389 19.8738 6.16358 19.7884 6.07844C19.7031 5.9933 19.6427 5.88656 19.6136 5.76971C19.5846 5.65285 19.588 5.5303 19.6235 5.41523L20.0175 4.07822L19.2191 2.9337C19.1514 2.83584 19.1115 2.72158 19.1036 2.60297C19.0956 2.48437 19.1199 2.36581 19.1738 2.25983C19.2278 2.15385 19.3094 2.06437 19.4101 2.00083C19.5108 1.9373 19.6267 1.90207 19.7458 1.89887L21.1416 1.85955C21.1416 1.85955 21.5709 1.28625 21.9815 0.741928Z" fill="#FBCE35"/>
<path d="M23.315 7.20961C23.0839 7.2078 22.8589 7.13559 22.67 7.00264L21.7057 6.34656L20.5878 6.68392C20.3909 6.74346 20.1814 6.74873 19.9817 6.69916C19.782 6.64959 19.5995 6.54703 19.4535 6.40235C19.3074 6.25767 19.2033 6.07625 19.1522 5.87732C19.1011 5.6784 19.1048 5.46938 19.163 5.27241L19.4928 4.15479L18.825 3.21309C18.7074 3.04448 18.6377 2.84724 18.6234 2.64231C18.609 2.43738 18.6504 2.23238 18.7434 2.04906C18.8363 1.86574 18.9772 1.71093 19.1511 1.60104C19.325 1.49116 19.5255 1.43029 19.7313 1.4249L20.8968 1.39179L21.602 0.46251C21.7266 0.299268 21.893 0.172607 22.0837 0.0958832C22.2745 0.0191598 22.4824 -0.00478223 22.6856 0.0265813C22.8888 0.0579448 23.0798 0.143451 23.2384 0.274085C23.397 0.404719 23.5173 0.575639 23.5867 0.76882L23.9787 1.86781L25.082 2.2507C25.2761 2.31815 25.4484 2.43671 25.5806 2.59385C25.7128 2.75099 25.8 2.94086 25.8329 3.14337C25.8658 3.34589 25.8433 3.55352 25.7677 3.74431C25.6921 3.9351 25.5662 4.10196 25.4034 4.22723L24.4785 4.93919L24.4557 6.10441C24.451 6.30997 24.3906 6.51043 24.2811 6.68459C24.1716 6.85874 24.0169 7.0001 23.8335 7.09371C23.6724 7.17298 23.4946 7.21272 23.315 7.20961ZM21.7865 5.34691C21.8826 5.34726 21.9765 5.37607 22.0561 5.4297L23.2092 6.21824C23.2382 6.23495 23.2711 6.24375 23.3046 6.24375C23.3381 6.24375 23.371 6.23495 23.4 6.21824C23.4299 6.20304 23.4549 6.17994 23.4725 6.15147C23.4901 6.12299 23.4994 6.09024 23.4996 6.05681L23.5266 4.66393C23.5285 4.59259 23.5463 4.52257 23.5786 4.45888C23.6108 4.3952 23.6568 4.33942 23.7132 4.29553L24.8207 3.44489C24.8471 3.42455 24.8676 3.39749 24.88 3.36655C24.8924 3.33561 24.8963 3.30191 24.8912 3.26897C24.8858 3.23603 24.8716 3.20515 24.8501 3.17963C24.8285 3.15411 24.8005 3.13492 24.7688 3.1241L23.4477 2.6667C23.3801 2.64321 23.3187 2.60476 23.268 2.55422C23.2174 2.50369 23.1789 2.44237 23.1553 2.37488L22.6866 1.06271C22.6754 1.03099 22.6558 1.00288 22.6299 0.981382C22.604 0.959882 22.5727 0.945791 22.5394 0.940603C22.5062 0.935975 22.4724 0.940245 22.4414 0.952976C22.4104 0.965707 22.3834 0.986438 22.3631 1.01304L21.5211 2.12445C21.4775 2.18132 21.4217 2.22775 21.3579 2.26034C21.294 2.29292 21.2236 2.31084 21.1519 2.31279L19.7562 2.35211C19.7228 2.35283 19.6903 2.36266 19.6621 2.38054C19.634 2.39842 19.6113 2.42367 19.5965 2.45353C19.5812 2.48343 19.5742 2.51692 19.5764 2.55044C19.5786 2.58396 19.5899 2.61627 19.6089 2.64393L20.4074 3.78639C20.4494 3.84575 20.4772 3.91392 20.4887 3.98567C20.5002 4.05742 20.4951 4.13085 20.4737 4.20032L20.0797 5.53732C20.0705 5.56939 20.0702 5.60332 20.0786 5.63557C20.0871 5.66782 20.1041 5.69722 20.1278 5.72069C20.1516 5.74416 20.1811 5.76084 20.2135 5.769C20.2459 5.77715 20.28 5.77648 20.312 5.76706L21.6476 5.35312C21.6936 5.34611 21.7405 5.34611 21.7865 5.35312V5.34691Z" fill="#1B1529"/>
<path fill-rule="evenodd" clip-rule="evenodd" d="M29.4621 35.2472C29.519 35.1422 29.6033 35.0545 29.706 34.9933C29.8088 34.9322 29.9262 34.8999 30.0459 34.8999C30.1655 34.8999 30.2829 34.9322 30.3857 34.9933C30.4885 35.0545 30.5728 35.1422 30.6297 35.2472L31.9466 37.6812L34.6738 38.18C34.7917 38.201 34.9017 38.2535 34.992 38.332C35.0823 38.4105 35.1496 38.512 35.1866 38.6257C35.2237 38.7394 35.2291 38.8609 35.2023 38.9774C35.1756 39.0939 35.1176 39.201 35.0347 39.2872L33.1225 41.2907L33.4896 44.033C33.5054 44.1512 33.4888 44.2715 33.4417 44.3811C33.3947 44.4908 33.3188 44.5857 33.2222 44.6558C33.1255 44.726 33.0117 44.7688 32.8926 44.7798C32.7736 44.7907 32.6539 44.7694 32.546 44.718L30.0469 43.5197L27.5582 44.718C27.4503 44.7694 27.3306 44.7907 27.2116 44.7798C27.0925 44.7688 26.9787 44.726 26.882 44.6558C26.7854 44.5857 26.7095 44.4908 26.6624 44.3811C26.6154 44.2715 26.5988 44.1512 26.6146 44.033L26.9817 41.2907L25.0695 39.2872C24.9866 39.201 24.9286 39.0939 24.9018 38.9774C24.8751 38.8609 24.8805 38.7394 24.9176 38.6257C24.9546 38.512 25.0219 38.4105 25.1122 38.332C25.2025 38.2535 25.3125 38.201 25.4304 38.18L28.1576 37.6812L29.4621 35.2472Z" fill="#FBCE35"/>
<path d="M27.2596 45.2583C27.0971 45.2585 26.9364 45.2241 26.7883 45.1573C26.6402 45.0905 26.5081 44.9928 26.4009 44.8709C26.2936 44.7491 26.2137 44.6057 26.1666 44.4505C26.1194 44.2953 26.106 44.1318 26.1272 43.971L26.4653 41.4522L24.7108 39.6164C24.5692 39.4674 24.4706 39.2831 24.4253 39.0828C24.38 38.8825 24.3897 38.6738 24.4534 38.4786C24.5172 38.2834 24.6325 38.1089 24.7873 37.9737C24.9421 37.8385 25.1306 37.7475 25.3329 37.7103L27.8361 37.2529L29.0432 35.0197C29.1417 34.8396 29.287 34.6893 29.4638 34.5846C29.6406 34.4799 29.8424 34.4247 30.048 34.4247C30.2536 34.4247 30.4554 34.4799 30.6322 34.5846C30.809 34.6893 30.9543 34.8396 31.0528 35.0197L32.2598 37.2529L34.763 37.7103C34.9657 37.7468 35.1547 37.8375 35.31 37.9727C35.4652 38.1078 35.5809 38.2824 35.6447 38.4779C35.7085 38.6733 35.718 38.8824 35.6723 39.0829C35.6266 39.2833 35.5274 39.4677 35.3852 39.6164L33.6286 41.4543L33.9666 43.9689C33.994 44.1724 33.9656 44.3795 33.8847 44.5682C33.8037 44.757 33.6731 44.9204 33.5066 45.0411C33.3402 45.1618 33.1442 45.2353 32.9393 45.2539C32.7344 45.2724 32.5282 45.2354 32.3427 45.1466L30.049 44.0496L27.7677 45.1466C27.6094 45.2228 27.4354 45.2611 27.2596 45.2583ZM30.0469 35.3757C30.0136 35.3754 29.9808 35.3843 29.9523 35.4015C29.9237 35.4187 29.9005 35.4434 29.8852 35.473L28.5682 37.9069C28.5338 37.9699 28.4859 38.0245 28.4278 38.0667C28.3697 38.1089 28.3029 38.1378 28.2323 38.1511L25.5051 38.6478C25.4719 38.6538 25.4411 38.6688 25.4159 38.691C25.3906 38.7133 25.372 38.742 25.362 38.7741C25.352 38.8057 25.3506 38.8394 25.3579 38.8717C25.3652 38.9041 25.3809 38.9339 25.4034 38.9583L27.3177 40.9617C27.3669 41.0132 27.4041 41.0751 27.4263 41.1428C27.4486 41.2104 27.4554 41.2822 27.4462 41.3529L27.0771 44.0952C27.0731 44.1284 27.0779 44.1622 27.091 44.193C27.1041 44.2239 27.125 44.2508 27.1518 44.2711C27.1789 44.2904 27.2107 44.3021 27.2439 44.305C27.277 44.3079 27.3104 44.3019 27.3405 44.2876L29.8416 43.0914C29.9061 43.0595 29.977 43.0429 30.049 43.0429C30.121 43.0429 30.1919 43.0595 30.2564 43.0914L32.7451 44.2876C32.7755 44.3019 32.8092 44.3079 32.8427 44.305C32.8762 44.3021 32.9084 44.2904 32.9359 44.2711C32.9626 44.2508 32.9835 44.2239 32.9966 44.193C33.0097 44.1622 33.0145 44.1284 33.0106 44.0952L32.6414 41.3529C32.6323 41.2822 32.6391 41.2104 32.6613 41.1428C32.6836 41.0751 32.7207 41.0132 32.77 40.9617L34.6821 38.9583C34.7057 38.9343 34.7222 38.9044 34.73 38.8718C34.7378 38.8391 34.7365 38.805 34.7262 38.7731C34.716 38.7411 34.6972 38.7126 34.6719 38.6905C34.6465 38.6684 34.6157 38.6537 34.5826 38.6478L31.8554 38.1511C31.7847 38.1378 31.718 38.1089 31.6599 38.0667C31.6017 38.0245 31.5538 37.9699 31.5194 37.9069L30.2025 35.473C30.1873 35.4446 30.165 35.4207 30.1377 35.4037C30.1104 35.3866 30.0791 35.3769 30.0469 35.3757Z" fill="#1B1529"/>
<path d="M11.8733 35.3756C11.8012 35.3754 11.7302 35.3584 11.6659 35.3259C11.555 35.2718 11.4697 35.1766 11.4282 35.0606C11.3868 34.9445 11.3924 34.817 11.444 34.705C11.6495 34.3203 11.9457 33.9912 12.3069 33.746C12.6682 33.5009 13.0838 33.347 13.5179 33.2977C14.6295 33.1714 15.6187 33.7468 15.9796 34.7278C16.0233 34.8464 16.0181 34.9774 15.965 35.0921C15.9119 35.2068 15.8153 35.2957 15.6965 35.3394C15.5777 35.383 15.4464 35.3778 15.3315 35.3248C15.2165 35.2718 15.1274 35.1754 15.0837 35.0569C14.8763 34.4856 14.3018 34.169 13.6319 34.2456C13.3581 34.276 13.0954 34.3712 12.8657 34.523C12.636 34.6749 12.4458 34.8792 12.3108 35.119C12.2691 35.1982 12.206 35.2642 12.1287 35.3095C12.0514 35.3549 11.9629 35.3778 11.8733 35.3756Z" fill="#1B1529"/>
<path d="M32.1208 35.3776C32.0309 35.3777 31.9427 35.3526 31.8664 35.305C31.7901 35.2574 31.7288 35.1893 31.6895 35.1086C31.5551 34.8687 31.3654 34.6644 31.136 34.5125C30.9065 34.3606 30.6441 34.2655 30.3705 34.2352C29.6965 34.1565 29.1261 34.4753 28.9187 35.0465C28.875 35.1651 28.7859 35.2614 28.6709 35.3144C28.556 35.3674 28.4247 35.3726 28.3059 35.329C28.1871 35.2854 28.0905 35.1964 28.0374 35.0817C27.9843 34.967 27.9791 34.836 28.0228 34.7174C28.3837 33.7364 29.3729 33.161 30.4845 33.2873C30.9186 33.3366 31.3342 33.4905 31.6955 33.7357C32.0567 33.9808 32.3529 34.3099 32.5584 34.6947C32.5856 34.751 32.6013 34.8122 32.6047 34.8747C32.6082 34.9371 32.5992 34.9997 32.5784 35.0587C32.5576 35.1177 32.5254 35.172 32.4835 35.2186C32.4416 35.2651 32.391 35.303 32.3345 35.33C32.2678 35.3619 32.1947 35.3781 32.1208 35.3776Z" fill="#1B1529"/>
<path fill-rule="evenodd" clip-rule="evenodd" d="M4.47354 47.0465C4.37192 45.0451 6.54747 43.8923 8.22318 44.4511C9.8989 45.0099 10.4547 46.2373 9.94659 47.9696C9.28294 50.2234 4.65812 50.685 4.47354 47.0465Z" fill="#FE7D7B"/>
<path fill-rule="evenodd" clip-rule="evenodd" d="M33.8753 47.0465C33.7737 45.0451 35.9493 43.8923 37.6229 44.4511C39.2966 45.0099 39.8544 46.2373 39.3484 47.9696C38.6847 50.2234 34.0578 50.685 33.8753 47.0465Z" fill="#FE7D7B"/>
<path fill-rule="evenodd" clip-rule="evenodd" d="M19.105 45.7985C18.993 44.5898 20.1419 43.8882 21.8654 43.8882C23.8148 43.8882 24.8311 44.4863 24.8974 45.4197C24.9783 46.5498 23.9994 47.2969 22.1723 47.3383C19.9864 47.388 19.2066 46.8933 19.105 45.7985Z" fill="#1B1529"/>
<path fill-rule="evenodd" clip-rule="evenodd" d="M17.7513 52.2588C17.7513 52.2588 16.4541 63.102 22.2423 63.4775C28.0305 63.853 27.2081 52.0012 27.2081 52.0012C27.2081 52.0012 23.988 52.619 22.4283 49.7876C22.4283 49.7876 20.7526 52.3985 17.7513 52.2588Z" fill="#B02F10"/>
<mask id="mask0_17_3267" style="mask-type:luminance" maskUnits="userSpaceOnUse" x="17" y="49" width="10" height="15">
<path d="M17.3237 52.4412C17.3237 52.4412 16.0265 63.2844 21.8147 63.6599C27.6029 64.0354 26.7804 52.1836 26.7804 52.1836C26.7804 52.1836 23.5604 52.8014 22.0007 49.97C22.0007 49.97 20.325 52.5809 17.3237 52.4412Z" fill="white"/>
</mask>
<g mask="url(#mask0_17_3267)">
<path fill-rule="evenodd" clip-rule="evenodd" d="M17.2012 62.051C17.2012 62.051 17.7 57.9687 21.0797 57.3094C24.2626 56.6872 26.2751 58.9969 26.8198 61.8348C26.8198 61.8348 24.9276 65.3517 21.8147 65.5722C18.7019 65.7927 17.2012 62.051 17.2012 62.051Z" fill="#FE7D7B"/>
<path d="M21.5456 66.0852C18.3168 66.0852 16.7987 62.4002 16.7331 62.2387C16.7004 62.1601 16.6891 62.0742 16.7003 61.9898C16.7221 61.8086 17.2865 57.5364 20.9835 56.816C21.6284 56.6719 22.2958 56.6587 22.9459 56.7772C23.5961 56.8957 24.2156 57.1435 24.7679 57.5058C26.0541 58.3791 26.9554 59.8766 27.3164 61.7388C27.3367 61.8521 27.3182 61.969 27.2639 62.0706C27.1807 62.2256 25.201 65.8364 21.8519 66.0743C21.7469 66.0831 21.6441 66.0852 21.5456 66.0852ZM17.7196 61.9833C17.9997 62.5858 19.3734 65.2382 21.7797 65.0723C24.2232 64.8976 25.8967 62.3937 26.2882 61.7475C25.9623 60.2521 25.2098 59.0187 24.2035 58.3398C23.7625 58.0493 23.2666 57.8518 22.7464 57.7595C22.2261 57.6671 21.6925 57.6819 21.1782 57.8027C18.5094 58.3158 17.8378 61.3218 17.7196 61.9833Z" fill="#1B1529"/>
<path fill-rule="evenodd" clip-rule="evenodd" d="M17.8903 51.5483C17.8903 51.5483 18.0609 54.6045 18.9403 54.5456C19.8197 54.4866 19.6534 51.1422 19.6534 51.1422L17.8903 51.5483Z" fill="white"/>
<path d="M18.914 55.0544C18.6882 55.0519 18.4714 54.9655 18.3059 54.812C17.5862 54.1746 17.42 52.1771 17.3871 51.5811C17.3808 51.4627 17.4164 51.3459 17.4875 51.251C17.5587 51.156 17.661 51.089 17.7765 51.0616L19.5419 50.6577C19.6136 50.6409 19.6881 50.6402 19.7602 50.6554C19.8322 50.6707 19.9 50.7016 19.9587 50.746C20.0174 50.7904 20.0656 50.8472 20.0998 50.9123C20.134 50.9774 20.1534 51.0493 20.1566 51.1227C20.2441 52.8691 20.1084 54.978 18.9731 55.0522L18.914 55.0544ZM18.4262 51.9457C18.5137 52.8342 18.7084 53.6747 18.8987 53.9716C19.0584 53.6397 19.1656 52.7382 19.1656 51.7754L18.4262 51.9457Z" fill="#1B1529"/>
<path fill-rule="evenodd" clip-rule="evenodd" d="M26.3079 51.5483C26.3079 51.5483 26.1373 54.6045 25.2601 54.5456C24.3829 54.4866 24.5447 51.1422 24.5447 51.1422L26.3079 51.5483Z" fill="white"/>
<path d="M25.2754 55.0543H25.2141C24.0766 54.9801 23.941 52.8712 24.0285 51.1248C24.0316 51.0511 24.0511 50.9791 24.0854 50.9138C24.1197 50.8485 24.1681 50.7915 24.2271 50.7471C24.286 50.7027 24.3541 50.6718 24.4264 50.6567C24.4987 50.6416 24.5735 50.6427 24.6454 50.6598L26.4085 51.0637C26.5243 51.0907 26.6269 51.1576 26.6981 51.2527C26.7693 51.3477 26.8047 51.4647 26.7979 51.5832C26.7651 52.1792 26.6011 54.1767 25.8792 54.8141C25.7145 54.9658 25.4995 55.0513 25.2754 55.0543ZM25.0238 51.7797C25.0238 52.7424 25.1332 53.644 25.2929 53.9758C25.481 53.679 25.6779 52.8385 25.7632 51.95L25.0238 51.7797Z" fill="#1B1529"/>
</g>
<path d="M22.0838 64.1706C21.9853 64.1706 21.8847 64.1706 21.7819 64.1706C21.1755 64.1399 20.5825 63.9814 20.0418 63.7056C19.5012 63.4298 19.0251 63.043 18.645 62.5705C16.0199 59.4159 16.7899 52.6769 16.8249 52.3909C16.8408 52.2657 16.9035 52.1511 17.0004 52.0701C17.0974 51.9892 17.2215 51.9478 17.3478 51.9543C20.0144 52.0852 21.561 49.7363 21.5763 49.7123C21.6251 49.6423 21.6908 49.5857 21.7672 49.5476C21.8436 49.5095 21.9284 49.491 22.0138 49.494C22.101 49.497 22.1859 49.5226 22.2602 49.5681C22.3346 49.6136 22.3959 49.6776 22.4382 49.7538C23.7966 52.2206 26.566 51.7382 26.682 51.7185C26.7517 51.7054 26.8235 51.7072 26.8925 51.7237C26.9616 51.7402 27.0263 51.7712 27.0825 51.8145C27.1387 51.8578 27.1851 51.9125 27.2186 51.9749C27.2522 52.0374 27.272 52.1063 27.277 52.1769C27.3011 52.5 27.7932 60.1014 24.8707 63.0376C24.508 63.4059 24.0736 63.6964 23.5944 63.8912C23.1152 64.086 22.6011 64.1811 22.0838 64.1706ZM17.7765 52.9454C17.654 54.4735 17.4221 59.5295 19.415 61.9199C19.7069 62.2876 20.0746 62.5884 20.4932 62.802C20.9117 63.0155 21.3713 63.1369 21.8409 63.1577C22.2656 63.1978 22.6938 63.1414 23.0934 62.9928C23.4931 62.8442 23.8539 62.6073 24.1488 62.2998C26.3517 60.0905 26.3495 54.4626 26.2948 52.7314C25.3126 52.7686 23.2957 52.607 21.9569 50.8365C21.2766 51.6072 19.8612 52.8581 17.7765 52.9454Z" fill="#1B1529"/>
<path d="M17.2283 52.7217C14.5748 52.7217 13.4154 50.8682 13.1704 49.8597C13.1547 49.7956 13.1518 49.7291 13.162 49.6639C13.1721 49.5987 13.1949 49.5362 13.2293 49.4798C13.2636 49.4234 13.3087 49.3744 13.362 49.3354C13.4154 49.2965 13.4759 49.2684 13.5401 49.2528C13.6043 49.2372 13.6709 49.2343 13.7362 49.2444C13.8015 49.2545 13.8642 49.2773 13.9207 49.3115C13.9772 49.3458 14.0263 49.3908 14.0654 49.444C14.1044 49.4973 14.1325 49.5576 14.1482 49.6217C14.1744 49.7199 14.7563 51.831 17.4295 51.7109C20.1552 51.5974 21.6996 49.4732 21.7149 49.4514C21.7662 49.376 21.837 49.3159 21.9198 49.2775C22.0027 49.239 22.0943 49.2237 22.1852 49.2331C22.2745 49.2431 22.3595 49.2769 22.4311 49.3311C22.5027 49.3853 22.5584 49.4578 22.5921 49.5409C22.6337 49.637 23.6355 51.9423 26.8425 51.4467C28.68 51.1673 29.7803 49.3663 29.7912 49.3488C29.86 49.233 29.972 49.1492 30.1027 49.1159C30.2333 49.0825 30.372 49.1023 30.488 49.1709C30.604 49.2395 30.688 49.3513 30.7214 49.4817C30.7549 49.6121 30.735 49.7504 30.6663 49.8662C30.6138 49.9557 29.3056 52.0907 27.0043 52.44C24.189 52.8766 22.7058 51.4708 22.0649 50.5866C20.8647 51.8575 19.2188 52.6163 17.4711 52.7042L17.2283 52.7217Z" fill="#1B1529"/>
<path d="M22.1251 50.3394C21.9917 50.3394 21.8637 50.2866 21.7693 50.1924C21.675 50.0982 21.622 49.9705 21.622 49.8374V46.768C21.622 46.6348 21.675 46.5071 21.7693 46.4129C21.8637 46.3188 21.9917 46.2659 22.1251 46.2659C22.2586 46.2659 22.3865 46.3188 22.4809 46.4129C22.5753 46.5071 22.6282 46.6348 22.6282 46.768V49.8374C22.6282 49.9705 22.5753 50.0982 22.4809 50.1924C22.3865 50.2866 22.2586 50.3394 22.1251 50.3394Z" fill="#1B1529"/>
<path d="M16.1704 46.7754H16.1206L11.9189 46.3428C11.8014 46.3244 11.6955 46.2617 11.6229 46.1676C11.5504 46.0735 11.5167 45.9553 11.529 45.8372C11.5412 45.7191 11.5983 45.6102 11.6886 45.533C11.7789 45.4557 11.8955 45.4159 12.0143 45.4218L16.216 45.8523C16.3351 45.8636 16.4452 45.9202 16.5234 46.0104C16.6017 46.1006 16.6421 46.2175 16.6362 46.3367C16.6303 46.4558 16.5787 46.5682 16.4919 46.6503C16.4051 46.7324 16.29 46.7779 16.1704 46.7775V46.7754Z" fill="#EDAE5D"/>
<path d="M11.9666 48.9919C11.8498 48.9886 11.7385 48.9416 11.6549 48.8601C11.5713 48.7787 11.5216 48.6688 11.5155 48.5523C11.5095 48.4359 11.5477 48.3214 11.6225 48.2318C11.6972 48.1422 11.803 48.084 11.9189 48.0688L16.1206 47.6362C16.1814 47.63 16.2427 47.6357 16.3013 47.6532C16.3598 47.6706 16.4143 47.6993 16.4616 47.7378C16.509 47.7762 16.5483 47.8236 16.5774 47.8772C16.6064 47.9308 16.6246 47.9896 16.6308 48.0502C16.6371 48.1108 16.6313 48.172 16.6139 48.2304C16.5964 48.2888 16.5676 48.3432 16.5291 48.3905C16.4906 48.4377 16.4431 48.477 16.3894 48.506C16.3357 48.5349 16.2768 48.5531 16.216 48.5593L12.0143 48.9898L11.9666 48.9919Z" fill="#EDAE5D"/>
<path d="M27.973 46.7753C27.8533 46.7764 27.7377 46.7312 27.6505 46.6493C27.5633 46.5673 27.5112 46.4549 27.5051 46.3356C27.4989 46.2162 27.5392 46.0991 27.6175 46.0086C27.6958 45.9182 27.8061 45.8614 27.9253 45.8502L32.1271 45.4197C32.1894 45.4099 32.253 45.4129 32.3142 45.4285C32.3753 45.444 32.4326 45.4719 32.4826 45.5103C32.5326 45.5487 32.5742 45.5968 32.6049 45.6518C32.6357 45.7067 32.6548 45.7674 32.6613 45.83C32.6678 45.8926 32.6615 45.9559 32.6426 46.016C32.6238 46.0761 32.5929 46.1317 32.5519 46.1795C32.5108 46.2273 32.4604 46.2662 32.4038 46.2939C32.3472 46.3216 32.2855 46.3375 32.2225 46.3407L28.0207 46.7733L27.973 46.7753Z" fill="#EDAE5D"/>
<path d="M32.1665 48.992H32.1208L27.9191 48.5615C27.7964 48.5489 27.6838 48.4881 27.606 48.3927C27.5283 48.2972 27.4917 48.1748 27.5043 48.0524C27.517 47.93 27.5778 47.8176 27.6735 47.74C27.7692 47.6623 27.8918 47.6258 28.0145 47.6384L32.2162 48.071C32.332 48.0861 32.4378 48.1441 32.5126 48.2335C32.5874 48.3229 32.6258 48.4372 32.62 48.5535C32.6143 48.6699 32.5648 48.7798 32.4816 48.8614C32.3983 48.9431 32.2873 48.9904 32.1706 48.9941L32.1665 48.992Z" fill="#EDAE5D"/>
</svg>
