<svg width="130" height="130" viewBox="0 0 130 130" fill="none" xmlns="http://www.w3.org/2000/svg">
<circle cx="65" cy="65" r="65" fill="#EDAE5D"/>
<path fill-rule="evenodd" clip-rule="evenodd" d="M54.2593 94C44.175 94 36 85.519 36 75.0572C36 64.5953 44.175 56.1143 54.2593 56.1143H71.1208C71.8928 56.1143 72.5185 56.7635 72.5185 57.5643V58.5643C72.5185 59.3651 73.1443 60.0143 73.9162 60.0143H76.5044C76.8751 60.0143 77.2306 59.8615 77.4927 59.5896L80.4332 56.539C80.6953 56.2671 81.0508 56.1143 81.4215 56.1143H92.6023C93.3742 56.1143 94 56.7635 94 57.5643V67.9541C94 68.5434 93.6562 69.0741 93.1303 69.2967L73.0066 77.8143C72.5558 78.0051 72.2372 78.4266 72.1383 78.9212C70.4186 87.53 63.0672 94 54.2593 94ZM54.2593 84.8072C59.3014 84.8072 63.3889 80.5667 63.3889 75.3357C63.3889 70.1048 59.3014 65.8643 54.2593 65.8643C49.2171 65.8643 45.1296 70.1048 45.1296 75.3357C45.1296 80.5667 49.2171 84.8072 54.2593 84.8072Z" fill="white"/>
<path fill-rule="evenodd" clip-rule="evenodd" d="M75.1349 36C75.9068 36 76.5325 36.6492 76.5325 37.45V49.05C76.5325 49.8508 75.9068 50.5 75.1349 50.5C74.3629 50.5 73.7372 49.8508 73.7372 49.05V37.45C73.7372 36.6492 74.3629 36 75.1349 36ZM60.1878 39.7525C60.7434 39.1966 61.6283 39.2131 62.1641 39.7895L69.8376 48.0434C70.3735 48.6198 70.3575 49.5377 69.8019 50.0937C69.2463 50.6496 68.3615 50.633 67.8256 50.0566L60.1521 41.8028C59.6162 41.2264 59.6322 40.3084 60.1878 39.7525ZM90.0819 39.7525C90.6375 40.3084 90.6535 41.2264 90.1176 41.8028L82.4441 50.0566C81.9082 50.633 81.0234 50.6496 80.4678 50.0937C79.9122 49.5377 79.8962 48.6198 80.4321 48.0434L88.1056 39.7895C88.6415 39.2131 89.5263 39.1966 90.0819 39.7525Z" fill="white"/>
</svg>
