<svg width="14" height="16" viewBox="0 0 14 16" fill="none" xmlns="http://www.w3.org/2000/svg">
<path fill-rule="evenodd" clip-rule="evenodd" d="M4.46831 11.5118H8.90395C9.23825 11.5118 9.51548 11.2398 9.51548 10.9118C9.51548 10.5838 9.23825 10.3198 8.90395 10.3198H4.46831C4.134 10.3198 3.85678 10.5838 3.85678 10.9118C3.85678 11.2398 4.134 11.5118 4.46831 11.5118ZM7.22428 6.31982H4.46831C4.134 6.31982 3.85678 6.59182 3.85678 6.91982C3.85678 7.24782 4.134 7.51182 4.46831 7.51182H7.22428C7.55858 7.51182 7.83581 7.24782 7.83581 6.91982C7.83581 6.59182 7.55858 6.31982 7.22428 6.31982ZM13.0431 5.62049C13.2348 5.61834 13.4435 5.616 13.6331 5.616C13.8369 5.616 14 5.776 14 5.976V12.408C14 14.392 12.3611 16 10.339 16H3.84857C1.7286 16 0 14.312 0 12.232V3.608C0 1.624 1.64706 0 3.67734 0H8.03145C8.24345 0 8.40652 0.168 8.40652 0.368V2.944C8.40652 4.408 9.63774 5.608 11.1299 5.616C11.4784 5.616 11.7857 5.61853 12.0546 5.62075C12.2638 5.62247 12.4497 5.624 12.6139 5.624C12.7299 5.624 12.8804 5.62231 13.0431 5.62049ZM13.268 4.45251C12.5977 4.45491 11.8076 4.45251 11.2393 4.44691C10.3375 4.44691 9.59469 3.71811 9.59469 2.83331V0.724514C9.59469 0.379714 10.0211 0.208514 10.2649 0.457314C10.7065 0.907761 11.3133 1.52704 11.9173 2.14339C12.5191 2.75742 13.1179 3.36854 13.5476 3.80691C13.7857 4.04931 13.6112 4.45171 13.268 4.45251Z" fill="#738FF5"/>
</svg>
