<svg width="20" height="20" viewBox="0 0 20 20" fill="none" xmlns="http://www.w3.org/2000/svg">
<path d="M0 6C0 5.44772 0.447715 5 1 5C1.55228 5 2 5.44772 2 6V14C2 14.5523 1.55228 15 1 15C0.447715 15 0 14.5523 0 14V6Z" fill="#EDAE5D"/>
<path d="M9 8C9 7.44772 9.44772 7 10 7C10.5523 7 11 7.44772 11 8V12C11 12.5523 10.5523 13 10 13C9.44772 13 9 12.5523 9 12V8Z" fill="#EDAE5D"/>
<path d="M3 4C3 3.44772 3.44772 3 4 3C4.55228 3 5 3.44772 5 4V16C5 16.5523 4.55228 17 4 17C3.44772 17 3 16.5523 3 16V4Z" fill="#EDAE5D"/>
<path d="M12 4C12 3.44772 12.4477 3 13 3C13.5523 3 14 3.44772 14 4V16C14 16.5523 13.5523 17 13 17C12.4477 17 12 16.5523 12 16V4Z" fill="#EDAE5D"/>
<path d="M6 1C6 0.447716 6.44772 0 7 0C7.55228 0 8 0.447715 8 1V19C8 19.5523 7.55228 20 7 20C6.44772 20 6 19.5523 6 19V1Z" fill="#EDAE5D"/>
<path d="M15 1C15 0.447716 15.4477 0 16 0C16.5523 0 17 0.447715 17 1V19C17 19.5523 16.5523 20 16 20C15.4477 20 15 19.5523 15 19V1Z" fill="#EDAE5D"/>
<path d="M18 8C18 7.44772 18.4477 7 19 7C19.5523 7 20 7.44772 20 8V12C20 12.5523 19.5523 13 19 13C18.4477 13 18 12.5523 18 12V8Z" fill="#EDAE5D"/>
</svg>
