<svg width="24" height="24" viewBox="0 0 24 24" fill="none" xmlns="http://www.w3.org/2000/svg">
<path fill-rule="evenodd" clip-rule="evenodd" d="M8.0001 2H16.0002C19.3083 2 22.0003 4.69099 22 7.9985V12.6637C22 15.8595 19.4873 18.4795 16.3332 18.6532V21.4338C16.3332 21.7461 16.0786 22 15.7659 22C15.6162 22 15.4749 21.941 15.3676 21.834L14.7422 21.2085C13.0999 19.5666 10.9161 18.6625 8.59344 18.6625H8.0001C4.69171 18.6625 2 15.9715 2 12.664V7.9985C2 4.69099 4.69171 2 8.0001 2ZM8.5 10.5C8.5 11.3284 7.82843 12 7 12C6.17157 12 5.5 11.3284 5.5 10.5C5.5 9.67157 6.17157 9 7 9C7.82843 9 8.5 9.67157 8.5 10.5ZM13.5 10.5C13.5 11.3284 12.8284 12 12 12C11.1716 12 10.5 11.3284 10.5 10.5C10.5 9.67157 11.1716 9 12 9C12.8284 9 13.5 9.67157 13.5 10.5ZM17 12C17.8284 12 18.5 11.3284 18.5 10.5C18.5 9.67157 17.8284 9 17 9C16.1716 9 15.5 9.67157 15.5 10.5C15.5 11.3284 16.1716 12 17 12Z" fill="#9C9C9C"/>
</svg>
