<svg width="24" height="24" viewBox="0 0 24 24" fill="none" xmlns="http://www.w3.org/2000/svg">
<path fill-rule="evenodd" clip-rule="evenodd" d="M8.2963 22C4.81895 22 2 19.0755 2 15.468C2 11.8605 4.81895 8.93597 8.2963 8.93597H14.1106C14.3768 8.93597 14.5926 9.15983 14.5926 9.43597V9.7808C14.5926 10.0569 14.8084 10.2808 15.0745 10.2808H15.967C16.0949 10.2808 16.2174 10.2281 16.3078 10.1343L17.3218 9.08242C17.4122 8.98865 17.5348 8.93597 17.6626 8.93597H21.518C21.7842 8.93597 22 9.15983 22 9.43597V13.0187C22 13.2219 21.8815 13.4049 21.7001 13.4816L14.7609 16.4187C14.6054 16.4845 14.4956 16.6299 14.4615 16.8004C13.8685 19.769 11.3335 22 8.2963 22ZM8.2963 18.8301C10.035 18.8301 11.4444 17.3678 11.4444 15.564C11.4444 13.7603 10.035 12.298 8.2963 12.298C6.55762 12.298 5.14815 13.7603 5.14815 15.564C5.14815 17.3678 6.55762 18.8301 8.2963 18.8301Z" fill="#9C9C9C"/>
<path fill-rule="evenodd" clip-rule="evenodd" d="M15.4948 2C15.761 2 15.9767 2.22386 15.9767 2.5V6.5C15.9767 6.77614 15.761 7 15.4948 7C15.2286 7 15.0128 6.77614 15.0128 6.5V2.5C15.0128 2.22386 15.2286 2 15.4948 2ZM10.3406 3.29396C10.5322 3.10226 10.8373 3.10798 11.0221 3.30674L13.6681 6.15289C13.8529 6.35165 13.8474 6.66818 13.6558 6.85988C13.4642 7.05158 13.1591 7.04586 12.9744 6.8471L10.3283 4.00095C10.1435 3.80219 10.149 3.48566 10.3406 3.29396ZM20.6489 3.29396C20.8405 3.48566 20.846 3.80219 20.6612 4.00095L18.0152 6.8471C17.8304 7.04586 17.5253 7.05158 17.3337 6.85988C17.1421 6.66818 17.1366 6.35165 17.3214 6.15289L19.9674 3.30674C20.1522 3.10798 20.4573 3.10226 20.6489 3.29396Z" fill="#9C9C9C"/>
</svg>
