<svg width="100" height="100" viewBox="0 0 100 100" fill="none" xmlns="http://www.w3.org/2000/svg">
<circle cx="50" cy="50" r="50" fill="#EDAE5D"/>
<path d="M50.0002 63.2727C42.2809 63.2727 36 56.614 36 48.4291C36 47.5541 36.6691 46.8452 37.4939 46.8452C38.3192 46.8452 38.9879 47.5546 38.9879 48.4291C38.9883 54.8671 43.9281 60.1049 50.0002 60.1049C56.0719 60.1049 61.0121 54.8671 61.0121 48.4296C61.0121 47.5546 61.6808 46.8457 62.5061 46.8457C63.3314 46.8457 64 47.5551 64 48.4296C64.0005 56.614 57.7196 63.2727 50.0002 63.2727Z" fill="white"/>
<path d="M50.0002 58.0437C45.0421 58.0437 40.9855 53.7427 40.9855 48.486V36.5577C40.9855 31.301 45.0421 27 50.0002 27C54.9583 27 59.0149 31.301 59.0149 36.5577V48.4855C59.0149 53.7422 54.9583 58.0437 50.0002 58.0437Z" fill="white"/>
<path d="M50.0002 72.5971C49.1749 72.5971 48.5063 71.8882 48.5063 71.0132V62.0898C48.5063 61.2148 49.1754 60.5059 50.0002 60.5059C50.8255 60.5059 51.4941 61.2148 51.4941 62.0898V71.0132C51.4941 71.8882 50.8255 72.5971 50.0002 72.5971Z" fill="white"/>
<path d="M55.0383 72.9999H44.9621C44.1368 72.9999 43.4682 72.291 43.4682 71.416C43.4682 70.5409 44.1373 69.832 44.9621 69.832H55.0378C55.8631 69.832 56.5318 70.5409 56.5318 71.416C56.5318 72.291 55.8636 72.9999 55.0383 72.9999Z" fill="white"/>
</svg>
