<svg width="44" height="53" viewBox="0 0 44 53" fill="none" xmlns="http://www.w3.org/2000/svg">
<path fill-rule="evenodd" clip-rule="evenodd" d="M1.24322 17.9134C1.24322 17.9134 -1.15426 2.47752 2.60374 0.716012C6.44056 -1.08271 12.5712 7.59043 12.5712 7.59043L1.24322 17.9134Z" fill="#EDAE5D"/>
<path d="M1.24321 18.3889C1.18951 18.389 1.13621 18.3799 1.08562 18.362C1.00413 18.3334 0.931958 18.2833 0.876803 18.2171C0.821647 18.1508 0.785578 18.0708 0.772447 17.9857C0.521498 16.3689 -1.56698 2.14459 2.4005 0.285916C6.54841 -1.6596 12.7018 6.94738 12.9611 7.31539C13.0264 7.40954 13.0557 7.52396 13.0435 7.63781C13.0313 7.75166 12.9785 7.85735 12.8947 7.93564L1.56676 18.2586C1.47895 18.3407 1.36357 18.3872 1.24321 18.3889ZM3.73196 0.947516C3.40998 0.946418 3.09183 1.01706 2.80076 1.15427C0.164758 2.39476 0.934195 12.2629 1.58127 16.9603L11.9345 7.53455C10.2919 5.29959 6.47166 0.947516 3.73819 0.947516H3.73196Z" fill="#1B1529"/>
<path fill-rule="evenodd" clip-rule="evenodd" d="M42.7555 17.9134C42.7555 17.9134 45.1551 2.47752 41.3971 0.716012C37.5603 -1.08271 31.4296 7.59043 31.4296 7.59043L42.7555 17.9134Z" fill="#EDAE5D"/>
<path d="M42.7555 18.389C42.6367 18.3886 42.5222 18.3444 42.4341 18.2649L31.1061 7.94811C31.0224 7.86986 30.9694 7.76434 30.9569 7.6506C30.9443 7.53686 30.973 7.4224 31.0377 7.32787C31.299 6.95985 37.4483 -1.64919 41.6003 0.298386C45.5657 2.15913 43.4793 16.3814 43.2284 17.9982C43.2152 18.0833 43.1792 18.1633 43.124 18.2295C43.0689 18.2958 42.9967 18.3459 42.9152 18.3745C42.8632 18.3884 42.8092 18.3933 42.7555 18.389ZM32.0643 7.53462L42.4133 16.9645C43.0562 12.2671 43.8298 2.39275 41.1938 1.15846C38.4769 -0.115118 33.9039 5.03295 32.0643 7.53462Z" fill="#1B1529"/>
<path fill-rule="evenodd" clip-rule="evenodd" d="M0.961152 51.7335H43.33C43.33 51.7335 43.5374 27.1303 43.33 21.9616C43.0811 15.6805 39.3895 7.28236 31.0107 6.34372C20.0685 5.12596 13.884 5.9695 10.1986 7.09629C6.51314 8.22307 1.00472 11.7688 0.693629 21.362C0.338983 32.2267 0.961152 51.7335 0.961152 51.7335Z" fill="white"/>
<path d="M0.961165 52.2111C0.837286 52.2106 0.718403 52.1624 0.629464 52.0764C0.540525 51.9904 0.48846 51.8735 0.484171 51.75C0.484171 51.5536 -0.138028 32.1089 0.21247 21.3434C0.556747 10.6813 7.21001 7.51188 10.0555 6.64146C15.0039 5.13012 22.072 4.87169 31.0605 5.87236C34.9823 6.31067 38.2882 8.38849 40.6173 11.8867C42.5004 14.713 43.6618 18.3807 43.8029 21.9451C44.0103 27.0662 43.8029 51.4916 43.8029 51.7377C43.8018 51.8636 43.7508 51.984 43.6611 52.0727C43.5714 52.1614 43.4501 52.2111 43.3238 52.2111C43.2608 52.2108 43.1985 52.1981 43.1404 52.1737C43.0824 52.1493 43.0298 52.1137 42.9856 52.0689C42.9415 52.0241 42.9066 51.9711 42.8832 51.9128C42.8597 51.8545 42.848 51.7922 42.8489 51.7294C42.8489 51.4833 43.0563 27.0828 42.8489 21.9823C42.5834 15.2877 38.7466 7.68761 30.9547 6.81926C22.0968 5.83307 15.1595 6.07911 10.3334 7.55323C7.68702 8.36163 1.4921 11.3264 1.16856 21.3744C0.82221 32.1027 1.43196 51.5247 1.43818 51.719C1.44211 51.845 1.39592 51.9674 1.30968 52.0596C1.22343 52.1518 1.10412 52.2062 0.977773 52.2111H0.961165Z" fill="#1B1529"/>
<path d="M10.4389 16.2227C10.3932 16.2222 10.3478 16.2163 10.3036 16.205C10.1702 16.1697 10.0566 16.084 9.98769 15.9666C9.91876 15.8492 9.90018 15.7097 9.93602 15.5789C10.1106 14.8954 10.5125 14.2884 11.0781 13.8541C11.6438 13.4198 12.3409 13.1829 13.0592 13.1809C14.4618 13.1809 15.6142 14.0768 15.9908 15.4661C16.0178 15.5935 15.9942 15.7263 15.9248 15.8373C15.8555 15.9483 15.7455 16.0291 15.6174 16.0633C15.4894 16.0974 15.3529 16.0824 15.2357 16.0211C15.1186 15.9599 15.0297 15.8571 14.9873 15.7338C14.7212 14.7715 13.9973 14.1985 13.0502 14.1985C12.5603 14.2024 12.0857 14.3663 11.7014 14.6643C11.3171 14.9624 11.045 15.3776 10.9282 15.8444C10.8991 15.9507 10.8357 16.045 10.7475 16.1132C10.6594 16.1814 10.5511 16.2198 10.4389 16.2227Z" fill="#1B1529"/>
<path d="M27.6867 16.2227C27.6411 16.2221 27.5957 16.2161 27.5515 16.205C27.4188 16.1692 27.3058 16.0833 27.2374 15.966C27.169 15.8486 27.1508 15.7094 27.1867 15.5789C27.361 14.8954 27.7624 14.2884 28.3274 13.8541C28.8923 13.4198 29.5886 13.1829 30.306 13.1809C31.7047 13.1809 32.8578 14.0658 33.234 15.4661C33.2701 15.5963 33.2521 15.7354 33.1839 15.8526C33.1157 15.9698 33.0028 16.0555 32.8702 16.091C32.7376 16.1265 32.5961 16.1088 32.4768 16.0418C32.3575 15.9748 32.2701 15.864 32.234 15.7338C31.9682 14.7737 31.2452 14.1985 30.2993 14.1985C29.8101 14.203 29.3363 14.3674 28.9529 14.6659C28.5695 14.9644 28.2983 15.3798 28.1822 15.8466C28.152 15.9534 28.0875 16.0478 27.9981 16.1156C27.9088 16.1834 27.7995 16.221 27.6867 16.2227Z" fill="#1B1529"/>
<path fill-rule="evenodd" clip-rule="evenodd" d="M4.47445 28.2695C4.37283 26.2702 6.53803 25.1165 8.22208 25.6768C9.90613 26.2371 10.4537 27.4611 9.94762 29.1916C9.28396 31.4431 4.65696 31.9041 4.47445 28.2695Z" fill="#FE7D7B"/>
<path fill-rule="evenodd" clip-rule="evenodd" d="M33.8748 28.2695C33.7732 26.2702 35.9384 25.1165 37.6225 25.6768C39.3065 26.2371 39.8561 27.4611 39.348 29.1916C38.6844 31.4431 34.0594 31.9041 33.8748 28.2695Z" fill="#FE7D7B"/>
<path d="M22.1881 29.7829C22.0614 29.7829 21.9398 29.7328 21.8501 29.6437C21.7603 29.5546 21.7096 29.4337 21.709 29.3074V27.4611C21.717 27.3401 21.7708 27.2267 21.8596 27.1438C21.9484 27.061 22.0655 27.0149 22.1871 27.0149C22.3087 27.0149 22.4257 27.061 22.5145 27.1438C22.6033 27.2267 22.6571 27.3401 22.6651 27.4611V29.3074C22.6651 29.4335 22.6149 29.5544 22.5254 29.6436C22.4359 29.7328 22.3146 29.7829 22.1881 29.7829Z" fill="#1B1529"/>
<path fill-rule="evenodd" clip-rule="evenodd" d="M19.2203 26.938C19.1083 25.7305 20.2573 25.0297 21.9807 25.0317C23.9302 25.0317 24.9465 25.6293 25.0128 26.5596C25.0937 27.6885 24.1148 28.4348 22.2877 28.4783C20.1017 28.5258 19.3219 28.0337 19.2203 26.938Z" fill="#1B1529"/>
<path d="M25.6163 34.0771C24.0401 34.0771 22.8995 32.2163 22.2731 30.8352C21.7899 32.2825 20.8213 34.2073 19.1622 33.9985C16.6734 33.6884 16.5843 29.6072 16.5822 29.4335C16.5811 29.371 16.5924 29.3088 16.6155 29.2507C16.6387 29.1926 16.6731 29.1396 16.7169 29.0948C16.7607 29.05 16.8129 29.0143 16.8706 28.9898C16.9283 28.9652 16.9903 28.9523 17.053 28.9517C17.1781 28.9517 17.2982 29.0007 17.3874 29.0881C17.4766 29.1755 17.5278 29.2943 17.53 29.419C17.53 29.4541 17.6295 32.849 19.2742 33.0537C20.6285 33.217 21.5161 30.2646 21.7215 29.2164C21.7424 29.113 21.7971 29.0194 21.877 28.9503C21.9569 28.8812 22.0575 28.8403 22.1632 28.8342C22.2688 28.828 22.3735 28.8569 22.4609 28.9164C22.5483 28.9758 22.6136 29.0624 22.6464 29.1626C22.9762 30.1964 24.2247 33.1632 25.6433 33.124C26.9271 33.0909 27.5099 30.4197 27.6011 29.4852C27.6077 29.423 27.6264 29.3627 27.6563 29.3077C27.6862 29.2528 27.7267 29.2043 27.7754 29.1649C27.8242 29.1255 27.8802 29.0962 27.9403 29.0784C28.0004 29.0606 28.0634 29.0548 28.1258 29.0613C28.1882 29.0678 28.2487 29.0865 28.3038 29.1163C28.3589 29.1462 28.4076 29.1865 28.4471 29.2351C28.4866 29.2837 28.516 29.3395 28.5339 29.3994C28.5517 29.4594 28.5575 29.5222 28.551 29.5844C28.5033 30.0393 28.0138 34.0171 25.6682 34.0771H25.6163Z" fill="#1B1529"/>
<path d="M16.1612 27.151H16.1135L11.9116 26.7209C11.8509 26.7147 11.792 26.6966 11.7383 26.6676C11.6846 26.6387 11.6371 26.5995 11.5986 26.5523C11.5601 26.505 11.5312 26.4507 11.5138 26.3924C11.4963 26.3341 11.4906 26.2729 11.4969 26.2123C11.5031 26.1518 11.5213 26.0931 11.5503 26.0395C11.5794 25.986 11.6187 25.9386 11.6661 25.9002C11.7134 25.8618 11.7679 25.8331 11.8264 25.8157C11.8849 25.7983 11.9463 25.7926 12.007 25.7988L16.2089 26.2309C16.3247 26.2461 16.4306 26.3043 16.5053 26.3938C16.5801 26.4833 16.6182 26.5976 16.6122 26.7139C16.6062 26.8303 16.5565 26.9401 16.4729 27.0214C16.3893 27.1028 16.278 27.1498 16.1612 27.153V27.151Z" fill="#EDAE5D"/>
<path d="M11.9677 29.3672C11.8479 29.3683 11.7323 29.3232 11.6451 29.2413C11.5579 29.1594 11.5058 29.0472 11.4996 28.9279C11.4935 28.8087 11.5338 28.6917 11.6121 28.6013C11.6904 28.511 11.8007 28.4543 11.92 28.4431L16.1218 28.013C16.2406 28.0071 16.3571 28.0468 16.4474 28.124C16.5377 28.2012 16.5949 28.31 16.6071 28.428C16.6193 28.5459 16.5857 28.664 16.5132 28.758C16.4406 28.852 16.3347 28.9146 16.2172 28.9331L12.0154 29.3652L11.9677 29.3672Z" fill="#EDAE5D"/>
<path d="M27.962 27.151C27.8453 27.1473 27.7343 27.1 27.651 27.0185C27.5678 26.9369 27.5183 26.8271 27.5126 26.7109C27.5068 26.5947 27.5452 26.4805 27.62 26.3912C27.6948 26.3019 27.8006 26.2439 27.9164 26.2289L32.1182 25.7968C32.2408 25.7841 32.3635 25.8206 32.4592 25.8982C32.5549 25.9757 32.6157 26.088 32.6284 26.2103C32.6411 26.3325 32.6044 26.4548 32.5267 26.5502C32.4489 26.6456 32.3363 26.7062 32.2136 26.7189L28.0118 27.1489L27.962 27.151Z" fill="#EDAE5D"/>
<path d="M32.1659 29.3673H32.1182L27.9164 28.9352C27.8534 28.932 27.7917 28.9161 27.735 28.8884C27.6784 28.8608 27.628 28.8218 27.5869 28.7741C27.5459 28.7264 27.515 28.6708 27.4962 28.6108C27.4774 28.5508 27.471 28.4876 27.4775 28.425C27.484 28.3625 27.5032 28.3019 27.5339 28.247C27.5646 28.1921 27.6063 28.144 27.6563 28.1056C27.7063 28.0673 27.7636 28.0395 27.8247 28.0239C27.8858 28.0084 27.9495 28.0054 28.0118 28.0151L32.2136 28.4452C32.3328 28.4564 32.4431 28.5131 32.5215 28.6035C32.5998 28.6938 32.64 28.8108 32.6339 28.9301C32.6277 29.0493 32.5756 29.1616 32.4884 29.2434C32.4012 29.3253 32.2857 29.3704 32.1659 29.3694V29.3673Z" fill="#EDAE5D"/>
</svg>
