<svg width="20" height="20" viewBox="0 0 20 20" fill="none" xmlns="http://www.w3.org/2000/svg">
<path d="M6.54163 0.617056C8.60012 -0.141664 10.851 -0.202394 12.9474 0.444223C14.3974 0.891471 15.7179 1.65995 16.8157 2.68246L17.8661 1.63205C18.6536 0.844594 20 1.4023 20 2.51594V7.50002H15.0159C13.9022 7.50002 13.3446 6.1536 14.132 5.36613L15.0465 4.45171C14.2362 3.7148 13.2695 3.15977 12.2106 2.83316C10.6382 2.3482 8.95009 2.39375 7.40622 2.96279C5.86236 3.53184 4.54846 4.59278 3.66701 5.98216C2.78555 7.37153 2.38545 9.01222 2.52835 10.6514C2.67126 12.2906 3.34925 13.8372 4.45783 15.0531C5.56643 16.269 7.0441 17.0866 8.66314 17.3799C10.2822 17.6731 11.9528 17.4259 13.4174 16.6761C14.8821 15.9265 16.0595 14.7159 16.7684 13.231C17.0657 12.608 17.8119 12.344 18.435 12.6414C19.058 12.9387 19.3219 13.685 19.0245 14.308C18.0794 16.2877 16.5095 17.9019 14.5566 18.9016C12.6036 19.9012 10.3763 20.2309 8.21752 19.8399C6.0588 19.4487 4.08857 18.3587 2.61045 16.7375C1.13233 15.1164 0.228344 13.0541 0.0377992 10.8685C-0.152744 8.68296 0.380726 6.49537 1.556 4.64287C2.73129 2.79037 4.48315 1.37577 6.54163 0.617056Z" fill="#738FF5"/>
</svg>
