<svg width="43" height="52" viewBox="0 0 43 52" fill="none" xmlns="http://www.w3.org/2000/svg">
<path fill-rule="evenodd" clip-rule="evenodd" d="M1.20711 17.5851C1.20711 17.5851 -1.13632 2.43726 2.53696 0.708622C6.28729 -1.05653 12.2797 7.45476 12.2797 7.45476L1.20711 17.5851Z" fill="#EDAE5D"/>
<path d="M1.2071 18.0558C1.15459 18.0561 1.10244 18.0472 1.05303 18.0295C0.973522 17.9994 0.903743 17.9482 0.851221 17.8813C0.7987 17.8144 0.76544 17.7345 0.755033 17.6501C0.509742 16.0634 -1.53165 2.10452 2.34638 0.280524C6.40078 -1.62868 12.4155 6.81971 12.6689 7.17883C12.7329 7.27131 12.7614 7.38384 12.7492 7.49569C12.7369 7.60754 12.6846 7.71117 12.602 7.78751L1.53144 17.9179C1.44504 18.0038 1.3289 18.0532 1.2071 18.0558ZM3.63974 0.941952C3.32502 0.940874 3.01404 1.01019 2.72953 1.14484C0.150925 2.36219 0.905043 12.0462 1.53753 16.6579L11.6512 7.40201C10.0518 5.20672 6.31768 0.93789 3.64582 0.93789L3.63974 0.941952Z" fill="#1B1529"/>
<path fill-rule="evenodd" clip-rule="evenodd" d="M41.7836 17.5851C41.7836 17.5851 44.1371 2.4332 40.4557 0.708622C36.7034 -1.05653 30.711 7.45476 30.711 7.45476L41.7836 17.5851Z" fill="#EDAE5D"/>
<path d="M41.7836 18.0559C41.6673 18.0559 41.5553 18.0125 41.4693 17.9341L30.3968 7.80375C30.3142 7.72742 30.2619 7.62378 30.2496 7.51193C30.2373 7.40009 30.2658 7.28756 30.3299 7.19508C30.5833 6.83596 36.5959 -1.61447 40.6544 0.29677C44.5304 2.12279 42.4911 16.0797 42.2458 17.6663C42.2329 17.7498 42.1977 17.8283 42.1438 17.8933C42.0899 17.9584 42.0193 18.0075 41.9397 18.0356C41.8892 18.0513 41.8364 18.0581 41.7836 18.0559ZM31.3333 7.39392L41.4491 16.6478C42.0775 12.0381 42.8336 2.348 40.2571 1.13674C37.5994 -0.117126 33.1315 4.94502 31.3333 7.38986V7.39392Z" fill="#1B1529"/>
<path fill-rule="evenodd" clip-rule="evenodd" d="M0.931378 50.7762H42.339C42.339 50.7762 42.5417 26.6322 42.339 21.5599C42.0957 15.396 38.4873 7.15457 30.2974 6.23345C19.6019 5.03842 13.5568 5.86622 9.95445 6.97197C6.35212 8.07773 0.965851 11.5573 0.663798 20.9715C0.323228 31.6314 0.931378 50.7762 0.931378 50.7762Z" fill="white"/>
<path d="M0.931392 51.2427C0.810153 51.2428 0.693667 51.1956 0.606624 51.1111C0.51958 51.0266 0.468815 50.9116 0.465125 50.7903C0.465125 50.5996 -0.143022 31.5156 0.199575 20.9531C0.53609 10.49 7.03934 7.37761 9.81864 6.52547C14.6576 5.0403 21.5764 4.78669 30.3501 5.76869C34.1856 6.19882 37.4149 8.23991 39.6935 11.6708C41.5342 14.4464 42.6694 18.0436 42.8073 21.5415C43.01 26.5691 42.8073 50.5367 42.8073 50.7801C42.8062 50.9032 42.7566 51.0209 42.6693 51.1075C42.582 51.1941 42.464 51.2427 42.341 51.2427C42.2798 51.2422 42.2193 51.2296 42.1629 51.2057C42.1066 51.1817 42.0555 51.1469 42.0125 51.1032C41.9696 51.0595 41.9357 51.0077 41.9128 50.9509C41.8898 50.8941 41.8783 50.8333 41.8788 50.772C41.8788 50.5306 42.0816 26.5833 41.8788 21.578C41.6194 15.0084 37.869 7.55008 30.2508 6.69793C21.5926 5.73014 14.8116 5.97158 10.0964 7.4182C7.50763 8.2115 1.45441 11.123 1.13614 20.9815C0.797598 31.5095 1.39561 50.5691 1.40169 50.7598C1.40552 50.8838 1.3601 51.0043 1.27536 51.0948C1.19063 51.1853 1.07349 51.2385 0.949629 51.2427H0.931392Z" fill="#1B1529"/>
<path fill-rule="evenodd" clip-rule="evenodd" d="M17.1612 31.4649C17.1612 31.4649 15.959 41.5426 21.323 41.8915C26.687 42.2405 25.9248 31.2255 25.9248 31.2255C25.9248 31.2255 22.9407 31.7997 21.4953 29.1682C21.4953 29.1682 19.9425 31.5948 17.1612 31.4649Z" fill="#B02F10"/>
<mask id="mask0_15_2767" style="mask-type:luminance" maskUnits="userSpaceOnUse" x="17" y="29" width="9" height="13">
<path d="M17.1612 31.4649C17.1612 31.4649 15.959 41.5426 21.323 41.8915C26.687 42.2405 25.9248 31.2255 25.9248 31.2255C25.9248 31.2255 22.9407 31.7997 21.4953 29.1682C21.4953 29.1682 19.9425 31.5948 17.1612 31.4649Z" fill="white"/>
</mask>
<g mask="url(#mask0_15_2767)">
<path fill-rule="evenodd" clip-rule="evenodd" d="M17.0477 40.3962C17.0477 40.3962 17.5099 36.6022 20.6419 35.9894C23.5915 35.4112 25.4565 37.5578 25.9613 40.1954C25.9613 40.1954 24.2077 43.4639 21.323 43.6689C18.4383 43.8738 17.0477 40.3962 17.0477 40.3962Z" fill="#FE7D7B"/>
<path d="M21.0737 44.1456C18.0815 44.1456 16.6746 40.7208 16.6138 40.5707C16.5836 40.4976 16.5731 40.4178 16.5834 40.3394C16.6037 40.171 17.1267 36.2004 20.5527 35.5309C21.1503 35.3969 21.7688 35.3847 22.3713 35.4948C22.9738 35.6049 23.548 35.8353 24.0597 36.172C25.2517 36.9836 26.0869 38.3754 26.4214 40.1061C26.4402 40.2114 26.4231 40.32 26.3728 40.4144C26.2957 40.5585 24.4611 43.9143 21.3575 44.1355C21.2602 44.1436 21.1649 44.1456 21.0737 44.1456ZM17.5281 40.3333C17.7876 40.8933 19.0607 43.3584 21.2906 43.2042C23.555 43.0419 25.1058 40.7147 25.4686 40.1142C25.1666 38.7244 24.4692 37.578 23.5367 36.947C23.128 36.6771 22.6685 36.4936 22.1864 36.4077C21.7043 36.3219 21.2097 36.3356 20.7331 36.4479C18.2599 36.9247 17.6376 39.7186 17.5281 40.3333Z" fill="#1B1529"/>
<path fill-rule="evenodd" clip-rule="evenodd" d="M17.6862 30.6351C17.6862 30.6351 17.8443 33.4755 18.6593 33.4208C19.4742 33.366 19.3201 30.2577 19.3201 30.2577L17.6862 30.6351Z" fill="white"/>
<path d="M18.6349 33.8936C18.4256 33.8914 18.2247 33.811 18.0714 33.6684C17.4044 33.076 17.2504 31.2195 17.22 30.6656C17.2141 30.5556 17.247 30.447 17.313 30.3588C17.3789 30.2705 17.4737 30.2082 17.5808 30.1828L19.2167 29.8074C19.2832 29.7918 19.3523 29.7911 19.419 29.8053C19.4858 29.8195 19.5486 29.8482 19.603 29.8895C19.6574 29.9308 19.7021 29.9836 19.7338 30.0441C19.7655 30.1046 19.7834 30.1713 19.7864 30.2396C19.8675 31.8627 19.7418 33.8226 18.6897 33.8916L18.6349 33.8936ZM18.1829 31.0044C18.264 31.8302 18.4444 32.6114 18.6208 32.8873C18.7687 32.5789 18.8681 31.741 18.8681 30.8462L18.1829 31.0044Z" fill="#1B1529"/>
<path fill-rule="evenodd" clip-rule="evenodd" d="M25.4869 30.6351C25.4869 30.6351 25.3287 33.4755 24.5158 33.4208C23.7029 33.366 23.8529 30.2577 23.8529 30.2577L25.4869 30.6351Z" fill="white"/>
<path d="M24.5301 33.8936H24.4733C23.4191 33.8246 23.2935 31.8646 23.3745 30.2415C23.3774 30.173 23.3955 30.1061 23.4273 30.0454C23.4591 29.9847 23.5039 29.9318 23.5586 29.8905C23.6132 29.8492 23.6763 29.8205 23.7433 29.8065C23.8103 29.7924 23.8796 29.7934 23.9462 29.8093L25.5801 30.1847C25.6874 30.2098 25.7825 30.272 25.8485 30.3603C25.9145 30.4487 25.9472 30.5575 25.941 30.6676C25.9106 31.2215 25.7585 33.0779 25.0896 33.6704C24.937 33.8113 24.7377 33.8908 24.5301 33.8936ZM24.2969 30.8502C24.2969 31.7449 24.3983 32.5829 24.5463 32.8913C24.7206 32.6153 24.9031 31.8342 24.9821 31.0084L24.2969 30.8502Z" fill="#1B1529"/>
</g>
<path d="M21.5723 42.3663C21.4811 42.3663 21.3879 42.3663 21.2926 42.3663C20.7306 42.3377 20.1811 42.1904 19.6801 41.9341C19.179 41.6777 18.7379 41.3182 18.3856 40.8791C15.9529 37.9473 16.6665 31.684 16.699 31.4182C16.7136 31.3019 16.7717 31.1954 16.8616 31.1201C16.9515 31.0449 17.0664 31.0064 17.1835 31.0125C19.6546 31.1342 21.0878 28.9511 21.102 28.9288C21.1473 28.8638 21.2082 28.8112 21.279 28.7757C21.3498 28.7403 21.4283 28.7231 21.5075 28.7259C21.5883 28.7287 21.667 28.7525 21.7359 28.7948C21.8048 28.8371 21.8616 28.8965 21.9008 28.9673C23.1597 31.26 25.7261 30.8116 25.8335 30.7933C25.8982 30.7812 25.9647 30.7828 26.0287 30.7982C26.0926 30.8136 26.1527 30.8423 26.2047 30.8826C26.2568 30.9228 26.2998 30.9736 26.3309 31.0317C26.3619 31.0897 26.3804 31.1537 26.3849 31.2194C26.4072 31.5197 26.8634 38.5844 24.155 41.3133C23.8189 41.6555 23.4164 41.9255 22.9723 42.1065C22.5282 42.2876 22.0518 42.376 21.5723 42.3663ZM17.5808 31.9336C17.4673 33.3538 17.2524 38.0528 19.0992 40.2745C19.3697 40.6162 19.7104 40.8958 20.0983 41.0942C20.4862 41.2927 20.9121 41.4055 21.3473 41.4249C21.7408 41.4621 22.1376 41.4097 22.508 41.2716C22.8784 41.1335 23.2128 40.9133 23.486 40.6275C25.5274 38.5742 25.5254 33.3437 25.4747 31.7348C24.5645 31.7693 22.6954 31.6191 21.4548 29.9737C20.8243 30.6899 19.5127 31.8524 17.5808 31.9336Z" fill="#1B1529"/>
<path d="M16.9544 31.9377C14.4954 31.9377 13.421 30.2152 13.1939 29.2778C13.1794 29.2182 13.1768 29.1564 13.1861 29.0958C13.1955 29.0353 13.2167 28.9771 13.2485 28.9247C13.2803 28.8724 13.3221 28.8268 13.3716 28.7906C13.421 28.7544 13.477 28.7283 13.5365 28.7138C13.596 28.6992 13.6578 28.6966 13.7183 28.7059C13.7788 28.7153 13.8369 28.7365 13.8893 28.7684C13.9416 28.8002 13.9871 28.842 14.0233 28.8915C14.0595 28.941 14.0856 28.9971 14.1001 29.0566C14.1244 29.1479 14.6636 31.1099 17.1409 30.9983C19.6668 30.8928 21.098 28.9187 21.1122 28.8984C21.1597 28.8283 21.2254 28.7724 21.3021 28.7367C21.3789 28.701 21.4638 28.6867 21.548 28.6955C21.6308 28.7047 21.7095 28.7362 21.7759 28.7866C21.8423 28.8369 21.8938 28.9043 21.9251 28.9816C21.9636 29.0708 22.8921 31.2134 25.8639 30.7528C27.5668 30.4931 28.5865 28.8192 28.5966 28.803C28.6603 28.6954 28.7641 28.6175 28.8852 28.5865C29.0063 28.5555 29.1347 28.5739 29.2423 28.6377C29.3498 28.7014 29.4276 28.8053 29.4586 28.9265C29.4896 29.0477 29.4712 29.1762 29.4075 29.2839C29.3588 29.367 28.1466 31.3513 26.0139 31.676C23.4049 32.0817 22.0305 30.7751 21.4365 29.9534C20.3244 31.1346 18.799 31.8397 17.1794 31.9215L16.9544 31.9377Z" fill="#1B1529"/>
<path fill-rule="evenodd" clip-rule="evenodd" d="M18.6654 25.7657C18.5579 24.5808 19.679 23.893 21.3636 23.895C23.2691 23.895 24.2625 24.4814 24.3273 25.3944C24.4064 26.5022 23.4516 27.2346 21.6636 27.2772C19.5269 27.3279 18.7647 26.8451 18.6654 25.7657Z" fill="#1B1529"/>
<path d="M21.4953 29.6347C21.3717 29.6347 21.2531 29.5856 21.1656 29.498C21.0782 29.4105 21.0291 29.2918 21.0291 29.1681V26.3154C21.0291 26.1917 21.0782 26.073 21.1656 25.9854C21.2531 25.8979 21.3717 25.8488 21.4953 25.8488C21.619 25.8488 21.7376 25.8979 21.825 25.9854C21.9125 26.073 21.9616 26.1917 21.9616 26.3154V29.1681C21.9616 29.2918 21.9125 29.4105 21.825 29.498C21.7376 29.5856 21.619 29.6347 21.4953 29.6347Z" fill="#1B1529"/>
<path fill-rule="evenodd" clip-rule="evenodd" d="M17.1612 31.4649C17.1612 31.4649 15.959 41.5426 21.323 41.8915C26.687 42.2405 25.9248 31.2255 25.9248 31.2255C25.9248 31.2255 22.9407 31.7997 21.4953 29.1682C21.4953 29.1682 19.9425 31.5948 17.1612 31.4649Z" fill="#B02F10"/>
<mask id="mask1_15_2767" style="mask-type:luminance" maskUnits="userSpaceOnUse" x="17" y="29" width="9" height="13">
<path d="M17.1612 31.4649C17.1612 31.4649 15.959 41.5426 21.323 41.8915C26.687 42.2405 25.9248 31.2255 25.9248 31.2255C25.9248 31.2255 22.9407 31.7997 21.4953 29.1682C21.4953 29.1682 19.9425 31.5948 17.1612 31.4649Z" fill="white"/>
</mask>
<g mask="url(#mask1_15_2767)">
<path fill-rule="evenodd" clip-rule="evenodd" d="M17.0477 40.3962C17.0477 40.3962 17.5099 36.6022 20.6419 35.9894C23.5915 35.4112 25.4565 37.5578 25.9613 40.1954C25.9613 40.1954 24.2077 43.4639 21.323 43.6689C18.4383 43.8738 17.0477 40.3962 17.0477 40.3962Z" fill="#FE7D7B"/>
<path d="M21.0737 44.1456C18.0815 44.1456 16.6746 40.7208 16.6138 40.5707C16.5836 40.4976 16.5731 40.4178 16.5834 40.3394C16.6037 40.171 17.1267 36.2004 20.5527 35.5309C21.1503 35.3969 21.7688 35.3847 22.3713 35.4948C22.9738 35.6049 23.548 35.8353 24.0597 36.172C25.2517 36.9836 26.0869 38.3754 26.4214 40.1061C26.4402 40.2114 26.4231 40.32 26.3728 40.4144C26.2957 40.5585 24.4611 43.9143 21.3575 44.1355C21.2602 44.1436 21.1649 44.1456 21.0737 44.1456ZM17.5281 40.3333C17.7876 40.8933 19.0607 43.3584 21.2906 43.2042C23.555 43.0419 25.1058 40.7147 25.4686 40.1142C25.1666 38.7244 24.4692 37.578 23.5367 36.947C23.128 36.6771 22.6685 36.4936 22.1864 36.4077C21.7043 36.3219 21.2097 36.3356 20.7331 36.4479C18.2599 36.9247 17.6376 39.7186 17.5281 40.3333Z" fill="#1B1529"/>
<path fill-rule="evenodd" clip-rule="evenodd" d="M17.6862 30.6351C17.6862 30.6351 17.8443 33.4755 18.6593 33.4208C19.4742 33.366 19.3201 30.2577 19.3201 30.2577L17.6862 30.6351Z" fill="white"/>
<path d="M18.6349 33.8936C18.4256 33.8914 18.2247 33.811 18.0714 33.6684C17.4044 33.076 17.2504 31.2195 17.22 30.6656C17.2141 30.5556 17.247 30.447 17.313 30.3588C17.3789 30.2705 17.4737 30.2082 17.5808 30.1828L19.2167 29.8074C19.2832 29.7918 19.3523 29.7911 19.419 29.8053C19.4858 29.8195 19.5486 29.8482 19.603 29.8895C19.6574 29.9308 19.7021 29.9836 19.7338 30.0441C19.7655 30.1046 19.7834 30.1713 19.7864 30.2396C19.8675 31.8627 19.7418 33.8226 18.6897 33.8916L18.6349 33.8936ZM18.1829 31.0044C18.264 31.8302 18.4444 32.6114 18.6208 32.8873C18.7687 32.5789 18.8681 31.741 18.8681 30.8462L18.1829 31.0044Z" fill="#1B1529"/>
<path fill-rule="evenodd" clip-rule="evenodd" d="M25.4869 30.6351C25.4869 30.6351 25.3287 33.4755 24.5158 33.4208C23.7029 33.366 23.8529 30.2577 23.8529 30.2577L25.4869 30.6351Z" fill="white"/>
<path d="M24.5301 33.8936H24.4733C23.4191 33.8246 23.2935 31.8646 23.3745 30.2415C23.3774 30.173 23.3955 30.1061 23.4273 30.0454C23.4591 29.9847 23.5039 29.9318 23.5586 29.8905C23.6132 29.8492 23.6763 29.8205 23.7433 29.8065C23.8103 29.7924 23.8796 29.7934 23.9462 29.8093L25.5801 30.1847C25.6874 30.2098 25.7825 30.272 25.8485 30.3603C25.9145 30.4487 25.9472 30.5575 25.941 30.6676C25.9106 31.2215 25.7585 33.0779 25.0896 33.6704C24.937 33.8113 24.7377 33.8908 24.5301 33.8936ZM24.2969 30.8502C24.2969 31.7449 24.3983 32.5829 24.5463 32.8913C24.7206 32.6153 24.9031 31.8342 24.9821 31.0084L24.2969 30.8502Z" fill="#1B1529"/>
</g>
<path d="M21.5723 42.3663C21.4811 42.3663 21.3879 42.3663 21.2926 42.3663C20.7306 42.3377 20.1811 42.1904 19.6801 41.9341C19.179 41.6777 18.7379 41.3182 18.3856 40.8791C15.9529 37.9473 16.6665 31.684 16.699 31.4182C16.7136 31.3019 16.7717 31.1954 16.8616 31.1201C16.9515 31.0449 17.0664 31.0064 17.1835 31.0125C19.6546 31.1342 21.0878 28.9511 21.102 28.9288C21.1473 28.8638 21.2082 28.8112 21.279 28.7757C21.3498 28.7403 21.4283 28.7231 21.5075 28.7259C21.5883 28.7287 21.667 28.7525 21.7359 28.7948C21.8048 28.8371 21.8616 28.8965 21.9008 28.9673C23.1597 31.26 25.7261 30.8116 25.8335 30.7933C25.8982 30.7812 25.9647 30.7828 26.0287 30.7982C26.0926 30.8136 26.1527 30.8423 26.2047 30.8826C26.2568 30.9228 26.2998 30.9736 26.3309 31.0317C26.3619 31.0897 26.3804 31.1537 26.3849 31.2194C26.4072 31.5197 26.8634 38.5844 24.155 41.3133C23.8189 41.6555 23.4164 41.9255 22.9723 42.1065C22.5282 42.2876 22.0518 42.376 21.5723 42.3663ZM17.5808 31.9336C17.4673 33.3538 17.2524 38.0528 19.0992 40.2745C19.3697 40.6162 19.7104 40.8958 20.0983 41.0942C20.4862 41.2927 20.9121 41.4055 21.3473 41.4249C21.7408 41.4621 22.1376 41.4097 22.508 41.2716C22.8784 41.1335 23.2128 40.9133 23.486 40.6275C25.5274 38.5742 25.5254 33.3437 25.4747 31.7348C24.5645 31.7693 22.6954 31.6191 21.4548 29.9737C20.8243 30.6899 19.5127 31.8524 17.5808 31.9336Z" fill="#1B1529"/>
<path d="M16.9544 31.9377C14.4954 31.9377 13.421 30.2152 13.1939 29.2778C13.1794 29.2182 13.1768 29.1564 13.1861 29.0958C13.1955 29.0353 13.2167 28.9771 13.2485 28.9247C13.2803 28.8724 13.3221 28.8268 13.3716 28.7906C13.421 28.7544 13.477 28.7283 13.5365 28.7138C13.596 28.6992 13.6578 28.6966 13.7183 28.7059C13.7788 28.7153 13.8369 28.7365 13.8893 28.7684C13.9416 28.8002 13.9871 28.842 14.0233 28.8915C14.0595 28.941 14.0856 28.9971 14.1001 29.0566C14.1244 29.1479 14.6636 31.1099 17.1409 30.9983C19.6668 30.8928 21.098 28.9187 21.1122 28.8984C21.1597 28.8283 21.2254 28.7724 21.3021 28.7367C21.3789 28.701 21.4638 28.6867 21.548 28.6955C21.6308 28.7047 21.7095 28.7362 21.7759 28.7866C21.8423 28.8369 21.8938 28.9043 21.9251 28.9816C21.9636 29.0708 22.8921 31.2134 25.8639 30.7528C27.5668 30.4931 28.5865 28.8192 28.5966 28.803C28.6603 28.6954 28.7641 28.6175 28.8852 28.5865C29.0063 28.5555 29.1347 28.5739 29.2423 28.6377C29.3498 28.7014 29.4276 28.8053 29.4586 28.9265C29.4896 29.0477 29.4712 29.1762 29.4075 29.2839C29.3588 29.367 28.1466 31.3513 26.0139 31.676C23.4049 32.0817 22.0305 30.7751 21.4365 29.9534C20.3244 31.1346 18.799 31.8397 17.1794 31.9215L16.9544 31.9377Z" fill="#1B1529"/>
<path fill-rule="evenodd" clip-rule="evenodd" d="M18.6654 25.7657C18.5579 24.5808 19.679 23.893 21.3636 23.895C23.2691 23.895 24.2625 24.4814 24.3273 25.3944C24.4064 26.5022 23.4516 27.2346 21.6636 27.2772C19.5269 27.3279 18.7647 26.8451 18.6654 25.7657Z" fill="#1B1529"/>
<path d="M21.4953 29.6347C21.3717 29.6347 21.2531 29.5856 21.1656 29.498C21.0782 29.4105 21.0291 29.2918 21.0291 29.1681V26.3154C21.0291 26.1917 21.0782 26.073 21.1656 25.9854C21.2531 25.8979 21.3717 25.8488 21.4953 25.8488C21.619 25.8488 21.7376 25.8979 21.825 25.9854C21.9125 26.073 21.9616 26.1917 21.9616 26.3154V29.1681C21.9616 29.2918 21.9125 29.4105 21.825 29.498C21.7376 29.5856 21.619 29.6347 21.4953 29.6347Z" fill="#1B1529"/>
<path d="M12.2554 23.6859C12.1543 23.6851 12.0562 23.6516 11.9757 23.5904C11.8952 23.5292 11.8367 23.4436 11.8089 23.3463C11.7811 23.249 11.7854 23.1454 11.8213 23.0508C11.8572 22.9562 11.9227 22.8758 12.008 22.8216L16.2084 20.184L11.4567 17.8143C11.3574 17.7539 11.2842 17.6587 11.2514 17.5473C11.2186 17.4358 11.2285 17.3161 11.2792 17.2116C11.3299 17.1071 11.4177 17.0252 11.5255 16.9821C11.6333 16.9389 11.7534 16.9376 11.8621 16.9783L17.3781 19.7235C17.4525 19.7599 17.5158 19.8157 17.5614 19.8849C17.6071 19.9541 17.6334 20.0343 17.6376 20.1171C17.6414 20.2002 17.6232 20.2829 17.5848 20.3566C17.5463 20.4304 17.489 20.4927 17.4186 20.5371L12.5128 23.6149C12.4359 23.6635 12.3463 23.6882 12.2554 23.6859Z" fill="#1B1529"/>
<path d="M31.234 23.686C31.1457 23.6857 31.0592 23.6604 30.9847 23.613L26.3991 20.7035C26.3316 20.6619 26.2759 20.6037 26.2372 20.5345C26.1986 20.4652 26.1783 20.3872 26.1783 20.3079C26.1783 20.2285 26.1986 20.1505 26.2372 20.0813C26.2759 20.012 26.3316 19.9538 26.3991 19.9122L31.0982 17.0028C31.1504 16.9705 31.2084 16.9489 31.2689 16.9391C31.3295 16.9293 31.3913 16.9315 31.451 16.9457C31.5107 16.9598 31.567 16.9855 31.6167 17.0215C31.6664 17.0574 31.7086 17.1027 31.7408 17.1549C31.773 17.2072 31.7946 17.2652 31.8044 17.3258C31.8142 17.3864 31.812 17.4483 31.7979 17.5081C31.7838 17.5678 31.758 17.6241 31.7221 17.6739C31.6863 17.7237 31.6409 17.7659 31.5888 17.7981L27.5242 20.314L31.4773 22.8237C31.5633 22.8776 31.6293 22.958 31.6656 23.0528C31.7018 23.1476 31.7061 23.2516 31.6779 23.3491C31.6497 23.4466 31.5905 23.5322 31.5093 23.593C31.4281 23.6538 31.3293 23.6865 31.2279 23.686H31.234Z" fill="#1B1529"/>
<path d="M11.0228 15.7003C10.9818 15.6999 10.9409 15.6944 10.9012 15.684C10.7813 15.6517 10.6792 15.5731 10.6172 15.4654C10.5552 15.3577 10.5385 15.2299 10.5708 15.1099C10.7277 14.4829 11.089 13.9263 11.5975 13.528C12.106 13.1296 12.7327 12.9124 13.3784 12.9105C14.6393 12.9105 15.6752 13.7322 16.0138 15.0064C16.0381 15.1233 16.0169 15.2451 15.9545 15.3469C15.8921 15.4486 15.7933 15.5228 15.6782 15.5541C15.5631 15.5854 15.4403 15.5716 15.335 15.5154C15.2298 15.4593 15.1499 15.365 15.1117 15.2519C14.8725 14.3693 14.2217 13.8438 13.3703 13.8438C12.9299 13.8473 12.5032 13.9977 12.1578 14.2711C11.8123 14.5444 11.5677 14.9253 11.4627 15.3533C11.4365 15.4509 11.3796 15.5374 11.3003 15.5999C11.221 15.6624 11.1237 15.6976 11.0228 15.7003Z" fill="#1B1529"/>
<path d="M27.4594 15.5847C27.4183 15.5841 27.3775 15.5787 27.3377 15.5684C27.2182 15.5357 27.1166 15.4569 27.055 15.3493C26.9934 15.2416 26.977 15.114 27.0093 14.9943C27.1662 14.3673 27.5275 13.8107 28.036 13.4124C28.5445 13.014 29.1713 12.7968 29.817 12.7949C31.0759 12.7949 32.1138 13.6065 32.4524 14.8908C32.4849 15.0103 32.4687 15.1377 32.4073 15.2452C32.3459 15.3527 32.2443 15.4314 32.125 15.464C32.0056 15.4965 31.8782 15.4803 31.7708 15.4188C31.6634 15.3574 31.5848 15.2557 31.5523 15.1363C31.3131 14.2557 30.6623 13.7282 29.8109 13.7282C29.3706 13.7323 28.9442 13.8831 28.5991 14.1569C28.254 14.4306 28.0099 14.8117 27.9054 15.2398C27.8782 15.3378 27.8201 15.4243 27.7397 15.4865C27.6593 15.5487 27.5609 15.5831 27.4594 15.5847Z" fill="#1B1529"/>
<path fill-rule="evenodd" clip-rule="evenodd" d="M4.36343 27.748C4.2641 25.786 6.39062 24.6559 8.0286 25.2037C9.66658 25.7515 10.2099 26.9547 9.7132 28.6529C9.06652 30.8624 4.54385 31.3148 4.36343 27.748Z" fill="#FE7D7B"/>
<path fill-rule="evenodd" clip-rule="evenodd" d="M33.1031 27.748C33.0037 25.786 35.1303 24.6559 36.7662 25.2037C38.4022 25.7515 38.9475 26.9547 38.4529 28.6529C37.8041 30.8624 33.2815 31.3148 33.1031 27.748Z" fill="#FE7D7B"/>
<path d="M15.7968 26.3175H15.7563L11.6492 25.8955C11.5293 25.8834 11.4191 25.8241 11.3429 25.7307C11.2667 25.6373 11.2306 25.5174 11.2427 25.3974C11.2548 25.2774 11.3141 25.1671 11.4074 25.0908C11.5007 25.0145 11.6205 24.9785 11.7404 24.9906L15.8475 25.4146C15.9607 25.4294 16.0641 25.4863 16.1372 25.574C16.2104 25.6616 16.2478 25.7736 16.2422 25.8877C16.2366 26.0017 16.1883 26.1095 16.1069 26.1895C16.0255 26.2695 15.917 26.3159 15.8029 26.3195L15.7968 26.3175Z" fill="#EDAE5D"/>
<path d="M11.6878 28.4925C11.5709 28.493 11.4583 28.4483 11.3735 28.3679C11.2887 28.2874 11.2382 28.1773 11.2324 28.0604C11.2267 27.9436 11.2662 27.829 11.3427 27.7406C11.4192 27.6522 11.5268 27.5966 11.6431 27.5856L15.7502 27.1636C15.8113 27.1539 15.8737 27.1567 15.9336 27.172C15.9935 27.1872 16.0497 27.2146 16.0986 27.2523C16.1476 27.29 16.1884 27.3374 16.2185 27.3915C16.2485 27.4455 16.2672 27.5051 16.2735 27.5667C16.2797 27.6282 16.2733 27.6904 16.2546 27.7494C16.236 27.8084 16.2055 27.863 16.1651 27.9098C16.1246 27.9566 16.0751 27.9946 16.0194 28.0215C15.9638 28.0485 15.9032 28.0638 15.8415 28.0665L11.7344 28.4905L11.6878 28.4925Z" fill="#EDAE5D"/>
<path d="M27.3236 26.3176C27.2094 26.3144 27.1006 26.2683 27.0189 26.1884C26.9372 26.1086 26.8885 26.0008 26.8827 25.8867C26.8768 25.7725 26.9141 25.6603 26.9872 25.5725C27.0602 25.4846 27.1637 25.4276 27.2769 25.4127L31.3861 24.9886C31.506 24.9765 31.6258 25.0126 31.7191 25.0889C31.8124 25.1652 31.8717 25.2754 31.8838 25.3954C31.8958 25.5154 31.8598 25.6353 31.7836 25.7287C31.7074 25.8221 31.5972 25.8814 31.4773 25.8935L27.3702 26.3155L27.3236 26.3176Z" fill="#EDAE5D"/>
<path d="M31.4327 28.4926H31.3861L27.2769 28.0686C27.1621 28.0505 27.0585 27.989 26.9876 27.8968C26.9167 27.8046 26.8838 27.6887 26.8958 27.5729C26.9077 27.4571 26.9636 27.3504 27.0519 27.2747C27.1401 27.1989 27.2541 27.1599 27.3702 27.1657L31.4773 27.5877C31.5936 27.5988 31.7013 27.6543 31.7778 27.7427C31.8543 27.8311 31.8937 27.9457 31.888 28.0625C31.8823 28.1794 31.8317 28.2895 31.7469 28.37C31.6621 28.4505 31.5495 28.4951 31.4327 28.4947V28.4926Z" fill="#EDAE5D"/>
</svg>
