<svg width="50" height="48" viewBox="0 0 50 48" fill="none" xmlns="http://www.w3.org/2000/svg">
<path fill-rule="evenodd" clip-rule="evenodd" d="M5.3136 16.4577C5.3136 16.4577 3.10697 2.27652 6.5658 0.658209C10.0972 -0.994295 15.7397 6.97382 15.7397 6.97382L5.3136 16.4577Z" fill="#EDAE5D"/>
<path d="M5.3136 16.8945C5.26417 16.8947 5.2151 16.8863 5.16853 16.8699C5.09353 16.8436 5.0271 16.7976 4.97634 16.7367C4.92557 16.6758 4.89238 16.6024 4.88029 16.5242C4.64932 15.0388 2.72711 1.97073 6.37873 0.263141C10.1964 -1.52612 15.86 6.3831 16.0986 6.7212C16.1587 6.8077 16.1856 6.91281 16.1744 7.01741C16.1632 7.122 16.1146 7.2191 16.0375 7.29103L5.61138 16.7749C5.53056 16.8503 5.42437 16.893 5.3136 16.8945ZM7.60422 0.870955C7.30787 0.869946 7.01505 0.934841 6.74714 1.0609C4.31909 2.20056 5.02918 11.2665 5.62474 15.582L15.148 6.91875C13.6438 4.86926 10.1258 0.870955 7.60994 0.870955H7.60422Z" fill="#1B1529"/>
<path fill-rule="evenodd" clip-rule="evenodd" d="M43.521 16.4577C43.521 16.4577 45.7296 2.27652 42.2707 0.658209C38.7394 -0.994295 33.0968 6.97382 33.0968 6.97382L43.521 16.4577Z" fill="#EDAE5D"/>
<path d="M43.521 16.8946C43.4116 16.8943 43.3062 16.8537 43.2252 16.7806L32.799 7.29677C32.722 7.22488 32.6732 7.12793 32.6617 7.02344C32.6501 6.91894 32.6765 6.81379 32.736 6.72694C32.9766 6.38884 38.6344 -1.52039 42.4578 0.268878C46.1075 1.97837 44.1872 15.0445 43.9562 16.5299C43.9442 16.6081 43.911 16.6816 43.8602 16.7424C43.8094 16.8033 43.743 16.8493 43.668 16.8756C43.6205 16.8903 43.5707 16.8967 43.521 16.8946ZM33.6809 6.91308L43.2061 15.5764C43.7978 11.2609 44.5098 2.1892 42.0837 1.05524C39.5812 -0.116704 35.3741 4.62427 33.6809 6.91308Z" fill="#1B1529"/>
<path fill-rule="evenodd" clip-rule="evenodd" d="M5.054 47.5285H44.0441C44.0441 47.5285 44.2349 24.9252 44.0441 20.1767C43.815 14.4062 40.4268 6.6907 32.7055 5.82836C22.6345 4.7096 16.9423 5.48456 13.5503 6.51975C10.1583 7.55494 5.08836 10.8125 4.80204 19.6258C4.48135 29.6073 5.054 47.5285 5.054 47.5285Z" fill="white"/>
<path d="M5.054 47.9674C4.93999 47.967 4.83057 47.9227 4.74871 47.8437C4.66685 47.7647 4.61892 47.6573 4.61497 47.5439C4.61497 47.3634 4.04232 29.4993 4.36491 19.6089C4.68178 9.81548 10.8054 6.90174 13.4243 6.10208C17.9788 4.7136 24.4841 4.47618 32.7571 5.3955C36.3667 5.79818 39.4094 7.70711 41.553 10.9209C43.2863 13.5175 44.3552 16.8871 44.485 20.1617C44.6759 24.8685 44.485 47.3064 44.485 47.5325C44.489 47.5924 44.4805 47.6525 44.4602 47.709C44.4399 47.7656 44.4081 47.8174 44.3669 47.8612C44.3257 47.905 44.2758 47.94 44.2204 47.9639C44.1651 47.9878 44.1054 48.0001 44.045 48.0001C43.9847 48.0001 43.925 47.9878 43.8696 47.9639C43.8142 47.94 43.7644 47.905 43.7231 47.8612C43.6819 47.8174 43.6501 47.7656 43.6298 47.709C43.6095 47.6525 43.6011 47.5924 43.605 47.5325C43.605 47.3064 43.7959 24.8894 43.605 20.2035C43.3569 14.0455 39.8332 7.0575 32.6673 6.26544C24.5147 5.35941 18.1296 5.58544 13.6896 6.93974C11.252 7.68242 5.5503 10.4062 5.25252 19.6374C4.93375 29.4936 5.49495 47.3368 5.50067 47.5154C5.50271 47.5728 5.49337 47.63 5.47317 47.6838C5.45297 47.7375 5.42232 47.7868 5.38296 47.8288C5.34361 47.8708 5.29632 47.9047 5.2438 47.9284C5.19129 47.9522 5.13458 47.9655 5.07691 47.9674H5.054Z" fill="#1B1529"/>
<path fill-rule="evenodd" clip-rule="evenodd" d="M0.472769 44.5179C0.684651 42.3545 2.4637 40.229 5.86717 40.1683C9.20955 40.1056 11.1413 42.1779 11.378 43.9215C11.6395 45.8419 11.105 47.3614 9.7822 47.5305C8.13105 47.7375 7.82564 45.6804 7.82564 45.6804C7.82564 45.6804 7.69393 47.4583 5.80417 47.5305C4.05758 47.5969 3.96786 45.8096 3.96786 45.8096C3.96786 45.8096 3.79607 47.5551 2.30526 47.5305C1.2783 47.5153 0.241799 46.8618 0.472769 44.5179Z" fill="white"/>
<path d="M9.54933 47.9788C8.71326 47.9788 8.15969 47.4944 7.81991 46.9303C7.59648 47.2514 7.29764 47.5134 6.94935 47.6934C6.60105 47.8735 6.21385 47.9662 5.82135 47.9636C4.88602 48.0016 4.29428 47.5951 3.95832 47.0937C3.78387 47.3723 3.5382 47.5998 3.24642 47.753C2.95465 47.9061 2.62722 47.9795 2.29763 47.9655C1.99036 47.971 1.68541 47.9117 1.4028 47.7916C1.1202 47.6714 0.866348 47.4931 0.65793 47.2684C0.121544 46.6701 -0.0884294 45.7299 0.0337366 44.4762C0.260889 42.1627 2.15065 39.7979 5.85953 39.7277C9.35272 39.665 11.5345 41.817 11.8132 43.8608C12.0041 45.255 11.796 46.4269 11.2291 47.1601C11.0635 47.3801 10.8549 47.5644 10.6157 47.7019C10.3765 47.8393 10.1118 47.9271 9.83756 47.9598C9.74192 47.9716 9.64569 47.9779 9.54933 47.9788ZM7.83137 45.2398C7.93788 45.2398 8.04074 45.2784 8.12081 45.3482C8.20088 45.4181 8.25269 45.5146 8.26659 45.6197C8.27804 45.6862 8.53382 47.2513 9.73258 47.1012C9.89196 47.0844 10.046 47.0344 10.1848 46.9546C10.3235 46.8747 10.4439 46.7668 10.5381 46.6378C10.9542 46.0983 11.1108 45.1334 10.9485 43.9786C10.7576 42.5426 9.05303 40.5387 5.88244 40.6033C2.71185 40.6679 1.11032 42.6319 0.91944 44.5598C0.822089 45.5456 0.961437 46.2807 1.32412 46.6853C1.45216 46.8192 1.60744 46.9244 1.7796 46.9938C1.95176 47.0633 2.13683 47.0954 2.32244 47.0879C3.37422 47.1107 3.52692 45.897 3.54029 45.7583C3.54997 45.6475 3.60181 45.5445 3.68523 45.4703C3.76864 45.3962 3.87734 45.3565 3.98915 45.3594C4.10095 45.3624 4.20742 45.4076 4.28683 45.486C4.36623 45.5644 4.4126 45.6699 4.41644 45.7811C4.42599 45.9179 4.52907 47.1392 5.79654 47.0879C6.19869 47.0945 6.58822 46.9482 6.88578 46.679C7.18334 46.4097 7.36654 46.0377 7.39806 45.6387C7.40772 45.5321 7.45605 45.4326 7.53403 45.3588C7.61202 45.2851 7.71432 45.2421 7.82182 45.2379L7.83137 45.2398Z" fill="#1B1529"/>
<path fill-rule="evenodd" clip-rule="evenodd" d="M38.5848 44.5179C38.7986 42.3545 40.5776 40.229 43.9811 40.1683C47.3215 40.1056 49.2552 42.1779 49.4919 43.9215C49.7534 45.8419 49.2189 47.3614 47.8961 47.5305C46.245 47.7375 45.9395 45.6804 45.9395 45.6804C45.9395 45.6804 45.8078 47.4583 43.9181 47.5305C42.1715 47.5969 42.0818 45.8096 42.0818 45.8096C42.0818 45.8096 41.91 47.5551 40.4192 47.5305C39.396 47.5153 38.3595 46.8618 38.5848 44.5179Z" fill="white"/>
<path d="M47.6652 47.9787C46.831 47.9787 46.2774 47.4944 45.9376 46.9303C45.7142 47.2514 45.4154 47.5133 45.0671 47.6934C44.7188 47.8735 44.3316 47.9662 43.9391 47.9635C43.0038 47.9996 42.412 47.5951 42.0761 47.0936C41.9016 47.3722 41.6559 47.5997 41.3642 47.7529C41.0724 47.9061 40.745 47.9794 40.4154 47.9654C40.1081 47.9711 39.8031 47.9118 39.5205 47.7917C39.2378 47.6715 38.984 47.4932 38.7757 47.2684C38.2393 46.67 38.0293 45.7298 38.1515 44.4762C38.3786 42.1627 40.2684 39.7979 43.9773 39.7276C47.4705 39.663 49.6523 41.817 49.931 43.8608C50.1218 45.255 49.9138 46.4269 49.3468 47.1601C49.1811 47.3799 48.9724 47.5641 48.7333 47.7015C48.4941 47.839 48.2295 47.9268 47.9553 47.9598C47.859 47.9715 47.7622 47.9779 47.6652 47.9787ZM45.9472 45.2398C46.0537 45.2398 46.1566 45.2783 46.2366 45.3482C46.3167 45.4181 46.3685 45.5146 46.3824 45.6197C46.392 45.6861 46.6496 47.2513 47.8484 47.1012C48.0078 47.0843 48.1618 47.0344 48.3006 46.9545C48.4394 46.8747 48.5597 46.7668 48.6539 46.6377C49.0701 46.0983 49.2266 45.1334 49.0643 43.9785C48.8735 42.5426 47.165 40.5596 43.9964 40.6032C40.8277 40.6469 39.2242 42.6318 39.0334 44.5598C38.936 45.5456 39.0754 46.2806 39.438 46.6852C39.5661 46.8192 39.7214 46.9244 39.8935 46.9938C40.0657 47.0632 40.2507 47.0953 40.4364 47.0879C41.4862 47.1107 41.6408 45.897 41.6542 45.7583C41.6639 45.6474 41.7157 45.5444 41.7991 45.4703C41.8826 45.3962 41.9913 45.3565 42.1031 45.3594C42.2149 45.3623 42.3213 45.4076 42.4007 45.4859C42.4802 45.5643 42.5265 45.6699 42.5304 45.7811C42.5399 45.9179 42.643 47.1373 43.9105 47.0879C44.3126 47.0945 44.7021 46.9482 44.9997 46.6789C45.2973 46.4097 45.4805 46.0376 45.512 45.6386C45.5212 45.5319 45.5694 45.4321 45.6475 45.3583C45.7256 45.2845 45.8281 45.2416 45.9357 45.2379L45.9472 45.2398Z" fill="#1B1529"/>
<path fill-rule="evenodd" clip-rule="evenodd" d="M13.4109 19.4511C13.2544 15.0976 17.7287 14.1669 19.5498 16.1233C21.1723 17.867 21.115 22.4218 18.4045 23.3525C15.8695 24.2187 13.5197 22.4313 13.4109 19.4511Z" fill="white"/>
<path d="M17.1179 24.0117C16.331 24.0145 15.5622 23.7772 14.9151 23.3317C13.7373 22.5264 13.0272 21.1189 12.9662 19.4664C12.8917 17.377 13.8519 15.7207 15.5355 15.0293C17.0625 14.4006 18.8454 14.7292 19.8666 15.8271C20.9184 16.9667 21.346 19.115 20.8821 20.9556C20.5233 22.3744 19.691 23.3735 18.5381 23.7667C18.0817 23.9264 17.6017 24.0092 17.1179 24.0117ZM13.8519 19.4341C13.9015 20.8055 14.4722 21.9642 15.419 22.61C15.8314 22.8863 16.3043 23.0603 16.7981 23.1175C17.2919 23.1746 17.7924 23.1133 18.2575 22.9386C19.4219 22.5397 19.8705 21.3905 20.0346 20.739C20.4259 19.1929 20.0785 17.3371 19.2272 16.4216C18.4503 15.5859 17.0721 15.3465 15.8771 15.8366C14.5276 16.3931 13.7889 17.7037 13.8519 19.4341Z" fill="#1B1529"/>
<path fill-rule="evenodd" clip-rule="evenodd" d="M16.6922 17.7169C16.633 16.0568 18.3396 15.7016 19.0325 16.4481C19.6528 17.1129 19.6299 18.8509 18.5953 19.2042C17.6295 19.5347 16.7342 18.8547 16.6922 17.7169Z" fill="#1B1529"/>
<path fill-rule="evenodd" clip-rule="evenodd" d="M28.5213 19.4511C28.3629 15.0976 32.8372 14.1669 34.6583 16.1233C36.2808 17.867 36.2254 22.4218 33.513 23.3525C30.9761 24.2187 28.6301 22.4313 28.5213 19.4511Z" fill="white"/>
<path d="M32.2264 24.0117C31.4415 24.0131 30.675 23.7758 30.0293 23.3317C28.8497 22.5264 28.1415 21.1132 28.0861 19.4664C28.0098 17.377 28.9699 15.7207 30.6554 15.0293C32.1825 14.4006 33.9635 14.7292 34.9847 15.8271C36.0384 16.9667 36.4659 19.115 36.0002 20.9556C35.6413 22.3744 34.8091 23.3735 33.6561 23.7667C33.1967 23.9275 32.7134 24.0103 32.2264 24.0117ZM28.9604 19.4341C29.01 20.8055 29.5807 21.9642 30.5275 22.61C30.94 22.8861 31.4129 23.0601 31.9067 23.1172C32.4005 23.1744 32.9008 23.1131 33.366 22.9386C34.5304 22.5397 34.979 21.3905 35.1431 20.739C35.5249 19.1929 35.187 17.3371 34.3357 16.4216C33.5588 15.5859 32.1825 15.3465 30.9876 15.8366C29.6361 16.3931 28.8974 17.7037 28.9604 19.4341Z" fill="#1B1529"/>
<path fill-rule="evenodd" clip-rule="evenodd" d="M31.8026 17.7169C31.7416 16.0568 33.4481 15.7016 34.1429 16.4481C34.7613 17.1129 34.7403 18.8509 33.7038 19.2042C32.738 19.5347 31.8427 18.8547 31.8026 17.7169Z" fill="#1B1529"/>
<path d="M15.106 13.785C15.0397 13.7846 14.9744 13.769 14.9151 13.7395C14.8137 13.6891 14.7359 13.6016 14.6978 13.4954C14.6597 13.3892 14.6644 13.2725 14.7108 13.1696C14.9008 12.8172 15.1736 12.5156 15.506 12.2907C15.8384 12.0658 16.2204 11.9242 16.6197 11.878C17.091 11.8086 17.572 11.9006 17.9837 12.1392C18.3955 12.3777 18.7135 12.7484 18.8855 13.1905C18.9183 13.2978 18.9087 13.4134 18.8585 13.5138C18.8083 13.6142 18.7214 13.6916 18.6157 13.7303C18.5099 13.7689 18.3933 13.7658 18.2898 13.7216C18.1863 13.6774 18.1037 13.5954 18.059 13.4925C17.8681 12.9702 17.3393 12.6777 16.7228 12.748C16.4707 12.776 16.2291 12.8635 16.0179 13.0033C15.8067 13.143 15.6322 13.331 15.5087 13.5514C15.4697 13.6235 15.4115 13.6834 15.3404 13.7247C15.2694 13.7659 15.1882 13.7868 15.106 13.785Z" fill="#1B1529"/>
<path d="M33.7382 13.787C33.6557 13.7868 33.575 13.7635 33.5051 13.7198C33.4353 13.6762 33.3791 13.6139 33.3431 13.5401C33.2192 13.3202 33.0445 13.1328 32.8334 12.9934C32.6223 12.854 32.3808 12.7667 32.129 12.7386C31.5068 12.6683 30.9837 12.9589 30.7929 13.4831C30.7754 13.5402 30.7464 13.5932 30.7076 13.6388C30.6688 13.6843 30.6211 13.7215 30.5674 13.7481C30.5137 13.7747 30.4551 13.7901 30.3952 13.7934C30.3353 13.7967 30.2754 13.7877 30.2191 13.7672C30.1627 13.7466 30.1112 13.7148 30.0677 13.6737C30.0242 13.6326 29.9895 13.5832 29.9658 13.5283C29.9422 13.4734 29.93 13.4144 29.9301 13.3547C29.9302 13.295 29.9425 13.2359 29.9663 13.1811C30.2985 12.2808 31.209 11.7528 32.2321 11.8686C32.6314 11.9148 33.0135 12.0564 33.3458 12.2813C33.6782 12.5062 33.951 12.8078 34.141 13.1602C34.1659 13.2121 34.1803 13.2683 34.1833 13.3258C34.1863 13.3832 34.1779 13.4406 34.1586 13.4948C34.1392 13.5489 34.1094 13.5988 34.0706 13.6414C34.0319 13.6841 33.9851 13.7187 33.9329 13.7434C33.8725 13.7732 33.8057 13.7882 33.7382 13.787Z" fill="#1B1529"/>
<path fill-rule="evenodd" clip-rule="evenodd" d="M8.28758 25.9719C8.19405 24.1351 10.1964 23.0753 11.7369 23.59C13.2773 24.1048 13.7908 25.2292 13.325 26.819C12.7142 28.8875 8.45556 29.3111 8.28758 25.9719Z" fill="#FE7D7B"/>
<path fill-rule="evenodd" clip-rule="evenodd" d="M35.3397 25.9719C35.2462 24.1351 37.239 23.0753 38.789 23.59C40.339 24.1048 40.8448 25.2292 40.3772 26.819C39.774 28.8875 35.5172 29.3111 35.3397 25.9719Z" fill="#FE7D7B"/>
<path fill-rule="evenodd" clip-rule="evenodd" d="M21.7545 24.8246C21.6514 23.7173 22.6974 23.0734 24.2932 23.0734C26.0895 23.0734 27.0248 23.6223 27.0859 24.4789C27.1584 25.5141 26.2593 26.2017 24.5777 26.2397C22.5638 26.2853 21.848 25.8313 21.7545 24.8246Z" fill="#1B1529"/>
<path d="M24.5624 29.9304C24.4487 29.93 24.3395 29.8859 24.2577 29.8073C24.1759 29.7288 24.1278 29.6218 24.1234 29.5087L23.9783 25.2274C23.9807 25.1153 24.0261 25.0084 24.1052 24.9286C24.1844 24.8488 24.2912 24.8021 24.4038 24.7982C24.5164 24.7943 24.6263 24.8335 24.7108 24.9077C24.7953 24.9818 24.8481 25.0854 24.8583 25.197L25.0033 29.4783C25.0069 29.5944 24.9642 29.7072 24.8844 29.7919C24.8046 29.8766 24.6943 29.9264 24.5777 29.9304H24.5624Z" fill="#1B1529"/>
<path fill-rule="evenodd" clip-rule="evenodd" d="M18.0685 46.9246C16.8048 46.6872 18.813 29.0244 20.634 28.7888C22.455 28.5533 28.151 28.0898 29.3841 28.7888C31.1326 29.7803 34.8644 46.2636 32.904 46.6283C30.9437 46.993 19.3322 47.1658 18.0685 46.9246Z" fill="#B02F10"/>
<mask id="mask0_17_3532" style="mask-type:luminance" maskUnits="userSpaceOnUse" x="17" y="28" width="17" height="20">
<path d="M18.0685 46.9246C16.8048 46.6872 18.813 29.0244 20.634 28.7888C22.455 28.5533 28.151 28.0898 29.3841 28.7888C31.1326 29.7803 34.8644 46.2636 32.904 46.6283C30.9437 46.993 19.3322 47.1658 18.0685 46.9246Z" fill="white"/>
</mask>
<g mask="url(#mask0_17_3532)">
<path fill-rule="evenodd" clip-rule="evenodd" d="M15.7874 44.6015C15.7874 44.6015 18.5896 38.0617 25.5645 37.7293C32.5395 37.3969 35.7425 44.1988 35.7425 44.1988V48.0945L15.9268 48.5105L15.7874 44.6015Z" fill="#FE7D7B"/>
<path d="M15.9268 48.936C15.8163 48.9356 15.7103 48.8927 15.6309 48.8162C15.5516 48.7397 15.5051 48.6356 15.5011 48.5258L15.3598 44.6167C15.3568 44.5516 15.3685 44.4867 15.3942 44.4268C15.4228 44.3603 18.3835 37.6382 25.5454 37.2963C32.7074 36.9544 36.0956 43.9443 36.13 44.0108C36.1567 44.0672 36.1704 44.1289 36.1701 44.1913V48.087C36.1696 48.1979 36.1256 48.3042 36.0476 48.3833C35.9695 48.4624 35.8634 48.5081 35.752 48.5106L15.9363 48.9284L15.9268 48.936ZM16.2188 44.687L16.3391 48.0756L35.3149 47.6767V44.2976C34.9331 43.5473 31.7835 37.8586 25.5798 38.153C19.3761 38.4474 16.5701 43.9462 16.2188 44.687Z" fill="black"/>
<path fill-rule="evenodd" clip-rule="evenodd" d="M20.5385 28.084C20.4889 28.0327 21.2601 31.1041 21.9053 31.0946C22.5505 31.0851 22.4512 27.5579 22.4512 27.5579C22.4512 27.5579 20.5863 28.141 20.5385 28.084Z" fill="white"/>
<path d="M21.8824 31.5203C21.6151 31.5203 20.9795 31.4272 20.2331 28.6711C20.0881 28.1355 20.0213 27.8905 20.3267 27.7214C20.3964 27.6824 20.4757 27.6633 20.5557 27.6663C20.7695 27.6265 21.617 27.3795 22.3252 27.1611C22.3881 27.1414 22.4548 27.1364 22.5199 27.1467C22.585 27.157 22.6469 27.1822 22.7006 27.2203C22.7542 27.2584 22.7983 27.3084 22.8292 27.3664C22.8601 27.4244 22.8771 27.4887 22.8788 27.5543C22.9055 28.504 22.9074 30.7567 22.3596 31.3265C22.3023 31.3884 22.233 31.4382 22.1559 31.4728C22.0789 31.5073 21.9955 31.5261 21.911 31.5279L21.8824 31.5203ZM21.0463 28.4204C21.2105 29.032 21.5598 30.0729 21.8327 30.5098C21.953 30.0767 22.0236 29.1498 22.0236 28.1355C21.596 28.2647 21.283 28.3577 21.0463 28.4204Z" fill="black"/>
<path fill-rule="evenodd" clip-rule="evenodd" d="M29.8041 28.084C29.8537 28.0327 29.0825 31.1041 28.4373 31.0946C27.7922 31.0851 27.8895 27.5579 27.8895 27.5579C27.8895 27.5579 29.7449 28.141 29.8041 28.084Z" fill="white"/>
<path d="M28.4507 31.5203H28.4221C28.3375 31.5187 28.2541 31.5 28.177 31.4654C28.0999 31.4308 28.0307 31.381 27.9735 31.3189C27.4257 30.7491 27.4276 28.4926 27.4543 27.5467C27.4556 27.4809 27.4723 27.4164 27.5031 27.3582C27.5339 27.3 27.578 27.2499 27.6318 27.2116C27.6856 27.1734 27.7476 27.1483 27.8129 27.1382C27.8782 27.1281 27.945 27.1333 28.0079 27.1535C28.716 27.3719 29.5636 27.6188 29.7774 27.6587C29.8568 27.6554 29.9355 27.6745 30.0045 27.7138C30.3118 27.8848 30.245 28.1298 30.098 28.6635C29.3517 31.4272 28.716 31.5203 28.4507 31.5203ZM28.2999 28.1412C28.2999 29.1555 28.3801 30.0824 28.4908 30.5155C28.7638 30.0805 29.115 29.0396 29.2772 28.4261C29.0501 28.3577 28.7332 28.2646 28.2999 28.1412Z" fill="black"/>
</g>
<path d="M21.9912 47.4771C20.0041 47.4771 18.4274 47.4391 17.9826 47.3556C17.452 47.2549 17.1599 46.6433 17.242 43.8169C17.3753 40.6497 17.7197 37.4948 18.2728 34.373C19.3112 28.5189 20.195 28.4031 20.5729 28.3537C20.6454 28.3537 27.9754 27.4875 29.5979 28.4069C30.8253 29.1039 32.2054 34.5724 32.5986 36.2325C33.3622 39.4615 34.1429 43.9214 33.8184 45.8645C33.6981 46.5749 33.4175 46.9757 32.9823 47.0593C31.6022 47.3252 25.9749 47.4771 21.9912 47.4771ZM18.2689 46.5122C19.9697 46.7212 30.8329 46.5597 32.7971 46.2045C32.8525 46.1361 33.1579 45.6347 32.9422 43.2528C32.4593 37.9344 30.119 29.7099 29.1665 29.1685C28.214 28.6272 23.1575 28.9045 20.7142 29.2179C20.6493 29.2635 20.2618 29.6187 19.7197 31.767C18.5018 36.6048 17.7574 45.3251 18.2689 46.5122Z" fill="#1B1529"/>
<path d="M19.0516 25.556H19.0077L15.1403 25.1609C15.0844 25.1552 15.0302 25.1385 14.9808 25.112C14.9313 25.0854 14.8877 25.0494 14.8522 25.006C14.8168 24.9626 14.7902 24.9127 14.7742 24.8591C14.7581 24.8055 14.7528 24.7493 14.7586 24.6937C14.7643 24.638 14.7811 24.5841 14.8078 24.5349C14.8345 24.4857 14.8707 24.4422 14.9143 24.4069C14.9579 24.3717 15.0081 24.3453 15.0619 24.3293C15.1158 24.3133 15.1722 24.308 15.2281 24.3138L19.0955 24.7108C19.2052 24.7211 19.3067 24.7732 19.3788 24.8562C19.4509 24.9392 19.488 25.0467 19.4823 25.1562C19.4766 25.2658 19.4287 25.3689 19.3484 25.4441C19.2681 25.5193 19.1618 25.5608 19.0516 25.5598V25.556Z" fill="#EDAE5D"/>
<path d="M15.1842 27.5902C15.074 27.5912 14.9677 27.5497 14.8874 27.4745C14.8071 27.3993 14.7592 27.2962 14.7535 27.1867C14.7478 27.0771 14.7849 26.9696 14.857 26.8866C14.9291 26.8036 15.0306 26.7515 15.1403 26.7412L19.0077 26.3461C19.065 26.3371 19.1236 26.3399 19.1799 26.3542C19.2361 26.3685 19.2888 26.394 19.3349 26.4292C19.3809 26.4645 19.4192 26.5086 19.4475 26.5591C19.4758 26.6095 19.4934 26.6652 19.4994 26.7227C19.5054 26.7801 19.4995 26.8382 19.4822 26.8933C19.4649 26.9485 19.4365 26.9995 19.3987 27.0434C19.3609 27.0872 19.3145 27.123 19.2624 27.1484C19.2102 27.1739 19.1534 27.1885 19.0955 27.1914L15.2281 27.5883L15.1842 27.5902Z" fill="#EDAE5D"/>
<path d="M29.9052 25.556C29.7952 25.5564 29.6892 25.5146 29.6094 25.4393C29.5295 25.3639 29.4819 25.2608 29.4765 25.1515C29.4711 25.0421 29.5083 24.9348 29.5803 24.852C29.6523 24.7693 29.7537 24.7173 29.8632 24.707L33.7306 24.31C33.7865 24.3042 33.843 24.3095 33.8968 24.3255C33.9507 24.3415 34.0008 24.3679 34.0444 24.4031C34.088 24.4384 34.1242 24.4819 34.1509 24.5311C34.1777 24.5803 34.1944 24.6342 34.2001 24.6899C34.2059 24.7455 34.2006 24.8017 34.1845 24.8553C34.1685 24.9089 34.142 24.9588 34.1065 25.0022C34.0711 25.0456 34.0274 25.0816 33.9779 25.1082C33.9285 25.1348 33.8743 25.1514 33.8184 25.1571L29.9511 25.5522L29.9052 25.556Z" fill="#EDAE5D"/>
<path d="M33.7745 27.5902H33.7306L29.8632 27.1914C29.8053 27.1885 29.7485 27.1739 29.6964 27.1484C29.6442 27.123 29.5979 27.0872 29.5601 27.0434C29.5223 26.9995 29.4938 26.9485 29.4765 26.8933C29.4592 26.8382 29.4533 26.7801 29.4593 26.7227C29.4653 26.6652 29.483 26.6095 29.5112 26.5591C29.5395 26.5086 29.5778 26.4645 29.6239 26.4292C29.6699 26.394 29.7226 26.3685 29.7789 26.3542C29.8351 26.3399 29.8937 26.3371 29.9511 26.3461L33.8126 26.7412C33.9224 26.7515 34.0239 26.8036 34.096 26.8866C34.1681 26.9696 34.2051 27.0771 34.1995 27.1867C34.1938 27.2962 34.1458 27.3993 34.0656 27.4745C33.9853 27.5497 33.879 27.5912 33.7687 27.5902H33.7745Z" fill="#EDAE5D"/>
</svg>
