<svg width="58" height="52" viewBox="0 0 58 52" fill="none" xmlns="http://www.w3.org/2000/svg">
<path fill-rule="evenodd" clip-rule="evenodd" d="M8.0598 17.8412C8.0598 17.8412 5.67909 2.4678 9.41078 0.71343C13.2207 -1.07801 19.3084 7.56001 19.3084 7.56001L8.0598 17.8412Z" fill="#EDAE5D"/>
<path d="M8.05981 18.3149C8.00649 18.315 7.95353 18.306 7.90329 18.2881C7.82238 18.2596 7.75071 18.2098 7.69594 18.1437C7.64117 18.0777 7.60536 17.9981 7.59232 17.9134C7.34312 16.3031 5.26927 2.13636 9.20896 0.285207C13.3278 -1.65449 19.4382 6.92175 19.6956 7.28622C19.7606 7.38007 19.7896 7.49428 19.7771 7.60779C19.7646 7.7213 19.7115 7.82648 19.6276 7.90395L8.38107 18.1851C8.29377 18.2667 8.17928 18.3129 8.05981 18.3149ZM10.5311 0.944122C10.2114 0.943028 9.89548 1.01338 9.60644 1.15003C6.98891 2.38551 7.75296 12.2137 8.3955 16.8941L18.67 7.50037C17.0451 5.27858 13.2516 0.944122 10.5373 0.944122H10.5311Z" fill="#1B1529"/>
<path fill-rule="evenodd" clip-rule="evenodd" d="M49.2813 17.8412C49.2813 17.8412 51.662 2.4678 47.9324 0.71343C44.1204 -1.07801 38.0327 7.56001 38.0327 7.56001L49.2813 17.8412Z" fill="#EDAE5D"/>
<path d="M49.2813 18.3149C49.1633 18.3146 49.0496 18.2706 48.9621 18.1914L37.7135 7.91018C37.6296 7.83271 37.5765 7.72753 37.564 7.61402C37.5515 7.50051 37.5805 7.3863 37.6455 7.29245C37.903 6.92798 44.0113 -1.64826 48.1342 0.291432C52.0719 2.14464 50.0001 16.3093 49.7509 17.9196C49.7378 18.0043 49.702 18.084 49.6473 18.15C49.5925 18.216 49.5208 18.2659 49.4399 18.2943C49.3886 18.3103 49.335 18.3172 49.2813 18.3149ZM38.665 7.49424L48.9415 16.888C49.58 12.2076 50.3481 2.37321 47.7306 1.14391C45.0327 -0.124507 40.4917 5.013 38.665 7.49424Z" fill="#1B1529"/>
<path fill-rule="evenodd" clip-rule="evenodd" d="M7.77974 51.5264H49.8456C49.8456 51.5264 50.0516 27.0228 49.8456 21.875C49.5985 15.6194 45.943 7.25526 37.6126 6.32042C26.7471 5.1076 20.6058 5.94772 16.9462 7.06995C13.2866 8.19217 7.81473 11.7236 7.50788 21.2779C7.1619 32.0965 7.77974 51.5264 7.77974 51.5264Z" fill="white"/>
<path d="M7.77973 51.9999C7.65672 51.9995 7.53865 51.9514 7.45033 51.8658C7.36201 51.7801 7.31031 51.6637 7.30605 51.5407C7.30605 51.3348 6.68821 31.9791 7.03626 21.2593C7.37812 10.6404 13.9848 7.48171 16.8083 6.61482C21.7241 5.1096 28.7406 4.85221 37.6662 5.84882C41.5626 6.28536 44.8433 8.35684 47.1581 11.8388C49.028 14.6557 50.1813 18.3065 50.3214 21.8564C50.5273 26.9589 50.3214 51.2834 50.3214 51.5284C50.3192 51.6538 50.268 51.7735 50.1787 51.8616C50.0893 51.9497 49.9691 51.9994 49.8436 51.9999C49.7814 51.9994 49.7199 51.9866 49.6626 51.9623C49.6054 51.938 49.5534 51.9027 49.5098 51.8583C49.4662 51.8139 49.4318 51.7614 49.4085 51.7038C49.3852 51.6461 49.3735 51.5844 49.374 51.5222C49.374 51.2772 49.58 26.9734 49.374 21.8935C49.1104 15.2261 45.3005 7.65673 37.5611 6.7919C28.7653 5.8097 21.8765 6.05473 17.0863 7.52289C14.4564 8.32801 8.30695 11.2828 7.98362 21.2881C7.63969 31.9729 8.24721 51.3163 8.25339 51.5098C8.25728 51.6357 8.21113 51.7579 8.12505 51.8498C8.03897 51.9416 7.91997 51.9956 7.79414 51.9999H7.77973Z" fill="#1B1529"/>
<path fill-rule="evenodd" clip-rule="evenodd" d="M24.2943 31.5653C24.2943 31.5653 24.2428 37.1928 24.4508 39.3899C24.6588 41.587 25.9459 43.7717 29.2451 43.3599C32.5443 42.9481 32.9377 40.9919 33.0448 39.1964C33.1519 37.4008 33.0077 31.5591 33.0077 31.5591L24.2943 31.5653Z" fill="#FE7D7B"/>
<path d="M28.4584 43.8914C27.4561 43.9246 26.4736 43.6071 25.6803 42.9936C24.7267 42.2297 24.1192 40.9675 23.975 39.4396C23.7691 37.2384 23.8124 31.792 23.8144 31.5614C23.8161 31.4363 23.8669 31.3169 23.9559 31.229C24.045 31.1412 24.165 31.0919 24.2901 31.0919H33.0036C33.1275 31.0919 33.2464 31.1404 33.3349 31.227C33.4235 31.3136 33.4746 31.4314 33.4773 31.5552C33.4773 31.7941 33.6194 37.4422 33.5123 39.2316C33.434 40.5659 33.2693 43.3499 29.2987 43.8379C29.0199 43.8725 28.7393 43.8904 28.4584 43.8914ZM24.7515 32.0412C24.7515 33.4352 24.7391 37.5679 24.91 39.3511C25.0295 40.6195 25.5114 41.6511 26.2631 42.2544C26.9818 42.831 27.9621 43.0472 29.171 42.8969C32.1139 42.5303 32.4517 40.9263 32.5567 39.176C32.6432 37.7161 32.5567 33.4558 32.5299 32.0412H24.7515Z" fill="#1B1529"/>
<path d="M28.6809 39.1141C28.5552 39.1141 28.4348 39.0642 28.3459 38.9754C28.2571 38.8866 28.2072 38.7661 28.2072 38.6405V31.5653C28.2151 31.4449 28.2686 31.3319 28.3567 31.2494C28.4449 31.1669 28.5611 31.121 28.6819 31.121C28.8027 31.121 28.9189 31.1669 29.007 31.2494C29.0952 31.3319 29.1486 31.4449 29.1566 31.5653V38.6405C29.156 38.7663 29.1057 38.8867 29.0165 38.9755C28.9274 39.0643 28.8067 39.1141 28.6809 39.1141Z" fill="#1B1529"/>
<path d="M40.9571 32.0419H16.4375C16.3171 32.034 16.2041 31.9805 16.1216 31.8922C16.039 31.804 15.9931 31.6877 15.9931 31.5668C15.9931 31.446 16.039 31.3296 16.1216 31.2414C16.2041 31.1532 16.3171 31.0997 16.4375 31.0917H40.9571C41.0221 31.0874 41.0872 31.0966 41.1485 31.1185C41.2098 31.1404 41.266 31.1747 41.3136 31.2193C41.3611 31.2638 41.399 31.3176 41.4249 31.3774C41.4508 31.4372 41.4641 31.5017 41.4641 31.5668C41.4641 31.632 41.4508 31.6965 41.4249 31.7562C41.399 31.816 41.3611 31.8699 41.3136 31.9144C41.266 31.9589 41.2098 31.9932 41.1485 32.0152C41.0872 32.0371 41.0221 32.0462 40.9571 32.0419Z" fill="#1B1529"/>
<path d="M18.3796 23.1394C18.2601 23.1355 18.1463 23.0868 18.0611 23.0029C17.9759 22.919 17.9254 22.8061 17.9197 22.6867C17.914 22.5673 17.9534 22.45 18.0303 22.3584C18.1071 22.2668 18.2157 22.2074 18.3343 22.1922L21.3369 21.8998L18.775 20.1248C18.6715 20.0533 18.6007 19.9436 18.5781 19.8198C18.5555 19.696 18.583 19.5684 18.6545 19.4649C18.7261 19.3614 18.8358 19.2906 18.9596 19.268C19.0834 19.2454 19.211 19.2729 19.3146 19.3444L22.9412 21.8463C23.0207 21.9019 23.0812 21.9805 23.1147 22.0716C23.1482 22.1626 23.1531 22.2617 23.1287 22.3556C23.1043 22.4495 23.0517 22.5336 22.9781 22.5968C22.9045 22.66 22.8133 22.6991 22.7167 22.709L18.427 23.1209L18.3796 23.1394Z" fill="#1B1529"/>
<path d="M39.1078 23.1393H39.0604L34.8097 22.7275C34.7086 22.7214 34.612 22.6831 34.5341 22.6183C34.4562 22.5534 34.401 22.4654 34.3767 22.367C34.3523 22.2687 34.36 22.1651 34.3986 22.0714C34.4373 21.9777 34.5048 21.8988 34.5914 21.8462L38.216 19.3361C38.2673 19.3007 38.325 19.2757 38.3859 19.2626C38.4468 19.2495 38.5097 19.2485 38.571 19.2597C38.6323 19.2708 38.6908 19.294 38.7431 19.3278C38.7955 19.3616 38.8406 19.4053 38.8761 19.4566C38.9115 19.5078 38.9365 19.5655 38.9496 19.6264C38.9627 19.6873 38.9637 19.7502 38.9525 19.8115C38.9413 19.8728 38.9182 19.9312 38.8844 19.9836C38.8506 20.0359 38.8068 20.0811 38.7556 20.1165L36.1916 21.8915L39.1572 22.1839C39.2758 22.1991 39.3843 22.2585 39.4612 22.3501C39.538 22.4417 39.5775 22.5589 39.5718 22.6784C39.5661 22.7978 39.5156 22.9107 39.4303 22.9946C39.3451 23.0785 39.2314 23.1272 39.1119 23.1311L39.1078 23.1393Z" fill="#1B1529"/>
<path d="M22.6694 18.3211C22.5752 18.3211 22.4832 18.2924 22.4058 18.2388C21.5449 17.6581 18.8656 15.5619 18.7523 15.4713C18.7033 15.4329 18.6622 15.3852 18.6316 15.331C18.6009 15.2767 18.5813 15.2169 18.5737 15.1551C18.5662 15.0932 18.5709 15.0305 18.5876 14.9705C18.6043 14.9104 18.6326 14.8543 18.671 14.8052C18.7094 14.7561 18.7571 14.7151 18.8114 14.6844C18.8656 14.6538 18.9254 14.6341 18.9873 14.6265C19.0491 14.619 19.1119 14.6237 19.1719 14.6404C19.232 14.6571 19.2882 14.6854 19.3372 14.7238C19.364 14.7465 22.103 16.8921 22.9351 17.4522C23.019 17.5093 23.0825 17.5918 23.1162 17.6876C23.15 17.7834 23.1521 17.8874 23.1224 17.9845C23.0928 18.0816 23.0327 18.1667 22.9512 18.2273C22.8697 18.2878 22.7709 18.3207 22.6694 18.3211Z" fill="#1B1529"/>
<path d="M34.4267 18.3211C34.3078 18.3199 34.1935 18.2752 34.1054 18.1955C34.0135 18.1097 33.9591 17.991 33.9541 17.8653C33.9491 17.7397 33.9938 17.6171 34.0786 17.5242C34.9683 16.5605 37.1328 14.3388 37.1554 14.3161C37.1988 14.2715 37.2506 14.2358 37.3078 14.2112C37.365 14.1866 37.4264 14.1735 37.4887 14.1727C37.5509 14.1718 37.6127 14.1832 37.6706 14.2062C37.7284 14.2292 37.7811 14.2634 37.8258 14.3068C37.8704 14.3502 37.906 14.402 37.9306 14.4592C37.9553 14.5163 37.9684 14.5778 37.9692 14.64C37.9701 14.7023 37.9587 14.7641 37.9357 14.8219C37.9126 14.8797 37.8784 14.9325 37.835 14.9771C37.8124 14.9997 35.6562 17.2133 34.7768 18.1667C34.7324 18.2153 34.6783 18.2542 34.618 18.2808C34.5577 18.3074 34.4926 18.3211 34.4267 18.3211Z" fill="#1B1529"/>
<path fill-rule="evenodd" clip-rule="evenodd" d="M11.2663 28.1556C11.1675 26.1644 13.3258 25.0175 14.9898 25.5735C16.6538 26.1294 17.2057 27.3505 16.7012 29.074C16.0422 31.3184 11.4496 31.7756 11.2663 28.1556Z" fill="#FE7D7B"/>
<path fill-rule="evenodd" clip-rule="evenodd" d="M40.4628 28.1556C40.3619 26.1644 42.5223 25.0175 44.1842 25.5735C45.8462 26.1294 46.4022 27.3505 45.8977 29.074C45.2387 31.3184 40.6441 31.7756 40.4628 28.1556Z" fill="#FE7D7B"/>
<path fill-rule="evenodd" clip-rule="evenodd" d="M25.7956 26.9136C25.6865 25.7111 26.8253 25.0131 28.5367 25.0131C30.4726 25.0131 31.4817 25.6082 31.5476 26.5368C31.6279 27.6611 30.6579 28.4044 28.8415 28.4456C26.6709 28.495 25.8965 28.0029 25.7956 26.9136Z" fill="#1B1529"/>
<path d="M28.6706 32.0409C28.5463 32.0409 28.4271 31.9921 28.3385 31.9051C28.2499 31.8181 28.199 31.6997 28.1969 31.5755L28.1186 27.7703C28.117 27.708 28.1277 27.646 28.1501 27.5879C28.1726 27.5298 28.2063 27.4767 28.2494 27.4318C28.2925 27.3868 28.3441 27.3507 28.4012 27.3258C28.4582 27.3008 28.5197 27.2874 28.582 27.2864C28.6445 27.2839 28.7068 27.294 28.7653 27.3162C28.8238 27.3383 28.8773 27.372 28.9224 27.4152C28.9676 27.4585 29.0036 27.5104 29.0282 27.5679C29.0529 27.6253 29.0657 27.6872 29.066 27.7497L29.1442 31.557C29.1456 31.6192 29.1347 31.6811 29.1121 31.739C29.0896 31.797 29.0558 31.85 29.0128 31.8949C28.9698 31.9399 28.9183 31.9759 28.8614 32.0009C28.8044 32.026 28.7431 32.0396 28.6809 32.0409H28.6706Z" fill="#1B1529"/>
<path d="M22.8815 26.7039H22.8342L18.6617 26.2735C18.599 26.2707 18.5375 26.2552 18.481 26.2279C18.4244 26.2005 18.3741 26.1619 18.333 26.1144C18.2919 26.067 18.2609 26.0116 18.242 25.9517C18.2231 25.8919 18.2166 25.8287 18.2229 25.7663C18.2292 25.7038 18.2482 25.6433 18.2788 25.5884C18.3093 25.5335 18.3507 25.4855 18.4005 25.4472C18.4502 25.4089 18.5073 25.3812 18.5682 25.3657C18.629 25.3502 18.6924 25.3473 18.7544 25.3572L22.9268 25.7875C23.0417 25.8026 23.1468 25.8603 23.2211 25.9493C23.2954 26.0382 23.3335 26.1519 23.3278 26.2676C23.3221 26.3834 23.273 26.4927 23.1903 26.5739C23.1076 26.6552 22.9974 26.7023 22.8815 26.7059V26.7039Z" fill="#EDAE5D"/>
<path d="M18.707 28.9111C18.5883 28.9116 18.474 28.8662 18.3878 28.7846C18.3017 28.7029 18.2503 28.5911 18.2445 28.4725C18.2386 28.354 18.2788 28.2377 18.3565 28.148C18.4342 28.0582 18.5435 28.0019 18.6617 27.9907L22.8341 27.5624C22.8962 27.5525 22.9595 27.5554 23.0204 27.5709C23.0813 27.5864 23.1383 27.6141 23.1881 27.6524C23.2378 27.6907 23.2793 27.7387 23.3098 27.7936C23.3403 27.8485 23.3593 27.909 23.3656 27.9715C23.372 28.0339 23.3655 28.097 23.3465 28.1569C23.3276 28.2168 23.2966 28.2722 23.2556 28.3196C23.2145 28.3671 23.1641 28.4057 23.1076 28.4331C23.0511 28.4604 22.9896 28.4759 22.9268 28.4787L18.7544 28.909L18.707 28.9111Z" fill="#EDAE5D"/>
<path d="M34.5914 26.7038C34.4756 26.7001 34.3653 26.653 34.2826 26.5718C34.2 26.4906 34.1509 26.3812 34.1452 26.2655C34.1394 26.1497 34.1775 26.0361 34.2518 25.9471C34.3261 25.8582 34.4312 25.8004 34.5461 25.7854L38.7103 25.3468C38.7723 25.3369 38.8357 25.3398 38.8965 25.3553C38.9574 25.3708 39.0145 25.3985 39.0642 25.4368C39.114 25.4751 39.1554 25.5232 39.1859 25.578C39.2165 25.6329 39.2355 25.6934 39.2418 25.7559C39.2481 25.8184 39.2416 25.8815 39.2227 25.9413C39.2038 26.0012 39.1728 26.0566 39.1317 26.1041C39.0906 26.1516 39.0403 26.1902 38.9838 26.2175C38.9272 26.2449 38.8657 26.2604 38.803 26.2631L34.6305 26.6935L34.5914 26.7038Z" fill="#EDAE5D"/>
<path d="M38.7659 28.9112H38.7103L34.5379 28.4808C34.4776 28.4746 34.419 28.4567 34.3657 28.4278C34.3123 28.399 34.2652 28.36 34.2269 28.3129C34.1887 28.2659 34.16 28.2118 34.1427 28.1537C34.1254 28.0955 34.1197 28.0346 34.126 27.9743C34.1314 27.9138 34.1488 27.8551 34.1772 27.8015C34.2057 27.7479 34.2445 27.7005 34.2915 27.6621C34.3385 27.6237 34.3928 27.5952 34.451 27.578C34.5092 27.5609 34.5702 27.5556 34.6305 27.5625L38.803 27.9908C38.9212 28.002 39.0305 28.0583 39.1082 28.148C39.1859 28.2378 39.2261 28.354 39.2202 28.4726C39.2144 28.5912 39.163 28.7029 39.0769 28.7846C38.9907 28.8663 38.8764 28.9116 38.7577 28.9112H38.7659Z" fill="#EDAE5D"/>
<path fill-rule="evenodd" clip-rule="evenodd" d="M55.4143 41.7396C58.1863 41.056 59.354 30.9992 51.6476 31.8702C48.0477 32.282 48.7417 29.2222 46.3713 29.7123C43.2348 30.3609 45.422 33.118 45.422 33.118C45.422 33.118 42.6253 31.7796 41.472 34.1909C40.4423 36.3426 43.5108 37.2363 43.5108 37.2363C43.5108 37.2363 40.1272 37.4813 40.6276 39.8679C41.266 42.9401 44.5714 41.0663 44.5714 41.0663C44.5714 41.0663 43.3914 43.7658 45.5064 44.6594C47.6214 45.5531 48.7479 43.6669 49.3328 42.4232C50.0371 40.9406 51.2728 42.7568 55.4143 41.7396Z" fill="white"/>
<path d="M46.5691 45.3737C46.1381 45.3663 45.713 45.2725 45.319 45.0978C45.013 44.9793 44.7346 44.7991 44.5012 44.5685C44.2677 44.3379 44.0841 44.0618 43.9618 43.7573C43.7482 43.1568 43.7061 42.5087 43.8403 41.8856C43.1793 42.0915 42.2896 42.2439 41.5235 41.8856C40.8171 41.5664 40.3599 40.9157 40.1581 39.9541C40.0791 39.637 40.0714 39.3064 40.1355 38.9859C40.1995 38.6655 40.3339 38.3632 40.5288 38.1009C40.9326 37.6178 41.4665 37.2605 42.0672 37.0714C41.5932 36.7817 41.2105 36.3642 40.9633 35.8668C40.8343 35.5676 40.7745 35.2431 40.7884 34.9176C40.8023 34.5921 40.8896 34.2739 41.0436 33.9868C41.6038 32.8152 42.5902 32.2262 43.898 32.2757C44.0753 32.2841 44.2521 32.3026 44.4273 32.3313C44.1831 31.7964 44.1429 31.1908 44.314 30.6284C44.5694 29.9283 45.2284 29.4629 46.2746 29.2467C47.6297 28.9667 48.231 29.6585 48.7624 30.2763C49.3411 30.9496 49.8889 31.5859 51.5941 31.3923C54.9674 31.0114 57.3152 32.6628 57.8774 35.8071C58.3881 38.6672 57.2452 41.7785 55.5276 42.1903C54.0418 42.5783 52.4893 42.6373 50.9783 42.3633C50.0289 42.215 49.9486 42.2356 49.7591 42.6166C48.8962 44.4533 47.8274 45.3737 46.5691 45.3737ZM44.5673 40.5842C44.6462 40.5836 44.724 40.6028 44.7935 40.64C44.863 40.6773 44.9221 40.7313 44.9654 40.7973C45.0086 40.8633 45.0346 40.939 45.041 41.0176C45.0473 41.0962 45.0339 41.1752 45.0019 41.2473C45.0019 41.2596 44.4767 42.4827 44.8433 43.4011C44.9206 43.5874 45.0355 43.7558 45.1808 43.8957C45.326 44.0356 45.4986 44.1441 45.6876 44.2145C46.9954 44.7684 47.986 44.1506 48.9003 42.213C49.3967 41.1587 50.1978 41.2823 51.1245 41.4243C52.511 41.6822 53.9374 41.6294 55.3011 41.2699C56.3946 41.0002 57.3873 38.453 56.9486 35.9718C56.6726 34.4233 55.6244 31.8906 51.7073 32.3333C49.5017 32.5804 48.6614 31.6044 48.0477 30.8919C47.5535 30.3174 47.2837 30.0003 46.4723 30.1671C45.7721 30.3133 45.3478 30.5789 45.214 30.9413C44.9812 31.5735 45.5579 32.5084 45.8009 32.8172C45.868 32.9013 45.9045 33.0057 45.9044 33.1133C45.9042 33.2209 45.8674 33.3253 45.8001 33.4092C45.7327 33.4931 45.6388 33.5515 45.5337 33.5749C45.4287 33.5983 45.3188 33.5853 45.2222 33.5379C45.1275 33.4926 42.8395 32.4383 41.9065 34.3863C41.8128 34.5494 41.7576 34.7318 41.7451 34.9195C41.7326 35.1072 41.7632 35.2952 41.8345 35.4694C42.1578 36.1942 43.2555 36.6554 43.6509 36.7728C43.7572 36.8041 43.8493 36.8718 43.9109 36.964C43.9725 37.0562 43.9998 37.1671 43.988 37.2773C43.9763 37.3876 43.9262 37.4902 43.8465 37.5673C43.7668 37.6445 43.6626 37.6912 43.552 37.6994C43.101 37.7344 41.8139 37.9753 41.2866 38.6692C41.1728 38.8245 41.0952 39.0034 41.0596 39.1926C41.024 39.3818 41.0312 39.5766 41.0807 39.7626C41.2187 40.4195 41.4926 40.8334 41.9045 41.0228C42.6994 41.3832 43.9227 40.8725 44.3264 40.6439C44.4003 40.6039 44.4832 40.5833 44.5673 40.5842Z" fill="#1B1529"/>
<path fill-rule="evenodd" clip-rule="evenodd" d="M2.58583 41.7396C-0.186162 41.056 -1.35385 30.9992 6.35253 31.8702C9.95242 32.282 9.25839 29.2222 11.6288 29.7123C14.7653 30.3609 12.5782 33.118 12.5782 33.118C12.5782 33.118 15.3728 31.7796 16.5261 34.1909C17.5558 36.3426 14.4893 37.2363 14.4893 37.2363C14.4893 37.2363 17.873 37.4813 17.3725 39.8679C16.7321 42.9401 13.4267 41.0663 13.4267 41.0663C13.4267 41.0663 14.6067 43.7658 12.4917 44.6594C10.3766 45.5531 9.26045 43.6731 8.66939 42.4232C7.97124 40.9406 6.72734 42.7568 2.58583 41.7396Z" fill="white"/>
<path d="M11.429 45.3738C10.1707 45.3738 9.10187 44.4534 8.24103 42.6249C8.0598 42.2439 7.96917 42.2233 7.01977 42.3716C5.50952 42.6456 3.95764 42.5866 2.47256 42.1986C0.752941 41.7765 -0.38799 38.6734 0.122749 35.8154C0.684973 32.669 3.03478 31.0197 6.40401 31.4006C8.11333 31.5942 8.65909 30.9579 9.23778 30.2846C9.76706 29.6668 10.3684 28.9688 11.7235 29.255C12.7697 29.4609 13.4308 29.9366 13.6841 30.6367C13.8562 31.199 13.8159 31.805 13.5708 32.3396C13.7461 32.311 13.9228 32.2925 14.1001 32.284C15.4161 32.2346 16.3943 32.8235 16.9545 33.9951C17.1095 34.2819 17.1974 34.6001 17.2113 34.9258C17.2252 35.2515 17.1648 35.5761 17.0348 35.8751C16.7876 36.3725 16.4049 36.79 15.9309 37.0797C16.5322 37.2675 17.0664 37.6251 17.4693 38.1092C17.6646 38.3713 17.7992 38.6736 17.8633 38.9941C17.9274 39.3146 17.9195 39.6454 17.84 39.9624C17.6341 40.924 17.181 41.5747 16.4767 41.8939C15.7085 42.2419 14.8291 42.0998 14.1598 41.8939C14.2923 42.5172 14.2495 43.1651 14.0362 43.7656C13.9141 44.0699 13.7308 44.3458 13.4977 44.5763C13.2646 44.8069 12.9867 44.9872 12.6811 45.1061C12.2858 45.278 11.8601 45.369 11.429 45.3738ZM7.75704 41.34C8.30279 41.34 8.76822 41.5191 9.09773 42.2213C10.0121 44.1589 11.0027 44.7767 12.3105 44.2228C12.501 44.1516 12.6746 44.0417 12.8203 43.8999C12.966 43.7581 13.0806 43.5876 13.1569 43.3991C13.5173 42.491 13.0024 41.2617 12.9962 41.2494C12.9562 41.1581 12.9459 41.0565 12.9669 40.9591C12.988 40.8616 13.0392 40.7733 13.1134 40.7067C13.1875 40.6401 13.2808 40.5985 13.38 40.588C13.4791 40.5775 13.5791 40.5985 13.6656 40.6481C14.0774 40.8746 15.2925 41.3853 16.0874 41.0249C16.4993 40.8355 16.7753 40.4216 16.9112 39.7648C16.9613 39.5788 16.9688 39.3838 16.9332 39.1945C16.8975 39.0052 16.8196 38.8264 16.7053 38.6714C16.1842 37.9774 14.8971 37.7365 14.4399 37.7015C14.33 37.6917 14.2269 37.644 14.1483 37.5666C14.0697 37.4891 14.0204 37.3868 14.009 37.277C13.9976 37.1673 14.0246 37.057 14.0856 36.965C14.1465 36.873 14.2376 36.8051 14.3431 36.7729C14.7385 36.6575 15.8341 36.1963 16.1575 35.4715C16.2281 35.2973 16.2585 35.1095 16.2464 34.9219C16.2343 34.7344 16.1799 34.552 16.0874 34.3884C15.1545 32.4405 12.8665 33.4947 12.7697 33.54C12.6729 33.5873 12.5629 33.6002 12.4578 33.5765C12.3527 33.5528 12.2588 33.494 12.1916 33.4098C12.1244 33.3256 12.0879 33.221 12.0882 33.1133C12.0885 33.0056 12.1255 32.9012 12.1931 32.8173C12.434 32.5105 13.0168 31.5818 12.78 30.9435C12.6441 30.5749 12.2219 30.3154 11.5196 30.1692C10.7103 30.0025 10.4384 30.3196 9.94415 30.8941C9.32633 31.6065 8.49228 32.5846 6.28663 32.3354C2.37372 31.8927 1.32133 34.4255 1.04331 35.9739C0.60053 38.4552 1.59318 41.0023 2.69085 41.272C4.05433 41.6327 5.48098 41.6854 6.86738 41.4265C7.16137 41.3756 7.45875 41.3467 7.75704 41.34Z" fill="#1B1529"/>
</svg>
