<svg width="40" height="48" viewBox="0 0 40 48" fill="none" xmlns="http://www.w3.org/2000/svg">
<path fill-rule="evenodd" clip-rule="evenodd" d="M1.13022 16.4666C1.13022 16.4666 -1.04932 2.27734 2.36705 0.658094C5.85506 -0.995357 11.4283 6.97732 11.4283 6.97732L1.13022 16.4666Z" fill="#EDAE5D"/>
<path d="M1.13021 16.9037C1.08139 16.9039 1.03291 16.8955 0.986917 16.879C0.91284 16.8527 0.847228 16.8067 0.797087 16.7458C0.746946 16.6849 0.714156 16.6114 0.702218 16.5331C0.474083 15.0469 -1.42452 1.97134 2.18227 0.262772C5.9531 -1.52562 11.5471 6.38815 11.7828 6.72454C11.8424 6.81117 11.8689 6.91657 11.8574 7.02134C11.846 7.12611 11.7974 7.22319 11.7206 7.29469L1.42433 16.784C1.34451 16.8594 1.23962 16.9021 1.13021 16.9037ZM3.39271 0.870941C3.1 0.869931 2.81077 0.934864 2.54616 1.06099C0.147912 2.2013 0.849285 11.2725 1.43753 15.5924L10.8439 6.92219C9.35627 4.87153 5.88334 0.867136 3.39837 0.867136L3.39271 0.870941Z" fill="#1B1529"/>
<path fill-rule="evenodd" clip-rule="evenodd" d="M38.8687 16.4666C38.8687 16.4666 41.0482 2.27734 37.6337 0.658094C34.1438 -0.995357 28.5724 6.97732 28.5724 6.97732L38.8687 16.4666Z" fill="#EDAE5D"/>
<path d="M38.8687 16.9036C38.7606 16.9033 38.6565 16.8627 38.5764 16.7896L28.2783 7.30029C28.2018 7.22857 28.1534 7.13153 28.142 7.02687C28.1306 6.92221 28.1569 6.81689 28.2161 6.73013C28.4517 6.39374 34.042 -1.52192 37.8185 0.268366C41.4234 1.97883 39.5267 15.0525 39.2985 16.5387C39.2866 16.617 39.2538 16.6904 39.2036 16.7514C39.1535 16.8123 39.0879 16.8583 39.0138 16.8846C38.9669 16.8993 38.9178 16.9057 38.8687 16.9036ZM29.1531 6.91639L38.5613 15.5866C39.1458 11.2667 39.8453 2.1974 37.4489 1.05709C34.9753 -0.117435 30.8217 4.62626 29.1531 6.91639Z" fill="#1B1529"/>
<path fill-rule="evenodd" clip-rule="evenodd" d="M0.871912 47.5573H39.3853C39.3853 47.5573 39.5738 24.9411 39.3853 20.1898C39.159 14.4161 35.8124 6.69615 28.1859 5.83331C18.2385 4.71391 12.6162 5.48932 9.26578 6.5251C5.9154 7.56089 0.907735 10.8203 0.624923 19.6387C0.306289 29.624 0.871912 47.5573 0.871912 47.5573Z" fill="white"/>
<path d="M0.871908 48C0.759148 48 0.650799 47.9558 0.569843 47.8767C0.488888 47.7976 0.441697 47.6898 0.438265 47.5761C0.438265 47.3975 -0.127359 29.5212 0.191276 19.6252C0.504255 9.82614 6.55266 6.91074 9.13756 6.11252C13.638 4.72134 20.0635 4.48378 28.2349 5.40363C31.8021 5.80844 34.8093 7.70896 36.9248 10.9265C38.6367 13.5264 39.6926 16.8961 39.8208 20.1726C40.0093 24.8821 39.8208 47.3348 39.8208 47.5609C39.8193 47.6764 39.7727 47.7866 39.6912 47.8677C39.6097 47.9488 39.4998 47.9943 39.3853 47.9943C39.3283 47.9938 39.272 47.982 39.2196 47.9595C39.1672 47.9371 39.1196 47.9045 39.0797 47.8635C39.0398 47.8226 39.0083 47.7741 38.9869 47.7209C38.9656 47.6677 38.9549 47.6107 38.9554 47.5533C38.9554 47.3272 39.1439 24.8954 38.9554 20.2068C38.714 14.0529 35.226 7.06658 28.1406 6.26836C20.0899 5.36181 13.7832 5.58797 9.39587 6.94304C6.99008 7.68615 1.35835 10.4134 1.06234 19.648C0.747472 29.5098 1.30367 47.3633 1.30932 47.5419C1.31289 47.6581 1.27063 47.7709 1.19182 47.8557C1.11301 47.9404 1.00408 47.9903 0.888882 47.9943L0.871908 48Z" fill="#1B1529"/>
<path fill-rule="evenodd" clip-rule="evenodd" d="M10.4743 20.013C10.3876 17.1736 12.8443 16.5654 13.8435 17.8426C14.7335 18.9829 14.7014 21.9515 13.2119 22.5578C11.8224 23.1222 10.5346 21.9629 10.4743 20.013Z" fill="#1B1529"/>
<path fill-rule="evenodd" clip-rule="evenodd" d="M25.6745 18.8708C25.5878 16.0314 28.0426 15.4251 29.0419 16.7004C29.9318 17.8407 29.8997 20.8093 28.4103 21.4156C27.0207 21.9819 25.733 20.8226 25.6745 18.8708Z" fill="#1B1529"/>
<path d="M10.793 15.2693C10.72 15.2686 10.6484 15.2494 10.5847 15.2136C10.521 15.1777 10.4673 15.1263 10.4284 15.0641C10.3896 15.0018 10.3669 14.9308 10.3624 14.8574C10.3579 14.784 10.3717 14.7106 10.4027 14.644C10.5895 14.2907 10.8588 13.9885 11.1872 13.7634C11.5157 13.5383 11.8935 13.397 12.2881 13.3517C13.2987 13.2357 14.1961 13.7641 14.5242 14.6649C14.5639 14.7738 14.5592 14.8941 14.5109 14.9995C14.4626 15.1048 14.3748 15.1865 14.2668 15.2265C14.1588 15.2666 14.0394 15.2618 13.935 15.2131C13.8305 15.1645 13.7495 15.076 13.7097 14.9671C13.5212 14.4426 12.9989 14.1499 12.3899 14.2221C12.1407 14.2494 11.9017 14.3366 11.693 14.4766C11.4843 14.6165 11.3121 14.8049 11.1908 15.026C11.1534 15.0998 11.0964 15.1616 11.0261 15.2045C10.9558 15.2475 10.8751 15.2699 10.793 15.2693Z" fill="#1B1529"/>
<path d="M29.2059 13.9086C29.1246 13.9087 29.0449 13.8858 28.9759 13.8424C28.9069 13.7991 28.8513 13.737 28.8156 13.6634C28.6935 13.443 28.521 13.2551 28.3125 13.1153C28.1039 12.9755 27.8654 12.8878 27.6165 12.8595C27.0018 12.7873 26.4852 13.0819 26.2967 13.6045C26.277 13.6584 26.247 13.7079 26.2083 13.7501C26.1697 13.7923 26.1232 13.8264 26.0714 13.8505C26.0197 13.8746 25.9638 13.8882 25.9068 13.8905C25.8499 13.8928 25.7931 13.8838 25.7396 13.8639C25.6861 13.8441 25.637 13.8138 25.5951 13.7748C25.5533 13.7359 25.5194 13.689 25.4955 13.6368C25.4716 13.5847 25.4581 13.5283 25.4559 13.4709C25.4536 13.4135 25.4625 13.3562 25.4822 13.3023C25.8103 12.4015 26.7096 11.875 27.7202 11.9891C28.1148 12.0344 28.4926 12.1757 28.8211 12.4008C29.1495 12.6259 29.4187 12.9281 29.6056 13.2814C29.6303 13.3332 29.6446 13.3894 29.6477 13.4467C29.6508 13.5041 29.6427 13.5615 29.6238 13.6157C29.6049 13.6699 29.5755 13.7198 29.5375 13.7625C29.4994 13.8053 29.4534 13.8401 29.402 13.8649C29.3411 13.8953 29.2738 13.9103 29.2059 13.9086Z" fill="#1B1529"/>
<path fill-rule="evenodd" clip-rule="evenodd" d="M4.07712 25.9862C3.98473 24.1484 5.95311 23.0898 7.48406 23.603C9.01502 24.1161 9.51276 25.2431 9.05084 26.8338C8.43996 28.9035 4.23361 29.3273 4.07712 25.9862Z" fill="#FE7D7B"/>
<path fill-rule="evenodd" clip-rule="evenodd" d="M30.7953 25.9862C30.7029 24.1484 32.6713 23.0898 34.2023 23.603C35.7332 24.1161 36.2328 25.2431 35.7709 26.8338C35.1676 28.9035 30.9612 29.3273 30.7953 25.9862Z" fill="#FE7D7B"/>
<path fill-rule="evenodd" clip-rule="evenodd" d="M17.3674 24.8404C17.2675 23.7305 18.3101 23.0862 19.8769 23.0862C21.6492 23.0862 22.573 23.6354 22.6334 24.4926C22.7069 25.5303 21.8189 26.2163 20.1559 26.2544C18.1687 26.3 17.4635 25.8457 17.3674 24.8404Z" fill="#1B1529"/>
<path fill-rule="evenodd" clip-rule="evenodd" d="M15.3085 31.2507C15.3085 31.2507 16.2512 33.4268 16.9658 33.2786C17.6804 33.1304 16.8885 30.502 16.8885 30.502C16.7002 30.7411 16.4597 30.9331 16.1856 31.063C15.9115 31.1929 15.6113 31.2571 15.3085 31.2507Z" fill="white"/>
<path d="M16.8979 33.7233C16.0438 33.7233 15.2953 32.3074 14.9126 31.4256C14.8829 31.3583 14.8706 31.2846 14.8769 31.2112C14.8832 31.1379 14.9078 31.0673 14.9485 31.0062C14.9892 30.945 15.0446 30.8953 15.1095 30.8616C15.1745 30.8279 15.2468 30.8114 15.3198 30.8136C15.5584 30.8166 15.7944 30.7642 16.0095 30.6604C16.2247 30.5566 16.4132 30.4041 16.5604 30.2149C16.6115 30.1559 16.6772 30.1117 16.7509 30.0869C16.8245 30.0621 16.9034 30.0577 16.9794 30.0739C17.0553 30.0902 17.1256 30.1267 17.1829 30.1795C17.2402 30.2324 17.2824 30.2997 17.3052 30.3746C17.4617 30.8991 17.9405 32.6552 17.5295 33.3565C17.4798 33.4457 17.4116 33.523 17.3297 33.5834C17.2477 33.6437 17.1538 33.6856 17.0544 33.7062C17.003 33.7174 16.9505 33.7231 16.8979 33.7233ZM15.9665 31.6118C16.2663 32.182 16.6095 32.6628 16.8168 32.8073C16.8621 32.545 16.7942 31.9463 16.649 31.3001C16.4396 31.4403 16.2092 31.5456 15.9665 31.6118Z" fill="#1B1529"/>
<path fill-rule="evenodd" clip-rule="evenodd" d="M26.1082 29.3084C26.1082 29.3084 25.6971 31.5681 24.6734 31.226C23.9852 30.9961 24.3453 28.7325 24.3453 28.7325L26.1082 29.3084Z" fill="white"/>
<path d="M24.8808 31.6993C24.7635 31.6988 24.647 31.6795 24.5357 31.6423C23.593 31.3287 23.7816 29.4548 23.9173 28.6641C23.927 28.6013 23.9501 28.5414 23.9851 28.4885C24.0201 28.4356 24.0662 28.391 24.12 28.3579C24.1739 28.3248 24.2343 28.3039 24.2969 28.2967C24.3596 28.2896 24.4231 28.2963 24.4829 28.3164L26.2458 28.8865C26.3459 28.9189 26.431 28.9869 26.4851 29.0778C26.5392 29.1687 26.5587 29.2763 26.5399 29.3806C26.489 29.66 26.1968 31.0778 25.42 31.5415C25.2579 31.6427 25.0714 31.6972 24.8808 31.6993ZM24.8261 30.8155C24.8506 30.8234 24.8765 30.8256 24.902 30.822C24.9274 30.8183 24.9518 30.809 24.9732 30.7946C25.2296 30.6407 25.4615 30.0895 25.5953 29.6011L24.713 29.3122C24.6526 30.0135 24.6941 30.6692 24.8261 30.8155Z" fill="#1B1529"/>
<path d="M20.3746 28.8162C20.2695 28.8157 20.1681 28.777 20.0891 28.7072C20.0101 28.6373 19.9588 28.541 19.9447 28.436L19.5337 25.2242C19.5264 25.1671 19.5303 25.1092 19.5452 25.0537C19.5601 24.9982 19.5857 24.9462 19.6206 24.9007C19.6554 24.8551 19.6988 24.817 19.7483 24.7883C19.7978 24.7597 19.8523 24.7412 19.9089 24.7338C19.9655 24.7265 20.023 24.7304 20.078 24.7454C20.1331 24.7605 20.1847 24.7863 20.2298 24.8214C20.275 24.8565 20.3129 24.9002 20.3413 24.9501C20.3697 25 20.3881 25.055 20.3954 25.112L20.8064 28.3239C20.8208 28.4393 20.7892 28.5558 20.7185 28.6477C20.6478 28.7397 20.5438 28.7996 20.4293 28.8142L20.3746 28.8162Z" fill="#1B1529"/>
<path d="M15.2425 31.6651C13.6757 31.6651 12.7481 29.7912 12.7067 29.7057C12.6694 29.6033 12.6712 29.4907 12.7117 29.3897C12.7523 29.2886 12.8287 29.2064 12.926 29.159C13.0234 29.1116 13.1348 29.1024 13.2385 29.1332C13.3422 29.164 13.4309 29.2325 13.4872 29.3256C13.4872 29.3427 14.33 31.0132 15.4895 30.768C16.0551 30.6502 16.5661 30.2188 17.1675 29.7209C18.0216 29.012 18.9907 28.2004 20.4727 27.9154C22.3468 27.5353 23.8664 28.094 24.9694 28.4969C25.4577 28.6737 25.8781 28.8257 26.1515 28.8295C26.8378 28.8447 27.2338 27.6037 27.2375 27.5923C27.2539 27.5372 27.2808 27.486 27.3168 27.4415C27.3528 27.3969 27.3971 27.36 27.4473 27.3327C27.4974 27.3054 27.5524 27.2884 27.6091 27.2825C27.6658 27.2767 27.7231 27.2822 27.7777 27.2986C27.8323 27.3151 27.8831 27.3423 27.9273 27.3785C27.9715 27.4148 28.0082 27.4595 28.0352 27.5101C28.0623 27.5606 28.0792 27.6161 28.085 27.6732C28.0908 27.7304 28.0853 27.7881 28.069 27.8431C28.0464 27.9211 27.5034 29.7228 26.1402 29.7057C25.7217 29.7057 25.2371 29.5156 24.6753 29.3256C23.6062 28.9454 22.277 28.4551 20.6405 28.7801C19.3735 29.031 18.5326 29.7304 17.7181 30.4032C17.0582 30.9505 16.4341 31.4674 15.6686 31.6309C15.5281 31.6567 15.3853 31.6681 15.2425 31.6651Z" fill="#1B1529"/>
<path d="M14.6995 24.9599H14.6562L10.8363 24.5646C10.7811 24.5589 10.7275 24.5422 10.6787 24.5156C10.6299 24.489 10.5867 24.453 10.5517 24.4096C10.5167 24.3661 10.4905 24.3162 10.4746 24.2626C10.4588 24.209 10.4535 24.1527 10.4592 24.0971C10.4649 24.0414 10.4814 23.9874 10.5078 23.9382C10.5342 23.889 10.57 23.8455 10.613 23.8102C10.6561 23.7749 10.7057 23.7485 10.7588 23.7325C10.812 23.7165 10.8678 23.7112 10.923 23.717L14.7429 24.1142C14.8513 24.1245 14.9516 24.1766 15.0228 24.2597C15.094 24.3427 15.1306 24.4503 15.125 24.5599C15.1194 24.6695 15.072 24.7727 14.9927 24.848C14.9135 24.9232 14.8084 24.9647 14.6995 24.9637V24.9599Z" fill="#D06225"/>
<path d="M10.8778 26.9955C10.7717 26.9921 10.6708 26.9487 10.5951 26.8737C10.5194 26.7987 10.4745 26.6978 10.4692 26.591C10.464 26.4841 10.4989 26.3792 10.5669 26.2971C10.6349 26.215 10.7311 26.1617 10.8363 26.1479L14.6562 25.7507C14.7642 25.7452 14.8701 25.7817 14.9522 25.8527C15.0343 25.9236 15.0863 26.0236 15.0974 26.1321C15.1085 26.2405 15.0779 26.3491 15.012 26.4355C14.946 26.5219 14.8497 26.5795 14.7429 26.5964L10.923 26.9936L10.8778 26.9955Z" fill="#D06225"/>
<path d="M25.42 24.9601C25.3113 24.9605 25.2066 24.9187 25.1277 24.8433C25.0489 24.7679 25.0019 24.6647 24.9965 24.5553C24.9912 24.4458 25.0279 24.3385 25.0991 24.2557C25.1702 24.1729 25.2703 24.1209 25.3785 24.1105L29.1984 23.7133C29.3099 23.702 29.4213 23.7358 29.5081 23.8072C29.5949 23.8787 29.65 23.982 29.6612 24.0944C29.6725 24.2068 29.639 24.3191 29.5681 24.4066C29.4972 24.4941 29.3947 24.5496 29.2832 24.561L25.4634 24.9563L25.42 24.9601Z" fill="#D06225"/>
<path d="M29.2417 26.9955H29.1984L25.3823 26.5964C25.3248 26.5939 25.2685 26.5795 25.2168 26.5543C25.165 26.5291 25.1189 26.4934 25.0813 26.4496C25.0437 26.4058 25.0154 26.3547 24.998 26.2994C24.9807 26.2441 24.9747 26.1859 24.9805 26.1282C24.9863 26.0706 25.0037 26.0147 25.0317 25.9641C25.0596 25.9134 25.0975 25.8691 25.1431 25.8337C25.1887 25.7984 25.2409 25.7728 25.2966 25.7585C25.3523 25.7442 25.4104 25.7415 25.4671 25.7507L29.287 26.1479C29.3922 26.1617 29.4884 26.215 29.5564 26.2971C29.6244 26.3792 29.6593 26.4841 29.654 26.591C29.6488 26.6978 29.6039 26.7987 29.5282 26.8737C29.4525 26.9487 29.3516 26.9921 29.2455 26.9955H29.2417Z" fill="#D06225"/>
</svg>
