<svg width="44" height="53" viewBox="0 0 44 53" fill="none" xmlns="http://www.w3.org/2000/svg">
<path fill-rule="evenodd" clip-rule="evenodd" d="M1.24446 17.984C1.24446 17.984 -1.15296 2.48715 2.60289 0.71869C6.44169 -1.08713 12.5722 7.62026 12.5722 7.62026L1.24446 17.984Z" fill="#EDAE5D"/>
<path d="M1.24447 18.4615C1.19076 18.4618 1.13741 18.4527 1.08685 18.4345C1.0051 18.4059 0.932614 18.3557 0.877106 18.2892C0.821598 18.2227 0.78514 18.1423 0.771613 18.0567C0.52067 16.4336 -1.56569 2.15301 2.39963 0.286988C6.54744 -1.66621 12.7028 6.97684 12.9621 7.34423C13.0276 7.43885 13.0567 7.55396 13.0442 7.66839C13.0316 7.78281 12.9781 7.88884 12.8936 7.96693L1.56594 18.3307C1.47899 18.4131 1.36423 18.4598 1.24447 18.4615ZM3.73316 0.951199C3.41053 0.950136 3.09172 1.02104 2.7999 1.15876C0.163964 2.40416 0.933384 12.3113 1.58044 17.0272L11.9293 7.5601C10.2929 5.32046 6.4728 0.951199 3.73939 0.951199H3.73316Z" fill="#1B1529"/>
<path fill-rule="evenodd" clip-rule="evenodd" d="M42.7558 17.984C42.7558 17.984 45.1533 2.48715 41.3974 0.71869C37.5586 -1.08713 31.4281 7.62026 31.4281 7.62026L42.7558 17.984Z" fill="#EDAE5D"/>
<path d="M42.7558 18.4615C42.6364 18.4613 42.5212 18.4169 42.4323 18.337L31.1067 7.97318C31.0222 7.89508 30.9687 7.78906 30.9562 7.67464C30.9436 7.56021 30.9727 7.44509 31.0383 7.35048C31.2975 6.98309 37.4487 -1.66204 41.5986 0.293235C45.566 2.16133 43.4796 16.4398 43.2287 18.063C43.2152 18.1486 43.1787 18.2289 43.1232 18.2954C43.0677 18.3619 42.9952 18.4122 42.9135 18.4407C42.8625 18.4568 42.8092 18.4638 42.7558 18.4615ZM32.0648 7.55389L42.4116 17.021C43.0566 12.3051 43.8301 2.39173 41.1942 1.15256C38.4753 -0.126049 33.9044 5.05272 32.0648 7.55389Z" fill="#1B1529"/>
<path fill-rule="evenodd" clip-rule="evenodd" d="M0.962427 51.9398H43.3199C43.3199 51.9398 43.5273 27.2394 43.3199 22.0503C43.0711 15.7444 39.3795 7.31308 31.0009 6.37073C20.059 5.14817 13.8746 5.99504 10.1892 7.12627C6.50391 8.25751 0.993543 11.8173 0.68453 21.4483C0.340262 32.3539 0.962427 51.9398 0.962427 51.9398Z" fill="white"/>
<path fill-rule="evenodd" clip-rule="evenodd" d="M11.9744 22.3767C11.8775 19.202 14.6219 18.5221 15.739 19.95C16.7339 21.225 16.7002 24.5441 15.035 25.2198C13.4794 25.8531 12.0419 24.5505 11.9744 22.3767Z" fill="#1B1529"/>
<path fill-rule="evenodd" clip-rule="evenodd" d="M28.8432 22.3767C28.7463 19.202 31.4906 18.5221 32.6078 19.95C33.6048 21.225 33.5689 24.5441 31.9038 25.2198C30.3503 25.8531 28.9107 24.5505 28.8432 22.3767Z" fill="#1B1529"/>
<path d="M0.962414 52.4173C0.838381 52.4173 0.719212 52.369 0.630163 52.2826C0.541114 52.1962 0.489179 52.0785 0.485405 51.9544C0.485405 51.7572 -0.136755 32.2356 0.213736 21.4276C0.558004 10.7255 7.21109 7.54147 10.0544 6.66761C15.0048 5.1503 22.0707 4.89085 31.059 5.89547C34.9828 6.33551 38.2865 8.42362 40.6176 11.9336C42.5007 14.7731 43.6621 18.4532 43.8031 22.0317C44.0105 27.1751 43.8031 51.6949 43.8031 51.944C43.802 52.0699 43.7513 52.1903 43.662 52.2789C43.5726 52.3675 43.452 52.4173 43.3262 52.4173C43.2634 52.417 43.2014 52.4043 43.1436 52.3799C43.0858 52.3555 43.0334 52.3199 42.9894 52.2751C42.9455 52.2303 42.9108 52.1773 42.8875 52.119C42.8641 52.0608 42.8525 51.9985 42.8533 51.9357C42.8533 51.6887 43.0607 27.1897 42.8533 22.069C42.5837 15.348 38.7573 7.7179 30.9532 6.83782C22.0955 5.84773 15.1583 6.09473 10.3344 7.57468C7.68601 8.38626 1.49333 11.3648 1.16773 21.4505C0.821386 32.2211 1.4332 51.7198 1.43942 51.9149C1.44334 52.0418 1.39685 52.165 1.31016 52.2576C1.22347 52.3502 1.10363 52.4046 0.97692 52.4089L0.962414 52.4173Z" fill="#1B1529"/>
<path d="M11.8733 16.6765C11.8012 16.6763 11.7302 16.6592 11.6659 16.6267C11.555 16.5724 11.4697 16.4769 11.4283 16.3605C11.3868 16.2442 11.3924 16.1162 11.444 16.004C11.6495 15.6181 11.9457 15.2881 12.307 15.0422C12.6682 14.7963 13.0838 14.642 13.5179 14.5925C14.6295 14.4659 15.6188 15.0429 15.9796 16.0268C16.0233 16.1457 16.0181 16.2771 15.965 16.3921C15.9119 16.5072 15.8153 16.5964 15.6965 16.6401C15.5777 16.6839 15.4464 16.6786 15.3315 16.6255C15.2165 16.5724 15.1274 16.4757 15.0837 16.3568C14.8763 15.7839 14.3018 15.4664 13.6319 15.5432C13.3581 15.5737 13.0954 15.6691 12.8657 15.8214C12.636 15.9738 12.4458 16.1786 12.3109 16.4191C12.2691 16.4985 12.206 16.5647 12.1287 16.6102C12.0514 16.6557 11.9629 16.6786 11.8733 16.6765Z" fill="#1B1529"/>
<path d="M33.1372 16.6784C33.0472 16.6785 32.959 16.6533 32.8827 16.6055C32.8065 16.5578 32.7451 16.4896 32.7058 16.4086C32.5715 16.1681 32.3817 15.9631 32.1523 15.8107C31.9229 15.6584 31.6604 15.5631 31.3868 15.5327C30.7128 15.4538 30.1425 15.7734 29.9351 16.3463C29.8913 16.4652 29.8022 16.5619 29.6873 16.615C29.5723 16.6681 29.441 16.6734 29.3222 16.6296C29.2034 16.5859 29.1068 16.4967 29.0538 16.3816C29.0007 16.2666 28.9954 16.1352 29.0391 16.0163C29.4 15.0324 30.3892 14.4554 31.5009 14.582C31.9349 14.6315 32.3505 14.7858 32.7118 15.0317C33.0731 15.2776 33.3692 15.6076 33.5748 15.9935C33.6019 16.05 33.6176 16.1114 33.6211 16.174C33.6245 16.2366 33.6155 16.2994 33.5947 16.3585C33.5739 16.4177 33.5417 16.4722 33.4998 16.5189C33.458 16.5656 33.4073 16.6036 33.3508 16.6307C33.2841 16.6626 33.2111 16.6789 33.1372 16.6784Z" fill="#1B1529"/>
<path fill-rule="evenodd" clip-rule="evenodd" d="M4.47354 28.3811C4.37192 26.3739 6.54747 25.2178 8.22318 25.7782C9.8989 26.3386 10.4547 27.5695 9.94659 29.3068C9.28294 31.5672 4.65812 32.0301 4.47354 28.3811Z" fill="#FE7D7B"/>
<path fill-rule="evenodd" clip-rule="evenodd" d="M33.8754 28.3811C33.7737 26.3739 35.9493 25.2178 37.6229 25.7782C39.2966 26.3386 39.8544 27.5695 39.3484 29.3068C38.6847 31.5672 34.0579 32.0301 33.8754 28.3811Z" fill="#FE7D7B"/>
<path d="M22.0728 31.4468C21.9462 31.4468 21.8249 31.3965 21.7355 31.3069C21.646 31.2174 21.5957 31.096 21.5957 30.9694V27.6483C21.5957 27.5217 21.646 27.4003 21.7355 27.3107C21.8249 27.2212 21.9462 27.1709 22.0728 27.1709C22.1993 27.1709 22.3206 27.2212 22.41 27.3107C22.4995 27.4003 22.5497 27.5217 22.5497 27.6483V30.9694C22.5497 31.096 22.4995 31.2174 22.41 31.3069C22.3206 31.3965 22.1993 31.4468 22.0728 31.4468Z" fill="#1B1529"/>
<path fill-rule="evenodd" clip-rule="evenodd" d="M19.105 27.1293C18.993 25.9172 20.142 25.2135 21.8654 25.2135C23.8148 25.2135 24.8311 25.8134 24.8974 26.7495C24.9783 27.8828 23.9994 28.6321 22.1723 28.6736C19.9864 28.7234 19.2066 28.2274 19.105 27.1293Z" fill="#1B1529"/>
<path fill-rule="evenodd" clip-rule="evenodd" d="M15.513 34.6038C16.0812 31.7207 18.6612 29.863 22.0002 29.9419C25.3392 30.0207 28.1141 32.4617 28.4687 35.2203C28.6885 36.9472 29.1448 43.1908 21.855 43.0663C14.7477 42.9542 15.0878 36.75 15.513 34.6038Z" fill="#B02F10"/>
<mask id="mask0_17_3661" style="mask-type:luminance" maskUnits="userSpaceOnUse" x="15" y="29" width="14" height="15">
<path d="M15.513 34.6038C16.0812 31.7207 18.6612 29.863 22.0002 29.9419C25.3392 30.0207 28.1141 32.4617 28.4687 35.2203C28.6885 36.9472 29.1448 43.1908 21.855 43.0663C14.7477 42.9542 15.0878 36.75 15.513 34.6038Z" fill="white"/>
</mask>
<g mask="url(#mask0_17_3661)">
<path fill-rule="evenodd" clip-rule="evenodd" d="M16.0252 31.3305C16.0252 31.3305 16.4234 33.894 17.2198 33.9396C18.0162 33.9853 18.0037 30.9673 18.0037 30.9673L16.0252 31.3305Z" fill="white"/>
<path d="M17.2364 34.4192H17.1887C16.1517 34.3611 15.7203 32.5075 15.5482 31.4074C15.5289 31.2843 15.5584 31.1586 15.6305 31.0569C15.7026 30.9553 15.8115 30.886 15.934 30.8636L17.9145 30.4983C17.9835 30.486 18.0543 30.4889 18.122 30.5069C18.1897 30.5248 18.2527 30.5573 18.3065 30.6021C18.3601 30.6467 18.4033 30.7025 18.4331 30.7656C18.4628 30.8288 18.4784 30.8976 18.4786 30.9674C18.4786 31.5673 18.4351 33.5744 17.7901 34.1888C17.6423 34.3345 17.4438 34.4171 17.2364 34.4192ZM16.581 31.7209C16.7448 32.4826 16.9958 33.1904 17.2032 33.4125C17.3504 33.1344 17.4769 32.3747 17.5184 31.5444L16.581 31.7209Z" fill="#1B1529"/>
<path fill-rule="evenodd" clip-rule="evenodd" d="M28.1203 31.8265C28.1203 31.8265 27.1124 34.2177 26.3305 34.0682C25.5486 33.9188 26.1418 31.3325 26.1418 31.3325L28.1203 31.8265Z" fill="white"/>
<path d="M26.401 34.5541C26.2588 34.5529 26.1191 34.5159 25.9948 34.4467C25.8705 34.3774 25.7656 34.278 25.6896 34.1577C25.2189 33.4353 25.5611 31.7312 25.6772 31.2248C25.6915 31.163 25.718 31.1047 25.7551 31.0534C25.7922 31.002 25.8391 30.9585 25.8932 30.9254C25.9472 30.8924 26.0073 30.8705 26.0699 30.8609C26.1325 30.8514 26.1964 30.8544 26.2579 30.8698L28.2364 31.3638C28.3032 31.3803 28.3656 31.4111 28.4193 31.4541C28.473 31.4972 28.5167 31.5513 28.5475 31.6129C28.5782 31.6749 28.5952 31.7427 28.5973 31.8119C28.5995 31.881 28.5867 31.9498 28.5599 32.0135C28.1514 32.9911 27.3508 34.5541 26.401 34.5541ZM26.513 31.918C26.3927 32.6341 26.3657 33.3191 26.457 33.5786C26.6892 33.4416 27.0999 32.8458 27.4441 32.1588L26.513 31.918Z" fill="#1B1529"/>
<path fill-rule="evenodd" clip-rule="evenodd" d="M13.0865 40.5755C13.0865 40.5755 14.7021 36.2021 20.8097 35.7143C26.9174 35.2266 30.0511 38.7573 30.7085 41.1463C28.3349 43.4492 25.1566 44.7332 21.8508 44.7248C16.3446 44.675 13.13 41.7504 13.0865 40.5755Z" fill="#FE7D7B"/>
<path d="M21.9587 45.2021H21.8425C16.2139 45.1523 12.6634 42.1882 12.6054 40.592C12.6035 40.5299 12.6134 40.4679 12.6344 40.4094C12.7049 40.2205 14.4304 35.7433 20.7683 35.2389C27.1061 34.7345 30.4493 38.4188 31.1648 41.0196C31.1864 41.0979 31.1877 41.1803 31.1684 41.2592C31.1492 41.338 31.1101 41.4106 31.0548 41.47C28.6247 43.8531 25.3609 45.1922 21.9587 45.2021ZM13.5718 40.6356C13.7792 41.4659 16.5064 44.1933 21.8508 44.2411H21.9566C26.3989 44.2411 29.3978 41.7212 30.161 41.003C29.3812 38.7343 26.3761 35.7454 20.8429 36.1854C15.5814 36.6109 13.8704 39.9901 13.5759 40.6398L13.5718 40.6356Z" fill="#1B1529"/>
</g>
<path d="M22.0707 43.5458H21.8467C19.3455 43.5022 17.4728 42.73 16.2803 41.2625C14.3661 38.888 14.8493 35.5047 15.036 34.5229C15.6353 31.4841 18.3397 29.4728 21.7948 29.4728H22.0022C25.4905 29.5517 28.535 32.0549 28.9332 35.1684C29.1303 36.7106 29.2008 39.5875 27.4462 41.5469C26.2641 42.8712 24.4474 43.5458 22.0707 43.5458ZM21.7948 30.4172C18.769 30.4172 16.4981 32.0777 15.9879 34.6972C15.8635 35.3199 15.3325 38.5455 17.0248 40.6481C18.0328 41.8935 19.6608 42.5494 21.8654 42.5868C24.0699 42.6242 25.7104 42.0575 26.7453 40.9014C28.2447 39.2263 28.1721 36.6608 27.9896 35.2826C27.6557 32.6693 24.9617 30.4878 21.9856 30.4193L21.7948 30.4172Z" fill="#1B1529"/>
<path d="M16.1704 28.1092H16.1206L11.9189 27.6754C11.8014 27.6569 11.6955 27.594 11.6229 27.4996C11.5504 27.4053 11.5167 27.2867 11.529 27.1682C11.5412 27.0498 11.5983 26.9406 11.6886 26.8631C11.7789 26.7856 11.8955 26.7457 12.0143 26.7517L16.216 27.1834C16.3351 27.1947 16.4452 27.2515 16.5234 27.342C16.6017 27.4324 16.6421 27.5496 16.6362 27.6692C16.6303 27.7887 16.5787 27.9013 16.4919 27.9837C16.4051 28.066 16.29 28.1117 16.1704 28.1112V28.1092Z" fill="#EDAE5D"/>
<path d="M11.9666 30.3322C11.8498 30.329 11.7385 30.2818 11.6549 30.2001C11.5713 30.1184 11.5216 30.0082 11.5155 29.8914C11.5095 29.7746 11.5477 29.6599 11.6225 29.57C11.6972 29.4801 11.803 29.4217 11.9189 29.4065L16.1206 28.9727C16.1814 28.9664 16.2428 28.9722 16.3013 28.9896C16.3598 29.0071 16.4143 29.0359 16.4616 29.0745C16.509 29.113 16.5483 29.1605 16.5774 29.2143C16.6064 29.2681 16.6246 29.327 16.6308 29.3878C16.6371 29.4486 16.6313 29.51 16.6139 29.5686C16.5964 29.6271 16.5676 29.6817 16.5291 29.7291C16.4906 29.7765 16.4431 29.8159 16.3894 29.8449C16.3357 29.874 16.2768 29.8921 16.216 29.8984L12.0143 30.3301L11.9666 30.3322Z" fill="#EDAE5D"/>
<path d="M27.973 28.1091C27.8533 28.1101 27.7377 28.0648 27.6505 27.9827C27.5633 27.9005 27.5112 27.7878 27.5051 27.6681C27.4989 27.5483 27.5392 27.4309 27.6175 27.3402C27.6958 27.2495 27.8061 27.1925 27.9253 27.1813L32.1271 26.7495C32.1894 26.7397 32.253 26.7427 32.3142 26.7583C32.3753 26.774 32.4326 26.8019 32.4826 26.8404C32.5326 26.8789 32.5742 26.9272 32.6049 26.9823C32.6357 27.0374 32.6548 27.0982 32.6613 27.161C32.6678 27.2238 32.6615 27.2873 32.6426 27.3476C32.6238 27.4078 32.5929 27.4636 32.5519 27.5115C32.5108 27.5594 32.4604 27.5985 32.4038 27.6263C32.3472 27.6541 32.2855 27.6701 32.2225 27.6732L28.0207 28.107L27.973 28.1091Z" fill="#EDAE5D"/>
<path d="M32.1665 30.3322H32.1208L27.9191 29.9005C27.7964 29.8878 27.6838 29.8269 27.606 29.7312C27.5283 29.6354 27.4917 29.5126 27.5043 29.3899C27.517 29.2671 27.5778 29.1544 27.6735 29.0766C27.7692 28.9987 27.8918 28.9621 28.0145 28.9747L32.2162 29.4086C32.332 29.4237 32.4378 29.4819 32.5126 29.5716C32.5874 29.6612 32.6258 29.7758 32.62 29.8925C32.6143 30.0092 32.5648 30.1194 32.4816 30.2013C32.3983 30.2831 32.2873 30.3306 32.1706 30.3343L32.1665 30.3322Z" fill="#EDAE5D"/>
</svg>
