<svg width="55" height="50" viewBox="0 0 55 50" fill="none" xmlns="http://www.w3.org/2000/svg">
<path fill-rule="evenodd" clip-rule="evenodd" d="M8.25686 17.0532C8.25686 17.0532 5.98312 2.35858 9.54518 0.683638C13.1859 -1.0287 19.0001 7.22595 19.0001 7.22595L8.25686 17.0532Z" fill="#EDAE5D"/>
<path d="M8.25687 17.5057C8.20591 17.5062 8.15529 17.4976 8.10738 17.4802C8.02963 17.4534 7.96066 17.4059 7.90796 17.3428C7.85525 17.2796 7.82083 17.2033 7.80841 17.1219C7.57042 15.5848 5.59171 2.04155 9.35244 0.272131C13.2862 -1.57995 19.124 6.61566 19.3699 6.96403C19.4324 7.0536 19.4603 7.16287 19.4484 7.27149C19.4365 7.38011 19.3855 7.48067 19.305 7.55449L8.55584 17.3877C8.47399 17.4623 8.36761 17.5043 8.25687 17.5057ZM10.6172 0.903941C10.3112 0.902867 10.0088 0.970107 9.73205 1.10076C7.23211 2.28168 7.96183 11.6759 8.57551 16.1497L18.3904 7.17267C16.8385 5.04504 13.2154 0.903941 10.6231 0.903941H10.6172Z" fill="#1B1529"/>
<path fill-rule="evenodd" clip-rule="evenodd" d="M47.6264 17.0532C47.6264 17.0532 49.9002 2.35858 46.3361 0.683638C42.6974 -1.0287 36.8832 7.22595 36.8832 7.22595L47.6264 17.0532Z" fill="#EDAE5D"/>
<path d="M47.6264 17.5057C47.5131 17.5055 47.4038 17.4635 47.3196 17.3877L36.5783 7.56039C36.4978 7.48657 36.4468 7.38598 36.4349 7.27737C36.423 7.16875 36.4509 7.0595 36.5134 6.96993C36.7593 6.61959 42.5911 -1.57798 46.5289 0.278035C50.2916 2.04942 48.3109 15.5907 48.0729 17.1278C48.0605 17.2089 48.0263 17.285 47.9739 17.3481C47.9216 17.4111 47.8532 17.4589 47.7759 17.4861C47.7276 17.5011 47.677 17.5078 47.6264 17.5057ZM37.487 7.16478L47.3039 16.1477C47.9156 11.6739 48.6492 2.2738 46.1473 1.09878C43.5667 -0.119534 39.2395 4.79113 37.487 7.16478Z" fill="#1B1529"/>
<path fill-rule="evenodd" clip-rule="evenodd" d="M7.98936 49.2509H48.1654C48.1654 49.2509 48.3621 25.8292 48.1654 20.9087C47.9293 14.9293 44.4381 6.93449 36.482 6.04289C26.1046 4.88165 20.2393 5.68468 16.7441 6.75735C13.2489 7.83002 8.0228 11.2055 7.72973 20.338C7.39929 30.6789 7.98936 49.2509 7.98936 49.2509Z" fill="white"/>
<path d="M7.98937 49.7035C7.87154 49.7036 7.7583 49.6579 7.67353 49.576C7.58876 49.4941 7.53909 49.3825 7.53501 49.2646C7.53501 49.0796 6.94494 30.5667 7.27931 20.3202C7.60582 10.1701 13.9157 7.15092 16.6123 6.32428C21.3073 4.88552 28.0085 4.63753 36.5331 5.59211C40.2545 6.0074 43.3878 7.98741 45.5966 11.3156C47.3845 14.0081 48.486 17.4978 48.6197 20.891C48.8164 25.7682 48.6197 49.0206 48.6197 49.2548C48.6197 49.3748 48.5721 49.49 48.4872 49.5749C48.4024 49.6598 48.2873 49.7075 48.1674 49.7075C48.0474 49.7075 47.9323 49.6598 47.8475 49.5749C47.7626 49.49 47.715 49.3748 47.715 49.2548C47.715 49.0206 47.9117 25.7898 47.715 20.9343C47.4632 14.5612 43.8244 7.32609 36.4328 6.49945C28.0321 5.56061 21.4528 5.79681 16.8778 7.19817C14.3661 7.96774 8.49289 10.7921 8.18409 20.3556C7.85562 30.5686 8.43585 49.058 8.44175 49.243C8.44385 49.3026 8.43416 49.362 8.41322 49.4179C8.39229 49.4737 8.36053 49.5249 8.31977 49.5684C8.27901 49.612 8.23005 49.647 8.17571 49.6715C8.12137 49.6961 8.06272 49.7096 8.00314 49.7114L7.98937 49.7035Z" fill="#1B1529"/>
<path d="M35.4749 33.5159C35.4066 33.5153 35.3393 33.4992 35.2782 33.4686L27.981 29.8366L21.5374 32.8505C21.4829 32.8798 21.423 32.8977 21.3614 32.9031C21.2998 32.9084 21.2377 32.9011 21.179 32.8816C21.1203 32.8621 21.0662 32.8308 21.02 32.7897C20.9738 32.7485 20.9365 32.6984 20.9104 32.6423C20.8842 32.5862 20.8698 32.5253 20.868 32.4635C20.8661 32.4016 20.877 32.34 20.8997 32.2824C20.9225 32.2249 20.9568 32.1726 21.0005 32.1288C21.0442 32.085 21.0964 32.0506 21.1538 32.0276L27.798 28.9232C27.8594 28.8936 27.9266 28.8782 27.9947 28.8782C28.0629 28.8782 28.1301 28.8936 28.1914 28.9232L35.6853 32.6635C35.7764 32.7087 35.8495 32.7833 35.893 32.8752C35.9365 32.9672 35.9478 33.0711 35.9251 33.1702C35.9024 33.2694 35.847 33.358 35.7678 33.4218C35.6886 33.4855 35.5903 33.5208 35.4887 33.5218L35.4749 33.5159Z" fill="#1B1529"/>
<path fill-rule="evenodd" clip-rule="evenodd" d="M24.1436 31.1277C24.1436 31.1277 23.701 39.4533 25.0975 42.0533C26.494 44.6533 30.6973 44.1986 31.2952 41.8899C31.8932 39.5812 32.257 31.4584 32.257 31.4584L27.983 29.3347L24.1436 31.1277Z" fill="#B02F10"/>
<mask id="mask0_15_2285" style="mask-type:luminance" maskUnits="userSpaceOnUse" x="24" y="29" width="9" height="15">
<path d="M24.1436 31.1277C24.1436 31.1277 23.701 39.4533 25.0975 42.0533C26.494 44.6533 30.6973 44.1986 31.2952 41.8899C31.8932 39.5812 32.257 31.4584 32.257 31.4584L27.983 29.3347L24.1436 31.1277Z" fill="white"/>
</mask>
<g mask="url(#mask0_15_2285)">
<path fill-rule="evenodd" clip-rule="evenodd" d="M23.6145 41.6615C23.6145 41.6615 24.7061 37.3138 28.1678 37.3315C31.6296 37.3492 33.0654 41.7737 33.0654 41.7737C33.0654 41.7737 32.2275 45.3066 28.4058 45.3283C24.5841 45.3499 23.6145 41.6615 23.6145 41.6615Z" fill="#FE7D7B"/>
<path d="M28.3724 45.7751C24.2753 45.7751 23.1876 41.8171 23.1758 41.7757C23.1572 41.7021 23.1572 41.625 23.1758 41.5513C23.223 41.3545 24.3933 36.871 28.1541 36.871H28.1678C31.9148 36.8828 33.4332 41.4352 33.4962 41.6281C33.522 41.7077 33.5254 41.7928 33.506 41.8741C33.506 41.9115 32.5383 45.7515 28.4078 45.7751H28.3724ZM24.0944 41.6576C24.2911 42.2481 25.308 44.8698 28.3803 44.8698H28.4117C31.4742 44.852 32.4164 42.38 32.5993 41.7856C32.3416 41.1006 30.9569 37.7862 28.1737 37.7783H28.1619C25.3866 37.7783 24.2911 41.0042 24.0944 41.6576Z" fill="#1B1529"/>
<path fill-rule="evenodd" clip-rule="evenodd" d="M24.9893 29.9743C24.9893 29.9743 25.5027 32.2185 26.1695 32.1397C26.8363 32.061 26.5629 29.3306 26.5629 29.3306L24.9893 29.9743Z" fill="white"/>
<path d="M26.136 32.5987C25.2588 32.5987 24.7592 31.0238 24.5487 30.075C24.5249 29.9704 24.5389 29.8608 24.5882 29.7657C24.6376 29.6705 24.7191 29.5959 24.8182 29.5553L26.3917 28.9135C26.4555 28.889 26.5239 28.8791 26.592 28.8845C26.6601 28.89 26.7261 28.9106 26.7851 28.945C26.8457 28.981 26.8971 29.0308 26.935 29.0903C26.9729 29.1498 26.9964 29.2173 27.0034 29.2875C27.2178 31.3979 26.9523 32.5101 26.2167 32.5928L26.136 32.5987ZM25.5263 30.2364C25.6445 30.7056 25.8286 31.1556 26.0731 31.5731C26.166 31.0483 26.193 30.514 26.1537 29.9825L25.5263 30.2364Z" fill="#1B1529"/>
<path fill-rule="evenodd" clip-rule="evenodd" d="M30.4652 29.3347C30.4652 29.3347 29.8515 32.2541 30.5281 32.4076C31.2047 32.5612 32.257 30.2737 32.257 30.2737L30.4652 29.3347Z" fill="white"/>
<path d="M30.5852 32.878C30.5301 32.8783 30.4753 32.8717 30.4219 32.8583C29.6843 32.693 29.5486 31.4803 30.0167 29.2499C30.0308 29.1813 30.0607 29.1169 30.1041 29.0618C30.1474 29.0067 30.203 28.9625 30.2664 28.9327C30.3298 28.9029 30.3992 28.8883 30.4693 28.89C30.5393 28.8918 30.6079 28.9099 30.6697 28.9429L32.4596 29.8819C32.5616 29.9365 32.6389 30.0281 32.6755 30.138C32.712 30.2478 32.7052 30.3675 32.6563 30.4724C32.1587 31.5827 31.3877 32.878 30.5852 32.878ZM30.7936 30.0315C30.6638 30.8189 30.6206 31.5709 30.6855 31.9016C30.9254 31.7048 31.3149 31.1142 31.6493 30.4803L30.7936 30.0315Z" fill="#1B1529"/>
</g>
<path d="M28.2387 44.2734C26.7261 44.2734 25.3729 43.5216 24.6982 42.2678C23.2565 39.5871 23.6715 31.4427 23.6892 31.1022C23.6928 31.0189 23.719 30.9382 23.7651 30.8688C23.8112 30.7995 23.8754 30.744 23.9508 30.7085L27.7882 28.9155C27.8496 28.8859 27.9168 28.8705 27.9849 28.8705C28.053 28.8705 28.1203 28.8859 28.1816 28.9155L32.4557 31.0431C32.5346 31.0821 32.6005 31.1433 32.6452 31.2191C32.6899 31.295 32.7116 31.3823 32.7075 31.4702C32.6917 31.8029 32.3357 39.6639 31.724 41.9923C31.4132 43.1909 30.2882 44.0471 28.7874 44.2282C28.6055 44.2535 28.4223 44.2687 28.2387 44.2734ZM24.5841 31.421C24.5251 32.8618 24.3127 39.6363 25.4968 41.8388C26.199 43.1456 27.6604 43.4645 28.6891 43.3385C29.7945 43.2067 30.6442 42.5926 30.8527 41.7758C31.37 39.7859 31.7142 33.2082 31.785 31.7379L27.9731 29.8406L24.5841 31.421Z" fill="#1B1529"/>
<path d="M17.3794 24.9682C17.2693 24.9662 17.1637 24.9242 17.0822 24.8501C17.0007 24.7759 16.9489 24.6747 16.9364 24.5652C16.9239 24.4557 16.9515 24.3454 17.0142 24.2548C17.0769 24.1641 17.1703 24.0994 17.2771 24.0725L21.1893 23.165L17.8455 20.535C17.7988 20.4982 17.7597 20.4525 17.7306 20.4006C17.7015 20.3486 17.6829 20.2914 17.6759 20.2323C17.6689 20.1732 17.6735 20.1132 17.6896 20.0559C17.7058 19.9986 17.733 19.945 17.7698 19.8982C17.8066 19.8514 17.8523 19.8123 17.9042 19.7832C17.9561 19.7541 18.0132 19.7354 18.0723 19.7284C18.1314 19.7214 18.1913 19.726 18.2485 19.7422C18.3058 19.7583 18.3594 19.7856 18.4061 19.8224L22.4914 23.0371C22.5582 23.0905 22.6087 23.1617 22.6372 23.2424C22.6657 23.3231 22.671 23.4102 22.6527 23.4938C22.634 23.5772 22.5922 23.6536 22.532 23.7142C22.4717 23.7749 22.3956 23.8172 22.3124 23.8363L17.4817 24.9584C17.4481 24.9655 17.4137 24.9688 17.3794 24.9682Z" fill="#1B1529"/>
<path d="M38.1558 24.9684C38.1173 24.9688 38.079 24.9642 38.0417 24.9546L33.7322 23.8247C33.651 23.8046 33.577 23.7624 33.5183 23.7027C33.4597 23.643 33.4187 23.5682 33.3999 23.4866C33.3812 23.405 33.3854 23.3199 33.4121 23.2405C33.4388 23.1612 33.487 23.0908 33.5513 23.0373L37.2884 19.8226C37.3794 19.7443 37.4978 19.7054 37.6175 19.7144C37.7372 19.7235 37.8484 19.7797 37.9266 19.8708C38.0049 19.9619 38.0438 20.0804 38.0347 20.2002C38.0257 20.32 37.9695 20.4313 37.8785 20.5096L34.8022 23.1593L38.2718 24.0649C38.3791 24.0919 38.4727 24.1574 38.535 24.2489C38.5973 24.3404 38.6239 24.4516 38.6099 24.5614C38.5958 24.6712 38.5421 24.772 38.4587 24.8449C38.3754 24.9177 38.2684 24.9574 38.1578 24.9566L38.1558 24.9684Z" fill="#1B1529"/>
<path d="M21.8403 20.7521C21.7951 20.7521 21.7518 20.7521 21.7125 20.7521C20.2333 20.6025 18.4808 17.7757 18.4356 16.3563C18.4337 16.2969 18.4434 16.2376 18.4644 16.1819C18.4853 16.1262 18.517 16.0753 18.5577 16.0318C18.5983 15.9884 18.6471 15.9534 18.7012 15.9289C18.7554 15.9044 18.8138 15.8907 18.8732 15.8888C18.9326 15.8869 18.9918 15.8966 19.0475 15.9176C19.1031 15.9386 19.1541 15.9703 19.1974 16.011C19.2408 16.0516 19.2758 16.1004 19.3003 16.1546C19.3248 16.2088 19.3384 16.2673 19.3404 16.3268C19.3777 17.4942 20.967 19.7659 21.8029 19.8505C22.0173 19.8722 22.1806 19.6379 22.2947 19.1576C22.3085 19.0997 22.3336 19.0451 22.3685 18.9969C22.4034 18.9486 22.4474 18.9078 22.4981 18.8766C22.5488 18.8455 22.6051 18.8246 22.6639 18.8152C22.7226 18.8058 22.7826 18.8081 22.8405 18.8219C22.8983 18.8358 22.9529 18.8609 23.0011 18.8958C23.0492 18.9307 23.0901 18.9748 23.1212 19.0256C23.1523 19.0763 23.1732 19.1327 23.1826 19.1915C23.1919 19.2502 23.1896 19.3103 23.1758 19.3682C22.8965 20.5375 22.2652 20.7521 21.8403 20.7521Z" fill="#1B1529"/>
<path d="M33.9997 20.6754C33.5335 20.6754 32.794 20.4391 32.436 19.0592C32.406 18.9427 32.4235 18.8191 32.4845 18.7156C32.5456 18.612 32.6452 18.537 32.7615 18.507C32.8779 18.477 33.0014 18.4944 33.1048 18.5555C33.2083 18.6166 33.2833 18.7163 33.3133 18.8328C33.4785 19.4726 33.7224 19.7875 34.0312 19.7678C35.0461 19.7009 36.6767 17.3229 36.8045 16.2776C36.8117 16.2185 36.8305 16.1614 36.8598 16.1096C36.8891 16.0578 36.9282 16.0123 36.9751 15.9756C37.0219 15.939 37.0755 15.9119 37.1328 15.896C37.1901 15.8801 37.25 15.8756 37.309 15.8829C37.368 15.8901 37.4251 15.9089 37.4768 15.9382C37.5286 15.9675 37.5741 16.0067 37.6107 16.0536C37.6473 16.1005 37.6744 16.1541 37.6903 16.2115C37.7062 16.2688 37.7106 16.3287 37.7034 16.3878C37.546 17.6615 35.6971 20.5671 34.0902 20.6714L33.9997 20.6754Z" fill="#1B1529"/>
<path fill-rule="evenodd" clip-rule="evenodd" d="M11.3193 26.9141C11.223 25.0085 13.2764 23.912 14.8735 24.4435C16.4707 24.975 16.9919 26.1424 16.51 27.7901C15.8806 29.9358 11.4944 30.3728 11.3193 26.9141Z" fill="#FE7D7B"/>
<path fill-rule="evenodd" clip-rule="evenodd" d="M39.2041 26.9141C39.1078 25.0085 41.1612 23.912 42.7583 24.4435C44.3555 24.975 44.8747 26.1424 44.3948 27.7901C43.7634 29.9358 39.3772 30.3728 39.2041 26.9141Z" fill="#FE7D7B"/>
<path fill-rule="evenodd" clip-rule="evenodd" d="M25.1958 25.7253C25.0896 24.5757 26.1695 23.9083 27.8138 23.9103C29.6627 23.9103 30.6265 24.4772 30.6894 25.3651C30.7661 26.4399 29.8377 27.1506 28.1049 27.1899C26.0318 27.2372 25.2922 26.7765 25.1958 25.7253Z" fill="#1B1529"/>
<path fill-rule="evenodd" clip-rule="evenodd" d="M26.9149 25.719C26.9149 25.719 22.7077 34.7964 23.8347 37.2665C24.9618 39.7366 26.3681 37.1818 26.6927 34.0032C27.0172 30.8245 26.9149 25.719 26.9149 25.719Z" fill="#B9C7FA"/>
<path d="M24.8162 38.7092C24.4091 38.7092 23.882 38.4612 23.4237 37.4555C22.2435 34.8692 26.0633 26.4768 26.5038 25.5281C26.5466 25.4349 26.6198 25.3589 26.7113 25.3128C26.8029 25.2666 26.9074 25.2529 27.0078 25.2739C27.1081 25.295 27.1984 25.3495 27.2637 25.4286C27.329 25.5077 27.3656 25.6066 27.3673 25.7092C27.3673 25.7604 27.4657 30.8777 27.1431 34.0485C26.9228 36.2135 26.1596 38.4986 24.9795 38.6954C24.9255 38.704 24.8709 38.7086 24.8162 38.7092ZM26.4763 27.8585C25.2037 30.9328 23.5653 35.5857 24.2478 37.0776C24.5232 37.6798 24.7533 37.8137 24.8379 37.7999C25.2077 37.7389 25.9944 36.4025 26.2442 33.956C26.4291 32.1256 26.4724 29.622 26.4763 27.8585Z" fill="#1B1529"/>
<path fill-rule="evenodd" clip-rule="evenodd" d="M29.1867 26.463C29.1867 26.463 29.6706 33.3124 31.6984 32.4837C33.7263 31.6551 32.4537 29.9546 31.8263 28.9272C31.1988 27.8998 29.1867 26.463 29.1867 26.463Z" fill="#B9C7FA"/>
<path d="M31.3719 33.0053C31.1382 33.0027 30.9099 32.9345 30.713 32.8085C29.1946 31.8618 28.8051 27.3802 28.7461 26.4905C28.7412 26.4051 28.7605 26.3201 28.8019 26.2452C28.8432 26.1703 28.905 26.1087 28.9799 26.0675C29.0548 26.0263 29.1399 26.0072 29.2252 26.0124C29.3106 26.0176 29.3927 26.0469 29.4621 26.0969C29.5466 26.1579 31.5568 27.5986 32.2157 28.693L32.3652 28.9311C32.8373 29.6849 33.4844 30.7182 33.1776 31.6748C33.0064 32.2062 32.5678 32.6215 31.8735 32.9049C31.7143 32.9705 31.544 33.0045 31.3719 33.0053ZM29.7453 27.4569C29.9676 29.2972 30.4632 31.5902 31.1929 32.0409C31.2428 32.0749 31.3009 32.0948 31.3611 32.0986C31.4213 32.1024 31.4814 32.09 31.5352 32.0625C31.9699 31.8854 32.2334 31.6689 32.3219 31.3953C32.5009 30.8403 31.9836 30.0176 31.606 29.4114L31.4506 29.1634C31.128 28.6516 30.3727 27.9726 29.7374 27.4569H29.7453Z" fill="#1B1529"/>
<path d="M27.983 29.7879C27.866 29.788 27.7535 29.7427 27.6692 29.6616C27.5848 29.5805 27.5351 29.4698 27.5306 29.3528L27.4145 26.5535C27.4096 26.4334 27.4525 26.3163 27.5338 26.2279C27.6151 26.1395 27.7282 26.087 27.8482 26.0821C27.9682 26.0771 28.0852 26.12 28.1736 26.2014C28.2619 26.2828 28.3143 26.3961 28.3193 26.5161L28.4353 29.3154C28.4396 29.4356 28.3964 29.5526 28.315 29.641C28.2336 29.7295 28.1207 29.7823 28.0007 29.7879H27.983Z" fill="#1B1529"/>
<path d="M22.4127 26.8491H22.3655L18.3904 26.4357C18.2789 26.4181 18.1784 26.3585 18.1096 26.269C18.0408 26.1795 18.009 26.067 18.0206 25.9547C18.0322 25.8424 18.0864 25.7388 18.172 25.6653C18.2576 25.5918 18.3682 25.554 18.4808 25.5596L22.4658 25.9691C22.5787 25.9798 22.6831 26.0337 22.7573 26.1195C22.8316 26.2053 22.8699 26.3164 22.8643 26.4298C22.8587 26.5431 22.8097 26.65 22.7274 26.7281C22.6451 26.8062 22.5359 26.8495 22.4225 26.8491H22.4127Z" fill="#EDAE5D"/>
<path d="M18.4258 28.959C18.3122 28.96 18.2026 28.917 18.1199 28.8391C18.0372 28.7611 17.9878 28.6542 17.9819 28.5407C17.9761 28.4272 18.0143 28.3158 18.0886 28.2297C18.1628 28.1437 18.2674 28.0897 18.3805 28.079L22.3655 27.6676C22.4231 27.6617 22.4813 27.6671 22.5368 27.6837C22.5923 27.7003 22.6439 27.7276 22.6889 27.7642C22.7338 27.8007 22.7711 27.8458 22.7986 27.8968C22.8262 27.9478 22.8434 28.0037 22.8493 28.0613C22.8553 28.119 22.8498 28.1772 22.8332 28.2328C22.8167 28.2883 22.7894 28.34 22.7528 28.385C22.7163 28.43 22.6713 28.4673 22.6204 28.4948C22.5694 28.5224 22.5135 28.5396 22.4559 28.5456L18.471 28.955L18.4258 28.959Z" fill="#EDAE5D"/>
<path d="M33.5965 26.849C33.4829 26.85 33.3733 26.807 33.2906 26.7291C33.2079 26.6511 33.1585 26.5442 33.1527 26.4307C33.1468 26.3172 33.185 26.2057 33.2593 26.1197C33.3336 26.0337 33.4382 25.9797 33.5512 25.969L37.5362 25.5595C37.5953 25.5502 37.6557 25.5531 37.7136 25.5679C37.7716 25.5827 37.8259 25.6092 37.8733 25.6457C37.9208 25.6822 37.9602 25.728 37.9894 25.7803C38.0185 25.8326 38.0367 25.8903 38.0429 25.9498C38.049 26.0094 38.043 26.0696 38.0252 26.1267C38.0073 26.1839 37.978 26.2368 37.9391 26.2822C37.9001 26.3277 37.8524 26.3647 37.7986 26.3911C37.7449 26.4174 37.6864 26.4326 37.6267 26.4356L33.6417 26.847L33.5965 26.849Z" fill="#EDAE5D"/>
<path d="M37.5814 28.959H37.5362L33.5512 28.5475C33.4349 28.5355 33.3281 28.4778 33.2544 28.3869C33.1806 28.2961 33.1459 28.1797 33.1579 28.0633C33.1699 27.9469 33.2276 27.84 33.3183 27.7661C33.4091 27.6923 33.5254 27.6576 33.6417 27.6696L37.6267 28.081C37.7398 28.0917 37.8444 28.1457 37.9186 28.2317C37.9929 28.3177 38.0311 28.4291 38.0253 28.5427C38.0194 28.6562 37.97 28.7631 37.8873 28.841C37.8046 28.919 37.695 28.9619 37.5814 28.9609V28.959Z" fill="#EDAE5D"/>
<path fill-rule="evenodd" clip-rule="evenodd" d="M10.0605 47.7629C4.99179 49.4634 1.22123 45.7455 2.67281 40.1971C3.47334 37.1365 7.7671 30.9328 8.82726 29.7459C10.6919 27.6577 13.3983 24.9022 15.7114 24.9888C18.768 25.101 17.1473 28.0494 17.1473 28.0494C17.1473 28.0494 19.5666 26.3429 21.0358 28.443C22.3458 30.3069 19.6 31.6354 19.6 31.6354C19.6 31.6354 22.8257 31.3304 22.7372 33.6587C22.6212 36.6563 19.2106 35.4144 19.2106 35.4144C19.2106 35.4144 20.7506 37.7762 18.8998 38.9572C17.0489 40.1381 16.3428 37.0244 14.6198 37.4751C13.1013 37.855 14.1222 46.397 10.0605 47.7629Z" fill="white"/>
<path d="M7.65303 48.6231C6.21022 48.6552 4.81077 48.1285 3.74675 47.1528C2.02964 45.5468 1.47694 42.9665 2.2342 40.0673C3.07407 36.8611 7.47207 30.5687 8.48896 29.439C10.5719 27.1067 13.2803 24.4397 15.7252 24.5322C16.7441 24.5696 17.4404 24.9023 17.7905 25.5164C18.0415 26.0194 18.0996 26.5971 17.9537 27.1401C18.1138 27.0841 18.2774 27.0388 18.4435 27.0043C19.6669 26.7485 20.6897 27.148 21.4037 28.1616C21.5942 28.4079 21.7268 28.694 21.7915 28.9987C21.8562 29.3033 21.8513 29.6187 21.7774 29.9212C21.6232 30.429 21.3295 30.8833 20.9296 31.232C21.5255 31.3156 22.0848 31.5691 22.5405 31.9622C22.7666 32.179 22.9417 32.4433 23.0533 32.736C23.1649 33.0287 23.2101 33.3425 23.1857 33.6549C23.1483 34.5957 22.8198 35.2806 22.2022 35.694C21.5335 36.1427 20.672 36.1447 20.017 36.0522C20.2408 36.6184 20.3041 37.2354 20.1999 37.8353C20.1324 38.1415 20.003 38.4306 19.8197 38.6848C19.6364 38.939 19.4029 39.1529 19.1339 39.3135C17.8337 40.1421 16.9093 39.2781 16.2346 38.6463C15.6446 38.0853 15.2354 37.7546 14.724 37.8885C14.4251 38.0204 14.1753 39.6126 14.0101 40.6676C13.5734 43.4447 12.9755 47.2493 10.2002 48.1822C9.38054 48.4661 8.52032 48.615 7.65303 48.6231ZM15.6013 25.4317C13.5203 25.4317 10.9378 28.0534 9.16558 30.0393C8.21163 31.108 3.90017 37.2862 3.11144 40.3035C2.44073 42.8621 2.89901 45.1197 4.36633 46.4915C5.71366 47.7531 7.7376 48.0661 9.91693 47.3241C12.173 46.5663 12.7198 43.0767 13.121 40.5298C13.4318 38.5478 13.6383 37.239 14.4979 37.0126C15.5285 36.743 16.2681 37.4319 16.8581 37.9849C17.6292 38.7073 18.0068 38.969 18.652 38.5498C18.8192 38.4539 18.9647 38.3243 19.0792 38.1691C19.1936 38.0139 19.2746 37.8366 19.3168 37.6484C19.5135 36.7273 18.8329 35.6546 18.825 35.6448C18.7727 35.5651 18.7469 35.4709 18.7512 35.3757C18.7556 35.2805 18.7898 35.189 18.8491 35.1144C18.9084 35.0398 18.9897 34.9858 19.0815 34.9602C19.1732 34.9346 19.2707 34.9386 19.36 34.9716C19.777 35.1212 21.0103 35.4086 21.7007 34.9421C22.0645 34.6961 22.2534 34.265 22.2789 33.6234C22.2971 33.4403 22.274 33.2554 22.2113 33.0824C22.1487 32.9094 22.0481 32.7526 21.917 32.6235C21.3171 32.0528 20.0662 32.0331 19.6354 32.0685C19.5298 32.0786 19.424 32.0512 19.3365 31.9911C19.249 31.931 19.1854 31.8421 19.1568 31.7398C19.1282 31.6376 19.1365 31.5286 19.1801 31.4318C19.2237 31.335 19.2999 31.2566 19.3954 31.2104C19.7495 31.0372 20.7093 30.4231 20.8982 29.6948C20.9379 29.5195 20.9371 29.3374 20.8959 29.1625C20.8547 28.9875 20.774 28.8242 20.6602 28.6852C19.48 26.9964 17.4856 28.3545 17.401 28.4116C17.3173 28.4713 17.2157 28.5007 17.113 28.4949C17.0103 28.4892 16.9126 28.4485 16.8361 28.3798C16.7596 28.311 16.7088 28.2182 16.692 28.1166C16.6753 28.0151 16.6937 27.9109 16.7441 27.8211C16.9231 27.4944 17.3164 26.5221 16.9998 25.9631C16.8129 25.6364 16.3723 25.4593 15.6898 25.4337L15.6013 25.4317Z" fill="#1B1529"/>
<path fill-rule="evenodd" clip-rule="evenodd" d="M45.5494 47.7629C50.6181 49.4634 54.3886 45.7455 52.9371 40.1971C52.1365 37.1365 47.8428 30.9328 46.7826 29.7459C44.918 27.6577 42.2115 24.9022 39.8985 24.9888C36.8419 25.101 38.4646 28.0494 38.4646 28.0494C38.4646 28.0494 36.0433 26.3429 34.576 28.443C33.2641 30.3069 36.0118 31.6354 36.0118 31.6354C36.0118 31.6354 32.7861 31.3304 32.8648 33.6587C32.9808 36.6563 36.3915 35.4144 36.3915 35.4144C36.3915 35.4144 34.8514 37.7762 36.7003 38.9572C38.5492 40.1381 39.2572 37.0244 40.9822 37.4751C42.5085 37.855 41.4857 46.397 45.5494 47.7629Z" fill="white"/>
<path d="M47.9569 48.623C47.0864 48.6162 46.2229 48.468 45.3999 48.1841C42.6246 47.2512 42.0267 43.4467 41.59 40.6695C41.4248 39.6146 41.175 38.0223 40.8741 37.8904C40.3646 37.7546 39.9634 38.0872 39.3654 38.6482C38.6908 39.28 37.7663 40.144 36.4662 39.3154C36.1971 39.1549 35.9637 38.9409 35.7804 38.6867C35.597 38.4325 35.4676 38.1434 35.4002 37.8373C35.296 37.2374 35.3593 36.6203 35.5831 36.0541C34.9281 36.1466 34.0666 36.1446 33.3979 35.6959C32.7861 35.2825 32.4557 34.5976 32.4144 33.6588C32.3894 33.3461 32.4344 33.0318 32.5459 32.7387C32.6575 32.4455 32.833 32.1809 33.0595 31.9642C33.5153 31.571 34.0745 31.3175 34.6704 31.234C34.27 30.8858 33.9761 30.4313 33.8227 29.9231C33.7487 29.6206 33.7439 29.3053 33.8086 29.0006C33.8733 28.696 34.0059 28.4098 34.1964 28.1636C34.9104 27.1499 35.9332 26.7484 37.1468 27.0063C37.3128 27.0407 37.4764 27.0861 37.6365 27.1421C37.4907 26.599 37.5487 26.0213 37.7998 25.5183C38.1499 24.8983 38.8442 24.5657 39.865 24.5342H39.987C42.4043 24.5342 45.0537 27.1519 47.1013 29.4547C48.1182 30.5943 52.5162 36.8866 53.356 40.083C54.1133 42.9763 53.5527 45.5566 51.8435 47.1685C50.7817 48.1332 49.3907 48.6537 47.9569 48.623ZM45.693 47.324C47.8723 48.0562 49.8963 47.7531 51.2436 46.4915C52.7109 45.1137 53.1692 42.8641 52.4985 40.3034C51.7117 37.2862 47.3983 31.108 46.4443 30.0392C44.6741 28.0533 42.0896 25.4317 40.0086 25.4317H39.9181C39.2356 25.4573 38.795 25.6285 38.6082 25.9611C38.2915 26.5201 38.6849 27.4924 38.8639 27.8211C38.9143 27.9108 38.9326 28.015 38.9159 28.1166C38.8992 28.2181 38.8484 28.3109 38.7718 28.3797C38.6953 28.4485 38.5977 28.4891 38.495 28.4949C38.3923 28.5007 38.2907 28.4713 38.2069 28.4116C38.1224 28.3525 36.1358 26.9964 34.9478 28.6851C34.8339 28.8242 34.7533 28.9874 34.712 29.1624C34.6708 29.3374 34.67 29.5195 34.7098 29.6948C34.9065 30.4289 35.8584 31.0371 36.2125 31.2103C36.308 31.2566 36.3842 31.335 36.4279 31.4317C36.4715 31.5285 36.4797 31.6376 36.4511 31.7398C36.4225 31.842 36.3589 31.931 36.2714 31.9911C36.184 32.0511 36.0782 32.0785 35.9725 32.0685C35.5418 32.0291 34.2908 32.0527 33.689 32.6235C33.5585 32.753 33.4586 32.9099 33.3963 33.0828C33.3341 33.2558 33.3111 33.4404 33.329 33.6234C33.3546 34.265 33.5434 34.696 33.9073 34.9421C34.5977 35.4085 35.8309 35.1212 36.2479 34.9696C36.3374 34.9381 36.4345 34.9352 36.5258 34.9613C36.617 34.9874 36.6979 35.0412 36.7573 35.1153C36.8164 35.1898 36.8504 35.2811 36.8546 35.3762C36.8589 35.4712 36.8331 35.5652 36.7809 35.6447C36.7809 35.6546 36.0905 36.7272 36.2912 37.6483C36.3334 37.8365 36.4143 38.0139 36.5288 38.1691C36.6432 38.3243 36.7887 38.4539 36.956 38.5498C37.6011 38.9611 37.9788 38.7072 38.7498 37.9849C39.3399 37.4318 40.0775 36.743 41.1101 37.0126C41.9736 37.239 42.1801 38.5478 42.4869 40.5298C42.8803 43.0766 43.435 46.5663 45.691 47.324H45.693Z" fill="#1B1529"/>
<path fill-rule="evenodd" clip-rule="evenodd" d="M17.3794 24.4378C17.3794 24.4378 14.8224 21.9047 12.4916 22.3062C10.1608 22.7077 10.7057 25.4711 8.50076 24.6366C6.29586 23.802 4.94263 24.7094 2.30304 26.3272C-0.336548 27.9451 0.0174953 30.6002 2.30304 31.0057C4.58858 31.4111 4.34665 29.0512 5.92018 29.0375C7.4937 29.0237 8.93347 28.5001 10.3673 27.7837C11.8012 27.0673 10.6408 25.3491 12.4916 24.9416C14.3425 24.5342 17.3794 24.4378 17.3794 24.4378Z" fill="#B9C7FA"/>
<path d="M2.7987 31.4997C2.60609 31.4982 2.41396 31.4805 2.22436 31.4465C1.04422 31.2379 0.237786 30.4998 0.0430623 29.4783C-0.1969 28.2088 0.578059 26.8547 2.06701 25.9356L2.33057 25.7742C4.82068 24.2449 6.32536 23.3218 8.66204 24.1996C9.50781 24.5204 9.70057 24.2291 10.1687 23.5285C10.5798 22.9104 11.1521 22.0661 12.4149 21.8456C14.9424 21.4067 17.5859 23.993 17.698 24.1032C17.7654 24.1669 17.8114 24.2499 17.8298 24.3408C17.8481 24.4318 17.8378 24.5261 17.8003 24.611C17.7678 24.6933 17.7119 24.7644 17.6396 24.8155C17.5672 24.8665 17.4816 24.8953 17.3931 24.8983C17.3636 24.8983 14.3759 24.9889 12.588 25.3825C11.8779 25.538 11.8111 25.8686 11.6891 26.4709C11.579 27.0141 11.4295 27.7601 10.5699 28.1872C8.79972 29.067 7.37569 29.4665 5.92608 29.4882C5.48352 29.4882 5.2593 29.7677 4.89935 30.2479C4.4922 30.7872 3.95327 31.4997 2.7987 31.4997ZM6.9292 24.7724C5.69595 24.7724 4.56891 25.4612 2.7987 26.5437L2.53317 26.7071C1.15633 27.5554 0.794421 28.6025 0.926204 29.2992C1.05012 29.9546 1.57922 30.4093 2.37581 30.551C3.38877 30.7301 3.71528 30.2952 4.16766 29.6909C4.53744 29.1969 4.9977 28.5808 5.90837 28.5671C7.2144 28.5493 8.52632 28.1734 10.1589 27.3625C10.6014 27.1421 10.686 26.8232 10.7961 26.2761C10.926 25.6384 11.103 24.7665 12.3874 24.483C13.6448 24.2451 14.9171 24.0945 16.1953 24.0323C15.3062 23.369 13.8684 22.5207 12.5624 22.7451C11.6753 22.8986 11.3056 23.4517 10.9161 24.0382C10.4441 24.7468 9.85399 25.6285 8.33554 25.0538C7.88682 24.8768 7.40953 24.7834 6.92723 24.7783L6.9292 24.7724Z" fill="#1B1529"/>
<path d="M16.7401 22.2492C16.6285 22.25 16.5206 22.2093 16.4372 22.135C16.4215 22.1193 14.7418 20.6234 13.4869 19.9031C13.193 19.7443 12.8888 19.6055 12.5762 19.4878C11.516 19.0627 10.3142 18.5805 10.1589 16.4922C10.0035 14.4039 11.2603 13.4985 12.3854 13.3864C13.5105 13.2742 14.5097 13.8961 14.6218 14.8015C14.6709 15.2751 14.663 15.7528 14.5982 16.2245C14.5156 16.9744 14.5156 17.183 15.0269 17.4645C16.3782 18.2065 17.0961 21.3458 17.1748 21.7001C17.1892 21.7662 17.1886 21.8347 17.1731 21.9006C17.1575 21.9664 17.1274 22.028 17.085 22.0807C17.0425 22.1334 16.9888 22.1758 16.9277 22.205C16.8667 22.2342 16.7999 22.2493 16.7323 22.2492H16.7401ZM12.6529 14.2799C12.5959 14.277 12.5388 14.277 12.4818 14.2799C12.1159 14.3154 10.9358 14.5752 11.0715 16.4154C11.1836 17.9388 11.9133 18.2321 12.9204 18.6356C13.2736 18.768 13.6167 18.9259 13.9471 19.1079C14.6303 19.5207 15.2836 19.9811 15.9022 20.4857C15.5659 19.5016 15.0958 18.5175 14.5982 18.2419C13.536 17.6515 13.6147 16.8642 13.7052 16.1104C13.7621 15.7087 13.7707 15.3017 13.7308 14.8979C13.6855 14.5417 13.2095 14.272 12.6529 14.272V14.2799Z" fill="#1B1529"/>
<path fill-rule="evenodd" clip-rule="evenodd" d="M38.1558 24.5677C38.1558 24.5677 41.3717 20.4345 43.8303 21.5485C46.2889 22.6625 45.6005 25.7467 48.4289 25.1149C51.2574 24.4831 51.6291 24.8393 53.0905 26.7229C54.5519 28.6065 55.4764 31.8914 53.0905 32.4465C50.7047 33.0015 50.3231 30.7794 49.1724 29.6142C48.0218 28.449 46.7374 29.811 45.3252 28.8604C43.9129 27.9097 44.7567 25.3471 42.9019 24.2843C41.5664 23.5167 38.1558 24.5677 38.1558 24.5677Z" fill="#B9C7FA"/>
<path d="M52.3844 32.9856C50.9151 32.9856 50.211 31.8913 49.6307 30.9879C49.4074 30.6113 49.1471 30.2579 48.8538 29.9329C48.4329 29.5058 48.0198 29.5393 47.3294 29.6141C46.6882 29.6908 45.8936 29.7853 45.0754 29.2362C44.2571 28.687 44.0722 27.7876 43.8815 26.9078C43.6907 26.028 43.4999 25.1364 42.6797 24.6758C41.8595 24.2153 39.5326 24.6187 38.2895 25.0025C38.1973 25.0313 38.0984 25.0297 38.0071 24.9981C37.9158 24.9665 37.837 24.9065 37.7823 24.8269C37.7276 24.7473 37.6997 24.6522 37.7029 24.5556C37.706 24.459 37.74 24.3659 37.7998 24.2901C37.9394 24.109 41.2674 19.899 44.0191 21.1409C45.219 21.6802 45.7598 22.6446 46.1945 23.4181C46.7512 24.414 47.06 24.9632 48.3306 24.6778C51.395 23.9909 51.9202 24.481 53.4446 26.4492C54.5303 27.8486 55.3583 30.0234 54.843 31.476C54.7157 31.8366 54.4958 32.1574 54.2055 32.4061C53.9152 32.6548 53.5645 32.8228 53.1889 32.8931C52.9251 32.9546 52.6552 32.9856 52.3844 32.9856ZM47.9431 28.6555C48.2321 28.646 48.5199 28.6979 48.7874 28.8079C49.0549 28.9178 49.2961 29.0832 49.495 29.2932C49.8338 29.6615 50.1337 30.0639 50.3899 30.4938C51.1236 31.6334 51.6409 32.3144 52.9882 32.0015C53.2156 31.9657 53.429 31.869 53.6059 31.7218C53.7828 31.5745 53.9167 31.3821 53.9933 31.165C54.3965 30.0313 53.6452 28.1714 52.7325 26.9983C51.3557 25.2269 51.159 24.9652 48.5273 25.5536C46.5978 25.9867 45.9703 24.853 45.4019 23.8531C44.9947 23.1268 44.5718 22.377 43.6454 21.9597C42.3551 21.3811 40.6341 22.6387 39.4835 23.7704C40.6538 23.5382 42.2371 23.3768 43.1281 23.8885C44.3083 24.5597 44.5463 25.7032 44.7646 26.7149C44.9318 27.4825 45.0754 28.1438 45.5789 28.4863C46.1178 28.8484 46.6273 28.7874 47.2193 28.7165C47.4592 28.6826 47.7009 28.6629 47.9431 28.6575V28.6555Z" fill="#1B1529"/>
<path fill-rule="evenodd" clip-rule="evenodd" d="M38.5393 22.263C38.5393 22.263 38.4764 19.1021 40.6479 18.2263C42.8193 17.3504 41.411 15.396 42.4436 14.5969C43.4763 13.7978 46.1808 15.2228 45.5808 17.3366C44.9809 19.4505 43.2048 19.789 41.9362 20.0213C40.6675 20.2535 38.5393 22.263 38.5393 22.263Z" fill="#B9C7FA"/>
<path d="M38.5393 22.7155C38.4792 22.7154 38.4197 22.7033 38.3643 22.6801C38.2835 22.6465 38.2143 22.59 38.165 22.5177C38.1158 22.4453 38.0886 22.3602 38.0869 22.2727C38.0869 22.131 38.0437 18.787 40.4787 17.8068C41.4936 17.3974 41.5133 16.7715 41.5369 15.9803C41.5566 15.3781 41.5782 14.6931 42.1663 14.2385C42.8056 13.7444 43.8952 13.8448 44.8177 14.4569C45.6477 15.0198 46.4011 16.1024 46.0175 17.4604C45.3389 19.8616 43.2638 20.2415 42.0168 20.4678C41.0845 20.6371 39.4146 22.0581 38.8501 22.5915C38.7667 22.672 38.6551 22.7165 38.5393 22.7155ZM43.1852 14.825C43.0204 14.8164 42.8574 14.862 42.721 14.9549C42.481 15.1399 42.4613 15.4607 42.4436 16.0079C42.4161 16.8562 42.3807 18.0174 40.817 18.6472C39.7136 19.092 39.2769 20.2769 39.1058 21.1665C39.8768 20.5367 40.998 19.7317 41.8595 19.5743C43.0927 19.3499 44.6269 19.0704 45.1521 17.2124C45.4687 16.0905 44.5915 15.3958 44.3161 15.2088C43.9835 14.9754 43.5911 14.8422 43.1852 14.825Z" fill="#1B1529"/>
<path fill-rule="evenodd" clip-rule="evenodd" d="M47.4258 19.1926C48.2126 18.1376 48.364 14.8133 50.3899 14.3725C52.4158 13.9316 53.476 15.9175 52.4827 18.3089C51.4894 20.7003 46.8239 21.458 45.6654 20.6884C45.6654 20.6963 46.9655 19.8106 47.4258 19.1926Z" fill="#B9C7FA"/>
<path d="M47.0737 21.4362C46.4011 21.4362 45.8012 21.328 45.4176 21.0741C45.3555 21.033 45.3046 20.9771 45.2693 20.9115C45.2341 20.8459 45.2157 20.7726 45.2157 20.6981C45.2157 20.6237 45.2341 20.5503 45.2693 20.4847C45.3046 20.4191 45.3555 20.3633 45.4176 20.3222C45.7618 20.086 46.7295 19.3775 47.0698 18.9208C47.2822 18.6355 47.4632 18.0686 47.6599 17.4663C48.1162 16.0473 48.6846 14.2818 50.3014 13.9236C51.2652 13.713 52.1385 13.9748 52.6971 14.6439C53.4406 15.5336 53.5232 17.0058 52.9095 18.4839C52.2801 20.0053 50.5276 20.7414 49.5383 21.0426C48.7397 21.2908 47.9098 21.4233 47.0737 21.4362ZM46.6804 20.5151C47.556 20.5605 48.4327 20.4485 49.2688 20.1844C50.6928 19.7475 51.7137 19.0035 52.0697 18.1434C52.5516 16.9763 52.524 15.8603 51.9989 15.2324C51.6547 14.8191 51.1334 14.6754 50.4903 14.8152C49.3829 15.0553 48.9167 16.4842 48.5233 17.7439C48.2972 18.4485 48.1005 19.0567 47.7976 19.4641C47.467 19.8579 47.0907 20.2107 46.6764 20.5151H46.6804Z" fill="#1B1529"/>
<path fill-rule="evenodd" clip-rule="evenodd" d="M8.90395 19.6914C8.90395 19.6914 7.3855 15.018 5.53661 14.7699C3.68771 14.5219 2.46233 17.2169 4.24238 18.3134C6.02243 19.4099 8.90395 19.6914 8.90395 19.6914Z" fill="#B9C7FA"/>
<path d="M8.90396 20.1472H8.85872C8.73677 20.1354 5.85329 19.8402 4.00636 18.7065C3.55251 18.4401 3.2085 18.0204 3.03616 17.5229C2.86383 17.0254 2.87447 16.4827 3.06618 15.9923C3.45956 14.8724 4.50006 14.1914 5.59366 14.3331C7.66678 14.6028 9.16949 19.0568 9.33078 19.5548C9.352 19.6226 9.35703 19.6945 9.34546 19.7647C9.33388 19.8348 9.30603 19.9012 9.26414 19.9587C9.22226 20.0161 9.16749 20.0629 9.10426 20.0953C9.04102 20.1277 8.97107 20.1448 8.90003 20.1453L8.90396 20.1472ZM5.30256 15.2267C4.61414 15.2267 4.11061 15.764 3.92572 16.3013C3.80621 16.5962 3.7969 16.9242 3.8995 17.2253C4.00209 17.5265 4.20973 17.7805 4.48432 17.9408C5.62906 18.6435 7.2911 18.9978 8.23325 19.1513C7.59597 17.4842 6.4768 15.3684 5.47958 15.2385C5.42111 15.2274 5.36198 15.2202 5.30256 15.2169V15.2267Z" fill="#1B1529"/>
</svg>
