<svg width="130" height="130" viewBox="0 0 130 130" fill="none" xmlns="http://www.w3.org/2000/svg">
<circle cx="65" cy="65" r="65" fill="#EDAE5D"/>
<path d="M65.0003 81.7352C55.0754 81.7352 47 73.3394 47 63.0193C47 61.916 47.8603 61.0222 48.9208 61.0222C49.9819 61.0222 50.8415 61.9167 50.8415 63.0193C50.8422 71.1367 57.1933 77.7409 65.0003 77.7409C72.8067 77.7409 79.1585 71.1367 79.1585 63.02C79.1585 61.9167 80.0181 61.0228 81.0792 61.0228C82.1403 61.0228 83 61.9173 83 63.02C83.0006 73.3394 74.9252 81.7352 65.0003 81.7352Z" fill="white"/>
<path d="M65.0002 75.1421C58.6256 75.1421 53.4099 69.7191 53.4099 63.091V48.051C53.4099 41.423 58.6256 36 65.0002 36C71.3749 36 76.5905 41.423 76.5905 48.051V63.0904C76.5905 69.7184 71.3749 75.1421 65.0002 75.1421Z" fill="white"/>
<path d="M65.0004 93.4921C63.9393 93.4921 63.0796 92.5983 63.0796 91.495V80.2437C63.0796 79.1404 63.9399 78.2466 65.0004 78.2466C66.0615 78.2466 66.9211 79.1404 66.9211 80.2437V91.495C66.9211 92.5983 66.0615 93.4921 65.0004 93.4921Z" fill="white"/>
<path d="M71.4779 94H58.5228C57.4617 94 56.6021 93.1062 56.6021 92.0029C56.6021 90.8996 57.4623 90.0058 58.5228 90.0058H71.4773C72.5384 90.0058 73.3981 90.8996 73.3981 92.0029C73.3981 93.1062 72.539 94 71.4779 94Z" fill="white"/>
</svg>
