<svg width="64" height="66" viewBox="0 0 64 66" fill="none" xmlns="http://www.w3.org/2000/svg">
<path fill-rule="evenodd" clip-rule="evenodd" d="M24.5162 30.199C24.5162 30.199 17.9297 26.189 20.5974 19.2608C22.8188 13.487 20.9618 9.91452 20.9618 9.91452C23.8224 10.4048 24.9039 12.1217 25.6912 14.0417C25.6912 14.0417 25.2761 9.21135 27.4937 5.82247C27.9339 7.15468 28.5704 8.41345 29.382 9.55707C29.382 9.55707 29.1169 6.78543 31.2507 4.70913C33.1467 2.86331 32.151 0.460815 32.151 0.460815C32.151 0.460815 35.3098 0.869043 36.1048 4.58607C36.7518 7.60579 33.9925 8.9125 36.0269 10.7544C36.0269 10.7544 36.9798 7.70345 39.2831 7.59993C39.2831 7.59993 38.9518 9.85006 39.8677 11.3814C40.7835 12.9128 40.6472 15.4676 39.7099 16.8114C39.7099 16.8114 42.097 13.6355 44.2951 14.407C44.2951 14.407 42.7926 16.4384 43.4026 18.8838C44.0437 21.4523 45.8559 24.5736 43.5974 27.4781C41.0252 30.7967 30.7129 33.5625 24.5162 30.199Z" fill="#B02F10"/>
<path d="M31.4008 32.1796C28.8675 32.1796 26.3596 31.7108 24.3018 30.5955L24.2823 30.5838C24.2141 30.5408 17.4074 26.2866 20.1784 19.0948C22.2908 13.6042 20.5799 10.1528 20.5682 10.1099C20.5303 10.0355 20.5138 9.95218 20.5204 9.86901C20.5269 9.78584 20.5564 9.70614 20.6055 9.63874C20.6545 9.57135 20.7213 9.51891 20.7983 9.48726C20.8753 9.4556 20.9595 9.44596 21.0417 9.45942C23.1989 9.82858 24.4207 10.8658 25.2391 12.1295C25.3287 10.3716 25.7224 7.70736 27.1234 5.56464C27.17 5.49286 27.2361 5.43594 27.3139 5.40054C27.3917 5.36515 27.4779 5.35278 27.5625 5.36489C27.6471 5.377 27.7265 5.41308 27.7913 5.46889C27.856 5.5247 27.9036 5.59791 27.9283 5.67989C28.2117 6.53215 28.5765 7.35503 29.0175 8.13708C29.2367 6.70745 29.9122 5.38751 30.9428 4.37512C32.5914 2.77346 31.7768 0.706923 31.7418 0.62098C31.7121 0.547931 31.7021 0.468375 31.7127 0.390236C31.7233 0.312098 31.7542 0.238113 31.8022 0.175646C31.8496 0.11325 31.9125 0.0644966 31.9847 0.0343149C32.0569 0.00413329 32.1358 -0.00640713 32.2134 0.0037597C32.2485 0.0037597 35.6976 0.497926 36.5511 4.47864C36.8687 5.96897 36.4322 7.08037 36.0814 7.97496C35.7638 8.78751 35.5553 9.31879 35.8866 9.89109C36.3523 8.89884 37.4085 7.22295 39.2636 7.13896C39.3297 7.13626 39.3955 7.1482 39.4565 7.1739C39.5174 7.19961 39.572 7.23844 39.6162 7.28767C39.6605 7.3369 39.6935 7.3953 39.7127 7.45872C39.7319 7.52215 39.7369 7.58903 39.7274 7.65462C39.7274 7.67415 39.4331 9.76608 40.2574 11.1392C40.8732 12.1647 41.0661 13.653 40.8537 14.9949C41.828 14.2136 43.1375 13.5105 44.447 13.9714C44.5133 13.9945 44.5732 14.0329 44.6219 14.0835C44.6707 14.134 44.7069 14.1953 44.7277 14.2625C44.7463 14.3285 44.7499 14.3979 44.7381 14.4656C44.7262 14.5332 44.6994 14.5973 44.6595 14.6531C44.6458 14.6707 43.2954 16.5536 43.843 18.7549C43.9657 19.2491 44.1333 19.7667 44.3126 20.3175C45.0628 22.6165 45.9124 25.2202 43.9599 27.7398C42.0872 30.1619 36.6699 32.1796 31.4008 32.1796ZM24.7402 29.8083C30.6135 32.9863 40.7193 30.4646 43.2525 27.1949C44.9108 25.058 44.1723 22.7962 43.4591 20.6085C43.2759 20.046 43.1025 19.5147 42.9719 18.9893C42.514 17.1572 43.1356 15.5575 43.574 14.7312C41.8651 14.7312 40.0937 17.0517 40.0664 17.0751C39.9967 17.1717 39.8915 17.2366 39.774 17.2555C39.6565 17.2743 39.5364 17.2457 39.44 17.1757C39.3436 17.1058 39.2789 17.0003 39.2601 16.8826C39.2412 16.7648 39.2698 16.6444 39.3396 16.5478C40.2126 15.2899 40.2808 12.9362 39.4818 11.606C38.7862 10.4458 38.7414 8.95157 38.7804 8.12926C37.1844 8.61171 36.4576 10.8638 36.442 10.8814C36.4196 10.9533 36.3795 11.0184 36.3253 11.0707C36.2711 11.1229 36.2047 11.1606 36.1321 11.1802C36.0595 11.1997 35.9832 11.2008 35.9101 11.1834C35.837 11.166 35.7693 11.1307 35.7132 11.0806C34.3608 9.85594 34.8012 8.73672 35.228 7.64877C35.5651 6.78739 35.9158 5.89085 35.6527 4.67202C35.1539 2.32813 33.6671 1.43158 32.7746 1.09172C32.9182 1.79782 32.8811 2.52889 32.6668 3.21676C32.4525 3.90463 32.0679 4.52691 31.5489 5.02556C29.6002 6.92802 29.8126 9.48091 29.8146 9.50631C29.8244 9.60454 29.8016 9.70326 29.7498 9.78724C29.698 9.87122 29.6201 9.93575 29.5281 9.97088C29.436 10.006 29.335 10.0098 29.2406 9.98158C29.1462 9.95338 29.0637 9.89481 29.0058 9.81491C28.3526 8.90124 27.8097 7.91316 27.3885 6.87137C25.8081 9.99656 26.1199 13.9519 26.1238 13.9949C26.1337 14.1021 26.1048 14.2093 26.0424 14.297C25.98 14.3847 25.8883 14.447 25.7839 14.4726C25.6795 14.4982 25.5694 14.4853 25.4737 14.4363C25.378 14.3874 25.303 14.3055 25.2625 14.2058C24.5337 12.4284 23.6178 11.108 21.6711 10.5337C22.1134 11.9479 22.6708 15.077 21.0008 19.4151C18.5416 25.8472 24.3758 29.5837 24.7402 29.8083Z" fill="#1B1529"/>
<path fill-rule="evenodd" clip-rule="evenodd" d="M31.1923 27.5504C28.9533 27.3082 26.3206 26.982 25.9854 24.2298C25.6502 21.4777 26.8175 19.083 26.8175 19.083C26.8175 19.083 27.5756 20.296 28.0588 20.6456C27.8587 19.9932 27.795 19.3064 27.8718 18.6282C27.9486 17.9499 28.1642 17.2949 28.5051 16.704C29.1537 15.6424 29.7199 14.5322 30.1984 13.3835L30.898 15.532C30.898 15.532 32.531 11.7779 33.1 10.7661C33.1 10.7661 34.4017 14.1804 34.1952 16.1004C34.1952 16.1004 35.4579 14.1335 36.6212 13.9519C36.6212 13.9519 36.4556 16.2958 37.087 18.331C37.4705 19.4977 37.4388 20.7615 36.9973 21.9074C36.9973 21.9074 38.2523 20.0518 39.1935 19.4737C39.1935 19.4737 40.0002 22.6926 39.4 24.4877C38.7998 26.2827 34.1367 27.8726 31.1923 27.5504Z" fill="#D06225"/>
<path d="M31.9814 28.0408C31.7016 28.0413 31.422 28.0276 31.1435 27.9998C28.9435 27.7595 25.9289 27.4333 25.5392 24.2886C25.1884 21.4388 26.3635 18.9914 26.4141 18.8898C26.4495 18.8186 26.5031 18.758 26.5695 18.7143C26.6358 18.6707 26.7126 18.6454 26.7919 18.6413C26.8712 18.6371 26.9502 18.6541 27.0208 18.6906C27.0913 18.727 27.151 18.7816 27.1936 18.8488C27.2482 18.9347 27.3144 19.0441 27.3885 19.1418C27.3866 18.201 27.6398 17.2774 28.1212 16.4697C28.7551 15.4303 29.31 14.3444 29.7814 13.2215C29.8157 13.1355 29.8753 13.0621 29.9522 13.0108C30.0291 12.9595 30.1197 12.9329 30.2121 12.9344C30.3044 12.9374 30.3936 12.9688 30.4675 13.0244C30.5414 13.0799 30.5964 13.1569 30.6252 13.2449L30.9603 14.2704C31.4904 13.073 32.3244 11.2214 32.7141 10.5397C32.7561 10.4656 32.818 10.4049 32.8928 10.3645C32.9676 10.324 33.0522 10.3056 33.137 10.3112C33.2227 10.3162 33.3051 10.3459 33.3743 10.3969C33.4434 10.4479 33.4964 10.5178 33.5268 10.5983C33.5716 10.7135 34.4017 12.9109 34.6199 14.8114C35.1363 14.2255 35.8417 13.616 36.5686 13.5086C36.635 13.4981 36.7029 13.5028 36.7673 13.5224C36.8316 13.5419 36.8907 13.5757 36.9402 13.6214C36.9897 13.667 37.0282 13.7233 37.0529 13.7859C37.0777 13.8486 37.088 13.916 37.0831 13.9833C37.0831 14.0067 36.933 16.2666 37.5312 18.1964C37.7271 18.8285 37.8205 19.4879 37.808 20.1497C38.1478 19.7445 38.5411 19.3876 38.9772 19.089C39.0371 19.0523 39.1048 19.0302 39.1748 19.0245C39.2449 19.0189 39.3153 19.0298 39.3803 19.0564C39.4454 19.083 39.5033 19.1246 39.5493 19.1777C39.5954 19.2309 39.6284 19.2942 39.6455 19.3625C39.6806 19.4992 40.4776 22.7318 39.8404 24.6363C39.2032 26.5407 35.0233 28.0408 31.9814 28.0408ZM26.9149 20.0325C26.4487 21.3582 26.2804 22.7709 26.4219 24.1694C26.7025 26.4293 28.6785 26.8219 31.2332 27.0993C34.0568 27.4079 38.4685 25.8336 38.9674 24.3394C39.3571 23.1674 39.0902 21.2884 38.8992 20.2766C38.332 20.8558 37.8169 21.4839 37.3598 22.1537C37.2999 22.255 37.2028 22.3287 37.0893 22.359C36.9758 22.3892 36.855 22.3736 36.7528 22.3155C36.6507 22.2574 36.5754 22.1615 36.5431 22.0483C36.5109 21.9351 36.5242 21.8137 36.5803 21.7103C36.969 20.6651 36.993 19.5188 36.6485 18.4581C36.2953 17.2114 36.1247 15.9198 36.1418 14.6239C35.5456 15.0146 34.9025 15.7959 34.5615 16.3311C34.5068 16.416 34.4252 16.48 34.3298 16.5127C34.2343 16.5454 34.1307 16.5449 34.0356 16.5112C33.9405 16.4775 33.8595 16.4127 33.8057 16.3272C33.7519 16.2417 33.7285 16.1405 33.7391 16.04C33.8658 14.8681 33.3708 13.034 33.0123 11.907C32.3166 13.366 31.3111 15.6709 31.2994 15.7002C31.2633 15.784 31.2027 15.8549 31.1254 15.9033C31.0482 15.9518 30.958 15.9754 30.867 15.9712C30.776 15.9669 30.6884 15.935 30.6159 15.8796C30.5435 15.8242 30.4896 15.748 30.4615 15.6611L30.1244 14.6278C29.8418 15.2138 29.4326 15.9951 28.8811 16.9268C28.5762 17.461 28.3827 18.0517 28.3124 18.6631C28.242 19.2745 28.2963 19.8939 28.4719 20.4837C28.5034 20.5737 28.5056 20.6714 28.4782 20.7628C28.4508 20.8541 28.3953 20.9345 28.3195 20.9922C28.2437 21.0499 28.1516 21.0821 28.0565 21.0841C27.9613 21.086 27.868 21.0577 27.7899 21.0032C27.4575 20.7235 27.1657 20.3987 26.9227 20.0383L26.9149 20.0325Z" fill="#1B1529"/>
<path fill-rule="evenodd" clip-rule="evenodd" d="M12.6488 33.5976C12.6488 33.5976 10.3961 19.0108 13.9232 17.3505C17.5282 15.6512 23.2885 23.8451 23.2885 23.8451L12.6488 33.5976Z" fill="#EDAE5D"/>
<path d="M12.6488 34.0508C12.5983 34.0509 12.5482 34.0423 12.5007 34.0254C12.4241 33.9984 12.3563 33.9511 12.3045 33.8885C12.2527 33.8258 12.2188 33.7503 12.2064 33.6699C11.9706 32.1444 10.0084 18.7041 13.7362 16.9482C17.6335 15.1102 23.4151 23.2435 23.6587 23.5892C23.7203 23.6782 23.7477 23.7866 23.7359 23.8942C23.7241 24.0019 23.6738 24.1017 23.5944 24.1752L12.9489 33.9297C12.8671 34.0056 12.7603 34.0487 12.6488 34.0508ZM14.9872 17.5752C14.6847 17.5741 14.3857 17.6409 14.1122 17.7705C11.6335 18.9424 12.3585 28.2653 12.9664 32.705L22.6922 23.7845C21.1508 21.6809 17.5614 17.5712 14.993 17.5712L14.9872 17.5752Z" fill="#1B1529"/>
<path fill-rule="evenodd" clip-rule="evenodd" d="M51.6532 33.5976C51.6532 33.5976 53.9059 19.0147 50.3768 17.3505C46.7699 15.6512 41.0096 23.8451 41.0096 23.8451L51.6532 33.5976Z" fill="#EDAE5D"/>
<path d="M51.6532 34.0508C51.5415 34.0508 51.4338 34.009 51.3512 33.9336L40.7076 24.181C40.6282 24.1075 40.578 24.0078 40.5661 23.9001C40.5543 23.7924 40.5817 23.6841 40.6433 23.595C40.8869 23.2493 46.6666 15.1141 50.5678 16.954C54.2937 18.7119 52.3333 32.1503 52.0975 33.6758C52.0852 33.7562 52.0513 33.8317 51.9994 33.8943C51.9476 33.9569 51.8798 34.0043 51.8033 34.0312C51.7547 34.0464 51.704 34.053 51.6532 34.0508ZM41.6079 23.7865L51.3317 32.6972C51.9358 28.2575 52.6626 18.9287 50.1859 17.7627C47.6351 16.5536 43.3363 21.4289 41.6079 23.7826V23.7865Z" fill="#1B1529"/>
<path fill-rule="evenodd" clip-rule="evenodd" d="M12.3838 65.5508H52.1872C52.1872 65.5508 52.382 42.3072 52.1872 37.4241C51.9533 31.4901 48.4944 23.556 40.6121 22.6692C30.3309 21.5188 24.5201 22.3157 21.0573 23.3802C17.5945 24.4447 12.4169 27.7945 12.1266 36.8576C11.7992 47.12 12.3838 65.5508 12.3838 65.5508Z" fill="white"/>
<path d="M12.3838 66C12.2672 66.0001 12.1552 65.9546 12.0715 65.8733C11.9879 65.792 11.9391 65.6812 11.9356 65.5644C11.9356 65.3808 11.351 47.0086 11.6803 36.84C12.0038 26.7671 18.2551 23.7709 20.9267 22.9505C25.5781 21.5227 32.2192 21.2766 40.6627 22.2239C44.3496 22.636 47.4538 24.601 49.6441 27.9039C51.4135 30.576 52.5047 34.0391 52.6373 37.4065C52.8321 42.2466 52.6373 65.3223 52.6373 65.5547C52.6362 65.6732 52.5886 65.7864 52.5046 65.8698C52.4207 65.9532 52.3073 66 52.1891 66C52.1302 65.9995 52.0721 65.9874 52.0179 65.9643C51.9637 65.9413 51.9146 65.9078 51.8733 65.8657C51.832 65.8236 51.7994 65.7738 51.7774 65.7191C51.7553 65.6644 51.7443 65.6059 51.7448 65.5469C51.7448 65.3144 51.9397 42.2603 51.7448 37.4416C51.4954 31.117 47.8903 23.9369 40.5672 23.1165C32.2445 22.1848 25.7263 22.4192 21.1937 23.8099C18.7052 24.5736 12.8865 27.3765 12.5806 36.8674C12.2552 47.0028 12.83 65.3515 12.8358 65.5351C12.8379 65.5943 12.8283 65.6533 12.8076 65.7087C12.7868 65.7642 12.7554 65.8149 12.715 65.8582C12.6746 65.9014 12.6261 65.9361 12.5723 65.9605C12.5184 65.9848 12.4603 65.9983 12.4013 66H12.3838Z" fill="#1B1529"/>
<path fill-rule="evenodd" clip-rule="evenodd" d="M16.3259 36.5626C16.6806 32.7967 17.4737 26.8218 26.8175 26.0952C36.1613 25.3686 45.1486 25.9545 47.3097 31.7264C49.4707 37.4982 49.1589 52.5968 47.4811 55.595C45.6552 58.8531 18.8494 58.4097 17.6529 54.8137C16.4565 51.2178 15.8816 41.2524 16.3259 36.5626Z" fill="#AC9E93"/>
<path fill-rule="evenodd" clip-rule="evenodd" d="M22.1894 33.4219C22.1894 33.4219 27.747 37.9143 28.5928 38.6956C28.3472 40.2094 26.6324 42.5318 23.6412 41.6255C20.537 40.7036 19.7575 36.6057 22.1894 33.4219Z" fill="#B02F10"/>
<path d="M24.9331 42.2876C24.4514 42.2842 23.9727 42.2098 23.5126 42.0669C22.8172 41.8628 22.1837 41.488 21.6696 40.9764C21.1554 40.4647 20.7768 39.8325 20.5682 39.137C19.9524 37.2326 20.4259 34.9942 21.8328 33.1523C21.8692 33.1049 21.9147 33.0653 21.9666 33.0358C22.0184 33.0063 22.0756 32.9875 22.1348 32.9804C22.1943 32.9728 22.2546 32.9773 22.3123 32.9938C22.3699 33.0102 22.4236 33.0382 22.4701 33.0761C22.6981 33.2597 28.051 37.5842 28.9006 38.3753C28.953 38.4246 28.9927 38.4859 29.0164 38.5539C29.0401 38.6219 29.0472 38.6946 29.037 38.7659C28.9235 39.3603 28.6898 39.9252 28.3503 40.4257C28.0108 40.9262 27.5727 41.3518 27.063 41.6762C26.4252 42.0783 25.6866 42.2904 24.9331 42.2876ZM22.2771 34.0723C21.258 35.5977 20.9384 37.3576 21.4217 38.8558C21.588 39.4115 21.89 39.9169 22.3004 40.3262C22.7107 40.7355 23.2165 41.0357 23.7717 41.1996C24.8299 41.518 25.775 41.4223 26.5856 40.9145C27.3246 40.437 27.8633 39.7046 28.0997 38.8558C27.0494 37.9416 23.4463 35.0274 22.2771 34.0723Z" fill="#1B1529"/>
<path fill-rule="evenodd" clip-rule="evenodd" d="M43.0245 32.6014C43.0245 32.6014 37.465 37.0939 36.6212 37.8752C36.8648 39.387 38.5816 41.7094 41.5708 40.8051C44.675 39.8812 45.4565 35.7852 43.0245 32.6014Z" fill="#B02F10"/>
<path d="M40.2808 41.4731C39.5283 41.4771 38.79 41.2678 38.1509 40.8695C37.6419 40.5438 37.2044 40.1176 36.865 39.6169C36.5257 39.1162 36.2915 38.5515 36.1769 37.9572C36.1652 37.8839 36.1717 37.8088 36.1958 37.7387C36.2199 37.6685 36.2609 37.6053 36.3152 37.5548C37.161 36.7735 42.5139 32.4393 42.7458 32.2557C42.7926 32.2182 42.8463 32.1904 42.9038 32.174C42.9614 32.1576 43.0216 32.1528 43.081 32.16C43.1406 32.1665 43.1982 32.1853 43.2502 32.2152C43.3022 32.2452 43.3474 32.2855 43.3831 32.3338C44.7919 34.1757 45.2635 36.4122 44.6497 38.3166C44.4402 39.012 44.0612 39.644 43.5467 40.1556C43.0323 40.6671 42.3987 41.0421 41.7033 41.2465C41.2428 41.3917 40.7635 41.4681 40.2808 41.4731ZM37.1123 38.0392C37.3487 38.888 37.8874 39.6205 38.6264 40.098C39.4351 40.6058 40.3802 40.7015 41.4402 40.3851C41.9951 40.2207 42.5003 39.9203 42.9103 39.5111C43.3203 39.1018 43.6221 38.5967 43.7884 38.0412C44.2736 36.5411 43.9521 34.7812 42.9329 33.2557C41.7657 34.1972 38.1626 37.1193 37.1123 38.0392Z" fill="#1B1529"/>
<path d="M26.5427 34.8086C26.4369 34.8085 26.3345 34.7704 26.2543 34.7012C25.5489 34.1035 22.6766 31.2849 22.5519 31.1638C22.5098 31.1225 22.4762 31.0733 22.4531 31.019C22.4299 30.9647 22.4177 30.9064 22.4171 30.8474C22.4165 30.7883 22.4274 30.7297 22.4494 30.675C22.4713 30.6202 22.5039 30.5703 22.5451 30.5281C22.5863 30.4859 22.6353 30.4522 22.6895 30.429C22.7437 30.4059 22.8019 30.3936 22.8608 30.393C22.9197 30.3923 22.9781 30.4033 23.0328 30.4253C23.0875 30.4473 23.1372 30.4799 23.1793 30.5212C23.2086 30.5505 26.1491 33.4394 26.8292 34.0156C26.8996 34.075 26.9501 34.1547 26.9738 34.2439C26.9975 34.3331 26.9931 34.4275 26.9614 34.5141C26.9297 34.6008 26.8721 34.6755 26.7965 34.7282C26.7209 34.7809 26.6309 34.809 26.5388 34.8086H26.5427Z" fill="#1B1529"/>
<path d="M37.7222 34.8086C37.6301 34.809 37.5402 34.7809 37.4646 34.7282C37.389 34.6756 37.3314 34.6008 37.2997 34.5142C37.2679 34.4275 37.2636 34.3332 37.2873 34.244C37.3109 34.1548 37.3614 34.075 37.4319 34.0156C37.9697 33.5605 40.0723 31.2811 41.109 30.1345C41.1891 30.0462 41.301 29.9934 41.4199 29.9877C41.5389 29.982 41.6552 30.0239 41.7433 30.1042C41.8314 30.1845 41.8841 30.2966 41.8898 30.4158C41.8954 30.5351 41.8536 30.6517 41.7735 30.74C41.6507 30.8767 38.7278 34.0957 38.0126 34.7012C37.9319 34.7709 37.8288 34.809 37.7222 34.8086Z" fill="#1B1529"/>
<path fill-rule="evenodd" clip-rule="evenodd" d="M15.677 43.3834C15.5815 41.4927 17.6159 40.4047 19.1983 40.9321C20.7806 41.4595 21.295 42.6178 20.8176 44.2526C20.2037 46.3817 15.8563 46.8153 15.677 43.3834Z" fill="#FE7D7B"/>
<path fill-rule="evenodd" clip-rule="evenodd" d="M43.309 43.3834C43.2136 41.4927 45.248 40.4047 46.8303 40.9321C48.4126 41.4595 48.929 42.6178 48.4515 44.2526C47.8299 46.3817 43.4805 46.8153 43.309 43.3834Z" fill="#FE7D7B"/>
<path fill-rule="evenodd" clip-rule="evenodd" d="M29.4307 42.2037C29.3274 41.063 30.4049 40.4009 32.0243 40.4028C33.856 40.4028 34.8109 40.9654 34.8733 41.8463C34.9493 42.9127 34.0315 43.6179 32.3127 43.657C30.2588 43.7038 29.5261 43.2311 29.4307 42.2037Z" fill="#1B1529"/>
<path d="M27.0377 48.3661C26.9309 48.3646 26.8281 48.325 26.7478 48.2545C26.6674 48.184 26.6147 48.0871 26.599 47.9813C26.5833 47.8754 26.6056 47.7673 26.6621 47.6765C26.7185 47.5856 26.8054 47.5178 26.9071 47.4852C29.5748 46.6687 31.1494 45.1804 31.7164 42.9322C31.7398 42.8427 31.79 42.7625 31.8603 42.7026C31.9305 42.6427 32.0175 42.6059 32.1094 42.5971C32.2013 42.5884 32.2936 42.6081 32.3739 42.6538C32.4542 42.6994 32.5185 42.7686 32.5582 42.8521C33.6378 45.153 35.6975 46.5633 38.8563 47.1824C38.9731 47.2052 39.0761 47.2736 39.1426 47.3725C39.2091 47.4714 39.2337 47.5928 39.211 47.7098C39.1882 47.8269 39.12 47.9301 39.0214 47.9968C38.9227 48.0634 38.8017 48.0881 38.6849 48.0653C35.7093 47.4793 33.5521 46.1765 32.2543 44.1588C31.4261 46.1785 29.7522 47.5536 27.1663 48.3446C27.1248 48.3583 27.0814 48.3655 27.0377 48.3661Z" fill="#1B1529"/>
<path d="M26.8175 44.6725H26.7727L22.8247 44.2662C22.7655 44.2633 22.7075 44.2482 22.6543 44.2221C22.6011 44.1959 22.5537 44.1592 22.5151 44.1141C22.4766 44.069 22.4476 44.0165 22.4299 43.9598C22.4122 43.9031 22.4062 43.8434 22.4123 43.7843C22.4184 43.7252 22.4365 43.6679 22.4653 43.6161C22.4942 43.5642 22.5333 43.5187 22.5803 43.4825C22.6272 43.4463 22.6811 43.42 22.7385 43.4053C22.7959 43.3906 22.8557 43.3878 22.9143 43.397L26.8623 43.8033C26.9743 43.8139 27.078 43.8675 27.1515 43.9528C27.2251 44.0382 27.263 44.1487 27.2572 44.2614C27.2514 44.374 27.2025 44.4801 27.1205 44.5574C27.0386 44.6348 26.93 44.6774 26.8175 44.6764V44.6725Z" fill="#D06225"/>
<path d="M22.8676 46.7645C22.7579 46.761 22.6536 46.7163 22.5754 46.6393C22.4972 46.5622 22.4507 46.4585 22.4453 46.3487C22.4399 46.2389 22.4759 46.1311 22.5462 46.0467C22.6165 45.9623 22.7159 45.9076 22.8247 45.8933L26.7727 45.4851C26.8297 45.4792 26.8874 45.4846 26.9424 45.5011C26.9974 45.5175 27.0486 45.5446 27.0931 45.5809C27.1376 45.6172 27.1746 45.6619 27.2019 45.7125C27.2291 45.7631 27.2462 45.8185 27.252 45.8758C27.2579 45.933 27.2526 45.9907 27.2362 46.0458C27.2198 46.101 27.1927 46.1523 27.1565 46.1969C27.1203 46.2415 27.0757 46.2785 27.0252 46.3059C26.9747 46.3332 26.9194 46.3503 26.8623 46.3562L22.9143 46.7625L22.8676 46.7645Z" fill="#D06225"/>
<path d="M37.8918 44.0963C37.7794 44.0968 37.6712 44.0538 37.5897 43.9763C37.5082 43.8988 37.4596 43.7928 37.4541 43.6803C37.4485 43.5678 37.4865 43.4576 37.5601 43.3724C37.6336 43.2873 37.737 43.2338 37.8489 43.2232L41.7969 42.817C41.9085 42.8114 42.018 42.8489 42.1028 42.9218C42.1877 42.9947 42.2414 43.0975 42.2529 43.2089C42.2644 43.3204 42.2328 43.432 42.1646 43.5208C42.0965 43.6095 41.9969 43.6687 41.8865 43.6861L37.9385 44.0944L37.8918 44.0963Z" fill="#D06225"/>
<path d="M41.8476 46.1882H41.8028L37.8548 45.7819C37.7395 45.77 37.6337 45.7127 37.5606 45.6226C37.4875 45.5325 37.4531 45.4169 37.465 45.3014C37.4769 45.1859 37.5341 45.0798 37.624 45.0066C37.7139 44.9333 37.8291 44.8988 37.9444 44.9108L41.8924 45.319C42.0012 45.3333 42.1007 45.3883 42.1709 45.4728C42.2412 45.5574 42.277 45.6654 42.2714 45.7753C42.2657 45.8852 42.2189 45.9889 42.1404 46.0658C42.0618 46.1427 41.9573 46.1871 41.8476 46.1901V46.1882Z" fill="#D06225"/>
<path fill-rule="evenodd" clip-rule="evenodd" d="M50.7042 50.1671C50.7042 50.1671 55.7298 50.382 55.4589 52.0168C55.2037 53.5677 53.635 54.4897 52.4269 54.9311C49.5604 55.978 48.7984 54.1146 47.5435 55.4995C45.8813 57.3297 48.4964 58.0602 48.4964 58.0602C48.4964 58.0602 46.1463 58.4938 46.5205 60.5252C46.8556 62.3358 49.1726 61.5018 49.1726 61.5018C49.1726 61.5018 47.1752 63.1933 48.5646 64.459C50.3574 66.088 51.5694 63.414 51.5694 63.414C51.5694 63.414 50.9127 65.3028 52.8361 65.4083C54.6113 65.506 55.3518 63.1406 55.153 62.0995C54.9153 60.8533 56.5268 60.0466 58.8243 58.5348C60.4982 57.4351 63.8382 55.351 63.5206 52.0168C62.8873 45.3465 56.1936 42.4459 50.9751 42.1803L50.7042 50.1671Z" fill="white"/>
<path d="M52.9413 65.8614C52.8984 65.8614 52.8556 65.8614 52.8107 65.8614C52.1073 65.8223 51.5967 65.5742 51.2927 65.1191C51.227 65.0208 51.1727 64.9153 51.131 64.8046C50.8379 65.1002 50.4679 65.3073 50.0631 65.4023C49.4512 65.5293 48.8471 65.3242 48.2645 64.7949C48.0626 64.6239 47.9007 64.4105 47.7903 64.1699C47.6798 63.9292 47.6235 63.6671 47.6253 63.4022C47.6469 62.9547 47.789 62.5213 48.0365 62.1482C47.648 62.1565 47.2639 62.0636 46.9219 61.8787C46.6955 61.745 46.5019 61.562 46.3555 61.3433C46.2091 61.1246 46.1137 60.8756 46.0762 60.6149C45.9746 60.1488 46.02 59.6626 46.2061 59.2235C46.3921 58.7844 46.7097 58.414 47.1148 58.1636C47.1954 58.1115 47.2752 58.0627 47.3545 58.0171C46.9965 57.7885 46.7276 57.4438 46.5925 57.0405C46.4249 56.4545 46.6315 55.8412 47.2083 55.2083C48.0092 54.3255 48.7497 54.4954 49.4668 54.6595C50.3903 54.9282 51.377 54.8787 52.269 54.5189C53.0115 54.2493 54.7653 53.4563 55.0127 51.9562C55.0208 51.9107 55.0179 51.864 55.0043 51.8198C54.9908 51.7756 54.9669 51.7354 54.9348 51.7023C54.3891 51.0284 52.0371 50.6866 50.6808 50.628C50.6219 50.6255 50.5642 50.6114 50.5107 50.5864C50.4573 50.5615 50.4093 50.5263 50.3695 50.4827C50.3297 50.4392 50.2988 50.3882 50.2787 50.3327C50.2585 50.2772 50.2495 50.2182 50.2521 50.1592C50.2587 50.0406 50.3113 49.9292 50.3987 49.8489C50.486 49.7686 50.6013 49.7257 50.7198 49.7295C51.1193 49.7471 54.6561 49.9248 55.6305 51.1339C55.744 51.2669 55.8269 51.4234 55.8734 51.5922C55.9199 51.7609 55.9287 51.9379 55.8993 52.1105C55.5739 54.0794 53.4674 55.0404 52.5866 55.3724C51.5308 55.7909 50.3672 55.8513 49.2739 55.5443C48.6036 55.39 48.3269 55.3275 47.8787 55.8217C47.5279 56.2123 47.3876 56.5365 47.4636 56.7983C47.5942 57.2573 48.3639 57.5796 48.6211 57.646C48.719 57.6731 48.8048 57.7326 48.8645 57.8149C48.9241 57.8973 48.9542 57.9974 48.9496 58.0991C48.9451 58.2008 48.9063 58.2979 48.8395 58.3745C48.7728 58.4512 48.682 58.5028 48.5822 58.5211C48.3873 58.5582 46.6842 58.9293 46.9667 60.4626C46.9801 60.5948 47.0237 60.7223 47.0939 60.835C47.1642 60.9478 47.2593 61.0429 47.372 61.113C47.8728 61.4041 48.7361 61.1989 49.0245 61.0974C49.1233 61.0621 49.2313 61.0627 49.3297 61.0991C49.4281 61.1354 49.5107 61.2052 49.5631 61.2962C49.6154 61.3873 49.6343 61.4939 49.6163 61.5975C49.5984 61.701 49.5448 61.795 49.4649 61.8631C49.2076 62.0838 48.5354 62.7967 48.5256 63.4257C48.5268 63.5624 48.5583 63.6972 48.618 63.8202C48.6776 63.9432 48.764 64.0513 48.8706 64.1366C49.233 64.4667 49.5643 64.5957 49.8838 64.5273C50.5074 64.4003 51.0199 63.5507 51.1641 63.2382C51.2093 63.1289 51.2955 63.042 51.4042 62.9961C51.5129 62.9502 51.6353 62.9491 51.7448 62.9931C51.8543 63.037 51.9421 63.1225 51.9891 63.2309C52.0362 63.3393 52.0387 63.4619 51.9962 63.5722C51.9358 63.7538 51.8247 64.3007 52.0449 64.6269C52.1832 64.8222 52.458 64.9472 52.8634 64.9687C53.0863 64.9805 53.3087 64.9386 53.5121 64.8465C53.7156 64.7544 53.894 64.6148 54.0326 64.4394C54.6172 63.7636 54.812 62.6815 54.7204 62.1931C54.4593 60.8259 55.8078 59.9567 57.6726 58.7594C57.961 58.564 58.267 58.3687 58.5846 58.1734L58.7386 58.0718C60.3559 57.0112 63.3647 55.0384 63.0821 52.0734C62.4975 46.0047 56.3943 42.9302 50.9595 42.6431C50.8406 42.6369 50.7291 42.5836 50.6494 42.495C50.5698 42.4063 50.5285 42.2896 50.5347 42.1704C50.5409 42.0513 50.594 41.9395 50.6825 41.8596C50.7709 41.7798 50.8874 41.7384 51.0063 41.7446C53.9721 41.9009 56.9672 42.8463 59.2218 44.3385C62.0337 46.198 63.6765 48.8447 63.9766 51.9874C64.3098 55.5033 61.0049 57.6519 59.2296 58.8238L59.0776 58.9234C58.7561 59.1344 58.4482 59.3316 58.1559 59.5094C56.3807 60.6481 55.4609 61.2771 55.6012 62.0154C55.7532 62.8163 55.4609 64.164 54.7068 65.0234C54.4924 65.2849 54.2229 65.4957 53.9177 65.6406C53.6124 65.7854 53.279 65.8608 52.9413 65.8614Z" fill="#1B1529"/>
<path fill-rule="evenodd" clip-rule="evenodd" d="M13.2821 50.1671C13.2821 50.1671 8.25652 50.382 8.52738 52.0168C8.7846 53.5677 10.3533 54.4897 11.5595 54.9311C14.4279 55.978 15.1879 54.1146 16.4448 55.4995C18.105 57.3297 15.4899 58.0602 15.4899 58.0602C15.4899 58.0602 17.842 58.4938 17.4659 60.5252C17.1326 62.3358 14.8157 61.5018 14.8157 61.5018C14.8157 61.5018 16.8131 63.1933 15.4217 64.459C13.629 66.088 12.4189 63.414 12.4189 63.414C12.4189 63.414 13.0736 65.3028 11.1522 65.4083C9.37699 65.506 8.63647 63.1406 8.83524 62.0995C9.07102 60.8533 7.4712 60.0466 5.16399 58.5348C3.49009 57.4351 0.148109 55.351 0.465741 52.0168C1.101 45.3465 7.79274 42.4459 13.0113 42.1803L13.2821 50.1671Z" fill="white"/>
<path d="M11.045 65.8614C10.7092 65.8585 10.3781 65.7818 10.0751 65.6367C9.77205 65.4915 9.50447 65.2815 9.29124 65.0215C8.5371 64.1581 8.24479 62.8143 8.39678 62.0135C8.53709 61.2771 7.61735 60.6462 5.84211 59.5074L4.9204 58.9215L4.77035 58.8218C2.99512 57.6499 -0.309809 55.4896 0.0234123 51.9855C0.321558 48.8427 1.97208 46.1961 4.7762 44.3366C7.03275 42.8443 10.0259 41.8989 12.9917 41.7427C13.1106 41.7365 13.2271 41.7778 13.3155 41.8577C13.404 41.9375 13.4571 42.0493 13.4633 42.1685C13.4695 42.2876 13.4283 42.4044 13.3486 42.493C13.2689 42.5817 13.1574 42.6349 13.0385 42.6412C7.60564 42.9283 1.49465 46.0027 0.917841 52.0714C0.635285 55.0365 3.64598 57.0092 5.26142 58.0699L5.41339 58.1714C5.73298 58.3804 6.03893 58.5757 6.32733 58.7574C8.1922 59.9547 9.54065 60.82 9.27953 62.1912C9.186 62.6795 9.37697 63.7538 9.96742 64.4374C10.1057 64.6131 10.2842 64.7529 10.4876 64.845C10.6911 64.9371 10.9137 64.9789 11.1366 64.9668C11.5419 64.9453 11.8186 64.83 11.957 64.625C12.1772 64.2988 12.0661 63.7518 12.0038 63.5682C11.9655 63.4589 11.971 63.3389 12.0189 63.2335C12.0668 63.128 12.1536 63.0452 12.261 63.0023C12.3684 62.9595 12.4882 62.9598 12.5953 63.0034C12.7024 63.047 12.7886 63.1304 12.8358 63.2362C12.98 63.5507 13.4926 64.3984 14.1181 64.5253C14.4357 64.5917 14.767 64.4628 15.1294 64.1347C15.2368 64.05 15.3236 63.942 15.3833 63.8189C15.4431 63.6957 15.4742 63.5606 15.4743 63.4237C15.4743 62.7869 14.7923 62.074 14.5351 61.8611C14.4545 61.7931 14.4004 61.6988 14.3823 61.5948C14.3641 61.4908 14.3831 61.3837 14.4359 61.2923C14.4887 61.201 14.5719 61.1311 14.6709 61.0951C14.77 61.0591 14.8785 61.0592 14.9774 61.0954C15.2658 61.197 16.1271 61.4021 16.6299 61.1111C16.742 61.0403 16.8367 60.945 16.9069 60.8324C16.9771 60.7198 17.0209 60.5927 17.0352 60.4606C17.1057 60.1674 17.0799 59.8592 16.9616 59.5819C16.8433 59.3046 16.6388 59.0729 16.3785 58.9215C16.0855 58.731 15.7608 58.5947 15.4198 58.5191C15.3199 58.5009 15.2292 58.4492 15.1624 58.3726C15.0956 58.2959 15.0568 58.1988 15.0523 58.0972C15.0477 57.9955 15.0778 57.8953 15.1375 57.813C15.1971 57.7307 15.2829 57.6711 15.3808 57.6441C15.638 57.5698 16.4058 57.2534 16.5383 56.7963C16.6123 56.5346 16.4721 56.2104 16.1213 55.8197C15.6731 55.3255 15.3964 55.3881 14.728 55.5424C13.6345 55.8477 12.4715 55.7874 11.4153 55.3705C10.5267 55.0462 8.42017 54.0774 8.10253 52.1085C8.07328 51.9361 8.08206 51.7593 8.12818 51.5906C8.17429 51.4219 8.25666 51.2653 8.36952 51.1319C9.34385 49.9287 12.8807 49.7451 13.2821 49.7275C13.4006 49.7238 13.5158 49.7666 13.6032 49.8469C13.6906 49.9272 13.7432 50.0386 13.7498 50.1573C13.7546 50.2766 13.7119 50.393 13.6311 50.4809C13.5504 50.5688 13.4382 50.621 13.3191 50.626C11.9648 50.6846 9.61668 51.0284 9.06716 51.7003C9.03491 51.7334 9.01087 51.7736 8.99699 51.8177C8.98311 51.8618 8.97976 51.9086 8.98723 51.9543C9.23666 53.4543 10.9885 54.2474 11.731 54.5169C12.6237 54.8767 13.611 54.9263 14.5351 54.6575C15.2522 54.4935 15.9927 54.3235 16.7936 55.2064C17.3782 55.8393 17.573 56.4565 17.4074 57.0385C17.2731 57.4417 17.0049 57.7865 16.6474 58.0152C16.7254 58.0601 16.8072 58.1089 16.8852 58.1616C17.2906 58.4118 17.6086 58.7821 17.795 59.2212C17.9814 59.6603 18.0271 60.1467 17.9258 60.613C17.889 60.8742 17.7941 61.1238 17.648 61.3432C17.502 61.5627 17.3085 61.7463 17.082 61.8806C16.7406 62.0654 16.3572 62.1582 15.9693 62.1502C16.216 62.5237 16.358 62.9568 16.3805 63.4042C16.3819 63.669 16.3254 63.931 16.215 64.1716C16.1046 64.4122 15.9429 64.6256 15.7413 64.7968C15.1567 65.3262 14.5526 65.5313 13.9408 65.4043C13.5363 65.3084 13.1666 65.1014 12.8729 64.8066C12.8311 64.9173 12.7769 65.0228 12.7111 65.1211C12.4072 65.5762 11.8966 65.8242 11.1931 65.8633C11.1327 65.8614 11.0879 65.8614 11.045 65.8614Z" fill="#1B1529"/>
</svg>
