<svg width="150" height="117" viewBox="0 0 150 117" fill="none" xmlns="http://www.w3.org/2000/svg">
<path d="M8.13679 48.6325C1.30292 61.3193 0 69.7771 0 76.4729C0 88.2122 5.0106 98.7856 13.0176 106.187C20.2771 112.897 29.9995 117 40.684 117H58.0189H75H109.316C131.785 117 150 98.8554 150 76.4729C150 69.7771 148.697 61.3193 141.863 48.6325C134.08 34.1837 122.759 0 104.009 0C96.2264 0 84.6934 6.20241 85.2594 31.012H75H64.7406C65.3066 6.20241 53.7736 0 45.9906 0C27.2406 0 15.9198 34.1837 8.13679 48.6325Z" fill="#F8A7BB"/>
<ellipse cx="36.7925" cy="65.5482" rx="13.4434" ry="13.3916" fill="#738FF5"/>
<ellipse cx="113.208" cy="65.5482" rx="13.4434" ry="13.3916" fill="#738FF5"/>
<path d="M33.2546 85.2832C19.3867 85.2832 13.961 99.4912 13.0176 106.187C20.277 112.897 29.9995 117 40.6839 117H58.0188C57.6651 104.313 50.5895 85.2832 33.2546 85.2832Z" fill="#738FF5"/>
<path d="M116.745 85.2832C130.613 85.2832 136.039 99.4912 136.982 106.187C129.723 112.897 120 117 109.316 117H91.9811C92.3349 104.313 99.4104 85.2832 116.745 85.2832Z" fill="#738FF5"/>
<path d="M90.2122 77.1777C84.7877 84.1085 70.7547 88.4548 59.4339 77.5301" stroke="#738FF5" stroke-width="12" stroke-linecap="round"/>
</svg>
