<svg width="45" height="53" viewBox="0 0 45 53" fill="none" xmlns="http://www.w3.org/2000/svg">
<path fill-rule="evenodd" clip-rule="evenodd" d="M1.37599 17.9981C1.37599 17.9981 -1.03944 2.4892 2.74671 0.71937C6.61225 -1.08786 12.7888 7.62629 12.7888 7.62629L1.37599 17.9981Z" fill="#EDAE5D"/>
<path d="M1.37602 18.4758C1.32192 18.476 1.2682 18.4668 1.21722 18.4488C1.13513 18.4201 1.06241 18.3698 1.00684 18.3032C0.951275 18.2366 0.914936 18.1562 0.901706 18.0707C0.648878 16.4484 -1.45521 2.15468 2.54197 0.28721C6.72094 -1.6675 12.9204 6.98225 13.1816 7.34993C13.2481 7.44446 13.2777 7.55977 13.265 7.6744C13.2523 7.78904 13.1982 7.8952 13.1126 7.97311L1.70199 18.3449C1.61353 18.4274 1.49728 18.4741 1.37602 18.4758ZM3.8834 0.954006C3.55902 0.952902 3.23848 1.02387 2.94523 1.16173C0.287404 2.4081 1.06467 12.3229 1.71658 17.0446L12.141 7.56805C10.4883 5.32668 6.63943 0.964402 3.8834 0.964402V0.954006Z" fill="#1B1529"/>
<path fill-rule="evenodd" clip-rule="evenodd" d="M43.1949 17.9981C43.1949 17.9981 45.6125 2.4892 41.8264 0.71937C37.9587 -1.08786 31.7843 7.62629 31.7843 7.62629L43.1949 17.9981Z" fill="#EDAE5D"/>
<path d="M43.1949 18.4758C43.0752 18.4754 42.9599 18.431 42.8711 18.3511L31.4646 7.97931C31.3798 7.90092 31.3262 7.79485 31.3136 7.68045C31.3009 7.56606 31.33 7.45097 31.3956 7.35613C31.6589 6.98638 37.8542 -1.66545 42.0374 0.293415C46.0325 2.16296 43.9304 16.4546 43.6776 18.0769C43.6644 18.1624 43.628 18.2428 43.5725 18.3093C43.5169 18.3759 43.4442 18.4263 43.3621 18.455C43.3081 18.4718 43.2514 18.4788 43.1949 18.4758ZM32.4237 7.5597L42.8502 17.0362C43.4979 12.3146 44.2773 2.39354 41.6216 1.15341C38.8823 -0.12619 34.277 5.05659 32.4237 7.5597Z" fill="#1B1529"/>
<path fill-rule="evenodd" clip-rule="evenodd" d="M1.0877 51.9802H43.7674C43.7674 51.9802 43.9764 27.2607 43.7674 22.0675C43.5167 15.7568 39.8079 7.31893 31.3559 6.37584C20.3318 5.15233 14.101 5.99984 10.3879 7.13195C6.67493 8.26406 1.1253 11.8266 0.811876 21.4651C0.460842 32.3791 1.0877 51.9802 1.0877 51.9802Z" fill="white"/>
<path d="M1.08765 52.4579C0.962688 52.4579 0.842573 52.4096 0.752855 52.3231C0.663138 52.2366 0.610864 52.1188 0.607061 51.9946C0.607061 51.7994 -0.0197966 32.2606 0.333326 21.4463C0.680181 10.7338 7.38323 7.54728 10.2479 6.67482C15.2355 5.15634 22.3565 4.89461 31.4123 5.90208C35.3635 6.34039 38.6942 8.43011 41.0407 11.9428C42.9379 14.7845 44.108 18.4675 44.2501 22.0487C44.459 27.1962 44.2501 51.737 44.2501 51.9842C44.2484 52.1104 44.1969 52.2309 44.1065 52.3195C44.0162 52.4082 43.8943 52.4579 43.7674 52.4579C43.7043 52.4573 43.6419 52.4444 43.5838 52.4199C43.5257 52.3954 43.4731 52.3598 43.4288 52.315C43.3846 52.2703 43.3496 52.2173 43.326 52.1591C43.3023 52.1009 43.2905 52.0387 43.291 51.9759C43.291 51.7287 43.5 27.2107 43.291 22.0861C43.0236 15.3599 39.158 7.72384 31.3057 6.85138C22.3836 5.86053 15.3943 6.10773 10.5321 7.58883C7.86593 8.40104 1.62465 11.3819 1.2966 21.4754C0.947657 32.2543 1.56402 51.7682 1.57028 51.9635C1.57252 52.0264 1.56222 52.0891 1.53998 52.1481C1.51774 52.207 1.48401 52.261 1.44071 52.307C1.39741 52.3529 1.3454 52.3899 1.28767 52.4158C1.22995 52.4417 1.16764 52.456 1.10433 52.4579H1.08765Z" fill="#1B1529"/>
<path fill-rule="evenodd" clip-rule="evenodd" d="M12.3667 21.9448C12.2706 20.2269 14.9911 19.8675 16.0985 20.6319C17.0847 21.3195 17.0513 23.1247 15.4006 23.484C13.8586 23.8268 12.4336 23.1205 12.3667 21.9448Z" fill="#1B1529"/>
<path d="M11.2154 20.9707C11.0927 20.9658 10.9765 20.9145 10.8904 20.8273C10.8044 20.7402 10.7551 20.6237 10.7524 20.5016C10.7497 20.3796 10.7939 20.2611 10.8761 20.1703C10.9582 20.0795 11.0721 20.0233 11.1945 20.013L16.7358 19.7679C16.8009 19.7619 16.8664 19.7691 16.9286 19.789C16.9908 19.8089 17.0482 19.8411 17.0975 19.8837C17.1468 19.9264 17.1869 19.9785 17.2153 20.037C17.2437 20.0954 17.2599 20.159 17.2628 20.2239C17.2658 20.2887 17.2555 20.3535 17.2326 20.4143C17.2096 20.4751 17.1745 20.5306 17.1293 20.5776C17.0842 20.6245 17.0299 20.6618 16.9698 20.6872C16.9097 20.7126 16.845 20.7257 16.7797 20.7256L11.2363 20.9686L11.2154 20.9707Z" fill="#1B1529"/>
<path d="M33.9866 20.9706H33.9657L28.4223 20.7276C28.2948 20.7211 28.175 20.6649 28.089 20.5712C28.0029 20.4775 27.9575 20.3538 27.9626 20.227C27.9707 20.1008 28.0277 19.9826 28.1216 19.8974C28.2155 19.8122 28.339 19.7665 28.4661 19.77L34.0075 20.0151C34.1298 20.0253 34.2437 20.0815 34.3259 20.1723C34.408 20.2631 34.4523 20.3816 34.4496 20.5036C34.447 20.6257 34.3976 20.7422 34.3115 20.8293C34.2255 20.9165 34.1093 20.9677 33.9866 20.9727V20.9706Z" fill="#1B1529"/>
<path d="M11.79 23.9264C11.6673 23.9214 11.5511 23.8702 11.465 23.783C11.379 23.6959 11.3297 23.5794 11.327 23.4573C11.3243 23.3352 11.3685 23.2168 11.4507 23.126C11.5328 23.0352 11.6467 22.979 11.7691 22.9688L17.3104 22.7236C17.4345 22.7239 17.5536 22.7716 17.6432 22.8569C17.7328 22.9422 17.786 23.0584 17.7916 23.1816C17.7973 23.3048 17.755 23.4255 17.6736 23.5185C17.5922 23.6115 17.4778 23.6698 17.3543 23.6813L11.8109 23.9243L11.79 23.9264Z" fill="#1B1529"/>
<path d="M33.412 23.9265H33.3911L27.8477 23.6834C27.7242 23.672 27.6099 23.6137 27.5284 23.5207C27.447 23.4277 27.4047 23.307 27.4104 23.1838C27.416 23.0606 27.4691 22.9444 27.5587 22.8591C27.6483 22.7738 27.7675 22.7261 27.8915 22.7258L33.4328 22.9709C33.5552 22.9812 33.6691 23.0374 33.7513 23.1282C33.8334 23.2189 33.8777 23.3374 33.875 23.4595C33.8724 23.5816 33.823 23.6981 33.7369 23.7852C33.6509 23.8724 33.5347 23.9236 33.412 23.9286V23.9265Z" fill="#1B1529"/>
<path fill-rule="evenodd" clip-rule="evenodd" d="M28.7336 21.8203C28.6375 20.1024 31.358 19.743 32.4654 20.5074C33.4517 21.195 33.4182 23.0002 31.7675 23.3595C30.2255 23.7023 28.8005 22.996 28.7336 21.8203Z" fill="#1B1529"/>
<path d="M15.2962 18.6211C14.7328 18.6207 14.1794 18.4731 13.6914 18.1932C12.6467 17.597 11.8631 16.4213 11.6145 15.0483C11.6002 14.9268 11.6331 14.8045 11.7064 14.7063C11.7798 14.6081 11.888 14.5415 12.0091 14.52C12.1302 14.4986 12.255 14.5239 12.358 14.5908C12.4609 14.6577 12.5343 14.7611 12.5631 14.88C12.7595 15.9768 13.3613 16.9053 14.1678 17.3727C14.4654 17.5436 14.798 17.6452 15.1407 17.6701C15.4834 17.6949 15.8273 17.6422 16.1466 17.516C16.2068 17.4892 16.272 17.4749 16.338 17.474C16.404 17.4732 16.4695 17.4859 16.5304 17.5112C16.5913 17.5365 16.6464 17.574 16.6921 17.6213C16.7379 17.6686 16.7734 17.7248 16.7964 17.7863C16.8195 17.8478 16.8296 17.9133 16.8262 17.9789C16.8227 18.0444 16.8058 18.1086 16.7764 18.1674C16.747 18.2262 16.7058 18.2783 16.6554 18.3206C16.6049 18.363 16.5462 18.3945 16.483 18.4134C16.1031 18.5527 15.7011 18.623 15.2962 18.6211Z" fill="#1B1529"/>
<path d="M29.699 18.6212C29.2934 18.6231 28.8907 18.5528 28.5101 18.4135C28.3982 18.3636 28.3096 18.2733 28.2623 18.1608C28.215 18.0484 28.2125 17.9223 28.2553 17.8081C28.2981 17.6939 28.383 17.6002 28.4928 17.5459C28.6026 17.4917 28.729 17.481 28.8464 17.5161C29.1657 17.6424 29.5096 17.6952 29.8524 17.6704C30.1951 17.6455 30.5277 17.5438 30.8252 17.3728C31.6338 16.9158 32.2335 15.9872 32.432 14.88C32.4544 14.7553 32.5258 14.6445 32.6305 14.572C32.7351 14.4995 32.8644 14.4714 32.9899 14.4937C33.1154 14.516 33.2269 14.587 33.2998 14.691C33.3726 14.795 33.401 14.9235 33.3785 15.0483C33.132 16.4214 32.3547 17.5971 31.3016 18.1933C30.8144 18.4732 30.2617 18.6208 29.699 18.6212Z" fill="#1B1529"/>
<path fill-rule="evenodd" clip-rule="evenodd" d="M4.62725 28.4053C4.52487 26.3945 6.7167 25.2375 8.40291 25.7983C10.0891 26.3592 10.6512 27.591 10.1414 29.3297C9.47274 31.5939 4.81113 32.0551 4.62725 28.4053Z" fill="#FE7D7B"/>
<path fill-rule="evenodd" clip-rule="evenodd" d="M34.2478 28.4053C34.1454 26.3945 36.3268 25.2375 38.0235 25.7983C39.7201 26.3592 40.2738 27.591 39.7619 29.3297C39.0933 31.5939 34.4317 32.0551 34.2478 28.4053Z" fill="#FE7D7B"/>
<path fill-rule="evenodd" clip-rule="evenodd" d="M19.3665 27.1506C19.2557 25.9375 20.4112 25.2333 22.1475 25.2354C24.1137 25.2354 25.1376 25.8336 25.2045 26.7705C25.2839 27.9047 24.2997 28.6546 22.4589 28.6961C20.2545 28.746 19.4689 28.2495 19.3665 27.1506Z" fill="#1B1529"/>
<path d="M22.6992 31.5004C22.5828 31.4999 22.4704 31.4577 22.3828 31.3813C22.2953 31.3049 22.2384 31.1997 22.2228 31.085L21.7673 27.5744C21.7588 27.5118 21.7629 27.4482 21.7794 27.3873C21.7959 27.3263 21.8244 27.2693 21.8633 27.2194C21.9022 27.1695 21.9507 27.1278 22.006 27.0968C22.0612 27.0657 22.1222 27.0459 22.1852 27.0384C22.312 27.0231 22.4397 27.0582 22.5407 27.136C22.6416 27.2138 22.7076 27.328 22.7243 27.4539L23.1798 30.9645C23.1958 31.0906 23.1607 31.2179 23.0824 31.3184C23.004 31.4189 22.8888 31.4843 22.7619 31.5004H22.6992Z" fill="#1B1529"/>
<path d="M17.8578 36.9552C17.8226 36.9551 17.7876 36.9509 17.7534 36.9428C17.6288 36.915 17.5204 36.8393 17.4519 36.7322C17.3834 36.6251 17.3603 36.4955 17.3877 36.3715C18.1316 33.0811 20.0059 31.0516 22.8079 30.5053C26.1218 29.8593 27.8017 32.6906 29.1223 35.8481C29.1464 35.906 29.1588 35.9682 29.1588 36.0309C29.1588 36.0936 29.1464 36.1558 29.1222 36.2137C29.0981 36.2717 29.0627 36.3244 29.018 36.3687C28.9734 36.4131 28.9204 36.4483 28.8621 36.4723C28.8038 36.4963 28.7413 36.5086 28.6782 36.5086C28.6151 36.5086 28.5526 36.4963 28.4943 36.4722C28.436 36.4482 28.383 36.413 28.3384 36.3687C28.2938 36.3243 28.2584 36.2716 28.2342 36.2136C26.8886 33.0001 25.4845 30.9582 22.9938 31.4359C20.5616 31.9095 18.9903 33.6399 18.328 36.573C18.3055 36.6806 18.2465 36.7773 18.1609 36.8469C18.0754 36.9164 17.9684 36.9547 17.8578 36.9552Z" fill="#1B1529"/>
<path d="M16.4203 27.2813H16.3722L12.1389 26.8471C12.0754 26.844 12.0133 26.828 11.9562 26.8002C11.8992 26.7724 11.8484 26.7333 11.807 26.6853C11.7657 26.6374 11.7345 26.5815 11.7156 26.5212C11.6966 26.4609 11.6902 26.3974 11.6967 26.3346C11.7033 26.2717 11.7227 26.2109 11.7536 26.1557C11.7846 26.1005 11.8265 26.0522 11.8769 26.0137C11.9272 25.9751 11.985 25.9472 12.0465 25.9316C12.1081 25.9159 12.1722 25.913 12.235 25.9228L16.4683 26.3548C16.5885 26.3661 16.6996 26.4231 16.7785 26.5138C16.8574 26.6046 16.898 26.7222 16.8918 26.842C16.8856 26.9618 16.8331 27.0746 16.7452 27.1568C16.6574 27.2391 16.5409 27.2844 16.4203 27.2834V27.2813Z" fill="#EDAE5D"/>
<path d="M12.1745 29.506C12.0569 29.5024 11.9451 29.4548 11.8612 29.3729C11.7773 29.291 11.7275 29.1806 11.7217 29.0639C11.7159 28.9471 11.7545 28.8324 11.8299 28.7427C11.9053 28.653 12.0119 28.5947 12.1285 28.5795L16.3618 28.1454C16.4854 28.1327 16.609 28.1694 16.7054 28.2473C16.8018 28.3252 16.8631 28.438 16.8758 28.5609C16.8885 28.6837 16.8517 28.8066 16.7733 28.9024C16.6949 28.9983 16.5815 29.0592 16.4579 29.0719L12.2246 29.5039L12.1745 29.506Z" fill="#EDAE5D"/>
<path d="M28.2907 27.2813C28.1702 27.2818 28.0542 27.2361 27.9668 27.1537C27.8794 27.0713 27.8273 26.9586 27.8214 26.8389C27.8154 26.7193 27.8561 26.602 27.935 26.5115C28.0138 26.421 28.1248 26.3641 28.2447 26.3528L32.478 25.9207C32.5977 25.9148 32.7151 25.9547 32.8061 26.0323C32.897 26.1098 32.9546 26.2191 32.967 26.3376C32.9793 26.4561 32.9454 26.5748 32.8723 26.6692C32.7992 26.7637 32.6925 26.8266 32.5741 26.8451L28.3387 27.2793L28.2907 27.2813Z" fill="#EDAE5D"/>
<path d="M32.5261 29.506H32.478L28.2447 29.0739C28.1211 29.0616 28.0076 29.0009 27.929 28.9052C27.8504 28.8096 27.8133 28.6868 27.8258 28.564C27.8382 28.4411 27.8993 28.3282 27.9955 28.2501C28.0917 28.172 28.2152 28.1351 28.3387 28.1475L32.5741 28.5816C32.6908 28.5969 32.7974 28.6553 32.8728 28.7453C32.9481 28.8352 32.9866 28.9501 32.9805 29.067C32.9744 29.1838 32.9243 29.2941 32.8401 29.3759C32.7558 29.4576 32.6437 29.5049 32.5261 29.5081V29.506Z" fill="#EDAE5D"/>
</svg>
