<svg width="194" height="194" viewBox="0 0 194 194" fill="none" xmlns="http://www.w3.org/2000/svg">
<path d="M104.164 113.171V152.852C104.164 152.852 109.905 156.364 106.384 157.926C102.864 159.488 102.475 156.105 102.475 156.105C102.475 156.105 102.818 159.873 99.1307 159.098C95.4433 158.324 97.7887 155.845 97.7887 155.845C97.7887 155.845 95.4475 158.604 92.9809 157.101C90.5142 155.598 96.6181 152.341 96.6181 152.341L87.3285 113.958L104.164 113.171Z" fill="#181614"/>
<path d="M115.649 51.9808L107.179 54.162L96.9986 56.7786L91.5636 58.1812L90.9825 55.0454L91.1079 54.8696C98.165 45.2404 103.437 35.0251 109.842 33.5431C110.282 33.4381 110.732 33.3764 111.184 33.3589C111.184 33.3589 109.796 48.7823 115.649 51.9808Z" fill="#E75F32"/>
<path d="M109.336 39.9443C109.158 42.4757 108.976 45.01 108.792 47.5471C108.675 49.1757 108.558 50.8336 108.027 52.3826C107.815 53.0093 107.526 53.607 107.166 54.1619C106.653 54.9885 105.932 55.6656 105.076 56.1254C103.978 56.6058 102.792 56.8511 101.593 56.8455C100.06 56.9157 98.5246 56.8933 96.9944 56.7785C96.476 56.7492 95.9576 56.699 95.4433 56.6404C94.1891 56.4938 92.9349 56.2719 91.8939 55.5644C91.6097 55.3656 91.3513 55.1321 91.1246 54.8694C98.1817 45.2403 103.454 35.025 109.859 33.543C110.168 35.4102 109.466 38.1189 109.336 39.9443Z" fill="#FB9855"/>
<path d="M110.691 50.7793C93.7292 49.4731 83.0014 58.5622 82.0315 68.7816C82.0315 68.7816 78.1434 69.7571 76.1993 67.8103C76.1993 67.8103 74.2594 73.6464 78.6283 77.54C78.6283 77.54 76.1993 76.0788 75.7018 75.5932C75.2043 75.1076 76.1868 84.3474 81.0448 86.2941H79.1049C79.1049 86.2941 86.3878 97.4807 102.417 96.995C118.446 96.5094 126.222 87.2654 126.222 87.2654C126.222 87.2654 133.329 78.8922 130.591 68.296C127.689 57.1011 117.003 51.265 110.691 50.7793Z" fill="#E75F32"/>
<path d="M134.437 80.5669L111.276 61.6268L111.05 58.4492C112.61 56.7201 114.173 54.811 115.728 52.8726C121.163 46.082 126.347 38.9229 130.261 37.9851C130.81 37.8309 131.392 37.8377 131.937 38.0047C132.482 38.1716 132.969 38.4918 133.338 38.9271C131.619 43.5282 135.591 72.4659 134.437 80.5669Z" fill="#E75F32"/>
<path d="M131.419 75.7648C136.469 76.9956 134.216 85.5112 134.5 89.7689C134.784 94.0267 136.883 98.8747 140.562 101.257C148.924 106.658 176.784 138.17 164.71 157.357H114.361C114.332 156.964 114.29 156.574 114.248 156.185C113.719 151.463 112.584 146.829 110.87 142.398C109.705 139.31 108.149 136.384 106.242 133.69C102.994 129.19 97.425 127.067 93.1732 123.722C91.1441 122.115 89.7297 119.858 89.168 117.329C88.4162 118.631 87.8983 120.055 87.6378 121.537C86.1955 119.222 85.7983 116.425 85.4346 113.72C84.8989 114.678 84.5993 115.75 84.5608 116.848C82.908 113.369 82.211 109.512 82.5415 105.674C82.8592 101.881 84.4563 98.6822 85.6771 95.1529C86.1784 93.7052 86.5505 92.216 86.7892 90.7025C93.9968 90.0787 100.665 86.629 107.304 83.9579L118.805 79.3527C122.066 78.0423 125.495 76.1709 129.015 75.7229C129.812 75.5914 130.626 75.6055 131.419 75.7648Z" fill="#E75F32"/>
<path d="M105.753 114.746V154.427C105.753 154.427 100.013 157.939 103.525 159.497C107.037 161.054 107.434 157.675 107.434 157.675C107.434 157.675 107.091 161.443 110.778 160.669C114.466 159.894 112.12 157.416 112.12 157.416C112.12 157.416 114.457 160.175 116.928 158.672C119.399 157.169 113.291 153.912 113.291 153.912L122.581 115.537L105.753 114.746Z" fill="#E75F32"/>
<path d="M167.566 163.964C169.293 160.288 170.169 156.27 170.128 152.208C170.114 150.107 169.833 148.016 169.292 145.986C169.015 144.971 168.67 143.975 168.26 143.005C168.051 142.52 167.841 142.038 167.586 141.565C167.386 141.168 167.168 140.602 166.805 140.339C166.788 140.333 166.771 140.333 166.754 140.339C166.742 140.345 166.732 140.355 166.725 140.368C166.375 141.088 166.115 141.849 165.952 142.633C165.726 143.46 165.387 144.252 164.944 144.986C164.526 145.618 164.196 146.313 163.811 146.966C163.396 147.614 163.14 148.352 163.063 149.118C162.837 152.275 163.322 156.264 160.605 158.584C155.487 162.946 149.973 158.894 145.675 155.406C143.907 153.97 142.209 152.388 141.03 150.437C138.94 146.937 138.459 142.118 135.232 139.33C134.002 138.27 132.305 137.889 130.695 137.889C129.062 137.883 127.448 138.238 125.967 138.929C124.487 139.62 123.178 140.63 122.133 141.888C121.11 143.162 120.416 144.669 120.112 146.275C119.808 147.881 119.904 149.538 120.39 151.098C118.718 151.287 117.463 152.354 116.535 153.74C115.663 155.174 115.236 156.835 115.31 158.513C115.305 159.849 115.664 161.162 116.347 162.31C117.309 163.817 118.964 164.767 120.683 165.24C122.401 165.714 124.203 165.764 125.988 165.806C125.704 167.614 125.444 169.574 126.276 171.194C127.372 173.337 130.081 174.212 132.472 173.957C134.981 173.693 137.489 172.224 138.325 169.846C141.043 172.575 144.935 174.296 148.748 173.785C152.561 173.275 156.077 170.222 156.52 166.396C157.955 167.102 159.48 167.609 161.052 167.903C162.632 168.125 164.346 167.87 165.592 166.869C166.462 166.063 167.137 165.07 167.566 163.964Z" fill="#181614"/>
<path d="M127.33 53.0776C126.347 58.2145 127.192 62.937 127.251 68.0865C127.317 68.7546 127.198 69.4282 126.908 70.0332C126.686 70.4058 125.653 71.6451 125.235 71.7414C124.203 71.9716 124.24 70.904 123.898 69.9537C123.202 67.9946 122.373 66.0853 121.418 64.239C120.946 63.3221 114.633 53.7014 114.336 54.0279C115.691 52.5459 116.945 51.3611 118.195 49.7702C119.633 47.9406 121.08 46.1153 122.597 44.3276C122.961 43.9089 129.993 37.0932 130.273 37.964C130.447 38.7174 130.447 39.5006 130.273 40.254C129.521 44.5913 128.158 48.7737 127.33 53.0776Z" fill="#FB9855"/>
<path d="M89.7575 64.754C89.6154 65.9011 90.4432 66.9896 91.4298 67.4752C92.684 68.0865 94.0721 67.8939 95.389 67.6762C95.5455 67.6269 95.6767 67.5184 95.7548 67.3738C95.8328 67.2292 95.8516 67.0599 95.8071 66.9017C95.7594 66.7438 95.653 66.6102 95.5099 66.5284C95.3668 66.4466 95.1979 66.4229 95.0378 66.4621C94.5295 66.5549 94.0155 66.6122 93.4993 66.6337C93.2576 66.6422 93.0156 66.6296 92.776 66.5961C92.6346 66.5737 92.4949 66.5415 92.3579 66.4998L92.2074 66.4495L92.128 66.4202C91.7976 66.2746 91.5098 66.0469 91.2918 65.7587C91.2296 65.6745 91.1751 65.5848 91.1288 65.4908C91.097 65.4285 91.0731 65.3623 91.0577 65.294C91.0441 65.2514 91.033 65.2081 91.0243 65.1642C91.0243 65.1224 91.0243 65.1224 91.0243 65.1642V65.0973C91.0139 64.9831 91.0139 64.8682 91.0243 64.754C91.0232 64.5878 90.9568 64.4287 90.8394 64.3111C90.722 64.1936 90.5632 64.1271 90.3972 64.126C90.2322 64.1302 90.0751 64.1977 89.9584 64.3146C89.8417 64.4315 89.7743 64.5887 89.7701 64.754H89.7575Z" fill="#181614"/>
<path d="M97.4125 68.0363C96.9889 68.0215 96.5699 68.1275 96.2042 68.3419C96.0095 68.486 95.8456 68.6677 95.7221 68.8762C95.5986 69.0847 95.5181 69.3158 95.4851 69.556C95.4137 70.0542 95.4715 70.5624 95.6531 71.0317C95.8347 71.501 96.1339 71.9156 96.522 72.2354C96.9124 72.5529 97.3615 72.7902 97.8435 72.9339C98.3256 73.0776 98.8312 73.1248 99.3314 73.0727C99.7296 73.0427 100.118 72.9331 100.473 72.7504C100.802 72.5664 101.08 72.3031 101.281 71.9843C101.483 71.6656 101.601 71.3014 101.627 70.925C101.748 68.7689 99.1057 67.9986 97.4125 68.0363Z" fill="#181614"/>
<path d="M103.65 68.497C103.931 69.3389 104.393 70.1088 105.004 70.7526C105.614 71.3964 106.358 71.8984 107.183 72.2233C108.008 72.5481 108.894 72.688 109.779 72.633C110.664 72.578 111.526 72.3295 112.304 71.9049C113.015 71.5281 112.384 70.4438 111.669 70.8206C111.055 71.1406 110.379 71.3255 109.688 71.363C108.996 71.4005 108.305 71.2897 107.66 71.038C107.015 70.7864 106.431 70.3996 105.947 69.9036C105.463 69.4076 105.09 68.8139 104.854 68.1621C104.587 67.4085 103.374 67.7434 103.646 68.497H103.65Z" fill="#181614"/>
<path d="M86.8853 71.8668C86.3962 73.4326 86.2081 75.2161 87.3536 76.5516C87.8107 77.0353 88.3701 77.4104 88.9908 77.6495C89.6115 77.8885 90.2777 77.9855 90.9407 77.9332C92.5085 77.8411 93.8881 77.0121 95.0504 76.0073C96.3858 74.8136 97.5707 73.4611 98.5789 71.9799C99.043 71.3184 97.956 70.6904 97.4961 71.3477C96.6618 72.5406 95.7139 73.6497 94.6657 74.6593C93.7334 75.551 92.6255 76.3967 91.3211 76.6311C90.821 76.7309 90.305 76.7172 89.8109 76.5911C89.3168 76.4651 88.8572 76.2298 88.4657 75.9027C87.4163 74.9314 87.7089 73.42 88.0894 72.2017C88.3319 71.4272 87.1195 71.0965 86.8812 71.8668H86.8853Z" fill="#181614"/>
<path d="M96.9986 71.5782C96.7001 72.2223 96.5366 72.9209 96.5183 73.6308C96.5 74.3407 96.6272 75.0468 96.892 75.7055C97.1569 76.3642 97.5538 76.9616 98.0582 77.4607C98.5626 77.9598 99.1638 78.3501 99.8247 78.6074C102.63 79.7378 105.72 78.4107 107.292 75.9406C107.731 75.254 106.644 74.626 106.209 75.3042C104.98 77.2342 102.626 78.2809 100.414 77.4938C98.3239 76.7486 97.0696 74.2911 98.0814 72.2145C98.4326 71.4902 97.3497 70.8497 96.9986 71.5782Z" fill="#181614"/>
<path d="M100.552 79.8802C100.533 81.906 100.284 83.923 99.808 85.8921C99.6074 86.7294 99.2604 87.6588 98.4493 87.91C97.6382 88.1612 96.777 87.5835 96.1833 86.9806C93.6824 84.4849 92.1727 81.1638 91.9357 77.6362C93.0269 77.0752 93.7836 76.2672 94.8622 75.702C95.6106 75.3126 96.3965 74.8981 96.8732 74.199C98.0772 75.7899 98.9886 77.0249 100.297 78.5321C100.41 78.4358 100.531 78.6451 100.536 78.7917C100.556 79.1517 100.561 79.5327 100.552 79.8802Z" fill="#181614"/>
<path d="M123.174 73.5459C123.552 74.6782 124.285 75.6578 125.265 76.3383C125.781 76.7185 126.318 77.0693 126.874 77.3892L127.643 77.8455C127.934 77.9693 128.203 78.1405 128.438 78.3521C128.521 78.4232 128.513 78.3981 128.438 78.2683L128.233 78.4777L127.773 78.9675L126.937 79.8048C126.347 80.3742 125.754 80.931 125.148 81.4795C123.91 82.5959 122.634 83.669 121.318 84.6989C120.875 85.0464 121.259 85.7749 121.761 85.7707C122.729 85.7516 123.689 85.9445 124.575 86.3359L124.449 85.352L121.122 88.7432C121.038 88.8324 120.982 88.944 120.96 89.0645C120.938 89.1849 120.951 89.3092 120.998 89.4224C121.044 89.5355 121.123 89.6327 121.223 89.7024C121.324 89.772 121.442 89.8111 121.565 89.8149C122.426 89.8608 123.289 89.7903 124.132 89.6056L123.521 88.5548C119.378 93.0847 113.048 94.1146 107.216 94.3155C106.414 94.3406 106.409 95.5966 107.216 95.5715C113.383 95.358 120.047 94.2192 124.416 89.4465C124.511 89.3475 124.571 89.2201 124.588 89.0837C124.604 88.9474 124.575 88.8093 124.507 88.6906C124.438 88.5719 124.332 88.4788 124.205 88.4256C124.079 88.3724 123.939 88.3619 123.806 88.3957C123.072 88.5504 122.321 88.6053 121.573 88.559L122.016 89.6307L125.323 86.2312C125.39 86.1627 125.44 86.0799 125.471 85.9891C125.501 85.8984 125.51 85.8019 125.498 85.7069C125.486 85.612 125.453 85.5209 125.401 85.4407C125.349 85.3604 125.279 85.2929 125.198 85.2432C124.115 84.7495 122.938 84.4981 121.749 84.5064L122.192 85.5781C123.585 84.4896 124.934 83.3509 126.239 82.1619C126.891 81.5674 127.532 80.9617 128.162 80.3449C128.463 80.0476 128.764 79.7462 129.061 79.4406C129.379 79.1958 129.615 78.86 129.738 78.4777C129.868 77.7408 129.228 77.3347 128.689 76.9956C128.149 76.6565 127.489 76.2881 126.903 75.9197C125.846 75.2582 124.78 74.4627 124.395 73.2193C124.161 72.4448 122.953 72.7755 123.187 73.5501L123.174 73.5459Z" fill="#181614"/>
<path d="M100.552 79.8801C100.533 81.9059 100.284 83.9229 99.808 85.8921C99.6074 86.7294 99.2604 87.6588 98.4493 87.91C97.6382 88.1612 96.777 87.5834 96.1833 86.9806C95.0173 85.8271 94.0597 84.48 93.353 82.9991L93.4909 82.8819C95.4468 81.1243 97.931 80.0683 100.552 79.8801Z" fill="white"/>
<path d="M106.698 52.7383C105.337 52.7146 104.001 53.1012 102.863 53.8478C101.724 54.5943 100.836 55.6665 100.314 56.9249C100.271 57.0859 100.294 57.2571 100.376 57.4019C100.458 57.5467 100.593 57.6535 100.753 57.6994C100.91 57.7396 101.077 57.7188 101.22 57.6412C101.362 57.5636 101.47 57.4348 101.522 57.2808C101.963 56.2817 102.691 55.4362 103.612 54.8512C104.533 54.2662 105.607 53.968 106.698 53.9943C107.505 54.0194 107.505 52.7635 106.698 52.7383Z" fill="#181614"/>
<path d="M104.929 56.3098C104.178 56.8516 103.572 57.5706 103.165 58.4031C102.977 58.8263 102.908 59.293 102.965 59.7527C103.023 60.2124 103.205 60.6477 103.491 61.0113C103.609 61.1289 103.768 61.195 103.934 61.195C104.101 61.195 104.26 61.1289 104.378 61.0113C104.491 60.8915 104.554 60.7327 104.554 60.5676C104.554 60.4024 104.491 60.2436 104.378 60.1238C104.378 60.1573 104.415 60.174 104.378 60.1238C104.378 60.0903 104.327 60.0442 104.307 60.0024C104.286 59.9605 104.256 59.8852 104.281 59.9521C104.307 60.0191 104.281 59.9061 104.281 59.8977C104.256 59.814 104.24 59.7344 104.223 59.6507C104.223 59.7093 104.223 59.7135 104.223 59.6507C104.223 59.5921 104.223 59.5544 104.223 59.5084C104.217 59.422 104.217 59.3352 104.223 59.2488C104.223 59.299 104.223 59.3116 104.223 59.2488L104.248 59.1358C104.268 59.052 104.293 58.9683 104.323 58.8846C104.323 58.8846 104.373 58.7673 104.344 58.8259C104.315 58.8846 104.39 58.7422 104.386 58.7464L104.511 58.5287L104.599 58.3947L104.645 58.3319L104.691 58.2733L104.796 58.1519C104.85 58.0891 104.909 58.0263 104.967 57.9677C105.232 57.6975 105.511 57.4417 105.803 57.2016C105.92 57.0833 105.985 56.9239 105.985 56.7578C105.985 56.5917 105.92 56.4323 105.803 56.314C105.684 56.2003 105.525 56.137 105.36 56.137C105.195 56.137 105.037 56.2003 104.917 56.314L104.929 56.3098Z" fill="#181614"/>
<path d="M105.887 60.3123C106.292 60.8729 106.783 61.3661 107.342 61.7734C107.414 61.8155 107.493 61.8428 107.576 61.8536C107.658 61.8644 107.742 61.8585 107.823 61.8362C107.98 61.7906 108.114 61.6875 108.199 61.5473C108.242 61.475 108.27 61.3946 108.28 61.311C108.291 61.2275 108.285 61.1426 108.262 61.0617L108.199 60.911C108.144 60.8183 108.067 60.7417 107.973 60.6891L107.923 60.6472L108.048 60.7477C107.623 60.4163 107.241 60.0323 106.911 59.6048L107.007 59.7304L106.97 59.6801C106.93 59.6093 106.874 59.549 106.807 59.5043C106.745 59.4506 106.672 59.4119 106.593 59.3912C106.514 59.369 106.431 59.3628 106.349 59.3728C106.267 59.3829 106.187 59.4091 106.115 59.45C106.044 59.4909 105.98 59.5455 105.93 59.6109C105.879 59.6762 105.842 59.751 105.82 59.8308C105.797 59.9114 105.792 59.9957 105.803 60.0786C105.815 60.1614 105.843 60.241 105.887 60.3123Z" fill="#181614"/>
<path d="M102.049 73.705C102.16 73.705 102.266 73.6609 102.345 73.5824C102.423 73.5039 102.467 73.3974 102.467 73.2863C102.467 73.1753 102.423 73.0688 102.345 72.9903C102.266 72.9118 102.16 72.8677 102.049 72.8677C101.938 72.8677 101.832 72.9118 101.753 72.9903C101.675 73.0688 101.631 73.1753 101.631 73.2863C101.631 73.3974 101.675 73.5039 101.753 73.5824C101.832 73.6609 101.938 73.705 102.049 73.705Z" fill="#181614"/>
<path d="M101.501 75.6225C101.612 75.6225 101.718 75.5784 101.797 75.4999C101.875 75.4213 101.919 75.3149 101.919 75.2038C101.919 75.0928 101.875 74.9863 101.797 74.9078C101.718 74.8293 101.612 74.7852 101.501 74.7852C101.39 74.7852 101.284 74.8293 101.206 74.9078C101.127 74.9863 101.083 75.0928 101.083 75.2038C101.083 75.3149 101.127 75.4213 101.206 75.4999C101.284 75.5784 101.39 75.6225 101.501 75.6225Z" fill="#181614"/>
<path d="M104.102 74.9274C104.213 74.9274 104.319 74.8833 104.397 74.8048C104.476 74.7263 104.52 74.6198 104.52 74.5087C104.52 74.3977 104.476 74.2912 104.397 74.2127C104.319 74.1342 104.213 74.0901 104.102 74.0901C103.991 74.0901 103.884 74.1342 103.806 74.2127C103.728 74.2912 103.684 74.3977 103.684 74.5087C103.684 74.6198 103.728 74.7263 103.806 74.8048C103.884 74.8833 103.991 74.9274 104.102 74.9274Z" fill="#181614"/>
<path d="M90.5644 73.5668C90.6753 73.5668 90.7816 73.5227 90.86 73.4442C90.9384 73.3657 90.9825 73.2592 90.9825 73.1482C90.9825 73.0371 90.9384 72.9306 90.86 72.8521C90.7816 72.7736 90.6753 72.7295 90.5644 72.7295C90.4535 72.7295 90.3472 72.7736 90.2688 72.8521C90.1904 72.9306 90.1463 73.0371 90.1463 73.1482C90.1463 73.2592 90.1904 73.3657 90.2688 73.4442C90.3472 73.5227 90.4535 73.5668 90.5644 73.5668Z" fill="#181614"/>
<path d="M91.7893 70.4142C91.9002 70.4142 92.0066 70.3701 92.085 70.2916C92.1634 70.2131 92.2074 70.1066 92.2074 69.9956C92.2074 69.8845 92.1634 69.778 92.085 69.6995C92.0066 69.621 91.9002 69.5769 91.7893 69.5769C91.6785 69.5769 91.5721 69.621 91.4937 69.6995C91.4153 69.778 91.3713 69.8845 91.3713 69.9956C91.3713 70.1066 91.4153 70.2131 91.4937 70.2916C91.5721 70.3701 91.6785 70.4142 91.7893 70.4142Z" fill="#181614"/>
<path d="M94.1138 72.4699C94.2247 72.4699 94.3311 72.4258 94.4095 72.3473C94.4879 72.2687 94.5319 72.1623 94.5319 72.0512C94.5319 71.9402 94.4879 71.8337 94.4095 71.7552C94.3311 71.6767 94.2247 71.6326 94.1138 71.6326C94.003 71.6326 93.8966 71.6767 93.8182 71.7552C93.7398 71.8337 93.6958 71.9402 93.6958 72.0512C93.6958 72.1623 93.7398 72.2687 93.8182 72.3473C93.8966 72.4258 94.003 72.4699 94.1138 72.4699Z" fill="#181614"/>
<path d="M90.9197 70.5526C87.1571 63.854 78.829 62.8953 71.9475 62.3301C71.4123 62.2883 71.4165 63.1256 71.9475 63.1674C78.5196 63.7075 86.5801 64.57 90.1965 70.9754C90.2543 71.0666 90.3451 71.1318 90.4498 71.1575C90.5546 71.1832 90.6652 71.1673 90.7585 71.1133C90.8519 71.0593 90.9208 70.9712 90.9508 70.8675C90.9809 70.7638 90.9697 70.6525 90.9197 70.5568V70.5526Z" fill="#181614"/>
<path d="M85.8861 68.7605C81.2482 67.3547 76.3387 67.0975 71.5796 68.0111C71.0528 68.1116 71.2744 68.9196 71.8012 68.8192C76.4133 67.941 81.1695 68.1981 85.6604 69.5685C85.7133 69.5834 85.7687 69.5876 85.8234 69.5811C85.878 69.5745 85.9308 69.5572 85.9787 69.5301C86.0267 69.5031 86.0688 69.4669 86.1028 69.4236C86.1368 69.3802 86.1619 69.3306 86.1767 69.2776C86.1915 69.2245 86.1958 69.1691 86.1892 69.1144C86.1826 69.0597 86.1653 69.0068 86.1383 68.9588C86.1114 68.9108 86.0752 68.8686 86.0319 68.8345C85.9887 68.8005 85.9391 68.7754 85.8861 68.7605Z" fill="#181614"/>
<path d="M82.2363 71.6202C79.6272 72.0229 77.0634 72.6791 74.5813 73.5796C74.0797 73.7638 74.2971 74.5718 74.8071 74.3876C77.2876 73.4868 79.85 72.8306 82.4579 72.4283C82.9888 72.3487 82.7631 71.5407 82.2363 71.6202Z" fill="#181614"/>
<path d="M104.361 73.6005C109.356 73.7171 114.149 75.5939 117.898 78.9007C118.316 79.2566 118.893 78.6663 118.492 78.3062C114.58 74.8504 109.576 72.8876 104.361 72.7632C104.25 72.7632 104.144 72.8073 104.065 72.8858C103.987 72.9643 103.943 73.0708 103.943 73.1818C103.943 73.2929 103.987 73.3994 104.065 73.4779C104.144 73.5564 104.25 73.6005 104.361 73.6005Z" fill="#181614"/>
<path d="M102.003 76.3213C104.144 77.2406 106.055 78.6215 107.602 80.3655C109.148 82.1095 110.291 84.1738 110.95 86.411C110.98 86.5182 111.051 86.609 111.148 86.6636C111.245 86.7181 111.359 86.732 111.466 86.702C111.573 86.672 111.664 86.6007 111.718 86.5037C111.773 86.4068 111.787 86.2921 111.757 86.1849C111.07 83.8437 109.878 81.6819 108.266 79.8524C106.654 78.0229 104.66 76.5702 102.425 75.5971C101.936 75.3877 101.51 76.1078 102.007 76.3213H102.003Z" fill="#181614"/>
<path d="M104.821 75.7061C108.57 76.592 111.959 78.6051 114.533 81.4753C114.892 81.8939 115.482 81.2869 115.122 80.885C112.449 77.9091 108.932 75.8206 105.042 74.8981C104.52 74.7767 104.294 75.5847 104.821 75.7061Z" fill="#181614"/>
<path d="M94.7452 89.0739C95.2926 89.6187 95.9714 90.0125 96.7156 90.2172C97.4599 90.4218 98.2443 90.4304 98.9928 90.242C99.0458 90.2274 99.0954 90.2025 99.1388 90.1688C99.1821 90.135 99.2185 90.093 99.2456 90.0452C99.2728 89.9974 99.2903 89.9447 99.2972 89.8901C99.304 89.8355 99.3 89.7801 99.2855 89.727C99.2709 89.674 99.2461 89.6243 99.2123 89.5809C99.1786 89.5374 99.1367 89.5011 99.089 89.4738C99.0412 89.4466 98.9886 89.4291 98.9341 89.4223C98.8795 89.4154 98.8242 89.4194 98.7712 89.434C98.1658 89.5856 97.5316 89.5777 96.9301 89.4112C96.3287 89.2447 95.7805 88.9251 95.3388 88.4836C95.2607 88.4048 95.1544 88.3603 95.0435 88.3599C94.9325 88.3595 94.826 88.4032 94.7473 88.4815C94.6685 88.5598 94.6241 88.6662 94.6237 88.7773C94.6233 88.8884 94.667 88.9951 94.7452 89.0739Z" fill="#181614"/>
<path d="M91.2166 94.1271C91.5834 95.1468 92.1795 96.0683 92.9589 96.8204C93.7382 97.5725 94.6798 98.135 95.7109 98.4644C95.8711 98.508 96.0421 98.4863 96.1863 98.4039C96.3305 98.3214 96.4362 98.1851 96.4801 98.0248C96.5224 97.8672 96.5025 97.6994 96.4247 97.556C96.3469 97.4127 96.2171 97.3047 96.0621 97.2545L95.7192 97.1373L95.552 97.0703C95.6524 97.1121 95.5019 97.0452 95.481 97.0368C95.0612 96.8471 94.6654 96.6082 94.302 96.3251L94.2393 96.2748L94.1222 96.1785C94.0344 96.099 93.9424 96.0194 93.8588 95.9357C93.6918 95.7775 93.534 95.6098 93.3864 95.4333C93.3446 95.3873 93.307 95.337 93.2693 95.291C93.3362 95.3747 93.2359 95.2449 93.2233 95.2282C93.1564 95.1403 93.0937 95.0481 93.0352 94.956C92.9082 94.7633 92.7923 94.5634 92.6882 94.3574C92.6338 94.2527 92.5837 94.1438 92.5335 94.035C92.5711 94.1145 92.5335 94.035 92.5335 93.9889L92.4583 93.7922C92.4383 93.7106 92.4021 93.6338 92.352 93.5664C92.3018 93.499 92.2387 93.4424 92.1663 93.3999C92.0939 93.3574 92.0137 93.3299 91.9305 93.319C91.8473 93.3081 91.7628 93.3141 91.6819 93.3365C91.601 93.3589 91.5254 93.3973 91.4597 93.4495C91.3939 93.5017 91.3393 93.5666 91.299 93.6403C91.2587 93.7141 91.2336 93.7951 91.2252 93.8787C91.2168 93.9624 91.2253 94.0468 91.25 94.1271H91.2166Z" fill="#181614"/>
<path d="M94.5361 95.5171C95.0466 96.212 95.7056 96.7838 96.4651 97.1909C97.2246 97.598 98.0654 97.83 98.9259 97.8699C99.0922 97.8699 99.2517 97.8038 99.3693 97.686C99.4869 97.5682 99.553 97.4085 99.553 97.242C99.553 97.0754 99.4869 96.9157 99.3693 96.7979C99.2517 96.6801 99.0922 96.614 98.9259 96.614L98.6583 96.593C98.6374 96.593 98.4994 96.593 98.6207 96.593L98.5036 96.5721C98.3322 96.5428 98.1566 96.5051 97.9894 96.4591C97.8222 96.413 97.6508 96.3544 97.4835 96.2916C97.4125 96.2581 97.4417 96.2916 97.4835 96.2916L97.3497 96.2288L97.1114 96.1116C96.9651 96.032 96.823 95.9483 96.6934 95.852L96.476 95.7013C96.3255 95.5883 96.5261 95.739 96.4425 95.672L96.3505 95.5966C96.2153 95.4829 96.0869 95.3613 95.9659 95.2324C95.9032 95.1696 95.8447 95.1026 95.7861 95.0356L95.7109 94.9477C95.5896 94.797 95.7778 95.0398 95.6649 94.8849C95.5786 94.7498 95.4448 94.6521 95.29 94.611C95.1351 94.5699 94.9706 94.5885 94.8288 94.663C94.6869 94.7485 94.584 94.8859 94.5418 95.0462C94.4996 95.2065 94.5216 95.3769 94.603 95.5213L94.5361 95.5171Z" fill="#181614"/>
<path d="M98.997 94.9226C99.9029 95.5383 100.956 95.901 102.049 95.9734C102.215 95.9712 102.373 95.9044 102.49 95.7871C102.607 95.6698 102.674 95.5113 102.676 95.3454C102.672 95.1802 102.604 95.0229 102.488 94.9061C102.371 94.7892 102.214 94.7217 102.049 94.7174H101.861H101.765H101.794C101.681 94.7174 101.572 94.6839 101.468 94.6588C101.235 94.6094 101.006 94.545 100.782 94.4662L100.607 94.3992H100.581C100.463 94.3551 100.348 94.3005 100.239 94.236C100.029 94.1276 99.8266 94.006 99.6325 93.8717C99.4884 93.7886 99.3176 93.7652 99.1566 93.8067C98.9956 93.8482 98.8573 93.9512 98.7712 94.0936C98.6917 94.2391 98.6708 94.4094 98.7128 94.5698C98.7548 94.7302 98.8565 94.8684 98.997 94.9561V94.9226Z" fill="#181614"/>
<path d="M104.298 118.598C104.449 126.742 104.747 134.878 105.193 143.006C105.324 145.325 105.463 147.643 105.611 149.96C105.661 150.764 106.915 150.768 106.865 149.96C106.33 141.832 105.945 133.699 105.711 125.56C105.644 123.241 105.59 120.92 105.548 118.598C105.548 117.79 104.294 117.786 104.294 118.598H104.298Z" fill="#181614"/>
<path d="M106.677 156.541C106.215 157.601 106.169 158.797 106.547 159.89C106.66 160.157 106.831 160.396 107.048 160.588C107.265 160.78 107.523 160.921 107.802 160.999C108.298 161.123 108.815 161.143 109.319 161.058C109.485 161.055 109.642 160.988 109.759 160.87C109.876 160.753 109.943 160.595 109.946 160.43C109.945 160.264 109.879 160.105 109.761 159.987C109.644 159.87 109.485 159.803 109.319 159.802C109.111 159.83 108.902 159.845 108.692 159.848C108.596 159.848 108.5 159.848 108.404 159.848C108.404 159.848 108.236 159.823 108.32 159.848C108.404 159.873 108.253 159.848 108.241 159.848L108.082 159.802C107.973 159.773 108.111 159.831 108.057 159.802C108.018 159.777 107.977 159.755 107.935 159.735C107.806 159.655 107.994 159.806 107.889 159.697L107.793 159.597C107.751 159.547 107.831 159.668 107.793 159.568C107.756 159.467 107.739 159.471 107.714 159.425C107.756 159.501 107.714 159.425 107.714 159.392C107.714 159.358 107.659 159.212 107.639 159.12L107.614 158.981C107.639 159.12 107.614 158.94 107.614 158.923C107.599 158.697 107.599 158.47 107.614 158.245C107.614 158.186 107.614 158.131 107.614 158.077C107.634 157.859 107.614 158.186 107.614 157.972C107.634 157.859 107.655 157.751 107.68 157.642C107.737 157.399 107.811 157.162 107.902 156.93C107.948 156.772 107.929 156.602 107.851 156.457C107.773 156.312 107.641 156.204 107.484 156.155C107.323 156.115 107.153 156.138 107.009 156.22C106.865 156.302 106.758 156.436 106.71 156.595L106.677 156.541Z" fill="#181614"/>
<path d="M111.376 156.432C111.584 157.303 112.017 158.104 112.63 158.755C112.877 159.123 113.199 159.434 113.575 159.668C113.819 159.805 114.1 159.862 114.378 159.831C114.656 159.8 114.918 159.683 115.126 159.496C115.244 159.379 115.31 159.219 115.31 159.053C115.31 158.886 115.244 158.727 115.126 158.609C115.007 158.494 114.848 158.43 114.683 158.43C114.518 158.43 114.359 158.494 114.24 158.609C114.144 158.701 114.357 158.542 114.24 158.609C114.29 158.584 114.349 158.559 114.24 158.609C114.131 158.659 114.378 158.609 114.265 158.609H114.207C114.156 158.609 114.177 158.609 114.269 158.609C114.231 158.597 114.192 158.587 114.152 158.58C114.043 158.55 114.232 158.63 114.152 158.58L114.052 158.521C113.926 158.446 114.135 158.605 114.052 158.521C113.812 158.276 113.589 158.016 113.383 157.742C113.324 157.684 113.341 157.688 113.383 157.742C113.354 157.713 113.324 157.663 113.295 157.629L113.14 157.403C113.041 157.26 112.949 157.112 112.865 156.959C112.827 156.888 112.789 156.821 112.756 156.75L112.718 156.662L112.743 156.729C112.743 156.729 112.697 156.604 112.693 156.595C112.639 156.433 112.597 156.266 112.568 156.097C112.523 155.936 112.416 155.8 112.271 155.718C112.127 155.635 111.955 155.614 111.794 155.657C111.64 155.709 111.51 155.818 111.433 155.962C111.355 156.106 111.335 156.274 111.376 156.432Z" fill="#181614"/>
<path d="M103.341 155.121C102.563 155.787 102.007 156.675 101.748 157.667C101.589 158.226 101.649 158.825 101.915 159.341C102.049 159.583 102.242 159.786 102.476 159.933C102.71 160.079 102.977 160.164 103.253 160.179C103.419 160.178 103.578 160.111 103.695 159.994C103.813 159.876 103.879 159.717 103.88 159.551C103.877 159.385 103.81 159.227 103.693 159.11C103.576 158.993 103.418 158.926 103.253 158.923C103.182 158.923 103.207 158.923 103.253 158.923C103.253 158.923 103.102 158.868 103.174 158.923C103.245 158.977 103.14 158.898 103.128 158.893C103.048 158.847 103.19 158.952 103.128 158.893C103.065 158.835 103.061 158.831 103.027 158.793C103.052 158.831 103.069 158.839 103.027 158.793C103.005 158.762 102.986 158.73 102.969 158.697C102.944 158.646 102.948 158.634 102.969 158.697C102.969 158.646 102.939 158.592 102.927 158.538C102.914 158.483 102.927 158.609 102.927 158.496C102.919 158.402 102.919 158.308 102.927 158.215C102.927 158.168 102.927 158.168 102.927 158.215V158.144C102.927 158.098 102.948 158.052 102.96 158.006C102.973 157.96 103.019 157.801 103.052 157.7L103.098 157.579C103.136 157.478 103.065 157.65 103.098 157.549C103.132 157.449 103.178 157.374 103.224 157.286C103.308 157.123 103.402 156.965 103.504 156.813L103.579 156.708C103.642 156.62 103.533 156.767 103.6 156.679C103.667 156.591 103.725 156.528 103.788 156.457C103.92 156.31 104.059 156.17 104.206 156.038C104.324 155.92 104.39 155.761 104.39 155.594C104.39 155.428 104.324 155.268 104.206 155.151C104.086 155.038 103.928 154.975 103.763 154.975C103.598 154.975 103.44 155.038 103.32 155.151L103.341 155.121Z" fill="#181614"/>
<path d="M121.648 116.609C119.268 125.917 117.019 135.253 114.901 144.617C114.307 147.246 113.723 149.877 113.149 152.509C112.977 153.3 114.186 153.635 114.357 152.844C116.406 143.46 118.582 134.11 120.887 124.794C121.531 122.181 122.188 119.569 122.857 116.957C123.057 116.174 121.849 115.839 121.648 116.622V116.609Z" fill="#181614"/>
<path d="M121.418 123.53C122.418 122.519 123.296 121.395 124.036 120.18C124.117 120.036 124.14 119.865 124.099 119.704C124.058 119.543 123.955 119.405 123.814 119.318C123.669 119.238 123.499 119.217 123.338 119.259C123.178 119.302 123.04 119.403 122.953 119.544C122.777 119.833 122.597 120.118 122.405 120.381L122.121 120.8L121.966 121.009L121.895 121.102C121.832 121.185 121.983 120.988 121.87 121.131C121.453 121.661 121.006 122.167 120.532 122.646C120.415 122.765 120.35 122.925 120.35 123.092C120.35 123.259 120.415 123.419 120.532 123.538C120.652 123.652 120.81 123.715 120.975 123.715C121.14 123.715 121.299 123.652 121.418 123.538V123.53Z" fill="#181614"/>
<path d="M153.355 129.692C150.755 127.574 147.544 125.464 144.036 126.489C143.267 126.715 143.593 127.925 144.371 127.699C147.406 126.812 150.224 128.754 152.465 130.58C153.088 131.086 153.978 130.203 153.355 129.692Z" fill="#181614"/>
<path d="M144.45 127.423C141.85 127.092 138.969 126.887 136.875 128.784C136.277 129.328 137.167 130.216 137.761 129.676C139.563 128.039 142.247 128.42 144.45 128.679C144.616 128.679 144.776 128.613 144.894 128.495C145.011 128.377 145.077 128.218 145.077 128.051C145.074 127.886 145.007 127.728 144.89 127.611C144.773 127.494 144.615 127.426 144.45 127.423Z" fill="#181614"/>
<path d="M140.014 128.65C138.558 128.865 137.16 129.375 135.906 130.148C134.652 130.921 133.567 131.941 132.719 133.146C132.636 133.29 132.614 133.461 132.656 133.621C132.698 133.782 132.802 133.92 132.945 134.004C133.087 134.079 133.251 134.097 133.406 134.056C133.561 134.015 133.695 133.917 133.781 133.782C134.55 132.72 135.527 131.825 136.651 131.15C137.776 130.476 139.025 130.037 140.324 129.86C140.481 129.811 140.613 129.703 140.691 129.558C140.769 129.413 140.787 129.243 140.742 129.085C140.691 128.93 140.583 128.801 140.44 128.723C140.297 128.645 140.13 128.625 139.973 128.666L140.014 128.65Z" fill="#181614"/>
<path d="M134.237 132.284C132.681 133.066 131.444 134.363 130.737 135.955C130.03 137.548 129.895 139.336 130.357 141.017C130.405 141.173 130.512 141.304 130.655 141.382C130.798 141.461 130.966 141.48 131.123 141.437C131.28 141.393 131.415 141.29 131.497 141.149C131.579 141.008 131.604 140.841 131.565 140.682C131.176 139.268 131.294 137.763 131.897 136.428C132.5 135.092 133.551 134.009 134.868 133.368C135.591 133.012 134.956 131.928 134.237 132.284Z" fill="#181614"/>
<path d="M140.805 151.462C142.327 151.979 143.97 152.022 145.516 151.584C145.672 151.535 145.803 151.428 145.881 151.285C145.96 151.142 145.979 150.974 145.935 150.816C145.892 150.659 145.789 150.525 145.648 150.442C145.507 150.359 145.34 150.335 145.182 150.374C143.854 150.748 142.442 150.706 141.139 150.252C141.059 150.228 140.974 150.219 140.891 150.228C140.807 150.236 140.727 150.261 140.653 150.301C140.579 150.342 140.514 150.396 140.462 150.462C140.41 150.528 140.372 150.604 140.349 150.685C140.327 150.766 140.321 150.85 140.332 150.934C140.343 151.017 140.37 151.097 140.413 151.17C140.455 151.242 140.512 151.306 140.579 151.356C140.646 151.406 140.723 151.442 140.805 151.462Z" fill="#181614"/>
<path d="M160.095 154.054C160.095 154.133 160.124 154.209 160.136 154.284C160.136 154.146 160.136 154.384 160.136 154.41C160.136 154.543 160.136 154.682 160.136 154.828C160.136 154.975 160.136 155.1 160.115 155.247C160.115 155.272 160.086 155.511 160.115 155.372C160.115 155.439 160.115 155.506 160.082 155.573C160.028 155.851 159.951 156.124 159.852 156.39C159.852 156.423 159.827 156.461 159.81 156.499C159.835 156.44 159.84 156.436 159.81 156.499C159.785 156.557 159.764 156.603 159.735 156.654C159.668 156.798 159.593 156.937 159.509 157.072C159.425 157.216 159.401 157.387 159.443 157.549C159.485 157.71 159.589 157.848 159.733 157.933C159.876 158.017 160.048 158.041 160.209 157.999C160.37 157.957 160.508 157.852 160.592 157.709C161.31 156.519 161.559 155.104 161.29 153.74C161.269 153.66 161.232 153.585 161.182 153.52C161.131 153.455 161.069 153.4 160.997 153.359C160.926 153.318 160.847 153.292 160.765 153.282C160.683 153.272 160.6 153.278 160.521 153.3C160.363 153.348 160.23 153.454 160.148 153.598C160.067 153.741 160.043 153.91 160.082 154.07L160.095 154.054Z" fill="#181614"/>
<path d="M113.738 154.28H113.83L113.663 154.301C113.816 154.282 113.97 154.282 114.123 154.301L113.956 154.28C114.058 154.292 114.159 154.315 114.257 154.347L114.386 154.389C114.482 154.431 114.361 154.389 114.336 154.389C114.36 154.397 114.382 154.409 114.403 154.422C114.492 154.465 114.577 154.514 114.658 154.569L114.721 154.615C114.784 154.657 114.6 154.514 114.679 154.581L114.796 154.686L114.892 154.782L114.942 154.841C114.942 154.862 115.022 154.937 114.942 154.841L114.984 154.904C115.01 154.941 115.034 154.98 115.055 155.021C115.086 155.063 115.11 155.11 115.126 155.159C115.126 155.134 115.064 155.008 115.101 155.109L115.126 155.18C115.158 155.277 115.182 155.376 115.197 155.477L115.172 155.31C115.174 155.331 115.174 155.352 115.172 155.373C115.179 155.538 115.244 155.695 115.356 155.816C115.444 155.904 115.556 155.964 115.677 155.988C115.799 156.012 115.925 156 116.039 155.952C116.154 155.905 116.252 155.824 116.321 155.721C116.39 155.618 116.426 155.497 116.427 155.373C116.396 155.007 116.285 154.652 116.1 154.334C115.907 154.018 115.652 153.744 115.352 153.526C115.072 153.32 114.753 153.174 114.414 153.097C114.075 153.021 113.724 153.016 113.383 153.083C113.303 153.104 113.229 153.141 113.164 153.191C113.098 153.242 113.044 153.304 113.003 153.376C112.962 153.448 112.936 153.527 112.926 153.609C112.916 153.69 112.922 153.774 112.944 153.853C112.992 154.011 113.098 154.144 113.241 154.226C113.384 154.308 113.553 154.332 113.713 154.293L113.738 154.28Z" fill="#181614"/>
<path d="M87.8051 107.754C87.9472 109.733 88.5485 111.651 89.561 113.356C89.6478 113.494 89.7845 113.592 89.9423 113.63C90.1 113.669 90.2666 113.645 90.4068 113.563C90.5471 113.481 90.6502 113.348 90.6944 113.191C90.7386 113.035 90.7205 112.867 90.6438 112.724C89.7381 111.213 89.1956 109.512 89.0593 107.754C89.0551 107.589 88.9877 107.432 88.871 107.315C88.7543 107.198 88.5972 107.131 88.4322 107.126C88.2662 107.128 88.1074 107.194 87.99 107.312C87.8726 107.429 87.8062 107.588 87.8051 107.754Z" fill="#181614"/>
<path d="M91.3169 111.631C91.7714 114.325 92.8989 116.86 94.5946 119C94.7135 119.111 94.8708 119.171 95.0332 119.168C95.1957 119.165 95.3507 119.099 95.4656 118.984C95.5805 118.869 95.6463 118.714 95.6492 118.551C95.652 118.389 95.5917 118.231 95.481 118.112C93.9386 116.126 92.9219 113.781 92.5252 111.296C92.4802 111.137 92.3744 111.001 92.2304 110.919C92.0865 110.837 91.9161 110.814 91.7559 110.857C91.5973 110.905 91.4632 111.012 91.3814 111.156C91.2997 111.3 91.2766 111.47 91.3169 111.631Z" fill="#181614"/>
<path d="M96.3715 114.662C96.7691 116.336 97.541 117.898 98.6291 119.23C98.7472 119.347 98.9064 119.412 99.0722 119.412C99.2381 119.412 99.3973 119.347 99.5154 119.23C99.6289 119.11 99.6922 118.951 99.6922 118.786C99.6922 118.621 99.6289 118.462 99.5154 118.342C98.5772 117.168 97.9155 115.797 97.5797 114.332C97.5615 114.248 97.5266 114.17 97.4771 114.101C97.4276 114.031 97.3646 113.973 97.2918 113.929C97.219 113.885 97.138 113.856 97.0538 113.844C96.9695 113.832 96.8838 113.838 96.8017 113.86C96.7197 113.883 96.643 113.922 96.5765 113.975C96.5099 114.028 96.4548 114.094 96.4146 114.169C96.3744 114.244 96.3498 114.326 96.3424 114.411C96.3349 114.496 96.3449 114.581 96.3715 114.662Z" fill="#181614"/>
<path d="M98.2612 109.609C98.4077 110.563 98.6329 111.502 98.9343 112.418C98.9792 112.578 99.0851 112.714 99.229 112.796C99.3729 112.878 99.5433 112.901 99.7035 112.858C99.8627 112.811 99.9975 112.704 100.079 112.56C100.161 112.415 100.184 112.244 100.143 112.084C99.8402 111.162 99.6151 110.217 99.4694 109.258C99.4245 109.097 99.318 108.961 99.1731 108.878C99.0282 108.796 98.8567 108.774 98.696 108.818C98.5418 108.871 98.4132 108.98 98.3357 109.123C98.2582 109.267 98.2376 109.434 98.2779 109.593L98.2612 109.609Z" fill="#181614"/>
<path d="M161.219 118.698C162.478 119.244 163.531 120.175 164.229 121.357C164.569 121.919 164.822 122.528 164.982 123.165C165.058 123.455 165.11 123.75 165.137 124.049C165.129 124.39 165.161 124.732 165.233 125.066C165.284 125.222 165.369 125.364 165.481 125.483C165.593 125.602 165.729 125.696 165.881 125.757C166.177 125.828 166.459 125.947 166.717 126.109C167.248 126.577 166.984 127.415 167.252 128.026C167.605 128.683 167.909 129.364 168.163 130.065C168.383 130.873 168.458 131.713 168.385 132.548C168.322 133.356 169.576 133.351 169.639 132.548C169.781 130.764 169.275 129.228 168.473 127.666C168.338 127.294 168.271 126.902 168.276 126.506C168.219 126.139 168.072 125.792 167.848 125.497C167.624 125.201 167.33 124.965 166.993 124.811C166.859 124.752 166.688 124.735 166.575 124.664C166.366 124.551 166.424 124.664 166.412 124.35C166.329 122.865 165.829 121.432 164.97 120.218C164.11 119.005 162.926 118.058 161.554 117.488C160.809 117.179 160.483 118.393 161.219 118.698Z" fill="#181614"/>
<path d="M170.074 128.629C170.364 129.118 170.567 129.655 170.672 130.215L170.709 130.433C170.709 130.508 170.709 130.517 170.709 130.454V130.546C170.709 130.693 170.735 130.839 170.739 130.965C170.743 131.09 170.739 131.258 170.739 131.404C170.739 131.48 170.739 131.551 170.739 131.626C170.739 131.701 170.709 131.886 170.739 131.768C170.697 131.927 170.718 132.095 170.795 132.238C170.873 132.382 171.002 132.491 171.157 132.543C171.318 132.585 171.488 132.562 171.632 132.48C171.777 132.398 171.883 132.263 171.93 132.103C172.142 130.679 171.868 129.225 171.153 127.975C171.068 127.838 170.935 127.738 170.779 127.696C170.624 127.654 170.458 127.673 170.316 127.749C170.181 127.835 170.082 127.969 170.041 128.124C169.999 128.279 170.017 128.444 170.091 128.587L170.074 128.629Z" fill="#181614"/>
<path d="M48.021 22.1764C42.4648 20.8535 36.595 20.5018 31.0472 21.875C27.736 22.7123 24.3789 24.299 22.6438 27.2422C22.2713 27.8338 22.0502 28.5082 22 29.2057C22.01 29.7596 22.1335 30.3056 22.363 30.8097C22.5924 31.3138 22.9228 31.7654 23.3337 32.1363C24.9014 33.6937 27.1172 34.372 29.2578 34.912C38.8443 37.3151 48.8112 37.9766 58.3684 40.4969C63.8034 41.9288 69.1297 44.043 73.7954 47.1955C77.951 50.0172 81.6719 53.3581 83.7205 58.0094C83.65 56.7038 83.3675 55.4185 82.8843 54.2038C81.2706 49.8037 79.6735 45.5585 76.9017 41.7404C72.3874 35.5279 66.5475 30.4007 59.8066 26.7315C56.0947 24.7017 52.1321 23.1703 48.021 22.1764Z" fill="#181614"/>
<path d="M31.114 25.1279C30.5415 26.3556 29.9066 27.5531 29.2118 28.7158L30.0229 29.1889C30.5938 27.875 31.2793 26.6142 32.0714 25.421L31.1977 25.3247C31.3118 26.1074 31.5066 26.8763 31.7788 27.6189C32.0087 28.2469 32.431 28.8372 33.1877 28.6698C33.7787 28.4654 34.3082 28.1139 34.7262 27.6482C35.1342 27.1986 35.6292 26.8368 36.1811 26.5848L35.6042 26.2541C35.738 27.0077 35.3366 27.8408 35.1108 28.5442L34.3625 30.8886C34.1785 31.4664 35.0858 31.726 35.2697 31.1398L36.1059 28.5567C36.3734 27.7194 36.6786 26.8821 36.5239 26.0029C36.4898 25.8826 36.4096 25.7807 36.3007 25.7195C36.1918 25.6583 36.0631 25.6428 35.9428 25.6763C34.9144 26.0406 34.3123 26.9323 33.4344 27.5101C33.3215 27.5896 33.0497 27.8157 32.9034 27.7487C32.7571 27.6817 32.6442 27.2296 32.594 27.0788C32.3775 26.4246 32.2208 25.752 32.1258 25.0693C32.0631 24.6506 31.4652 24.6506 31.2646 24.9562C30.4729 26.1491 29.7887 27.41 29.2202 28.7242C28.986 29.2642 29.7135 29.7331 30.0312 29.1973C30.7276 28.0369 31.3626 26.8407 31.9335 25.6135C32.1885 25.0693 31.3774 24.5878 31.1224 25.1363L31.114 25.1279Z" fill="white"/>
<path d="M39.2749 27.6397C38.5411 28.4549 38.059 29.4655 37.8869 30.5494C37.8033 31.1188 37.7155 31.8305 38.3551 32.111C38.6119 32.2057 38.8807 32.2635 39.1537 32.2826C39.4798 32.3287 39.8017 32.3622 40.1319 32.3831C40.2558 32.382 40.3743 32.3323 40.4618 32.2446C40.5494 32.1569 40.5991 32.0382 40.6002 31.9142C40.5981 31.7901 40.5482 31.6716 40.461 31.5835C40.3737 31.4953 40.2558 31.4443 40.1319 31.4411C39.672 31.4225 39.2146 31.3637 38.7648 31.2653C38.723 31.2653 38.7272 31.2653 38.7272 31.2653C38.7351 31.2693 38.742 31.2753 38.7471 31.2826C38.7522 31.2899 38.7554 31.2983 38.7565 31.3071C38.7774 31.3448 38.7816 31.349 38.7565 31.3071C38.761 31.2291 38.761 31.1508 38.7565 31.0727C38.7683 30.877 38.7948 30.6825 38.8359 30.4908C38.9996 29.6878 39.37 28.9417 39.9104 28.3263C39.9963 28.236 40.0442 28.1161 40.0442 27.9914C40.0442 27.8667 39.9963 27.7467 39.9104 27.6564C39.8214 27.5697 39.7022 27.5212 39.578 27.5212C39.4539 27.5212 39.3346 27.5697 39.2456 27.6564L39.2749 27.6397Z" fill="white"/>
<path d="M39.0951 29.7498C39.5942 29.8612 40.1071 29.8978 40.6169 29.8586C40.7414 29.8547 40.8603 29.8056 40.9514 29.7205C40.9951 29.6772 41.0298 29.6257 41.0535 29.569C41.0772 29.5122 41.0893 29.4513 41.0893 29.3897C41.0872 29.2649 41.0367 29.1459 40.9486 29.0576C40.8604 28.9693 40.7415 28.9188 40.6169 28.9167C40.2848 28.9522 39.9498 28.9522 39.6177 28.9167H39.7431C39.6093 28.9167 39.4756 28.8748 39.346 28.8455C39.2846 28.8226 39.2191 28.8127 39.1537 28.8165C39.0883 28.8202 39.0244 28.8376 38.9661 28.8674C38.9077 28.8972 38.8562 28.9389 38.8148 28.9897C38.7734 29.0406 38.743 29.0995 38.7256 29.1627C38.7081 29.2259 38.704 29.2921 38.7134 29.357C38.7229 29.4219 38.7457 29.4841 38.7804 29.5397C38.8152 29.5953 38.8611 29.6431 38.9153 29.68C38.9695 29.7169 39.0307 29.7421 39.0951 29.754V29.7498Z" fill="white"/>
<path d="M39.4839 27.2927L42.0593 27.569C42.1838 27.569 42.3034 27.5198 42.3919 27.4319C42.4803 27.3441 42.5306 27.2249 42.5317 27.1001C42.5286 26.9771 42.479 26.8597 42.3928 26.7719C42.3067 26.6841 42.1905 26.6323 42.0676 26.627L39.4839 26.3633C39.359 26.3644 39.2394 26.4146 39.1511 26.5031C39.0627 26.5915 39.0126 26.7112 39.0115 26.8364C39.0157 26.9601 39.067 27.0775 39.1548 27.1647C39.2426 27.2519 39.3603 27.3021 39.4839 27.3053V27.2927Z" fill="white"/>
<path d="M46.6874 28.5821C46.7375 28.4272 46.7243 28.2587 46.6506 28.1135C46.577 27.9683 46.4489 27.8583 46.2944 27.8076C46.1407 27.7736 45.9809 27.7788 45.8297 27.8226C45.6785 27.8665 45.5407 27.9477 45.429 28.0588C44.9966 28.3841 44.6208 28.7788 44.3169 29.2268C43.7186 30.0426 43.4553 31.0569 43.5811 32.0611C43.6568 32.5518 43.9208 32.9934 44.3169 33.292C44.543 33.4432 44.7999 33.5419 45.069 33.581C45.3381 33.6201 45.6124 33.5986 45.8721 33.5181C46.9968 33.1957 47.5444 32.103 47.9625 31.0982C48.2462 30.497 48.3297 29.8205 48.2008 29.1682C48.133 28.8783 47.996 28.6091 47.8016 28.3838C47.6072 28.1585 47.3612 27.9838 47.0845 27.8745C46.9648 27.8423 46.8372 27.8584 46.7293 27.9195C46.6214 27.9806 46.5417 28.0817 46.5076 28.2011C46.4764 28.3215 46.4929 28.4493 46.5536 28.5578C46.6144 28.6663 46.7148 28.747 46.8337 28.783C47.4775 29.0217 47.3897 29.9302 47.2309 30.4577C47.0177 31.1359 46.6707 31.9774 46.0812 32.4128C45.6213 32.7561 44.898 32.8315 44.6221 32.2244C44.5221 31.9332 44.4817 31.6249 44.5033 31.3178C44.5248 31.0107 44.6079 30.711 44.7475 30.4367C44.8929 30.0994 45.0842 29.7838 45.3161 29.4989C45.4436 29.3403 45.5834 29.1919 45.7342 29.0552C45.8041 28.9879 45.8781 28.925 45.9557 28.8668L46.031 28.8081L46.0937 28.7663C46.1857 28.7202 46.1731 28.7119 46.0561 28.737L45.847 28.6156L45.8136 28.5486V28.2974L45.7927 28.3518C45.7712 28.4682 45.7941 28.5884 45.8568 28.6887C45.9195 28.789 46.0175 28.8622 46.1314 28.8937C46.2453 28.9252 46.3668 28.9129 46.4721 28.8591C46.5773 28.8053 46.6586 28.7139 46.6999 28.603L46.6874 28.5821Z" fill="white"/>
<path d="M51.6834 29.1765C50.8465 29.6558 50.1535 30.3512 49.6766 31.1903C49.1875 32.0527 48.807 33.2459 49.4467 34.1209C49.587 34.323 49.7748 34.4875 49.9935 34.5999C50.2122 34.7123 50.4551 34.7692 50.7009 34.7656C51.1889 34.7293 51.6515 34.5337 52.0178 34.2088C52.7728 33.5369 53.2991 32.6455 53.5229 31.6592C53.7654 30.6963 53.8323 29.4152 52.8832 28.8081C52.369 28.4774 51.9008 29.2937 52.4066 29.6203C52.9125 29.9469 52.7578 30.7507 52.6617 31.2112C52.5189 31.9419 52.1939 32.6246 51.7168 33.1956C51.3949 33.5683 50.6507 34.1586 50.2201 33.6143C49.7895 33.07 50.1783 32.195 50.4751 31.6675C50.8723 30.9691 51.4499 30.3906 52.1474 29.9929C52.2403 29.9241 52.3047 29.8236 52.3286 29.7104C52.3524 29.5972 52.334 29.4792 52.2769 29.3787C52.2197 29.2781 52.1278 29.202 52.0184 29.1648C51.9091 29.1276 51.7899 29.1317 51.6834 29.1765Z" fill="white"/>
<path d="M57.8667 31.2236C56.9637 30.4784 55.839 31.4581 55.1994 32.1112C54.4675 32.7951 54.0272 33.7354 53.9702 34.7362C53.963 34.967 54.0018 35.197 54.0843 35.4127C54.1669 35.6283 54.2915 35.8253 54.451 35.9922C54.8984 36.4108 55.492 36.3187 56.0188 36.1261C56.9804 35.7948 57.8188 35.1787 58.4227 34.3594C58.7724 33.8762 59.0008 33.3158 59.0889 32.7256C59.1769 32.1354 59.1219 31.5327 58.9286 30.9683C58.8926 30.8492 58.812 30.7487 58.7037 30.6878C58.5954 30.6269 58.4677 30.6104 58.3475 30.6417C58.2283 30.6759 58.1273 30.7556 58.0663 30.8637C58.0053 30.9718 57.9892 31.0996 58.0214 31.2195C58.5774 32.7057 57.6995 34.1961 56.3993 34.9246C56.0734 35.124 55.7155 35.2657 55.3415 35.3432C55.0781 35.3893 54.9945 35.226 54.9234 34.9748C54.7813 34.372 55.145 33.656 55.5129 33.183C55.7715 32.8508 56.0723 32.5538 56.4076 32.2996C56.5573 32.1699 56.7231 32.0601 56.9009 31.973C56.9511 31.973 57.1434 31.8684 57.1894 31.9102C57.2798 31.9941 57.3985 32.0407 57.5218 32.0407C57.645 32.0407 57.7637 31.9941 57.8542 31.9102C57.942 31.8209 57.9912 31.7006 57.9912 31.5753C57.9912 31.45 57.942 31.3297 57.8542 31.2404L57.8667 31.2236Z" fill="white"/>
<path d="M61.5081 33.1955C60.521 34.11 59.7988 35.2743 59.4178 36.5657C59.2641 36.9656 59.1999 37.3943 59.2296 37.8217C59.2669 38.0193 59.3587 38.2025 59.4947 38.3505C59.6307 38.4985 59.8053 38.6054 59.9989 38.659C60.4511 38.7496 60.9207 38.6722 61.32 38.4413C62.2041 38.0238 63.0145 37.4653 63.7198 36.7876L62.9171 36.4527C62.8836 37.1519 62.269 37.6752 62.4655 38.4204C62.662 39.1656 63.4898 39.467 64.188 39.4043C65.7014 39.2745 66.7843 38.0311 67.4155 36.7458C67.6831 36.2057 66.872 35.7284 66.6045 36.2727C66.1488 37.1895 65.4381 38.2027 64.372 38.433C64.0333 38.5041 63.2975 38.5209 63.3769 38.0143C63.4396 37.768 63.5323 37.5304 63.6529 37.3068C63.7713 37.0424 63.8407 36.7587 63.8577 36.4695C63.8563 36.377 63.8278 36.287 63.7758 36.2105C63.7238 36.1341 63.6505 36.0746 63.5651 36.0394C63.4797 36.0042 63.3859 35.9949 63.2952 36.0125C63.2045 36.0302 63.121 36.074 63.055 36.1387C62.5454 36.6286 61.9749 37.0507 61.3576 37.3947C61.0735 37.609 60.7424 37.7525 60.3919 37.8133C60.024 37.8133 60.1745 37.4742 60.233 37.223C60.5361 35.956 61.2084 34.8077 62.1645 33.924C62.6077 33.5053 61.9429 32.8439 61.4998 33.2583L61.5081 33.1955Z" fill="white"/>
</svg>
