<svg width="16" height="16" viewBox="0 0 16 16" fill="none" xmlns="http://www.w3.org/2000/svg">
<g id="Iconly/Bold/Volume Up">
<g id="Volume Up">
<path id="Volume Up_2" fill-rule="evenodd" clip-rule="evenodd" d="M8.74024 4.91698C8.71278 4.64679 8.68418 4.36646 8.61383 4.08673C8.42222 3.41752 7.89144 3.00001 7.32234 3.00001C7.0049 2.99881 6.60338 3.19803 6.37574 3.39962L4.48884 5.00943H3.50106C2.7741 5.00943 2.18955 5.58023 2.07916 6.40392C1.98536 7.1948 1.96248 8.6877 2.07916 9.55792C2.1804 10.4281 2.73864 10.9906 3.50106 10.9906H4.48884L6.41235 12.6242C6.60968 12.799 6.958 12.9994 7.2783 12.9994C7.29889 13 7.31719 13 7.3355 13C7.91547 13 8.42623 12.567 8.61784 11.8996C8.69003 11.6174 8.71533 11.3529 8.73978 11.0973L8.74024 11.0926L8.76597 10.8379C8.86435 10.0118 8.86435 5.98283 8.76597 5.16271L8.74024 4.91698ZM10.949 4.94141C10.7917 4.70521 10.48 4.64617 10.2518 4.81019C10.0259 4.9754 9.96984 5.30106 10.1271 5.53666C10.5647 6.19334 10.8055 7.06773 10.8055 7.99997C10.8055 8.93162 10.5647 9.80661 10.1271 10.4633C9.96984 10.6989 10.0259 11.0245 10.2524 11.1898C10.337 11.2506 10.436 11.2828 10.5378 11.2828C10.7019 11.2828 10.8552 11.1987 10.949 11.0585C11.5016 10.2295 11.8064 9.14336 11.8064 7.99997C11.8064 6.85659 11.5016 5.77046 10.949 4.94141ZM11.9764 3.12281C12.2041 2.95819 12.5169 3.01843 12.6731 3.25402C13.5287 4.53698 14 6.22313 14 7.99994C14 9.77794 13.5287 11.4635 12.6731 12.7464C12.5799 12.8866 12.426 12.9707 12.2618 12.9707C12.16 12.9707 12.0617 12.9385 11.977 12.8777C11.7505 12.7124 11.6945 12.3874 11.8512 12.1512C12.5913 11.0406 12.9991 9.5662 12.9991 7.99994C12.9991 6.43427 12.5913 4.95986 11.8512 3.84928C11.6945 3.61368 11.7505 3.28802 11.9764 3.12281Z" fill="#738FF5"/>
</g>
</g>
</svg>
