<svg width="16" height="15" viewBox="0 0 16 15" fill="none" xmlns="http://www.w3.org/2000/svg">
<path d="M12.7334 9.33096C12.5263 9.5291 12.4311 9.81566 12.4783 10.0967L13.1894 13.9806C13.2494 14.3098 13.1086 14.643 12.8294 14.8332C12.5559 15.0306 12.1919 15.0543 11.8935 14.8964L8.35081 13.0728C8.22762 13.0081 8.09084 12.9733 7.95086 12.9694H7.73409C7.6589 12.9804 7.58531 13.0041 7.51812 13.0404L3.97458 14.8727C3.7994 14.9595 3.60103 14.9903 3.40666 14.9595C2.93312 14.8711 2.61716 14.4259 2.69475 13.9562L3.40666 10.0722C3.45385 9.78882 3.35866 9.50068 3.15149 9.29938L0.263066 6.53641C0.0214978 6.30511 -0.0624912 5.95776 0.0478944 5.64436C0.15508 5.33175 0.428645 5.10361 0.759001 5.05229L4.73448 4.48312C5.03684 4.45233 5.30241 4.27077 5.43839 4.00236L7.19016 0.457864C7.23176 0.378922 7.28535 0.306295 7.35014 0.244721L7.42213 0.189461C7.45973 0.148411 7.50292 0.114466 7.55091 0.0868363L7.6381 0.0552595L7.77408 0H8.11084C8.4116 0.0307874 8.67637 0.208407 8.81475 0.473653L10.5897 4.00236C10.7177 4.26051 10.9665 4.4397 11.2536 4.48312L15.2291 5.05229C15.5651 5.09966 15.8458 5.32859 15.957 5.64436C16.0618 5.96092 15.9714 6.30826 15.725 6.53641L12.7334 9.33096Z" fill="#738FF5"/>
</svg>
