<svg width="44" height="53" viewBox="0 0 44 53" fill="none" xmlns="http://www.w3.org/2000/svg">
<path fill-rule="evenodd" clip-rule="evenodd" d="M1.24448 18.1158C1.24448 18.1158 -1.15093 2.49751 2.60292 0.724517C6.44181 -1.09448 12.5724 7.67642 12.5724 7.67642L1.24448 18.1158Z" fill="#EDAE5D"/>
<path d="M1.24449 18.5966C1.1901 18.5969 1.13607 18.5877 1.08479 18.5695C1.00331 18.5406 0.93114 18.4899 0.875985 18.4229C0.82083 18.3559 0.784761 18.275 0.771629 18.1889C0.52068 16.5539 -1.56572 2.16922 2.39968 0.289594C6.54759 -1.67994 12.7031 7.02824 12.9623 7.39831C13.0274 7.49376 13.0563 7.60962 13.0438 7.72476C13.0312 7.8399 12.978 7.94665 12.8939 8.02555L1.56595 18.4712C1.47784 18.5516 1.36334 18.5963 1.24449 18.5966ZM3.73323 0.958649C3.41129 0.957819 3.0932 1.02924 2.80203 1.16773C0.166033 2.42221 0.935469 12.4016 1.58254 17.1519L11.9316 7.61575C10.2932 5.35978 6.47293 0.958649 3.73738 0.958649H3.73323Z" fill="#1B1529"/>
<path fill-rule="evenodd" clip-rule="evenodd" d="M42.7568 18.1158C42.7568 18.1158 45.1543 2.50588 41.3962 0.724517C37.5594 -1.09448 31.4288 7.67642 31.4288 7.67642L42.7568 18.1158Z" fill="#EDAE5D"/>
<path d="M42.7568 18.5966C42.6373 18.5963 42.5221 18.5517 42.4332 18.4711L31.1074 8.03177C31.0229 7.95311 30.9694 7.84631 30.9568 7.73105C30.9442 7.61579 30.9734 7.49984 31.0389 7.40454C31.2982 7.03446 37.4474 -1.67371 41.5995 0.29582C45.567 2.17754 43.4785 16.5601 43.2276 18.1951C43.2144 18.2812 43.1784 18.3621 43.1232 18.4291C43.068 18.4961 42.9959 18.5468 42.9144 18.5757C42.8634 18.5917 42.8101 18.5988 42.7568 18.5966ZM32.0655 7.60943L42.4125 17.1456C43.0575 12.3953 43.829 2.40962 41.193 1.16141C38.4741 -0.128613 33.8989 5.09002 32.0655 7.60943Z" fill="#1B1529"/>
<path fill-rule="evenodd" clip-rule="evenodd" d="M0.962434 52.3191H43.325C43.325 52.3191 43.5324 27.4386 43.325 22.2116C43.0741 15.8598 39.3949 7.36693 31.0057 6.41771C20.0636 5.18623 13.879 6.03928 10.1915 7.17876C6.50404 8.31825 0.997689 11.904 0.68867 21.6053C0.340246 32.5903 0.962434 52.3191 0.962434 52.3191Z" fill="white"/>
<path d="M0.96035 52.8C0.836471 52.7995 0.717588 52.7507 0.628649 52.6638C0.53971 52.5768 0.487632 52.4585 0.483343 52.3337C0.483343 52.1351 -0.138844 32.4711 0.213728 21.5843C0.558005 10.8042 7.21125 7.5969 10.0546 6.71668C15.0052 5.1883 22.0711 4.92696 31.0597 5.9389C34.9836 6.38215 38.2874 8.48549 40.6164 12.021C42.5017 14.8812 43.6631 18.5882 43.8041 22.1928C44.0115 27.3738 43.8041 52.0724 43.8041 52.3233C43.803 52.4501 43.7523 52.5713 43.6629 52.6606C43.5736 52.7499 43.4529 52.8 43.3271 52.8C43.2004 52.7989 43.0793 52.7472 42.9903 52.6563C42.9013 52.5654 42.8516 52.4426 42.8522 52.3149C42.8522 52.0661 43.0596 27.3884 42.8522 22.2304C42.5826 15.4604 38.7478 7.77462 30.9539 6.88812C22.096 5.89081 15.1586 6.13962 10.3346 7.63036C7.68619 8.44786 1.49336 11.4482 1.16775 21.6073C0.821395 32.4565 1.43321 52.0975 1.43944 52.294C1.44335 52.4218 1.39687 52.5459 1.31018 52.6391C1.22349 52.7324 1.10366 52.7872 0.976942 52.7916L0.96035 52.8Z" fill="#1B1529"/>
<path fill-rule="evenodd" clip-rule="evenodd" d="M11.523 22.0172C11.4276 18.8935 14.1279 18.2245 15.2271 19.6295C16.206 20.884 16.1728 24.1498 14.5344 24.8147C13.0038 25.4377 11.5894 24.1561 11.523 22.0172Z" fill="#1B1529"/>
<path d="M32.3859 25C32.2918 24.9997 32.1997 24.9772 32.1203 24.9351L27.2353 22.35C27.1634 22.3131 27.104 22.2614 27.0628 22.1998C27.0216 22.1383 27 22.069 27 21.9985C27 21.928 27.0216 21.8587 27.0628 21.7972C27.104 21.7356 27.1634 21.6839 27.2353 21.647L32.2413 19.0619C32.2968 19.0333 32.3586 19.014 32.4231 19.0053C32.4876 18.9966 32.5535 18.9986 32.6171 19.0112C32.6807 19.0237 32.7407 19.0466 32.7936 19.0785C32.8466 19.1104 32.8915 19.1507 32.9258 19.1971C32.9602 19.2435 32.9832 19.2951 32.9936 19.3489C33.0041 19.4028 33.0017 19.4578 32.9866 19.5108C32.9716 19.5639 32.9442 19.614 32.906 19.6582C32.8677 19.7024 32.8195 19.7399 32.7639 19.7686L28.4339 22.0039L32.6451 24.2338C32.7367 24.2817 32.8071 24.3531 32.8457 24.4373C32.8842 24.5216 32.8889 24.614 32.8589 24.7006C32.8288 24.7873 32.7658 24.8634 32.6792 24.9174C32.5927 24.9714 32.4875 25.0004 32.3795 25H32.3859Z" fill="#1B1529"/>
<path d="M11.8735 16.8006C11.8017 16.8002 11.7309 16.7838 11.6661 16.7525C11.6096 16.7252 11.5589 16.687 11.5171 16.6399C11.4752 16.5929 11.4429 16.538 11.4221 16.4784C11.4013 16.4188 11.3924 16.3556 11.3958 16.2925C11.3993 16.2294 11.415 16.1676 11.4421 16.1107C11.6477 15.722 11.9438 15.3895 12.3051 15.1419C12.6664 14.8942 13.082 14.7388 13.5161 14.6889C14.0284 14.6101 14.552 14.7104 14.9999 14.9733C15.4478 15.2361 15.7929 15.6456 15.9779 16.1337C16.0216 16.2534 16.0163 16.3858 15.9632 16.5017C15.9101 16.6175 15.8136 16.7074 15.6948 16.7515C15.576 16.7956 15.4446 16.7903 15.3297 16.7367C15.2148 16.6832 15.1256 16.5859 15.0819 16.4661C14.8745 15.889 14.3 15.567 13.6301 15.6465C13.3569 15.6765 13.0947 15.7721 12.8656 15.9253C12.6364 16.0784 12.447 16.2846 12.3132 16.5267C12.2735 16.61 12.211 16.68 12.1331 16.7286C12.0552 16.7771 11.9651 16.8021 11.8735 16.8006Z" fill="#1B1529"/>
<path d="M32.1257 16.8007C32.0361 16.8004 31.9483 16.7747 31.8724 16.7267C31.7966 16.6787 31.7356 16.6101 31.6964 16.5289C31.5618 16.2868 31.3719 16.0805 31.1426 15.9271C30.9132 15.7737 30.6509 15.6775 30.3773 15.6465C29.7033 15.5692 29.133 15.8891 28.9256 16.4661C28.8818 16.5859 28.7927 16.6833 28.6778 16.7368C28.5628 16.7903 28.4315 16.7956 28.3127 16.7515C28.1939 16.7074 28.0973 16.6176 28.0442 16.5017C27.9912 16.3859 27.9859 16.2535 28.0296 16.1337C28.2142 15.6458 28.5589 15.2364 29.0065 14.9735C29.454 14.7107 29.9773 14.6102 30.4893 14.689C30.9234 14.7388 31.339 14.8943 31.7003 15.1419C32.0616 15.3896 32.3577 15.7221 32.5633 16.1107C32.5904 16.1677 32.6062 16.2295 32.6096 16.2926C32.613 16.3557 32.6041 16.4188 32.5833 16.4784C32.5625 16.5381 32.5302 16.5929 32.4883 16.64C32.4465 16.687 32.3958 16.7253 32.3393 16.7526C32.2726 16.7847 32.1996 16.8011 32.1257 16.8007Z" fill="#1B1529"/>
<path fill-rule="evenodd" clip-rule="evenodd" d="M4.47363 28.5886C4.37201 26.5668 6.53722 25.4022 8.22127 25.9667C9.90532 26.5313 10.4549 27.7711 9.9468 29.5211C9.28314 31.798 4.65614 32.2642 4.47363 28.5886Z" fill="#FE7D7B"/>
<path fill-rule="evenodd" clip-rule="evenodd" d="M33.8761 28.5886C33.7745 26.5668 35.9397 25.4022 37.6237 25.9667C39.3078 26.5313 39.8553 27.7711 39.3493 29.5211C38.6856 31.798 34.0586 32.2642 33.8761 28.5886Z" fill="#FE7D7B"/>
<path fill-rule="evenodd" clip-rule="evenodd" d="M19.1054 27.3279C18.9934 26.1069 20.132 25.3981 21.8658 25.3981C23.8153 25.3981 24.8316 26.0023 24.8979 26.9453C24.9788 28.0868 23.9999 28.8416 22.1728 28.8834C19.9847 28.9336 19.207 28.4339 19.1054 27.3279Z" fill="#1B1529"/>
<path d="M11.6793 31.0166C11.6418 31.071 11.6161 31.1327 11.6039 31.1979C11.4297 31.5566 12.1079 31.8031 12.4687 31.8816C14.1777 32.2558 19.5451 33.1047 22.0566 29.728C23.0563 30.8738 25.8644 33.2259 31.6321 32.3374C31.9508 32.2858 32.5882 32.0927 32.5882 31.7331C32.5848 31.6647 32.5671 31.5978 32.536 31.5369C32.505 31.476 32.4614 31.4225 32.4082 31.3799C32.355 31.3374 32.2934 31.3068 32.2275 31.2902C32.1616 31.2735 32.0929 31.2713 32.0261 31.2836C24.9083 32.5966 22.5399 28.7997 22.4424 28.6387C22.3991 28.5669 22.3382 28.5074 22.2656 28.466C22.1929 28.4247 22.111 28.4028 22.0276 28.4025C21.9434 28.4024 21.8606 28.4248 21.7878 28.4674C21.7149 28.51 21.6545 28.5713 21.6128 28.645C19.3086 32.7346 12.2696 30.8466 12.1991 30.8257C12.1358 30.8082 12.0695 30.8041 12.0045 30.8138C11.9395 30.8236 11.8772 30.8468 11.8217 30.8822C11.7653 30.9164 11.7168 30.9621 11.6793 31.0166Z" fill="#1B1529"/>
<path d="M16.1707 27.4596H16.121L11.915 27.0205C11.7923 27.0078 11.6797 26.9464 11.6019 26.85C11.5241 26.7535 11.4875 26.6299 11.5002 26.5062C11.5128 26.3825 11.5737 26.269 11.6694 26.1906C11.7651 26.1122 11.8877 26.0753 12.0104 26.088L16.2122 26.525C16.3313 26.5364 16.4414 26.5936 16.5196 26.6847C16.5979 26.7759 16.6383 26.8939 16.6324 27.0143C16.6265 27.1347 16.5748 27.2482 16.4881 27.3311C16.4013 27.4141 16.2862 27.4601 16.1666 27.4596H16.1707Z" fill="#EDAE5D"/>
<path d="M11.9668 29.6988C11.85 29.6955 11.7388 29.648 11.6552 29.5657C11.5716 29.4834 11.5218 29.3724 11.5158 29.2547C11.5098 29.1371 11.5479 29.0215 11.6227 28.931C11.6975 28.8404 11.8033 28.7816 11.9191 28.7663L16.121 28.3293C16.1833 28.3194 16.2469 28.3224 16.3081 28.3382C16.3692 28.3539 16.4265 28.382 16.4765 28.4208C16.5265 28.4596 16.5681 28.5082 16.5988 28.5637C16.6296 28.6193 16.6488 28.6805 16.6553 28.7438C16.6617 28.807 16.6554 28.871 16.6366 28.9317C16.6177 28.9924 16.5869 29.0486 16.5458 29.0968C16.5047 29.1451 16.4543 29.1844 16.3977 29.2124C16.3411 29.2404 16.2794 29.2565 16.2164 29.2597L12.0145 29.6967L11.9668 29.6988Z" fill="#EDAE5D"/>
<path d="M27.9633 27.4596C27.8435 27.4607 27.7279 27.415 27.6407 27.3323C27.5535 27.2495 27.5014 27.1359 27.4953 27.0154C27.4891 26.8948 27.5294 26.7764 27.6077 26.6851C27.686 26.5937 27.7963 26.5364 27.9155 26.525L32.1174 26.088C32.1781 26.0817 32.2395 26.0875 32.298 26.1051C32.3565 26.1227 32.411 26.1518 32.4584 26.1906C32.5058 26.2294 32.5451 26.2773 32.5741 26.3314C32.6031 26.3856 32.6213 26.445 32.6276 26.5062C32.6338 26.5674 32.6281 26.6293 32.6106 26.6883C32.5932 26.7473 32.5644 26.8022 32.5258 26.85C32.4873 26.8977 32.4399 26.9374 32.3861 26.9666C32.3324 26.9959 32.2735 27.0142 32.2128 27.0205L28.0109 27.4554L27.9633 27.4596Z" fill="#EDAE5D"/>
<path d="M32.1651 29.6988H32.1174L27.9155 29.2597C27.8525 29.2565 27.7909 29.2404 27.7342 29.2124C27.6776 29.1844 27.6272 29.1451 27.5861 29.0968C27.5451 29.0486 27.5142 28.9924 27.4954 28.9317C27.4765 28.871 27.4702 28.807 27.4767 28.7438C27.4832 28.6805 27.5024 28.6193 27.5331 28.5637C27.5638 28.5082 27.6055 28.4596 27.6555 28.4208C27.7054 28.382 27.7627 28.3539 27.8239 28.3382C27.885 28.3224 27.9486 28.3194 28.0109 28.3293L32.2128 28.7663C32.3286 28.7816 32.4345 28.8404 32.5092 28.931C32.584 29.0215 32.6222 29.1371 32.6161 29.2547C32.6101 29.3724 32.5604 29.4834 32.4768 29.5657C32.3932 29.648 32.2819 29.6955 32.1651 29.6988Z" fill="#EDAE5D"/>
</svg>
