<svg width="46" height="65" viewBox="0 0 46 65" fill="none" xmlns="http://www.w3.org/2000/svg">
<path fill-rule="evenodd" clip-rule="evenodd" d="M5.38964 34.8037C5.38964 34.8037 3.412 21.4139 6.51192 19.8859C9.67684 18.3256 14.7339 25.8491 14.7339 25.8491L5.38964 34.8037Z" fill="#EDAE5D"/>
<path d="M5.38963 35.2163C5.34534 35.2164 5.30137 35.2085 5.25963 35.193C5.19242 35.1682 5.13288 35.1247 5.08739 35.0673C5.04189 35.0098 5.01214 34.9404 5.00131 34.8666C4.7943 33.4641 3.07155 21.1252 6.34426 19.5129C9.76579 17.8253 14.8416 25.2914 15.0555 25.6106C15.1094 25.6923 15.1335 25.7915 15.1235 25.8903C15.1134 25.9891 15.0699 26.0807 15.0007 26.1487L5.65652 35.1033C5.58409 35.1745 5.48891 35.2148 5.38963 35.2163ZM7.44256 20.0868C7.17696 20.0859 6.91453 20.1471 6.67442 20.2662C4.50003 21.3422 5.13473 29.9023 5.66849 33.977L14.2087 25.8007C12.8537 23.862 9.70249 20.0868 7.44769 20.0868H7.44256Z" fill="#1B1529"/>
<path fill-rule="evenodd" clip-rule="evenodd" d="M39.6324 34.8037C39.6324 34.8037 41.6118 21.4139 38.5119 19.8859C35.3469 18.3256 30.2899 25.8491 30.2899 25.8491L39.6324 34.8037Z" fill="#EDAE5D"/>
<path d="M39.6324 35.2162C39.5343 35.2159 39.4399 35.1776 39.3672 35.1086L30.023 26.1593C29.9539 26.0915 29.9102 25.9999 29.8999 25.9013C29.8895 25.8026 29.9132 25.7033 29.9665 25.6213C30.1821 25.3021 35.2545 17.8342 38.6795 19.5236C41.9505 21.1377 40.2294 33.4748 40.0224 34.8773C40.0116 34.9511 39.9819 35.0205 39.9364 35.078C39.8909 35.1354 39.8313 35.1789 39.7641 35.2037C39.7212 35.2157 39.6767 35.22 39.6324 35.2162ZM30.8134 25.8007L39.3501 33.9806C39.8804 29.9058 40.5186 21.3404 38.3442 20.2697C36.1031 19.1649 32.3308 23.6306 30.8134 25.8007Z" fill="#1B1529"/>
<path fill-rule="evenodd" clip-rule="evenodd" d="M5.15697 64.141H40.1063C40.1063 64.141 40.2774 42.799 40.1063 38.3154C39.901 32.8669 36.8558 25.5819 29.9443 24.7677C20.9183 23.7114 15.8168 24.4431 12.7767 25.4205C9.7367 26.3979 5.19291 29.4737 4.93629 37.7953C4.64375 47.2198 5.15697 64.141 5.15697 64.141Z" fill="white"/>
<path d="M5.15698 64.5551C5.05479 64.5547 4.95673 64.5129 4.88336 64.4383C4.81 64.3637 4.76705 64.2623 4.76351 64.1552C4.76351 63.9848 4.25027 47.1175 4.53939 37.779C4.82338 28.5302 10.3115 25.7809 12.6587 25.0258C16.7406 23.7148 22.5709 23.4907 29.9854 24.3587C33.2204 24.7389 35.9474 26.5413 37.8686 29.5758C39.422 32.0274 40.38 35.209 40.4964 38.3009C40.6674 42.7433 40.4964 63.931 40.4964 64.1445C40.4954 64.2537 40.4534 64.3582 40.3794 64.4351C40.3054 64.512 40.2054 64.5551 40.1012 64.5551C40.0492 64.5549 39.9978 64.5439 39.9499 64.5227C39.902 64.5015 39.8586 64.4706 39.8222 64.4318C39.7858 64.3929 39.7571 64.3469 39.7377 64.2964C39.7183 64.2458 39.7087 64.1917 39.7094 64.1373C39.7094 63.9239 39.8805 42.7576 39.7094 38.3332C39.4904 32.526 36.3255 25.9333 29.8981 25.1801C22.5914 24.3246 16.8689 24.538 12.888 25.8167C10.705 26.518 5.59493 29.0898 5.32805 37.8059C5.04235 47.1121 5.54533 63.9597 5.55046 64.1283C5.5537 64.2376 5.5156 64.3438 5.44446 64.4237C5.37331 64.5037 5.2749 64.5509 5.17067 64.5551H5.15698Z" fill="#1B1529"/>
<path d="M15.5858 32.5012H15.5499C14.2993 32.4797 13.8152 31.3103 13.7963 31.2601C13.7761 31.2102 13.7655 31.1566 13.765 31.1023C13.7646 31.0481 13.7743 30.9943 13.7937 30.944C13.8131 30.8937 13.8417 30.8479 13.878 30.8092C13.9143 30.7705 13.9575 30.7397 14.0051 30.7185C14.0527 30.6973 14.1038 30.6862 14.1556 30.6857C14.2073 30.6852 14.2586 30.6954 14.3066 30.7157C14.3546 30.7361 14.3983 30.7661 14.4352 30.8041C14.4721 30.8421 14.5015 30.8874 14.5217 30.9373C14.614 31.1483 14.7598 31.3287 14.9433 31.4587C15.1267 31.5887 15.3407 31.6633 15.5619 31.6744H15.5841C16.4532 31.6744 16.8381 30.7472 17.1563 29.7967C17.1803 29.7249 17.2025 29.6586 17.2247 29.5976C17.2608 29.4949 17.3343 29.4114 17.4291 29.3654C17.524 29.3195 17.6323 29.315 17.7303 29.3528C17.8283 29.3906 17.9079 29.4677 17.9517 29.5671C17.9955 29.6665 17.9999 29.78 17.9638 29.8828C17.9433 29.9402 17.9227 30.0029 17.9005 30.0621C17.6353 30.862 17.0845 32.5012 15.5858 32.5012Z" fill="#1B1529"/>
<path d="M29.532 32.5065H29.4225C28.0265 32.4222 27.4654 30.7938 27.1985 30.0118L27.1558 29.8863C27.1197 29.7836 27.124 29.67 27.1678 29.5706C27.2116 29.4712 27.2913 29.3942 27.3893 29.3563C27.4873 29.3185 27.5956 29.3231 27.6904 29.369C27.7852 29.4149 27.8587 29.4984 27.8948 29.6011L27.9393 29.7303C28.2558 30.6485 28.6612 31.6331 29.479 31.6815C30.1941 31.721 30.5054 30.9642 30.5054 30.9462C30.5252 30.8961 30.5542 30.8505 30.5908 30.8121C30.6274 30.7736 30.6708 30.7431 30.7186 30.7223C30.7664 30.7015 30.8177 30.6908 30.8695 30.6907C30.9213 30.6907 30.9725 30.7013 31.0204 30.722C31.0682 30.7428 31.1117 30.7732 31.1484 30.8115C31.185 30.8499 31.2141 30.8954 31.234 30.9455C31.2538 30.9957 31.264 31.0494 31.2641 31.1037C31.2641 31.1579 31.254 31.2117 31.2342 31.2619C31.2103 31.3103 30.7244 32.5065 29.532 32.5065Z" fill="#1B1529"/>
<path fill-rule="evenodd" clip-rule="evenodd" d="M20.6035 22.9528C20.6035 22.9528 14.6757 18.566 15.9126 16.3296C17.1495 14.0932 19.6164 17.6083 19.6164 17.6083C19.6164 17.6083 20.6429 13.3866 22.8087 14.3012C24.9745 15.2159 20.6035 22.9528 20.6035 22.9528Z" fill="#B02F10"/>
<path d="M20.6035 23.365C20.5226 23.3655 20.4435 23.3391 20.3777 23.2897C19.7396 22.8181 14.1933 18.6142 15.5721 16.1159C15.9827 15.3699 16.5148 15.1887 16.8877 15.1672C17.868 15.1116 18.8825 16.0819 19.4539 16.7544C19.7601 15.881 20.3794 14.4875 21.3631 13.9656C21.6069 13.8335 21.8759 13.7601 22.1502 13.7508C22.4246 13.7415 22.6975 13.7965 22.949 13.9118C23.1248 13.9866 23.2826 14.1015 23.4107 14.2483C23.5389 14.395 23.6342 14.5699 23.6897 14.7601C24.3929 16.9373 21.2947 22.5257 20.9371 23.1552C20.9094 23.2044 20.8723 23.2469 20.8282 23.2803C20.784 23.3136 20.7337 23.337 20.6805 23.3489C20.6553 23.3566 20.6296 23.362 20.6035 23.365ZM16.9716 15.9976H16.9288C16.833 15.9976 16.537 16.0209 16.2445 16.5356C15.5157 17.852 18.3231 20.6821 20.4735 22.3482C21.4828 20.4812 23.404 16.4603 22.9421 15.0291C22.9231 14.9518 22.887 14.8801 22.8368 14.82C22.7866 14.7599 22.7237 14.713 22.653 14.683C22.5056 14.6132 22.345 14.5792 22.1832 14.5835C22.0215 14.5879 21.8628 14.6305 21.7189 14.7081C20.778 15.2067 20.1519 17.0396 19.9894 17.7085C19.971 17.7842 19.9326 17.8529 19.8784 17.9066C19.8243 17.9603 19.7568 17.9968 19.6837 18.0119C19.6105 18.0269 19.5349 18.0198 19.4654 17.9915C19.396 17.9632 19.3356 17.9149 19.2913 17.852C18.9595 17.3714 17.8081 15.9976 16.975 15.9976H16.9716Z" fill="#1B1529"/>
<path fill-rule="evenodd" clip-rule="evenodd" d="M28.2284 19.1166C28.2284 19.1166 23.2467 11.8819 24.9061 9.97005C26.5656 8.05823 28.2695 12.0433 28.2695 12.0433C28.2695 12.0433 30.1274 8.14432 32.0571 9.51989C33.9869 10.8955 28.2284 19.1166 28.2284 19.1166Z" fill="#B02F10"/>
<path d="M28.2284 19.5237C28.1663 19.5239 28.105 19.5086 28.0496 19.4789C27.9943 19.4493 27.9465 19.4062 27.9102 19.3533C27.3816 18.5839 22.7933 11.785 24.617 9.68666C25.1696 9.04999 25.7256 8.9908 26.0951 9.05357C27.0651 9.21498 27.8589 10.3897 28.29 11.177C28.7639 10.3897 29.6586 9.16656 30.7193 8.87422C30.9842 8.79919 31.2618 8.78715 31.5317 8.83897C31.8017 8.89078 32.0571 9.00515 32.2795 9.17373C32.4261 9.28065 32.5498 9.41854 32.6426 9.57852C32.7354 9.73851 32.7953 9.91706 32.8184 10.1027C33.2256 12.5884 29.0273 18.67 28.5415 19.3551C28.5055 19.4069 28.4584 19.4491 28.404 19.4783C28.3497 19.5076 28.2895 19.5231 28.2284 19.5237ZM25.8607 9.85882C25.7204 9.85882 25.4843 9.91263 25.1986 10.2426C24.2047 11.3868 26.4201 15.6606 28.2301 18.3992C29.6278 16.3278 32.3137 11.9159 32.04 10.2426C32.0351 10.1664 32.0141 10.0923 31.9787 10.0257C31.9432 9.95899 31.894 9.9014 31.8347 9.85703C31.7045 9.75618 31.5542 9.68765 31.3951 9.65658C31.2359 9.62551 31.0721 9.63273 30.916 9.67768C29.8896 9.95567 28.9144 11.611 28.6219 12.2262C28.5873 12.295 28.5353 12.3527 28.4717 12.3928C28.4081 12.433 28.3352 12.4541 28.2609 12.4539C28.1862 12.4522 28.1135 12.4283 28.0512 12.3852C27.9888 12.3421 27.9394 12.2813 27.9085 12.21C27.669 11.6469 26.7931 10.0095 25.9668 9.87855C25.9318 9.87098 25.8964 9.86619 25.8607 9.86421V9.85882Z" fill="#1B1529"/>
<path fill-rule="evenodd" clip-rule="evenodd" d="M21.9225 9.41946C21.9225 9.41946 19.589 1.76505 21.5188 0.617248C23.4485 -0.530557 23.8437 3.38274 23.8437 3.38274C23.8437 3.38274 26.4749 0.590347 27.7597 2.33358C29.0444 4.0768 21.9225 9.41946 21.9225 9.41946Z" fill="#B02F10"/>
<path d="M21.9225 9.83906C21.8802 9.83865 21.8382 9.83202 21.7976 9.81934C21.739 9.79795 21.6858 9.76274 21.6422 9.71641C21.5986 9.67008 21.5657 9.61387 21.5461 9.55212C21.1407 8.22138 19.2229 1.51569 21.3254 0.263864C21.9824 -0.127107 22.4888 -0.0123237 22.795 0.154467C23.5751 0.574132 23.9481 1.76857 24.1157 2.57741C24.7436 2.03938 25.806 1.28972 26.7862 1.35249C27.0388 1.36589 27.2853 1.4384 27.5076 1.56471C27.7299 1.69102 27.9224 1.86792 28.071 2.08242C28.1709 2.22152 28.2421 2.38088 28.2801 2.55038C28.3181 2.71989 28.3221 2.89583 28.2917 3.06702C27.9752 5.33034 22.7471 9.31538 22.1518 9.76195C22.0851 9.81246 22.0048 9.83947 21.9225 9.83906ZM22.1911 0.825213C22.0216 0.833229 21.857 0.887642 21.7138 0.983037C20.6411 1.6215 21.2827 5.73028 22.1364 8.75044C23.895 7.37487 27.3046 4.43363 27.5133 2.94686C27.5272 2.88565 27.5286 2.82205 27.5174 2.76024C27.5062 2.69842 27.4826 2.63978 27.4483 2.58817C27.3672 2.46856 27.2614 2.36967 27.1387 2.29887C27.0161 2.22807 26.8798 2.18719 26.74 2.17926C25.8094 2.12008 24.5366 3.23919 24.1243 3.675C24.072 3.73085 24.0056 3.76995 23.9329 3.78773C23.8602 3.80552 23.7842 3.80125 23.7137 3.77543C23.6436 3.74913 23.5819 3.70276 23.5356 3.64158C23.4894 3.5804 23.4604 3.50686 23.4519 3.4293C23.3698 2.61507 23.0191 1.20363 22.4357 0.889774C22.3612 0.844749 22.2771 0.820087 22.1911 0.818043V0.825213Z" fill="#1B1529"/>
<path fill-rule="evenodd" clip-rule="evenodd" d="M8.05504 43.7872C7.97121 42.0529 9.75724 41.0522 11.1464 41.5382C12.5355 42.0242 12.9872 43.0859 12.5698 44.5871C12.0223 46.5401 8.20559 46.9401 8.05504 43.7872Z" fill="#FE7D7B"/>
<path fill-rule="evenodd" clip-rule="evenodd" d="M32.3069 43.7872C32.2231 42.0529 34.0091 41.0522 35.3983 41.5382C36.7874 42.0242 37.2408 43.0859 36.8216 44.5871C36.2742 46.5401 32.4592 46.9401 32.3069 43.7872Z" fill="#FE7D7B"/>
<path d="M22.6667 45.0998C22.5622 45.0998 22.4619 45.0564 22.3879 44.9791C22.3138 44.9018 22.272 44.7969 22.2715 44.6873V43.0858C22.2781 42.9808 22.3225 42.8825 22.3958 42.8106C22.469 42.7387 22.5656 42.6987 22.6659 42.6987C22.7662 42.6987 22.8627 42.7387 22.9359 42.8106C23.0092 42.8825 23.0536 42.9808 23.0602 43.0858V44.6873C23.0602 44.7967 23.0187 44.9016 22.945 44.979C22.8712 45.0564 22.7711 45.0998 22.6667 45.0998Z" fill="#1B1529"/>
<path fill-rule="evenodd" clip-rule="evenodd" d="M20.2186 42.6321C20.1262 41.5847 21.074 40.9767 22.4956 40.9785C24.1038 40.9785 24.942 41.4968 24.9968 42.3039C25.0635 43.2831 24.256 43.9305 22.7488 43.9682C20.9457 44.0094 20.3024 43.5826 20.2186 42.6321Z" fill="#1B1529"/>
<path d="M25.4946 48.8249C24.1944 48.8249 23.2535 47.2108 22.7368 46.0127C22.3382 47.2682 21.5393 48.9379 20.1707 48.7567C18.1178 48.4877 18.0442 44.9475 18.0425 44.7968C18.0416 44.7426 18.0509 44.6887 18.07 44.6383C18.0891 44.5878 18.1175 44.5419 18.1536 44.503C18.1897 44.4642 18.2328 44.4332 18.2804 44.4119C18.328 44.3906 18.3791 44.3794 18.4308 44.3789C18.534 44.3789 18.6331 44.4214 18.7067 44.4972C18.7803 44.573 18.8225 44.6761 18.8243 44.7842C18.8243 44.8147 18.9064 47.7596 20.2631 47.9371C21.3802 48.0788 22.1124 45.5178 22.2818 44.6085C22.2991 44.5188 22.3442 44.4377 22.4101 44.3777C22.476 44.3177 22.559 44.2823 22.6461 44.2769C22.7333 44.2716 22.8196 44.2967 22.8917 44.3482C22.9639 44.3998 23.0177 44.4749 23.0448 44.5619C23.3168 45.4586 24.3467 48.0322 25.5168 47.9981C26.5758 47.9694 27.0565 45.6523 27.1318 44.8416C27.1372 44.7877 27.1527 44.7354 27.1773 44.6877C27.202 44.6401 27.2354 44.598 27.2756 44.5638C27.3158 44.5297 27.362 44.5042 27.4116 44.4888C27.4612 44.4734 27.5132 44.4683 27.5646 44.474C27.6161 44.4796 27.666 44.4958 27.7114 44.5217C27.7569 44.5476 27.7971 44.5826 27.8296 44.6247C27.8622 44.6668 27.8865 44.7153 27.9012 44.7673C27.9159 44.8193 27.9207 44.8738 27.9153 44.9277C27.876 45.3223 27.4722 48.7729 25.5374 48.8249H25.4946Z" fill="#1B1529"/>
<path fill-rule="evenodd" clip-rule="evenodd" d="M25.5254 48.4108C25.498 51.9851 24.8257 56.0867 22.6068 56.1029C19.1665 56.1262 20.2117 48.348 20.2117 48.348C21.9516 48.5758 22.6667 44.6876 22.6667 44.6876C22.6667 44.6876 23.8027 48.4574 25.5254 48.4108Z" fill="#B02F10"/>
<mask id="mask0_15_2465" style="mask-type:luminance" maskUnits="userSpaceOnUse" x="20" y="44" width="6" height="13">
<path d="M25.5254 48.4108C25.498 51.9851 24.8257 56.0867 22.6068 56.1029C19.1665 56.1262 20.2117 48.348 20.2117 48.348C21.9516 48.5758 22.6667 44.6876 22.6667 44.6876C22.6667 44.6876 23.8027 48.4574 25.5254 48.4108Z" fill="white"/>
</mask>
<g mask="url(#mask0_15_2465)">
<path fill-rule="evenodd" clip-rule="evenodd" d="M19.577 55.6634C19.577 55.6634 20.1587 50.6292 22.6034 50.9682C25.0481 51.3071 25.522 56.1028 25.522 56.1028C25.522 56.1028 24.3877 58.1527 22.186 57.8353C19.9842 57.5178 19.577 55.6634 19.577 55.6634Z" fill="#FE7D7B"/>
<path d="M22.6564 58.2835C22.4848 58.2827 22.3133 58.2702 22.1432 58.2459C19.7002 57.8872 19.2212 55.8426 19.2024 55.7566C19.1947 55.7091 19.1947 55.6606 19.2024 55.6131C19.2178 55.475 19.6096 52.2324 21.1099 51.0129C21.3267 50.8291 21.5772 50.6939 21.8459 50.6159C22.1146 50.5378 22.3957 50.5185 22.6718 50.5592C25.3937 50.9376 25.9103 55.8516 25.9223 56.0596C25.9313 56.1464 25.9133 56.2338 25.871 56.3089C25.818 56.3968 24.747 58.2835 22.6564 58.2835ZM19.9825 55.6328C20.0766 55.9395 20.5556 57.1841 22.2441 57.4262C23.8933 57.6648 24.8633 56.3932 25.12 56.0041C24.9591 54.6697 24.2423 51.6119 22.5538 51.3788C22.3812 51.3531 22.2053 51.3653 22.0375 51.4147C21.8696 51.4641 21.7133 51.5496 21.5786 51.6657C20.453 52.5804 20.0492 55.1486 19.9808 55.6328H19.9825Z" fill="#1B1529"/>
</g>
<path d="M22.5914 56.5152C22.2547 56.5221 21.9207 56.4502 21.6138 56.3047C21.3069 56.1592 21.0348 55.9438 20.8174 55.6741C19.1254 53.6457 19.7909 48.5003 19.8217 48.2887C19.8354 48.1804 19.8891 48.082 19.9714 48.0149C20.0537 47.9478 20.1578 47.9173 20.2614 47.93C21.3785 48.0717 22.1107 45.5107 22.2801 44.6014C22.2974 44.5117 22.3425 44.4305 22.4084 44.3706C22.4743 44.3106 22.5573 44.2752 22.6444 44.2699C22.7316 44.2645 22.8179 44.2896 22.89 44.3411C22.9622 44.3927 23.016 44.4678 23.0431 44.5548C23.3151 45.4515 24.345 48.0251 25.5151 47.991C25.5679 47.9891 25.6206 47.9987 25.6697 48.019C25.7189 48.0394 25.7635 48.0701 25.8008 48.1094C25.8388 48.148 25.8689 48.1943 25.8892 48.2455C25.9095 48.2967 25.9196 48.3517 25.9189 48.4071C25.9018 50.8354 25.5425 56.4883 22.6085 56.5081L22.5914 56.5152ZM20.5625 48.7568C20.4461 49.9225 20.1827 53.6601 21.4178 55.1289C21.5619 55.3097 21.743 55.454 21.9477 55.5512C22.1524 55.6484 22.3754 55.696 22.6 55.6903H22.612C24.3706 55.6777 25.0635 52.1805 25.1353 48.7801C24.0233 48.5147 23.2107 47.0889 22.7403 46.0128C22.3793 47.1427 21.6984 48.6026 20.5625 48.7568Z" fill="#1B1529"/>
<path d="M13.5569 40.5376C13.4815 40.5379 13.4076 40.5154 13.344 40.4728C13.2805 40.4303 13.2299 40.3695 13.1984 40.2977C13.1668 40.2259 13.1556 40.1461 13.1661 40.0678C13.1766 39.9895 13.2083 39.9161 13.2575 39.8561C13.9418 39.0204 15.6166 38.1344 16.6294 37.6466C15.2283 36.8037 13.9281 35.2577 13.8631 35.1788C13.8062 35.0953 13.7811 34.9925 13.7926 34.8905C13.8042 34.7886 13.8516 34.6948 13.9256 34.6276C13.9996 34.5603 14.0949 34.5244 14.1928 34.5269C14.2907 34.5293 14.3842 34.5699 14.455 34.6408C14.4738 34.6623 16.2462 36.7696 17.7157 37.27C17.7925 37.2962 17.8598 37.3465 17.9084 37.4141C17.957 37.4817 17.9845 37.5634 17.9873 37.648C17.9901 37.7326 17.968 37.816 17.924 37.887C17.88 37.958 17.8163 38.0131 17.7414 38.0448C16.9031 38.4035 14.5713 39.5208 13.858 40.3978C13.8205 40.4426 13.7741 40.4783 13.7221 40.5025C13.6701 40.5266 13.6137 40.5386 13.5569 40.5376Z" fill="#1B1529"/>
<path d="M31.1179 40.6144C31.0583 40.6149 30.9995 40.6011 30.9458 40.5741C30.8921 40.547 30.8451 40.5074 30.8082 40.4584C30.1239 39.5617 27.8349 38.3439 27.0103 37.9476C26.9367 37.9129 26.875 37.8554 26.8337 37.7828C26.7923 37.7102 26.7732 37.626 26.779 37.5416C26.7847 37.4572 26.8151 37.3768 26.866 37.3111C26.9169 37.2455 26.9858 37.1978 27.0634 37.1746C28.5483 36.7316 30.3959 34.6942 30.4148 34.6745C30.4503 34.6351 30.4928 34.6033 30.54 34.5811C30.5872 34.5589 30.6381 34.5467 30.6898 34.5451C30.7415 34.5435 30.793 34.5526 30.8414 34.5719C30.8897 34.5912 30.934 34.6203 30.9716 34.6575C31.0093 34.6947 31.0395 34.7393 31.0607 34.7888C31.0819 34.8383 31.0936 34.8916 31.0951 34.9458C31.0966 35 31.0879 35.054 31.0695 35.1047C31.0511 35.1554 31.0234 35.2018 30.9879 35.2413C30.9194 35.3166 29.5645 36.8105 28.1343 37.5996C29.13 38.1251 30.7757 39.0756 31.4258 39.9311C31.4718 39.9918 31.5006 40.0649 31.5087 40.142C31.5169 40.2191 31.5042 40.297 31.472 40.3668C31.4399 40.4367 31.3896 40.4956 31.327 40.5369C31.2643 40.5781 31.1919 40.6 31.1179 40.6001V40.6144Z" fill="#1B1529"/>
<path d="M17.6952 42.8161H17.6559L14.1898 42.4433C14.1397 42.4379 14.0911 42.4222 14.0468 42.3971C14.0025 42.372 13.9634 42.338 13.9316 42.2971C13.8998 42.2561 13.8761 42.209 13.8617 42.1585C13.8473 42.1079 13.8425 42.0549 13.8477 42.0024C13.8529 41.9499 13.8678 41.899 13.8918 41.8526C13.9157 41.8062 13.9482 41.7652 13.9872 41.7319C14.0263 41.6986 14.0713 41.6737 14.1195 41.6586C14.1678 41.6435 14.2184 41.6386 14.2685 41.644L17.7345 42.0185C17.8301 42.0317 17.9174 42.0821 17.9791 42.1597C18.0408 42.2373 18.0722 42.3364 18.0673 42.4372C18.0623 42.5381 18.0213 42.6332 17.9523 42.7038C17.8833 42.7743 17.7915 42.8151 17.6952 42.8179V42.8161Z" fill="#EDAE5D"/>
<path d="M14.236 44.7387C14.1372 44.7396 14.0419 44.7005 13.97 44.6296C13.8981 44.5586 13.8551 44.4613 13.85 44.3579C13.8449 44.2546 13.8782 44.1531 13.9428 44.0748C14.0073 43.9965 14.0983 43.9473 14.1967 43.9376L17.6627 43.5648C17.7607 43.5597 17.8569 43.5941 17.9313 43.6611C18.0058 43.728 18.053 43.8223 18.063 43.9245C18.0731 44.0268 18.0454 44.1292 17.9855 44.2106C17.9257 44.2921 17.8383 44.3464 17.7414 44.3624L14.2754 44.7369L14.236 44.7387Z" fill="#EDAE5D"/>
<path d="M27.4295 42.8162C27.3333 42.813 27.2417 42.772 27.173 42.7013C27.1043 42.6306 27.0635 42.5354 27.0588 42.4347C27.054 42.3339 27.0857 42.235 27.1474 42.1576C27.2091 42.0802 27.2964 42.0299 27.3919 42.0168L30.8579 41.6423C30.959 41.6313 31.0602 41.6629 31.1392 41.7302C31.2181 41.7974 31.2683 41.8947 31.2787 42.0007C31.2892 42.1067 31.259 42.2127 31.1948 42.2954C31.1306 42.3781 31.0378 42.4307 30.9366 42.4416L27.4706 42.8144L27.4295 42.8162Z" fill="#EDAE5D"/>
<path d="M30.8972 44.7388H30.8579L27.3919 44.3642C27.3399 44.3615 27.289 44.3477 27.2423 44.3237C27.1956 44.2997 27.154 44.2659 27.1201 44.2246C27.0862 44.1832 27.0608 44.135 27.0453 44.083C27.0297 44.031 27.0245 43.9762 27.0298 43.9219C27.0352 43.8677 27.051 43.8152 27.0764 43.7676C27.1017 43.72 27.1361 43.6783 27.1773 43.6451C27.2185 43.6118 27.2658 43.5877 27.3162 43.5742C27.3666 43.5608 27.4191 43.5582 27.4705 43.5666L30.9366 43.9394C31.0349 43.9492 31.1259 43.9983 31.1905 44.0766C31.2551 44.1549 31.2883 44.2564 31.2833 44.3597C31.2782 44.4631 31.2352 44.5604 31.1633 44.6314C31.0913 44.7023 30.996 44.7414 30.8972 44.7405V44.7388Z" fill="#EDAE5D"/>
<path fill-rule="evenodd" clip-rule="evenodd" d="M12.4534 57.272C12.6245 55.1629 11.8221 53.4 11.4458 51.081C10.8949 47.6735 13.5329 47.8026 12.9358 45.7904C12.1472 43.1271 10.0429 45.2523 10.0429 45.2523C10.0429 45.2523 10.924 42.7146 8.84539 41.9201C6.98408 41.2028 6.49308 43.9449 6.49308 43.9449C6.49308 43.9449 6.01407 41.0324 4.08262 41.6637C1.59345 42.4797 3.41027 45.186 3.41027 45.186C3.41027 45.186 1.08191 44.3915 0.513933 46.2997C-0.0540427 48.208 1.59685 49.0258 2.67292 49.4275C3.956 49.9081 3.58478 51.9096 3.86192 54.9997C4.13906 58.0898 5.72837 59.8259 7.32623 60.2007C9.58958 60.7567 12.296 59.2968 12.4534 57.272Z" fill="white"/>
<path d="M8.3219 60.7423C7.95469 60.7425 7.58861 60.6998 7.23043 60.615C5.69073 60.2455 3.77809 58.5651 3.46673 55.0428C3.39317 54.2232 3.36409 53.4807 3.33843 52.8261C3.26828 50.9716 3.20328 50.0696 2.53608 49.8203C0.454079 49.0401 -0.353405 47.8152 0.141008 46.1814C0.214111 45.906 0.340546 45.6494 0.51244 45.4275C0.684335 45.2057 0.897996 45.0233 1.14009 44.8919C1.61999 44.6557 2.15301 44.5638 2.67978 44.6264C2.45225 44.0741 2.25893 43.3136 2.48475 42.6196C2.69176 41.9829 3.19131 41.5292 3.97314 41.2745C4.22946 41.1777 4.50316 41.1422 4.77426 41.1704C5.04537 41.1986 5.30703 41.29 5.54019 41.4377C5.9734 41.7452 6.31263 42.1775 6.51705 42.6823C6.71962 42.2476 7.03431 41.881 7.42546 41.6242C7.66263 41.4871 7.92624 41.4079 8.19666 41.3924C8.46708 41.3769 8.73736 41.4254 8.98739 41.5345C10.0002 41.9219 10.5681 42.7272 10.6314 43.866C10.64 44.0207 10.64 44.1758 10.6314 44.3305C11.0538 44.0727 11.5516 43.9859 12.0309 44.0866C12.6296 44.248 13.0676 44.7807 13.331 45.6684C13.6646 46.7947 13.1394 47.435 12.6775 47.9999C12.1386 48.6563 11.5809 49.3378 11.8529 51.0129C11.9812 51.8002 12.1592 52.5266 12.332 53.2296C12.6638 54.5836 12.9769 55.8606 12.864 57.3061C12.7956 58.2028 12.2943 59.0511 11.456 59.695C10.5423 60.3808 9.44567 60.7473 8.3219 60.7423ZM2.3342 45.4371C2.03873 45.4284 1.74552 45.4936 1.47882 45.6272C1.33005 45.7086 1.19927 45.8219 1.09494 45.9597C0.990611 46.0974 0.915071 46.2567 0.873222 46.4271C0.520804 47.6071 1.11101 48.4142 2.78756 49.0419C3.9851 49.4903 4.03814 50.8748 4.11341 52.7938C4.13736 53.4376 4.16644 54.1676 4.23658 54.9656C4.51372 58.0486 6.11844 59.5013 7.3981 59.8079C8.01184 59.9411 8.64517 59.9403 9.25858 59.8054C9.872 59.6706 10.4523 59.4046 10.9633 59.0242C11.6151 58.5238 12.0018 57.889 12.0514 57.2308C12.154 55.9233 11.87 54.7666 11.5382 53.4269C11.3671 52.7095 11.1789 51.9652 11.0455 51.1438C10.7033 49.085 11.4851 48.1416 12.0497 47.4529C12.4876 46.9149 12.7511 46.5938 12.5475 45.9052C12.3764 45.3097 12.1215 44.9636 11.8067 44.8793C11.2644 44.7323 10.5374 45.3115 10.303 45.5465C10.239 45.6118 10.1556 45.6524 10.0667 45.6615C9.97778 45.6705 9.88856 45.6476 9.8137 45.5965C9.73885 45.5454 9.68281 45.4691 9.65482 45.3801C9.62684 45.2912 9.62858 45.1949 9.65973 45.1071C9.69053 45.021 10.3765 42.955 8.68972 42.3039C8.54702 42.237 8.39163 42.2051 8.23538 42.2107C8.07913 42.2163 7.92615 42.2592 7.78814 42.3362C7.21161 42.6806 6.9225 43.6669 6.8592 44.0167C6.84212 44.1112 6.7942 44.1965 6.72365 44.258C6.6531 44.3196 6.56433 44.3534 6.47257 44.3538C6.38018 44.3535 6.29088 44.3189 6.22044 44.2562C6.15001 44.1936 6.10297 44.1068 6.08764 44.0113C6.02263 43.6221 5.71812 42.5281 5.10395 42.1336C4.96574 42.0496 4.81144 41.999 4.65224 41.9853C4.49304 41.9717 4.33294 41.9954 4.18356 42.0546C3.6498 42.234 3.32818 42.4976 3.20671 42.876C2.97234 43.5934 3.49412 44.6139 3.71994 44.9457C3.76825 45.0159 3.79423 45.1003 3.79423 45.1869C3.79423 45.2735 3.76825 45.3579 3.71994 45.4281C3.67026 45.4974 3.60125 45.5488 3.52247 45.5751C3.4437 45.6015 3.35905 45.6015 3.28027 45.5752C2.97473 45.4842 2.65869 45.4377 2.34105 45.4371H2.3342Z" fill="#1B1529"/>
<path fill-rule="evenodd" clip-rule="evenodd" d="M32.0109 60.7514C32.1974 58.6441 33.2735 57.0533 34.0279 54.833C35.1348 51.5851 32.5156 51.2246 33.4377 49.3505C34.6558 46.8701 36.3751 49.3505 36.3751 49.3505C36.3751 49.3505 35.9269 46.6926 38.1149 46.289C40.0652 45.9303 40.096 48.7102 40.096 48.7102C40.096 48.7102 41.0489 45.9304 42.8469 46.9042C45.1633 48.1596 42.9256 50.4911 42.9256 50.4911C42.9256 50.4911 45.3498 50.1324 45.5944 52.1159C45.8391 54.0995 44.0753 54.6016 42.9496 54.8061C41.6066 55.0446 41.6408 57.0856 40.8556 60.077C40.0704 63.0685 38.2176 64.4889 36.5787 64.5768C34.252 64.7041 31.8296 62.7744 32.0109 60.7514Z" fill="white"/>
<path d="M36.3665 65C35.6646 64.9934 34.9707 64.8415 34.3249 64.5532C33.679 64.2648 33.0938 63.8455 32.6029 63.3195C31.8843 62.534 31.5319 61.6068 31.6106 60.7119C31.7406 59.2681 32.2607 58.0665 32.8081 56.795C33.0938 56.1332 33.3898 55.4499 33.6464 54.6984C34.1922 53.0969 33.7559 52.3257 33.3351 51.5796C32.9724 50.9394 32.5618 50.213 33.0767 49.1657C33.4839 48.3389 34.0023 47.8941 34.6164 47.8457C35.1054 47.8335 35.5817 48.0089 35.956 48.3389C35.9703 48.1848 35.9949 48.032 36.0295 47.8815C36.2793 46.7732 36.9739 46.0881 38.0345 45.8872C38.2987 45.8244 38.573 45.8254 38.8368 45.89C39.1006 45.9546 39.3469 46.0812 39.5571 46.2603C39.9 46.5839 40.149 47.0022 40.2757 47.4673C40.5614 47.0076 40.9669 46.6435 41.4441 46.4181C41.6986 46.3154 41.9718 46.2734 42.2437 46.2951C42.5156 46.3168 42.7796 46.4017 43.0163 46.5436C43.7417 46.9364 44.1591 47.4744 44.2583 48.1398C44.3644 48.8572 44.0479 49.5746 43.7331 50.0803C44.2608 50.1146 44.7693 50.3008 45.2027 50.6183C45.419 50.7923 45.599 51.011 45.7314 51.2609C45.8638 51.5108 45.9459 51.7865 45.9725 52.071C46.1829 53.7694 45.1838 54.8276 43.0043 55.2167C42.3046 55.3405 42.0925 56.2175 41.7161 58.0306C41.5827 58.6709 41.4304 59.3972 41.2234 60.1828C40.327 63.5903 38.1663 64.9013 36.5889 64.9856L36.3665 65ZM32.4078 60.789C32.3497 61.4418 32.6251 62.1376 33.1845 62.7492C33.6254 63.2157 34.1528 63.5825 34.7343 63.8268C35.3157 64.0711 35.9388 64.1878 36.565 64.1696C37.8823 64.0997 39.6957 62.959 40.4809 59.973C40.6828 59.2 40.8231 58.4862 40.9634 57.8567C41.3534 55.9825 41.6357 54.6285 42.8897 54.4043C44.645 54.0922 45.3601 53.4053 45.2078 52.1786C45.1933 52.0036 45.1445 51.8336 45.0645 51.6793C44.9844 51.525 44.8748 51.3897 44.7425 51.2819C44.0958 50.7672 42.9975 50.9125 42.9872 50.9232C42.9045 50.9382 42.8194 50.925 42.7444 50.8857C42.6693 50.8464 42.6082 50.7829 42.57 50.7046C42.5318 50.6263 42.5185 50.5372 42.532 50.4504C42.5455 50.3636 42.5851 50.2835 42.6451 50.222C42.9171 49.935 43.5997 49.0293 43.4868 48.2779C43.4286 47.8833 43.1583 47.5605 42.6622 47.2915C42.5252 47.2054 42.3716 47.1526 42.2126 47.137C42.0536 47.1215 41.8932 47.1437 41.7435 47.2018C41.0712 47.4762 40.5921 48.5003 40.4638 48.8715C40.4314 48.9614 40.3702 49.0367 40.2907 49.0844C40.2112 49.1322 40.1183 49.1495 40.028 49.1334C39.9376 49.1173 39.8554 49.0688 39.7954 48.9962C39.7354 48.9235 39.7014 48.8313 39.6991 48.7352C39.6991 48.3765 39.5691 47.3489 39.061 46.9095C38.9378 46.8091 38.7945 46.7396 38.6418 46.706C38.4892 46.6724 38.3312 46.6758 38.18 46.7158C36.411 47.0422 36.7446 49.2069 36.76 49.3002C36.7757 49.3922 36.7612 49.4871 36.7187 49.5693C36.6762 49.6515 36.6083 49.7162 36.5262 49.7527C36.4441 49.7891 36.3526 49.7953 36.2667 49.7701C36.1808 49.7449 36.1056 49.6899 36.0535 49.614C35.8619 49.3396 35.2409 48.6402 34.6849 48.6832C34.3598 48.7101 34.057 49.0042 33.7833 49.5584C33.4685 50.2005 33.6755 50.5663 34.0194 51.1725C34.4608 51.9527 35.0646 53.0216 34.3957 54.989C34.1271 55.7745 33.8243 56.4721 33.5318 57.1411C32.9895 58.3947 32.519 59.4833 32.4078 60.789Z" fill="#1B1529"/>
</svg>
